<svg width="353" height="120" viewBox="0 0 353 120" fill="none" xmlns="http://www.w3.org/2000/svg">
<rect x="0.783871" y="0.783871" width="98.4323" height="98.4323" rx="3.13548" fill="#FAFAFA"/>
<rect x="0.783871" y="0.783871" width="98.4323" height="98.4323" rx="3.13548" stroke="#5D59FF" stroke-width="1.56774"/>
<path d="M71.729 51.6357C71.729 56.2568 70.3587 60.7741 67.7913 64.6163C65.224 68.4586 61.575 71.4533 57.3057 73.2217C53.0364 74.9901 48.3386 75.4528 43.8063 74.5513C39.274 73.6497 35.1109 71.4245 31.8433 68.1569C28.5757 64.8893 26.3505 60.7262 25.4489 56.1939C24.5474 51.6616 25.0101 46.9638 26.7785 42.6945C28.5469 38.4252 31.5416 34.7762 35.3839 32.2089C39.2261 29.6415 43.7434 28.2712 48.3645 28.2712V51.6357H71.729Z" fill="#5D59FF"/>
<path d="M75 48.3647C75 45.2965 74.3956 42.2582 73.2215 39.4235C72.0473 36.5888 70.3263 34.0131 68.1567 31.8435C65.9871 29.674 63.4114 27.9529 60.5767 26.7788C57.742 25.6046 54.7038 25.0002 51.6355 25.0002L51.6355 48.3647H75Z" fill="#353395"/>
<path d="M122.576 13.928L121.984 13.4L123.36 13.848V15H118.768V13.848L120.16 13.448L119.936 13.768L119.296 11.688L119.648 11.976H115.424L115.696 11.704L115.008 13.736L114.944 13.496L116.224 13.848V15H112.048V13.848L113.376 13.432L112.864 13.88L116.64 3.768L118.992 3.704L122.576 13.928ZM116 10.696L115.84 10.392H119.28L119.056 10.744L117.392 4.968H117.92L116 10.696ZM123.698 15V13.848L125.202 13.384L124.77 14.088V7.464L125.346 8.168L123.698 7.656V6.504L128.002 6.392V7.544L126.53 8.056L127.01 7.4V10.36L126.434 9.768H130.802L130.226 10.36V7.464L130.578 8.024L129.234 7.656V6.504L133.522 6.392V7.544L132.018 8.056L132.466 7.4V14.088L132.034 13.384L133.522 13.848V15H129.234V13.848L130.594 13.448L130.226 14.088V10.76L130.802 11.368H126.434L127.01 10.76V14.088L126.642 13.448L128.002 13.848V15H123.698ZM141.696 13.864L141.392 13.416L142.768 13.848V14.984L139.968 15.128L139.664 13.592L139.824 13.64C139.398 14.1627 138.934 14.552 138.432 14.808C137.931 15.064 137.414 15.192 136.88 15.192C136.198 15.192 135.632 14.9733 135.184 14.536C134.736 14.0987 134.512 13.4693 134.512 12.648C134.512 12.04 134.64 11.56 134.896 11.208C135.163 10.8453 135.547 10.584 136.048 10.424C136.55 10.264 137.158 10.184 137.872 10.184H139.616L139.456 10.36V9.304C139.456 8.80267 139.334 8.44533 139.088 8.232C138.854 8.01867 138.507 7.912 138.048 7.912C137.824 7.912 137.584 7.93333 137.328 7.976C137.072 8.01867 136.795 8.08267 136.496 8.168L136.72 7.928L136.512 9.224H135.12L134.992 6.888C135.718 6.67467 136.379 6.52 136.976 6.424C137.584 6.31733 138.139 6.264 138.64 6.264C139.632 6.264 140.39 6.47733 140.912 6.904C141.435 7.33067 141.696 7.992 141.696 8.888V13.864ZM136.768 12.424C136.768 12.8187 136.859 13.112 137.04 13.304C137.232 13.4853 137.472 13.576 137.76 13.576C138.027 13.576 138.32 13.496 138.64 13.336C138.96 13.1653 139.264 12.936 139.552 12.648L139.456 13.032V11.208L139.616 11.368H138.24C137.686 11.368 137.302 11.4533 137.088 11.624C136.875 11.7947 136.768 12.0613 136.768 12.424ZM144.706 15.16C144.504 15.16 144.285 15.1387 144.05 15.096C143.826 15.0533 143.581 14.9947 143.314 14.92L143.634 13.176C143.741 13.1973 143.837 13.2133 143.922 13.224C144.008 13.2347 144.093 13.24 144.178 13.24C144.733 13.24 145.144 13.016 145.41 12.568C145.677 12.12 145.853 11.464 145.938 10.6C146.024 9.736 146.072 8.68533 146.082 7.448L146.658 8.12L144.914 7.592V6.456H152.882V7.592L151.378 8.104L151.81 7.4V13.688L151.65 13.496L152.882 13.848V15H148.514V13.848L149.746 13.496L149.57 13.688V7.464L149.922 8.104H147.138L147.794 7.496C147.784 8.66933 147.73 9.73067 147.634 10.68C147.549 11.6187 147.394 12.424 147.17 13.096C146.946 13.7573 146.632 14.2693 146.226 14.632C145.832 14.984 145.325 15.16 144.706 15.16ZM157.104 13.688L156.944 13.496L158.176 13.848V15H153.792V13.848L155.024 13.496L154.864 13.688V7.848L155.008 7.992L153.792 7.656V6.504L157.104 6.392V13.688ZM155.92 5.144C155.525 5.144 155.205 5.032 154.96 4.808C154.725 4.584 154.608 4.264 154.608 3.848C154.608 3.4 154.731 3.06933 154.976 2.856C155.232 2.632 155.552 2.52 155.936 2.52C156.309 2.52 156.619 2.632 156.864 2.856C157.109 3.06933 157.232 3.39467 157.232 3.832C157.232 4.26933 157.104 4.6 156.848 4.824C156.603 5.03733 156.293 5.144 155.92 5.144ZM160.374 15V13.864L162.118 13.448L161.686 14.024V7.752L162.182 8.104H159.91L160.358 7.672L159.974 9.416H158.614V6.456H166.998V9.416H165.638L165.286 7.752L165.686 8.104H163.462L163.926 7.752V14.024L163.542 13.448L165.254 13.864V15H160.374ZM167.558 15V13.848L169.062 13.384L168.63 13.848V7.672L169.206 8.168L167.558 7.656V6.504L171.75 6.392V7.544L170.278 8.056L170.758 7.624V11.672L170.454 11.592L174.39 8.104L174.246 8.424L174.23 7.672L174.582 8.024L173.238 7.656V6.504L177.43 6.392V7.544L175.926 8.056L176.358 7.624V13.848L175.926 13.384L177.43 13.848V15H173.238V13.848L174.598 13.448L174.23 13.848V9.448L174.486 9.752L170.582 13.4L170.758 13.048V13.848L170.63 13.544L171.75 13.848V15H167.558ZM178.339 15V13.848L179.683 13.464L179.411 13.88V7.592L179.731 8.024L178.339 7.656V6.504L182.579 6.392V7.544L181.427 7.928L181.651 7.592V10.2L181.283 9.736H183.411L182.723 10.136L184.323 7.64L184.483 7.88L183.363 7.656V6.52L187.251 6.392V7.528L185.923 7.832L186.515 7.496L184.387 10.712L184.579 10.136L186.627 13.816L186.323 13.544L187.539 13.864V15H184.915L182.915 11.16L183.251 11.224H181.283L181.651 11.16V13.88L181.411 13.448L182.739 13.848V15H178.339ZM195.04 13.864L194.736 13.416L196.112 13.848V14.984L193.312 15.128L193.008 13.592L193.168 13.64C192.741 14.1627 192.277 14.552 191.776 14.808C191.275 15.064 190.757 15.192 190.224 15.192C189.541 15.192 188.976 14.9733 188.528 14.536C188.08 14.0987 187.856 13.4693 187.856 12.648C187.856 12.04 187.984 11.56 188.24 11.208C188.507 10.8453 188.891 10.584 189.392 10.424C189.893 10.264 190.501 10.184 191.216 10.184H192.96L192.8 10.36V9.304C192.8 8.80267 192.677 8.44533 192.432 8.232C192.197 8.01867 191.851 7.912 191.392 7.912C191.168 7.912 190.928 7.93333 190.672 7.976C190.416 8.01867 190.139 8.08267 189.84 8.168L190.064 7.928L189.856 9.224H188.464L188.336 6.888C189.061 6.67467 189.723 6.52 190.32 6.424C190.928 6.31733 191.483 6.264 191.984 6.264C192.976 6.264 193.733 6.47733 194.256 6.904C194.779 7.33067 195.04 7.992 195.04 8.888V13.864ZM190.112 12.424C190.112 12.8187 190.203 13.112 190.384 13.304C190.576 13.4853 190.816 13.576 191.104 13.576C191.371 13.576 191.664 13.496 191.984 13.336C192.304 13.1653 192.608 12.936 192.896 12.648L192.8 13.032V11.208L192.96 11.368H191.584C191.029 11.368 190.645 11.4533 190.432 11.624C190.219 11.7947 190.112 12.0613 190.112 12.424ZM199.412 17.752L199.364 13.784L201.06 13.416L199.956 13.816C200.297 13.5707 200.591 13.2933 200.836 12.984C201.092 12.664 201.3 12.2747 201.46 11.816C201.631 11.3573 201.759 10.792 201.844 10.12C201.929 9.43733 201.972 8.61067 201.972 7.64L202.548 8.12L200.804 7.592V6.456H208.724V7.592L207.22 8.104L207.668 7.656V13.8L207.236 13.448L209.268 13.816L209.204 17.752H207.844L207.364 14.712L207.86 15H200.74L201.252 14.712L200.788 17.752H199.412ZM201.908 13.72L201.924 13.352H205.796L205.428 13.704V7.608L205.78 8.104H203.14L203.556 7.608C203.556 8.696 203.513 9.63467 203.428 10.424C203.343 11.2133 203.177 11.8747 202.932 12.408C202.697 12.9413 202.356 13.3787 201.908 13.72ZM217.181 13.864L216.877 13.416L218.253 13.848V14.984L215.453 15.128L215.149 13.592L215.309 13.64C214.882 14.1627 214.418 14.552 213.917 14.808C213.415 15.064 212.898 15.192 212.365 15.192C211.682 15.192 211.117 14.9733 210.669 14.536C210.221 14.0987 209.997 13.4693 209.997 12.648C209.997 12.04 210.125 11.56 210.381 11.208C210.647 10.8453 211.031 10.584 211.533 10.424C212.034 10.264 212.642 10.184 213.357 10.184H215.101L214.941 10.36V9.304C214.941 8.80267 214.818 8.44533 214.573 8.232C214.338 8.01867 213.991 7.912 213.533 7.912C213.309 7.912 213.069 7.93333 212.813 7.976C212.557 8.01867 212.279 8.08267 211.981 8.168L212.205 7.928L211.997 9.224H210.605L210.477 6.888C211.202 6.67467 211.863 6.52 212.461 6.424C213.069 6.31733 213.623 6.264 214.125 6.264C215.117 6.264 215.874 6.47733 216.397 6.904C216.919 7.33067 217.181 7.992 217.181 8.888V13.864ZM212.253 12.424C212.253 12.8187 212.343 13.112 212.525 13.304C212.717 13.4853 212.957 13.576 213.245 13.576C213.511 13.576 213.805 13.496 214.125 13.336C214.445 13.1653 214.749 12.936 215.037 12.648L214.941 13.032V11.208L215.101 11.368H213.725C213.17 11.368 212.786 11.4533 212.573 11.624C212.359 11.7947 212.253 12.0613 212.253 12.424ZM218.902 15V13.848L220.406 13.384L219.974 14.088V7.464L220.549 8.168L218.902 7.656V6.504L223.206 6.392V7.544L221.734 8.056L222.214 7.4V10.36L221.638 9.768H226.006L225.43 10.36V7.464L225.782 8.024L224.438 7.656V6.504L228.726 6.392V7.544L227.222 8.056L227.67 7.4V14.088L227.238 13.384L228.726 13.848V15H224.438V13.848L225.798 13.448L225.43 14.088V10.76L226.006 11.368H221.638L222.214 10.76V14.088L221.846 13.448L223.206 13.848V15H218.902ZM229.652 15V13.848L231.156 13.384L230.724 13.848V7.672L231.299 8.168L229.652 7.656V6.504L233.844 6.392V7.544L232.372 8.056L232.852 7.624V11.672L232.548 11.592L236.484 8.104L236.34 8.424L236.324 7.672L236.676 8.024L235.332 7.656V6.504L239.524 6.392V7.544L238.02 8.056L238.452 7.624V13.848L238.02 13.384L239.524 13.848V15H235.332V13.848L236.692 13.448L236.324 13.848V9.448L236.58 9.752L232.676 13.4L232.852 13.048V13.848L232.724 13.544L233.844 13.848V15H229.652ZM240.129 15V13.864L241.457 13.56L240.913 13.864L243.425 10.392L243.937 10.344L246.513 6.52L248.705 6.392V7.528L247.345 7.88L247.985 7.528L245.553 10.808L245.073 10.84L242.337 15H240.129ZM244.641 15V13.848L245.681 13.656L245.553 13.96L243.553 11.128L240.977 7.544L241.425 7.928L240.321 7.672V6.52L244.289 6.392V7.528L243.217 7.768L243.377 7.432L245.121 9.96L247.985 13.848L247.601 13.544L248.881 13.848V15H244.641Z" fill="#1E1E1E"/>
<path d="M118.545 45L117.49 42.2812H114.057L113.008 45H112L115.352 36.3984H116.248L119.576 45H118.545ZM117.191 41.3965L116.189 38.6953C116.166 38.625 116.127 38.5098 116.072 38.3496C116.021 38.1895 115.969 38.0234 115.914 37.8516C115.859 37.6797 115.814 37.541 115.779 37.4355C115.74 37.5957 115.697 37.7559 115.65 37.916C115.607 38.0723 115.564 38.2188 115.521 38.3555C115.479 38.4883 115.441 38.6016 115.41 38.6953L114.391 41.3965H117.191ZM121.598 38.5781V41.2734H125.178V38.5781H126.15V45H125.178V42.0996H121.598V45H120.619V38.5781H121.598ZM130.615 38.4727C131.381 38.4727 131.949 38.6445 132.32 38.9883C132.691 39.332 132.877 39.8809 132.877 40.6348V45H132.168L131.98 44.0508H131.934C131.754 44.2852 131.566 44.4824 131.371 44.6426C131.176 44.7988 130.949 44.918 130.691 45C130.438 45.0781 130.125 45.1172 129.754 45.1172C129.363 45.1172 129.016 45.0488 128.711 44.9121C128.41 44.7754 128.172 44.5684 127.996 44.291C127.824 44.0137 127.738 43.6621 127.738 43.2363C127.738 42.5957 127.992 42.1035 128.5 41.7598C129.008 41.416 129.781 41.2285 130.82 41.1973L131.928 41.1504V40.7578C131.928 40.2031 131.809 39.8145 131.57 39.5918C131.332 39.3691 130.996 39.2578 130.562 39.2578C130.227 39.2578 129.906 39.3066 129.602 39.4043C129.297 39.502 129.008 39.6172 128.734 39.75L128.436 39.0117C128.725 38.8633 129.057 38.7363 129.432 38.6309C129.807 38.5254 130.201 38.4727 130.615 38.4727ZM131.916 41.8359L130.938 41.877C130.137 41.9082 129.572 42.0391 129.244 42.2695C128.916 42.5 128.752 42.8262 128.752 43.248C128.752 43.6152 128.863 43.8867 129.086 44.0625C129.309 44.2383 129.604 44.3262 129.971 44.3262C130.541 44.3262 131.008 44.168 131.371 43.8516C131.734 43.5352 131.916 43.0605 131.916 42.4277V41.8359ZM139.697 45H138.707V39.3926H136.756C136.678 40.4043 136.578 41.2715 136.457 41.9941C136.34 42.7129 136.191 43.3008 136.012 43.7578C135.836 44.2109 135.621 44.5449 135.367 44.7598C135.117 44.9707 134.818 45.0762 134.471 45.0762C134.365 45.0762 134.266 45.0703 134.172 45.0586C134.078 45.0469 133.998 45.0273 133.932 45V44.2617C133.982 44.2773 134.035 44.2891 134.09 44.2969C134.148 44.3047 134.209 44.3086 134.271 44.3086C134.447 44.3086 134.607 44.2363 134.752 44.0918C134.9 43.9434 135.033 43.7207 135.15 43.4238C135.271 43.127 135.379 42.752 135.473 42.2988C135.566 41.8418 135.648 41.3047 135.719 40.6875C135.793 40.0664 135.857 39.3633 135.912 38.5781H139.697V45ZM142.721 38.5781V45H141.748V38.5781H142.721ZM142.246 36.1758C142.406 36.1758 142.543 36.2285 142.656 36.334C142.773 36.4355 142.832 36.5957 142.832 36.8145C142.832 37.0293 142.773 37.1895 142.656 37.2949C142.543 37.4004 142.406 37.4531 142.246 37.4531C142.078 37.4531 141.938 37.4004 141.824 37.2949C141.715 37.1895 141.66 37.0293 141.66 36.8145C141.66 36.5957 141.715 36.4355 141.824 36.334C141.938 36.2285 142.078 36.1758 142.246 36.1758ZM146.436 38.4609C146.916 38.4609 147.332 38.5273 147.684 38.6602C148.035 38.7891 148.307 38.9785 148.498 39.2285C148.689 39.4785 148.785 39.7832 148.785 40.1426C148.785 40.5293 148.68 40.8379 148.469 41.0684C148.258 41.2988 147.967 41.4648 147.596 41.5664V41.6133C147.857 41.6836 148.094 41.7852 148.305 41.918C148.52 42.0469 148.689 42.2188 148.814 42.4336C148.943 42.6445 149.008 42.9082 149.008 43.2246C149.008 43.584 148.91 43.9082 148.715 44.1973C148.52 44.4824 148.223 44.707 147.824 44.8711C147.426 45.0352 146.922 45.1172 146.312 45.1172C146.012 45.1172 145.727 45.0996 145.457 45.0645C145.188 45.0332 144.943 44.9863 144.725 44.9238C144.506 44.8613 144.314 44.7871 144.15 44.7012V43.8164C144.424 43.9492 144.744 44.0664 145.111 44.168C145.479 44.2695 145.875 44.3203 146.301 44.3203C146.629 44.3203 146.924 44.2832 147.186 44.209C147.447 44.1309 147.654 44.0078 147.807 43.8398C147.963 43.668 148.041 43.4434 148.041 43.166C148.041 42.9121 147.973 42.7031 147.836 42.5391C147.699 42.3711 147.494 42.248 147.221 42.1699C146.951 42.0879 146.609 42.0469 146.195 42.0469H145.334V41.25H146.043C146.594 41.25 147.033 41.1719 147.361 41.0156C147.689 40.8594 147.854 40.5957 147.854 40.2246C147.854 39.9043 147.727 39.666 147.473 39.5098C147.219 39.3496 146.855 39.2695 146.383 39.2695C146.031 39.2695 145.721 39.3066 145.451 39.3809C145.182 39.4512 144.891 39.5527 144.578 39.6855L144.232 38.9062C144.568 38.7578 144.92 38.6465 145.287 38.5723C145.654 38.498 146.037 38.4609 146.436 38.4609ZM154.674 38.5781V45H153.701V38.5781H154.674ZM154.199 36.1758C154.359 36.1758 154.496 36.2285 154.609 36.334C154.727 36.4355 154.785 36.5957 154.785 36.8145C154.785 37.0293 154.727 37.1895 154.609 37.2949C154.496 37.4004 154.359 37.4531 154.199 37.4531C154.031 37.4531 153.891 37.4004 153.777 37.2949C153.668 37.1895 153.613 37.0293 153.613 36.8145C153.613 36.5957 153.668 36.4355 153.777 36.334C153.891 36.2285 154.031 36.1758 154.199 36.1758ZM164.957 40.1895C164.957 40.5918 164.84 40.9062 164.605 41.1328C164.371 41.3555 164.068 41.5059 163.697 41.584V41.6309C164.1 41.6855 164.445 41.8301 164.734 42.0645C165.027 42.2949 165.174 42.6484 165.174 43.125C165.174 43.4922 165.086 43.8164 164.91 44.0977C164.734 44.3789 164.459 44.5996 164.084 44.7598C163.709 44.9199 163.221 45 162.619 45H159.854V38.5781H162.596C163.057 38.5781 163.463 38.6309 163.814 38.7363C164.17 38.8379 164.449 39.0059 164.652 39.2402C164.855 39.4746 164.957 39.791 164.957 40.1895ZM164.16 43.125C164.16 42.7461 164.016 42.4727 163.727 42.3047C163.441 42.1367 163.025 42.0527 162.479 42.0527H160.832V44.209H162.502C163.041 44.209 163.451 44.127 163.732 43.9629C164.018 43.7949 164.16 43.5156 164.16 43.125ZM163.967 40.3008C163.967 39.9961 163.855 39.7695 163.633 39.6211C163.41 39.4688 163.045 39.3926 162.537 39.3926H160.832V41.2383H162.367C162.895 41.2383 163.293 41.1621 163.562 41.0098C163.832 40.8574 163.967 40.6211 163.967 40.3008ZM167.67 38.5781V42.6152C167.67 42.6934 167.668 42.7949 167.664 42.9199C167.66 43.041 167.654 43.1719 167.646 43.3125C167.639 43.4492 167.631 43.582 167.623 43.7109C167.619 43.8359 167.613 43.9395 167.605 44.0215L171.109 38.5781H172.305V45H171.396V41.0625C171.396 40.9375 171.398 40.7773 171.402 40.582C171.406 40.3867 171.412 40.1953 171.42 40.0078C171.428 39.8164 171.434 39.668 171.438 39.5625L167.945 45H166.744V38.5781H167.67ZM178.117 38.5781H179.189L176.418 41.6777L179.412 45H178.27L175.352 41.7422V45H174.373V38.5781H175.352V41.6953L178.117 38.5781ZM186.109 41.7773C186.109 42.3047 186.041 42.7754 185.904 43.1895C185.768 43.6035 185.57 43.9531 185.312 44.2383C185.055 44.5234 184.742 44.7422 184.375 44.8945C184.012 45.043 183.6 45.1172 183.139 45.1172C182.709 45.1172 182.314 45.043 181.955 44.8945C181.6 44.7422 181.291 44.5234 181.029 44.2383C180.771 43.9531 180.57 43.6035 180.426 43.1895C180.285 42.7754 180.215 42.3047 180.215 41.7773C180.215 41.0742 180.334 40.4766 180.572 39.9844C180.811 39.4883 181.15 39.1113 181.592 38.8535C182.037 38.5918 182.566 38.4609 183.18 38.4609C183.766 38.4609 184.277 38.5918 184.715 38.8535C185.156 39.1152 185.498 39.4941 185.74 39.9902C185.986 40.4824 186.109 41.0781 186.109 41.7773ZM181.223 41.7773C181.223 42.293 181.291 42.7402 181.428 43.1191C181.564 43.498 181.775 43.791 182.061 43.998C182.346 44.2051 182.713 44.3086 183.162 44.3086C183.607 44.3086 183.973 44.2051 184.258 43.998C184.547 43.791 184.76 43.498 184.896 43.1191C185.033 42.7402 185.102 42.293 185.102 41.7773C185.102 41.2656 185.033 40.8242 184.896 40.4531C184.76 40.0781 184.549 39.7891 184.264 39.5859C183.979 39.3828 183.609 39.2812 183.156 39.2812C182.488 39.2812 181.998 39.502 181.686 39.9434C181.377 40.3848 181.223 40.9961 181.223 41.7773ZM190.809 38.4609C191.609 38.4609 192.248 38.7363 192.725 39.2871C193.201 39.8379 193.439 40.666 193.439 41.7715C193.439 42.502 193.33 43.1152 193.111 43.6113C192.893 44.1074 192.584 44.4824 192.186 44.7363C191.791 44.9902 191.324 45.1172 190.785 45.1172C190.445 45.1172 190.146 45.0723 189.889 44.9824C189.631 44.8926 189.41 44.7715 189.227 44.6191C189.043 44.4668 188.891 44.3008 188.77 44.1211H188.699C188.711 44.2734 188.725 44.457 188.74 44.6719C188.76 44.8867 188.77 45.0742 188.77 45.2344V47.8711H187.791V38.5781H188.594L188.723 39.5273H188.77C188.895 39.332 189.047 39.1543 189.227 38.9941C189.406 38.8301 189.625 38.7012 189.883 38.6074C190.145 38.5098 190.453 38.4609 190.809 38.4609ZM190.639 39.2812C190.193 39.2812 189.834 39.3672 189.561 39.5391C189.291 39.7109 189.094 39.9688 188.969 40.3125C188.844 40.6523 188.777 41.0801 188.77 41.5957V41.7832C188.77 42.3262 188.828 42.7852 188.945 43.1602C189.066 43.5352 189.264 43.8203 189.537 44.0156C189.814 44.2109 190.186 44.3086 190.65 44.3086C191.049 44.3086 191.381 44.2012 191.646 43.9863C191.912 43.7715 192.109 43.4727 192.238 43.0898C192.371 42.7031 192.438 42.2598 192.438 41.7598C192.438 41.002 192.289 40.4004 191.992 39.9551C191.699 39.5059 191.248 39.2812 190.639 39.2812ZM196.064 38.5781V42.6152C196.064 42.6934 196.062 42.7949 196.059 42.9199C196.055 43.041 196.049 43.1719 196.041 43.3125C196.033 43.4492 196.025 43.582 196.018 43.7109C196.014 43.8359 196.008 43.9395 196 44.0215L199.504 38.5781H200.699V45H199.791V41.0625C199.791 40.9375 199.793 40.7773 199.797 40.582C199.801 40.3867 199.807 40.1953 199.814 40.0078C199.822 39.8164 199.828 39.668 199.832 39.5625L196.34 45H195.139V38.5781H196.064ZM205.34 45.1172C204.762 45.1172 204.252 44.998 203.811 44.7598C203.369 44.5215 203.025 44.1582 202.779 43.6699C202.533 43.1816 202.41 42.5664 202.41 41.8242C202.41 41.0469 202.539 40.4121 202.797 39.9199C203.059 39.4238 203.418 39.0566 203.875 38.8184C204.332 38.5801 204.852 38.4609 205.434 38.4609C205.754 38.4609 206.062 38.4941 206.359 38.5605C206.66 38.623 206.906 38.7031 207.098 38.8008L206.805 39.6152C206.609 39.5371 206.383 39.4668 206.125 39.4043C205.871 39.3418 205.633 39.3105 205.41 39.3105C204.965 39.3105 204.594 39.4062 204.297 39.5977C204.004 39.7891 203.783 40.0703 203.635 40.4414C203.49 40.8125 203.418 41.2695 203.418 41.8125C203.418 42.332 203.488 42.7754 203.629 43.1426C203.773 43.5098 203.986 43.791 204.268 43.9863C204.553 44.1777 204.908 44.2734 205.334 44.2734C205.674 44.2734 205.98 44.2383 206.254 44.168C206.527 44.0938 206.775 44.0078 206.998 43.9102V44.7773C206.783 44.8867 206.543 44.9707 206.277 45.0293C206.016 45.0879 205.703 45.1172 205.34 45.1172ZM212.898 39.4043H210.783V45H209.822V39.4043H207.736V38.5781H212.898V39.4043ZM216.572 38.4727C217.338 38.4727 217.906 38.6445 218.277 38.9883C218.648 39.332 218.834 39.8809 218.834 40.6348V45H218.125L217.938 44.0508H217.891C217.711 44.2852 217.523 44.4824 217.328 44.6426C217.133 44.7988 216.906 44.918 216.648 45C216.395 45.0781 216.082 45.1172 215.711 45.1172C215.32 45.1172 214.973 45.0488 214.668 44.9121C214.367 44.7754 214.129 44.5684 213.953 44.291C213.781 44.0137 213.695 43.6621 213.695 43.2363C213.695 42.5957 213.949 42.1035 214.457 41.7598C214.965 41.416 215.738 41.2285 216.777 41.1973L217.885 41.1504V40.7578C217.885 40.2031 217.766 39.8145 217.527 39.5918C217.289 39.3691 216.953 39.2578 216.52 39.2578C216.184 39.2578 215.863 39.3066 215.559 39.4043C215.254 39.502 214.965 39.6172 214.691 39.75L214.393 39.0117C214.682 38.8633 215.014 38.7363 215.389 38.6309C215.764 38.5254 216.158 38.4727 216.572 38.4727ZM217.873 41.8359L216.895 41.877C216.094 41.9082 215.529 42.0391 215.201 42.2695C214.873 42.5 214.709 42.8262 214.709 43.248C214.709 43.6152 214.82 43.8867 215.043 44.0625C215.266 44.2383 215.561 44.3262 215.928 44.3262C216.498 44.3262 216.965 44.168 217.328 43.8516C217.691 43.5352 217.873 43.0605 217.873 42.4277V41.8359ZM221.816 38.5781V41.2734H225.396V38.5781H226.369V45H225.396V42.0996H221.816V45H220.838V38.5781H221.816ZM229.41 38.5781V41.2734H232.99V38.5781H233.963V45H232.99V42.0996H229.41V45H228.432V38.5781H229.41ZM236.336 45H235.199L237.051 42.293C236.781 42.2344 236.531 42.1348 236.301 41.9941C236.07 41.8496 235.883 41.6523 235.738 41.4023C235.598 41.1523 235.527 40.8418 235.527 40.4707C235.527 39.8535 235.732 39.3848 236.143 39.0645C236.557 38.7402 237.102 38.5781 237.777 38.5781H240.619V45H239.646V42.4219H238.018L236.336 45ZM236.471 40.4766C236.471 40.8594 236.607 41.1445 236.881 41.332C237.154 41.5156 237.545 41.6074 238.053 41.6074H239.646V39.3926H237.883C237.383 39.3926 237.021 39.4941 236.799 39.6973C236.58 39.8965 236.471 40.1562 236.471 40.4766ZM250.492 38.5781V44.1738H251.412V47.2207H250.469V45H245.922V47.2207H244.99V44.1738H245.494C245.861 43.666 246.166 43.1094 246.408 42.5039C246.65 41.8984 246.834 41.2637 246.959 40.5996C247.084 39.9316 247.15 39.2578 247.158 38.5781H250.492ZM249.549 39.3516H248.025C247.99 39.9219 247.906 40.502 247.773 41.0918C247.645 41.6816 247.473 42.2441 247.258 42.7793C247.043 43.3105 246.793 43.7754 246.508 44.1738H249.549V39.3516ZM255.092 38.4727C255.857 38.4727 256.426 38.6445 256.797 38.9883C257.168 39.332 257.354 39.8809 257.354 40.6348V45H256.645L256.457 44.0508H256.41C256.23 44.2852 256.043 44.4824 255.848 44.6426C255.652 44.7988 255.426 44.918 255.168 45C254.914 45.0781 254.602 45.1172 254.23 45.1172C253.84 45.1172 253.492 45.0488 253.188 44.9121C252.887 44.7754 252.648 44.5684 252.473 44.291C252.301 44.0137 252.215 43.6621 252.215 43.2363C252.215 42.5957 252.469 42.1035 252.977 41.7598C253.484 41.416 254.258 41.2285 255.297 41.1973L256.404 41.1504V40.7578C256.404 40.2031 256.285 39.8145 256.047 39.5918C255.809 39.3691 255.473 39.2578 255.039 39.2578C254.703 39.2578 254.383 39.3066 254.078 39.4043C253.773 39.502 253.484 39.6172 253.211 39.75L252.912 39.0117C253.201 38.8633 253.533 38.7363 253.908 38.6309C254.283 38.5254 254.678 38.4727 255.092 38.4727ZM256.393 41.8359L255.414 41.877C254.613 41.9082 254.049 42.0391 253.721 42.2695C253.393 42.5 253.229 42.8262 253.229 43.248C253.229 43.6152 253.34 43.8867 253.562 44.0625C253.785 44.2383 254.08 44.3262 254.447 44.3262C255.018 44.3262 255.484 44.168 255.848 43.8516C256.211 43.5352 256.393 43.0605 256.393 42.4277V41.8359ZM260.336 38.5781V41.2734H263.916V38.5781H264.889V45H263.916V42.0996H260.336V45H259.357V38.5781H260.336ZM267.877 38.5781V42.6152C267.877 42.6934 267.875 42.7949 267.871 42.9199C267.867 43.041 267.861 43.1719 267.854 43.3125C267.846 43.4492 267.838 43.582 267.83 43.7109C267.826 43.8359 267.82 43.9395 267.812 44.0215L271.316 38.5781H272.512V45H271.604V41.0625C271.604 40.9375 271.605 40.7773 271.609 40.582C271.613 40.3867 271.619 40.1953 271.627 40.0078C271.635 39.8164 271.641 39.668 271.645 39.5625L268.152 45H266.951V38.5781H267.877ZM276.109 41.7129L273.889 38.5781H275.002L276.695 41.0508L278.383 38.5781H279.484L277.264 41.7129L279.607 45H278.494L276.695 42.3809L274.885 45H273.783L276.109 41.7129ZM288.684 38.5781V44.1738H289.604V47.2207H288.66V45H284.113V47.2207H283.182V44.1738H283.686C284.053 43.666 284.357 43.1094 284.6 42.5039C284.842 41.8984 285.025 41.2637 285.15 40.5996C285.275 39.9316 285.342 39.2578 285.35 38.5781H288.684ZM287.74 39.3516H286.217C286.182 39.9219 286.098 40.502 285.965 41.0918C285.836 41.6816 285.664 42.2441 285.449 42.7793C285.234 43.3105 284.984 43.7754 284.699 44.1738H287.74V39.3516ZM295.697 45H294.707V39.3926H292.756C292.678 40.4043 292.578 41.2715 292.457 41.9941C292.34 42.7129 292.191 43.3008 292.012 43.7578C291.836 44.2109 291.621 44.5449 291.367 44.7598C291.117 44.9707 290.818 45.0762 290.471 45.0762C290.365 45.0762 290.266 45.0703 290.172 45.0586C290.078 45.0469 289.998 45.0273 289.932 45V44.2617C289.982 44.2773 290.035 44.2891 290.09 44.2969C290.148 44.3047 290.209 44.3086 290.271 44.3086C290.447 44.3086 290.607 44.2363 290.752 44.0918C290.9 43.9434 291.033 43.7207 291.15 43.4238C291.271 43.127 291.379 42.752 291.473 42.2988C291.566 41.8418 291.648 41.3047 291.719 40.6875C291.793 40.0664 291.857 39.3633 291.912 38.5781H295.697V45ZM298.059 45H296.922L298.773 42.293C298.504 42.2344 298.254 42.1348 298.023 41.9941C297.793 41.8496 297.605 41.6523 297.461 41.4023C297.32 41.1523 297.25 40.8418 297.25 40.4707C297.25 39.8535 297.455 39.3848 297.865 39.0645C298.279 38.7402 298.824 38.5781 299.5 38.5781H302.342V45H301.369V42.4219H299.74L298.059 45ZM298.193 40.4766C298.193 40.8594 298.33 41.1445 298.604 41.332C298.877 41.5156 299.268 41.6074 299.775 41.6074H301.369V39.3926H299.605C299.105 39.3926 298.744 39.4941 298.521 39.6973C298.303 39.8965 298.193 40.1562 298.193 40.4766ZM118.562 57.7773C118.562 58.3047 118.494 58.7754 118.357 59.1895C118.221 59.6035 118.023 59.9531 117.766 60.2383C117.508 60.5234 117.195 60.7422 116.828 60.8945C116.465 61.043 116.053 61.1172 115.592 61.1172C115.162 61.1172 114.768 61.043 114.408 60.8945C114.053 60.7422 113.744 60.5234 113.482 60.2383C113.225 59.9531 113.023 59.6035 112.879 59.1895C112.738 58.7754 112.668 58.3047 112.668 57.7773C112.668 57.0742 112.787 56.4766 113.025 55.9844C113.264 55.4883 113.604 55.1113 114.045 54.8535C114.49 54.5918 115.02 54.4609 115.633 54.4609C116.219 54.4609 116.73 54.5918 117.168 54.8535C117.609 55.1152 117.951 55.4941 118.193 55.9902C118.439 56.4824 118.562 57.0781 118.562 57.7773ZM113.676 57.7773C113.676 58.293 113.744 58.7402 113.881 59.1191C114.018 59.498 114.229 59.791 114.514 59.998C114.799 60.2051 115.166 60.3086 115.615 60.3086C116.061 60.3086 116.426 60.2051 116.711 59.998C117 59.791 117.213 59.498 117.35 59.1191C117.486 58.7402 117.555 58.293 117.555 57.7773C117.555 57.2656 117.486 56.8242 117.35 56.4531C117.213 56.0781 117.002 55.7891 116.717 55.5859C116.432 55.3828 116.062 55.2812 115.609 55.2812C114.941 55.2812 114.451 55.502 114.139 55.9434C113.83 56.3848 113.676 56.9961 113.676 57.7773ZM124.621 55.4043H122.506V61H121.545V55.4043H119.459V54.5781H124.621V55.4043ZM128.91 54.4609C129.711 54.4609 130.35 54.7363 130.826 55.2871C131.303 55.8379 131.541 56.666 131.541 57.7715C131.541 58.502 131.432 59.1152 131.213 59.6113C130.994 60.1074 130.686 60.4824 130.287 60.7363C129.893 60.9902 129.426 61.1172 128.887 61.1172C128.547 61.1172 128.248 61.0723 127.99 60.9824C127.732 60.8926 127.512 60.7715 127.328 60.6191C127.145 60.4668 126.992 60.3008 126.871 60.1211H126.801C126.812 60.2734 126.826 60.457 126.842 60.6719C126.861 60.8867 126.871 61.0742 126.871 61.2344V63.8711H125.893V54.5781H126.695L126.824 55.5273H126.871C126.996 55.332 127.148 55.1543 127.328 54.9941C127.508 54.8301 127.727 54.7012 127.984 54.6074C128.246 54.5098 128.555 54.4609 128.91 54.4609ZM128.74 55.2812C128.295 55.2812 127.936 55.3672 127.662 55.5391C127.393 55.7109 127.195 55.9688 127.07 56.3125C126.945 56.6523 126.879 57.0801 126.871 57.5957V57.7832C126.871 58.3262 126.93 58.7852 127.047 59.1602C127.168 59.5352 127.365 59.8203 127.639 60.0156C127.916 60.2109 128.287 60.3086 128.752 60.3086C129.15 60.3086 129.482 60.2012 129.748 59.9863C130.014 59.7715 130.211 59.4727 130.34 59.0898C130.473 58.7031 130.539 58.2598 130.539 57.7598C130.539 57.002 130.391 56.4004 130.094 55.9551C129.801 55.5059 129.35 55.2812 128.74 55.2812ZM134.166 54.5781V58.6152C134.166 58.6934 134.164 58.7949 134.16 58.9199C134.156 59.041 134.15 59.1719 134.143 59.3125C134.135 59.4492 134.127 59.582 134.119 59.7109C134.115 59.8359 134.109 59.9395 134.102 60.0215L137.605 54.5781H138.801V61H137.893V57.0625C137.893 56.9375 137.895 56.7773 137.898 56.582C137.902 56.3867 137.908 56.1953 137.916 56.0078C137.924 55.8164 137.93 55.668 137.934 55.5625L134.441 61H133.24V54.5781H134.166ZM147.648 54.5781V61H146.77V56.8164C146.77 56.6445 146.773 56.4707 146.781 56.2949C146.793 56.1152 146.807 55.9355 146.822 55.7559H146.787L144.654 61H143.828L141.748 55.7559H141.713C141.725 55.9355 141.732 56.1152 141.736 56.2949C141.744 56.4707 141.748 56.6562 141.748 56.8516V61H140.863V54.5781H142.17L144.244 59.8281L146.348 54.5781H147.648ZM152.072 54.4727C152.838 54.4727 153.406 54.6445 153.777 54.9883C154.148 55.332 154.334 55.8809 154.334 56.6348V61H153.625L153.438 60.0508H153.391C153.211 60.2852 153.023 60.4824 152.828 60.6426C152.633 60.7988 152.406 60.918 152.148 61C151.895 61.0781 151.582 61.1172 151.211 61.1172C150.82 61.1172 150.473 61.0488 150.168 60.9121C149.867 60.7754 149.629 60.5684 149.453 60.291C149.281 60.0137 149.195 59.6621 149.195 59.2363C149.195 58.5957 149.449 58.1035 149.957 57.7598C150.465 57.416 151.238 57.2285 152.277 57.1973L153.385 57.1504V56.7578C153.385 56.2031 153.266 55.8145 153.027 55.5918C152.789 55.3691 152.453 55.2578 152.02 55.2578C151.684 55.2578 151.363 55.3066 151.059 55.4043C150.754 55.502 150.465 55.6172 150.191 55.75L149.893 55.0117C150.182 54.8633 150.514 54.7363 150.889 54.6309C151.264 54.5254 151.658 54.4727 152.072 54.4727ZM153.373 57.8359L152.395 57.877C151.594 57.9082 151.029 58.0391 150.701 58.2695C150.373 58.5 150.209 58.8262 150.209 59.248C150.209 59.6152 150.32 59.8867 150.543 60.0625C150.766 60.2383 151.061 60.3262 151.428 60.3262C151.998 60.3262 152.465 60.168 152.828 59.8516C153.191 59.5352 153.373 59.0605 153.373 58.4277V57.8359ZM157.316 54.5781V57.2734H160.896V54.5781H161.869V61H160.896V58.0996H157.316V61H156.338V54.5781H157.316ZM164.91 54.5781V57.2734H168.49V54.5781H169.463V61H168.49V58.0996H164.91V61H163.932V54.5781H164.91ZM171.836 61H170.699L172.551 58.293C172.281 58.2344 172.031 58.1348 171.801 57.9941C171.57 57.8496 171.383 57.6523 171.238 57.4023C171.098 57.1523 171.027 56.8418 171.027 56.4707C171.027 55.8535 171.232 55.3848 171.643 55.0645C172.057 54.7402 172.602 54.5781 173.277 54.5781H176.119V61H175.146V58.4219H173.518L171.836 61ZM171.971 56.4766C171.971 56.8594 172.107 57.1445 172.381 57.332C172.654 57.5156 173.045 57.6074 173.553 57.6074H175.146V55.3926H173.383C172.883 55.3926 172.521 55.4941 172.299 55.6973C172.08 55.8965 171.971 56.1562 171.971 56.4766ZM185.031 54.5781H186.104L183.332 57.6777L186.326 61H185.184L182.266 57.7422V61H181.287V54.5781H182.266V57.6953L185.031 54.5781ZM193.023 57.7773C193.023 58.3047 192.955 58.7754 192.818 59.1895C192.682 59.6035 192.484 59.9531 192.227 60.2383C191.969 60.5234 191.656 60.7422 191.289 60.8945C190.926 61.043 190.514 61.1172 190.053 61.1172C189.623 61.1172 189.229 61.043 188.869 60.8945C188.514 60.7422 188.205 60.5234 187.943 60.2383C187.686 59.9531 187.484 59.6035 187.34 59.1895C187.199 58.7754 187.129 58.3047 187.129 57.7773C187.129 57.0742 187.248 56.4766 187.486 55.9844C187.725 55.4883 188.064 55.1113 188.506 54.8535C188.951 54.5918 189.48 54.4609 190.094 54.4609C190.68 54.4609 191.191 54.5918 191.629 54.8535C192.07 55.1152 192.412 55.4941 192.654 55.9902C192.9 56.4824 193.023 57.0781 193.023 57.7773ZM188.137 57.7773C188.137 58.293 188.205 58.7402 188.342 59.1191C188.479 59.498 188.689 59.791 188.975 59.998C189.26 60.2051 189.627 60.3086 190.076 60.3086C190.521 60.3086 190.887 60.2051 191.172 59.998C191.461 59.791 191.674 59.498 191.811 59.1191C191.947 58.7402 192.016 58.293 192.016 57.7773C192.016 57.2656 191.947 56.8242 191.811 56.4531C191.674 56.0781 191.463 55.7891 191.178 55.5859C190.893 55.3828 190.523 55.2812 190.07 55.2812C189.402 55.2812 188.912 55.502 188.6 55.9434C188.291 56.3848 188.137 56.9961 188.137 57.7773ZM197.723 54.4609C198.523 54.4609 199.162 54.7363 199.639 55.2871C200.115 55.8379 200.354 56.666 200.354 57.7715C200.354 58.502 200.244 59.1152 200.025 59.6113C199.807 60.1074 199.498 60.4824 199.1 60.7363C198.705 60.9902 198.238 61.1172 197.699 61.1172C197.359 61.1172 197.061 61.0723 196.803 60.9824C196.545 60.8926 196.324 60.7715 196.141 60.6191C195.957 60.4668 195.805 60.3008 195.684 60.1211H195.613C195.625 60.2734 195.639 60.457 195.654 60.6719C195.674 60.8867 195.684 61.0742 195.684 61.2344V63.8711H194.705V54.5781H195.508L195.637 55.5273H195.684C195.809 55.332 195.961 55.1543 196.141 54.9941C196.32 54.8301 196.539 54.7012 196.797 54.6074C197.059 54.5098 197.367 54.4609 197.723 54.4609ZM197.553 55.2812C197.107 55.2812 196.748 55.3672 196.475 55.5391C196.205 55.7109 196.008 55.9688 195.883 56.3125C195.758 56.6523 195.691 57.0801 195.684 57.5957V57.7832C195.684 58.3262 195.742 58.7852 195.859 59.1602C195.98 59.5352 196.178 59.8203 196.451 60.0156C196.729 60.2109 197.1 60.3086 197.564 60.3086C197.963 60.3086 198.295 60.2012 198.561 59.9863C198.826 59.7715 199.023 59.4727 199.152 59.0898C199.285 58.7031 199.352 58.2598 199.352 57.7598C199.352 57.002 199.203 56.4004 198.906 55.9551C198.613 55.5059 198.162 55.2812 197.553 55.2812ZM202.979 54.5781V58.6152C202.979 58.6934 202.977 58.7949 202.973 58.9199C202.969 59.041 202.963 59.1719 202.955 59.3125C202.947 59.4492 202.939 59.582 202.932 59.7109C202.928 59.8359 202.922 59.9395 202.914 60.0215L206.418 54.5781H207.613V61H206.705V57.0625C206.705 56.9375 206.707 56.7773 206.711 56.582C206.715 56.3867 206.721 56.1953 206.729 56.0078C206.736 55.8164 206.742 55.668 206.746 55.5625L203.254 61H202.053V54.5781H202.979ZM212.254 61.1172C211.676 61.1172 211.166 60.998 210.725 60.7598C210.283 60.5215 209.939 60.1582 209.693 59.6699C209.447 59.1816 209.324 58.5664 209.324 57.8242C209.324 57.0469 209.453 56.4121 209.711 55.9199C209.973 55.4238 210.332 55.0566 210.789 54.8184C211.246 54.5801 211.766 54.4609 212.348 54.4609C212.668 54.4609 212.977 54.4941 213.273 54.5605C213.574 54.623 213.82 54.7031 214.012 54.8008L213.719 55.6152C213.523 55.5371 213.297 55.4668 213.039 55.4043C212.785 55.3418 212.547 55.3105 212.324 55.3105C211.879 55.3105 211.508 55.4062 211.211 55.5977C210.918 55.7891 210.697 56.0703 210.549 56.4414C210.404 56.8125 210.332 57.2695 210.332 57.8125C210.332 58.332 210.402 58.7754 210.543 59.1426C210.688 59.5098 210.9 59.791 211.182 59.9863C211.467 60.1777 211.822 60.2734 212.248 60.2734C212.588 60.2734 212.895 60.2383 213.168 60.168C213.441 60.0938 213.689 60.0078 213.912 59.9102V60.7773C213.697 60.8867 213.457 60.9707 213.191 61.0293C212.93 61.0879 212.617 61.1172 212.254 61.1172ZM216.414 54.5781V57.2734H219.994V54.5781H220.967V61H219.994V58.0996H216.414V61H215.436V54.5781H216.414ZM228.566 57.7773C228.566 58.3047 228.498 58.7754 228.361 59.1895C228.225 59.6035 228.027 59.9531 227.77 60.2383C227.512 60.5234 227.199 60.7422 226.832 60.8945C226.469 61.043 226.057 61.1172 225.596 61.1172C225.166 61.1172 224.771 61.043 224.412 60.8945C224.057 60.7422 223.748 60.5234 223.486 60.2383C223.229 59.9531 223.027 59.6035 222.883 59.1895C222.742 58.7754 222.672 58.3047 222.672 57.7773C222.672 57.0742 222.791 56.4766 223.029 55.9844C223.268 55.4883 223.607 55.1113 224.049 54.8535C224.494 54.5918 225.023 54.4609 225.637 54.4609C226.223 54.4609 226.734 54.5918 227.172 54.8535C227.613 55.1152 227.955 55.4941 228.197 55.9902C228.443 56.4824 228.566 57.0781 228.566 57.7773ZM223.68 57.7773C223.68 58.293 223.748 58.7402 223.885 59.1191C224.021 59.498 224.232 59.791 224.518 59.998C224.803 60.2051 225.17 60.3086 225.619 60.3086C226.064 60.3086 226.43 60.2051 226.715 59.998C227.004 59.791 227.217 59.498 227.354 59.1191C227.49 58.7402 227.559 58.293 227.559 57.7773C227.559 57.2656 227.49 56.8242 227.354 56.4531C227.217 56.0781 227.006 55.7891 226.721 55.5859C226.436 55.3828 226.066 55.2812 225.613 55.2812C224.945 55.2812 224.455 55.502 224.143 55.9434C223.834 56.3848 223.68 56.9961 223.68 57.7773ZM231.221 61H230.248V54.5781H231.221V61ZM229.076 52.832C229.076 52.6367 229.127 52.4941 229.229 52.4043C229.33 52.3145 229.455 52.2695 229.604 52.2695C229.756 52.2695 229.883 52.3145 229.984 52.4043C230.09 52.4941 230.143 52.6367 230.143 52.832C230.143 53.0234 230.09 53.168 229.984 53.2656C229.883 53.3594 229.756 53.4062 229.604 53.4062C229.455 53.4062 229.33 53.3594 229.229 53.2656C229.127 53.168 229.076 53.0234 229.076 52.832ZM231.326 52.832C231.326 52.6367 231.377 52.4941 231.479 52.4043C231.58 52.3145 231.703 52.2695 231.848 52.2695C231.996 52.2695 232.123 52.3145 232.229 52.4043C232.334 52.4941 232.387 52.6367 232.387 52.832C232.387 53.0234 232.334 53.168 232.229 53.2656C232.123 53.3594 231.996 53.4062 231.848 53.4062C231.703 53.4062 231.58 53.3594 231.479 53.2656C231.377 53.168 231.326 53.0234 231.326 52.832ZM237.373 54.5781V61H236.4V54.5781H237.373ZM236.898 52.1758C237.059 52.1758 237.195 52.2285 237.309 52.334C237.426 52.4355 237.484 52.5957 237.484 52.8145C237.484 53.0293 237.426 53.1895 237.309 53.2949C237.195 53.4004 237.059 53.4531 236.898 53.4531C236.73 53.4531 236.59 53.4004 236.477 53.2949C236.367 53.1895 236.312 53.0293 236.312 52.8145C236.312 52.5957 236.367 52.4355 236.477 52.334C236.59 52.2285 236.73 52.1758 236.898 52.1758ZM240.414 54.5781V57.2734H243.994V54.5781H244.967V61H243.994V58.0996H240.414V61H239.436V54.5781H240.414ZM250.762 51.8828V54.4844C251.398 54.5391 251.953 54.7051 252.426 54.9824C252.898 55.2559 253.266 55.6289 253.527 56.1016C253.789 56.5742 253.92 57.1367 253.92 57.7891C253.92 58.4297 253.793 58.9883 253.539 59.4648C253.289 59.9414 252.928 60.3184 252.455 60.5957C251.986 60.873 251.422 61.0391 250.762 61.0938V63.8828H249.812V61.0938C249.176 61.0469 248.621 60.8867 248.148 60.6133C247.68 60.3359 247.314 59.959 247.053 59.4824C246.791 59.0059 246.66 58.4414 246.66 57.7891C246.66 57.1367 246.785 56.5742 247.035 56.1016C247.289 55.625 247.652 55.25 248.125 54.9766C248.598 54.6992 249.17 54.5352 249.842 54.4844V51.8828H250.762ZM249.842 55.293C249.346 55.3359 248.938 55.4609 248.617 55.668C248.297 55.875 248.059 56.1562 247.902 56.5117C247.75 56.8672 247.674 57.293 247.674 57.7891C247.674 58.2852 247.752 58.7129 247.908 59.0723C248.064 59.4277 248.303 59.709 248.623 59.916C248.943 60.123 249.35 60.25 249.842 60.2969V55.293ZM250.762 55.3047V60.2969C251.254 60.2461 251.658 60.1152 251.975 59.9043C252.295 59.6934 252.531 59.4102 252.684 59.0547C252.84 58.6992 252.918 58.2773 252.918 57.7891C252.918 57.0469 252.74 56.4668 252.385 56.0488C252.029 55.627 251.488 55.3789 250.762 55.3047ZM261.156 57.7773C261.156 58.3047 261.088 58.7754 260.951 59.1895C260.814 59.6035 260.617 59.9531 260.359 60.2383C260.102 60.5234 259.789 60.7422 259.422 60.8945C259.059 61.043 258.646 61.1172 258.186 61.1172C257.756 61.1172 257.361 61.043 257.002 60.8945C256.646 60.7422 256.338 60.5234 256.076 60.2383C255.818 59.9531 255.617 59.6035 255.473 59.1895C255.332 58.7754 255.262 58.3047 255.262 57.7773C255.262 57.0742 255.381 56.4766 255.619 55.9844C255.857 55.4883 256.197 55.1113 256.639 54.8535C257.084 54.5918 257.613 54.4609 258.227 54.4609C258.812 54.4609 259.324 54.5918 259.762 54.8535C260.203 55.1152 260.545 55.4941 260.787 55.9902C261.033 56.4824 261.156 57.0781 261.156 57.7773ZM256.27 57.7773C256.27 58.293 256.338 58.7402 256.475 59.1191C256.611 59.498 256.822 59.791 257.107 59.998C257.393 60.2051 257.76 60.3086 258.209 60.3086C258.654 60.3086 259.02 60.2051 259.305 59.998C259.594 59.791 259.807 59.498 259.943 59.1191C260.08 58.7402 260.148 58.293 260.148 57.7773C260.148 57.2656 260.08 56.8242 259.943 56.4531C259.807 56.0781 259.596 55.7891 259.311 55.5859C259.025 55.3828 258.656 55.2812 258.203 55.2812C257.535 55.2812 257.045 55.502 256.732 55.9434C256.424 56.3848 256.27 56.9961 256.27 57.7773ZM265.855 54.4609C266.656 54.4609 267.295 54.7363 267.771 55.2871C268.248 55.8379 268.486 56.666 268.486 57.7715C268.486 58.502 268.377 59.1152 268.158 59.6113C267.939 60.1074 267.631 60.4824 267.232 60.7363C266.838 60.9902 266.371 61.1172 265.832 61.1172C265.492 61.1172 265.193 61.0723 264.936 60.9824C264.678 60.8926 264.457 60.7715 264.273 60.6191C264.09 60.4668 263.938 60.3008 263.816 60.1211H263.746C263.758 60.2734 263.771 60.457 263.787 60.6719C263.807 60.8867 263.816 61.0742 263.816 61.2344V63.8711H262.838V54.5781H263.641L263.77 55.5273H263.816C263.941 55.332 264.094 55.1543 264.273 54.9941C264.453 54.8301 264.672 54.7012 264.93 54.6074C265.191 54.5098 265.5 54.4609 265.855 54.4609ZM265.686 55.2812C265.24 55.2812 264.881 55.3672 264.607 55.5391C264.338 55.7109 264.141 55.9688 264.016 56.3125C263.891 56.6523 263.824 57.0801 263.816 57.5957V57.7832C263.816 58.3262 263.875 58.7852 263.992 59.1602C264.113 59.5352 264.311 59.8203 264.584 60.0156C264.861 60.2109 265.232 60.3086 265.697 60.3086C266.096 60.3086 266.428 60.2012 266.693 59.9863C266.959 59.7715 267.156 59.4727 267.285 59.0898C267.418 58.7031 267.484 58.2598 267.484 57.7598C267.484 57.002 267.336 56.4004 267.039 55.9551C266.746 55.5059 266.295 55.2812 265.686 55.2812ZM276.965 54.5781V61H276.086V56.8164C276.086 56.6445 276.09 56.4707 276.098 56.2949C276.109 56.1152 276.123 55.9355 276.139 55.7559H276.104L273.971 61H273.145L271.064 55.7559H271.029C271.041 55.9355 271.049 56.1152 271.053 56.2949C271.061 56.4707 271.064 56.6562 271.064 56.8516V61H270.18V54.5781H271.486L273.561 59.8281L275.664 54.5781H276.965ZM281.389 54.4727C282.154 54.4727 282.723 54.6445 283.094 54.9883C283.465 55.332 283.65 55.8809 283.65 56.6348V61H282.941L282.754 60.0508H282.707C282.527 60.2852 282.34 60.4824 282.145 60.6426C281.949 60.7988 281.723 60.918 281.465 61C281.211 61.0781 280.898 61.1172 280.527 61.1172C280.137 61.1172 279.789 61.0488 279.484 60.9121C279.184 60.7754 278.945 60.5684 278.77 60.291C278.598 60.0137 278.512 59.6621 278.512 59.2363C278.512 58.5957 278.766 58.1035 279.273 57.7598C279.781 57.416 280.555 57.2285 281.594 57.1973L282.701 57.1504V56.7578C282.701 56.2031 282.582 55.8145 282.344 55.5918C282.105 55.3691 281.77 55.2578 281.336 55.2578C281 55.2578 280.68 55.3066 280.375 55.4043C280.07 55.502 279.781 55.6172 279.508 55.75L279.209 55.0117C279.498 54.8633 279.83 54.7363 280.205 54.6309C280.58 54.5254 280.975 54.4727 281.389 54.4727ZM282.689 57.8359L281.711 57.877C280.91 57.9082 280.346 58.0391 280.018 58.2695C279.689 58.5 279.525 58.8262 279.525 59.248C279.525 59.6152 279.637 59.8867 279.859 60.0625C280.082 60.2383 280.377 60.3262 280.744 60.3262C281.314 60.3262 281.781 60.168 282.145 59.8516C282.508 59.5352 282.689 59.0605 282.689 58.4277V57.8359ZM291.906 63.2207H290.957V61H285.654V54.5781H286.633V60.1738H290.037V54.5781H291.01V60.1855H291.906V63.2207ZM294.139 54.5781V61H293.166V54.5781H294.139ZM293.664 52.1758C293.824 52.1758 293.961 52.2285 294.074 52.334C294.191 52.4355 294.25 52.5957 294.25 52.8145C294.25 53.0293 294.191 53.1895 294.074 53.2949C293.961 53.4004 293.824 53.4531 293.664 53.4531C293.496 53.4531 293.355 53.4004 293.242 53.2949C293.133 53.1895 293.078 53.0293 293.078 52.8145C293.078 52.5957 293.133 52.4355 293.242 52.334C293.355 52.2285 293.496 52.1758 293.664 52.1758ZM297.174 61H296.201V54.5781H297.174V61ZM295.029 52.832C295.029 52.6367 295.08 52.4941 295.182 52.4043C295.283 52.3145 295.408 52.2695 295.557 52.2695C295.709 52.2695 295.836 52.3145 295.938 52.4043C296.043 52.4941 296.096 52.6367 296.096 52.832C296.096 53.0234 296.043 53.168 295.938 53.2656C295.836 53.3594 295.709 53.4062 295.557 53.4062C295.408 53.4062 295.283 53.3594 295.182 53.2656C295.08 53.168 295.029 53.0234 295.029 52.832ZM297.279 52.832C297.279 52.6367 297.33 52.4941 297.432 52.4043C297.533 52.3145 297.656 52.2695 297.801 52.2695C297.949 52.2695 298.076 52.3145 298.182 52.4043C298.287 52.4941 298.34 52.6367 298.34 52.832C298.34 53.0234 298.287 53.168 298.182 53.2656C298.076 53.3594 297.949 53.4062 297.801 53.4062C297.656 53.4062 297.533 53.3594 297.432 53.2656C297.33 53.168 297.279 53.0234 297.279 52.832ZM300.35 59.6055L300.426 59.7402C300.355 60.0254 300.266 60.3301 300.156 60.6543C300.051 60.9785 299.934 61.3027 299.805 61.627C299.68 61.9551 299.553 62.2617 299.424 62.5469H298.697C298.779 62.2344 298.859 61.9043 298.938 61.5566C299.016 61.2129 299.086 60.873 299.148 60.5371C299.215 60.1973 299.268 59.8867 299.307 59.6055H300.35ZM118.129 72.1895C118.129 72.5918 118.012 72.9062 117.777 73.1328C117.543 73.3555 117.24 73.5059 116.869 73.584V73.6309C117.271 73.6855 117.617 73.8301 117.906 74.0645C118.199 74.2949 118.346 74.6484 118.346 75.125C118.346 75.4922 118.258 75.8164 118.082 76.0977C117.906 76.3789 117.631 76.5996 117.256 76.7598C116.881 76.9199 116.393 77 115.791 77H113.025V70.5781H115.768C116.229 70.5781 116.635 70.6309 116.986 70.7363C117.342 70.8379 117.621 71.0059 117.824 71.2402C118.027 71.4746 118.129 71.791 118.129 72.1895ZM117.332 75.125C117.332 74.7461 117.188 74.4727 116.898 74.3047C116.613 74.1367 116.197 74.0527 115.65 74.0527H114.004V76.209H115.674C116.213 76.209 116.623 76.127 116.904 75.9629C117.189 75.7949 117.332 75.5156 117.332 75.125ZM117.139 72.3008C117.139 71.9961 117.027 71.7695 116.805 71.6211C116.582 71.4688 116.217 71.3926 115.709 71.3926H114.004V73.2383H115.539C116.066 73.2383 116.465 73.1621 116.734 73.0098C117.004 72.8574 117.139 72.6211 117.139 72.3008ZM120.842 70.5781V74.6152C120.842 74.6934 120.84 74.7949 120.836 74.9199C120.832 75.041 120.826 75.1719 120.818 75.3125C120.811 75.4492 120.803 75.582 120.795 75.7109C120.791 75.8359 120.785 75.9395 120.777 76.0215L124.281 70.5781H125.477V77H124.568V73.0625C124.568 72.9375 124.57 72.7773 124.574 72.582C124.578 72.3867 124.584 72.1953 124.592 72.0078C124.6 71.8164 124.605 71.668 124.609 71.5625L121.117 77H119.916V70.5781H120.842ZM127.855 77H126.719L128.57 74.293C128.301 74.2344 128.051 74.1348 127.82 73.9941C127.59 73.8496 127.402 73.6523 127.258 73.4023C127.117 73.1523 127.047 72.8418 127.047 72.4707C127.047 71.8535 127.252 71.3848 127.662 71.0645C128.076 70.7402 128.621 70.5781 129.297 70.5781H132.139V77H131.166V74.4219H129.537L127.855 77ZM127.99 72.4766C127.99 72.8594 128.127 73.1445 128.4 73.332C128.674 73.5156 129.064 73.6074 129.572 73.6074H131.166V71.3926H129.402C128.902 71.3926 128.541 71.4941 128.318 71.6973C128.1 71.8965 127.99 72.1562 127.99 72.4766ZM139.293 72.1895C139.293 72.5918 139.176 72.9062 138.941 73.1328C138.707 73.3555 138.404 73.5059 138.033 73.584V73.6309C138.436 73.6855 138.781 73.8301 139.07 74.0645C139.363 74.2949 139.51 74.6484 139.51 75.125C139.51 75.4922 139.422 75.8164 139.246 76.0977C139.07 76.3789 138.795 76.5996 138.42 76.7598C138.045 76.9199 137.557 77 136.955 77H134.189V70.5781H136.932C137.393 70.5781 137.799 70.6309 138.15 70.7363C138.506 70.8379 138.785 71.0059 138.988 71.2402C139.191 71.4746 139.293 71.791 139.293 72.1895ZM138.496 75.125C138.496 74.7461 138.352 74.4727 138.062 74.3047C137.777 74.1367 137.361 74.0527 136.814 74.0527H135.168V76.209H136.838C137.377 76.209 137.787 76.127 138.068 75.9629C138.354 75.7949 138.496 75.5156 138.496 75.125ZM138.303 72.3008C138.303 71.9961 138.191 71.7695 137.969 71.6211C137.746 71.4688 137.381 71.3926 136.873 71.3926H135.168V73.2383H136.703C137.23 73.2383 137.629 73.1621 137.898 73.0098C138.168 72.8574 138.303 72.6211 138.303 72.3008ZM145.896 77H144.906V71.3926H142.955C142.877 72.4043 142.777 73.2715 142.656 73.9941C142.539 74.7129 142.391 75.3008 142.211 75.7578C142.035 76.2109 141.82 76.5449 141.566 76.7598C141.316 76.9707 141.018 77.0762 140.67 77.0762C140.564 77.0762 140.465 77.0703 140.371 77.0586C140.277 77.0469 140.197 77.0273 140.131 77V76.2617C140.182 76.2773 140.234 76.2891 140.289 76.2969C140.348 76.3047 140.408 76.3086 140.471 76.3086C140.646 76.3086 140.807 76.2363 140.951 76.0918C141.1 75.9434 141.232 75.7207 141.35 75.4238C141.471 75.127 141.578 74.752 141.672 74.2988C141.766 73.8418 141.848 73.3047 141.918 72.6875C141.992 72.0664 142.057 71.3633 142.111 70.5781H145.896V77ZM150.42 70.4609C150.967 70.4609 151.436 70.582 151.826 70.8242C152.217 71.0664 152.516 71.4062 152.723 71.8438C152.93 72.2773 153.033 72.7852 153.033 73.3672V73.9707H148.598C148.609 74.7246 148.797 75.2988 149.16 75.6934C149.523 76.0879 150.035 76.2852 150.695 76.2852C151.102 76.2852 151.461 76.248 151.773 76.1738C152.086 76.0996 152.41 75.9902 152.746 75.8457V76.7012C152.422 76.8457 152.1 76.9512 151.779 77.0176C151.463 77.084 151.088 77.1172 150.654 77.1172C150.037 77.1172 149.498 76.9922 149.037 76.7422C148.58 76.4883 148.225 76.1172 147.971 75.6289C147.717 75.1406 147.59 74.543 147.59 73.8359C147.59 73.1445 147.705 72.5469 147.936 72.043C148.17 71.5352 148.498 71.1445 148.92 70.8711C149.346 70.5977 149.846 70.4609 150.42 70.4609ZM150.408 71.2578C149.889 71.2578 149.475 71.4277 149.166 71.7676C148.857 72.1074 148.674 72.582 148.615 73.1914H152.014C152.01 72.8086 151.949 72.4727 151.832 72.1836C151.719 71.8906 151.545 71.6641 151.311 71.5039C151.076 71.3398 150.775 71.2578 150.408 71.2578ZM155.664 70.5781V73.2734H159.244V70.5781H160.217V77H159.244V74.0996H155.664V77H154.686V70.5781H155.664ZM163.258 70.5781V73.2734H166.838V70.5781H167.811V77H166.838V74.0996H163.258V77H162.279V70.5781H163.258ZM170.184 77H169.047L170.898 74.293C170.629 74.2344 170.379 74.1348 170.148 73.9941C169.918 73.8496 169.73 73.6523 169.586 73.4023C169.445 73.1523 169.375 72.8418 169.375 72.4707C169.375 71.8535 169.58 71.3848 169.99 71.0645C170.404 70.7402 170.949 70.5781 171.625 70.5781H174.467V77H173.494V74.4219H171.865L170.184 77ZM170.318 72.4766C170.318 72.8594 170.455 73.1445 170.729 73.332C171.002 73.5156 171.393 73.6074 171.9 73.6074H173.494V71.3926H171.73C171.23 71.3926 170.869 71.4941 170.646 71.6973C170.428 71.8965 170.318 72.1562 170.318 72.4766ZM184.012 71.4043H181.896V77H180.936V71.4043H178.85V70.5781H184.012V71.4043ZM187.756 70.4609C188.303 70.4609 188.771 70.582 189.162 70.8242C189.553 71.0664 189.852 71.4062 190.059 71.8438C190.266 72.2773 190.369 72.7852 190.369 73.3672V73.9707H185.934C185.945 74.7246 186.133 75.2988 186.496 75.6934C186.859 76.0879 187.371 76.2852 188.031 76.2852C188.438 76.2852 188.797 76.248 189.109 76.1738C189.422 76.0996 189.746 75.9902 190.082 75.8457V76.7012C189.758 76.8457 189.436 76.9512 189.115 77.0176C188.799 77.084 188.424 77.1172 187.99 77.1172C187.373 77.1172 186.834 76.9922 186.373 76.7422C185.916 76.4883 185.561 76.1172 185.307 75.6289C185.053 75.1406 184.926 74.543 184.926 73.8359C184.926 73.1445 185.041 72.5469 185.271 72.043C185.506 71.5352 185.834 71.1445 186.256 70.8711C186.682 70.5977 187.182 70.4609 187.756 70.4609ZM187.744 71.2578C187.225 71.2578 186.811 71.4277 186.502 71.7676C186.193 72.1074 186.01 72.582 185.951 73.1914H189.35C189.346 72.8086 189.285 72.4727 189.168 72.1836C189.055 71.8906 188.881 71.6641 188.646 71.5039C188.412 71.3398 188.111 71.2578 187.744 71.2578ZM193 70.5781V73.2734H196.58V70.5781H197.553V77H196.58V74.0996H193V77H192.021V70.5781H193ZM204.32 70.5781V76.1738H205.24V79.2207H204.297V77H199.75V79.2207H198.818V76.1738H199.322C199.689 75.666 199.994 75.1094 200.236 74.5039C200.479 73.8984 200.662 73.2637 200.787 72.5996C200.912 71.9316 200.979 71.2578 200.986 70.5781H204.32ZM203.377 71.3516H201.854C201.818 71.9219 201.734 72.502 201.602 73.0918C201.473 73.6816 201.301 74.2441 201.086 74.7793C200.871 75.3105 200.621 75.7754 200.336 76.1738H203.377V71.3516ZM208.99 70.4609C209.537 70.4609 210.006 70.582 210.396 70.8242C210.787 71.0664 211.086 71.4062 211.293 71.8438C211.5 72.2773 211.604 72.7852 211.604 73.3672V73.9707H207.168C207.18 74.7246 207.367 75.2988 207.73 75.6934C208.094 76.0879 208.605 76.2852 209.266 76.2852C209.672 76.2852 210.031 76.248 210.344 76.1738C210.656 76.0996 210.98 75.9902 211.316 75.8457V76.7012C210.992 76.8457 210.67 76.9512 210.35 77.0176C210.033 77.084 209.658 77.1172 209.225 77.1172C208.607 77.1172 208.068 76.9922 207.607 76.7422C207.15 76.4883 206.795 76.1172 206.541 75.6289C206.287 75.1406 206.16 74.543 206.16 73.8359C206.16 73.1445 206.275 72.5469 206.506 72.043C206.74 71.5352 207.068 71.1445 207.49 70.8711C207.916 70.5977 208.416 70.4609 208.99 70.4609ZM208.979 71.2578C208.459 71.2578 208.045 71.4277 207.736 71.7676C207.428 72.1074 207.244 72.582 207.186 73.1914H210.584C210.58 72.8086 210.52 72.4727 210.402 72.1836C210.289 71.8906 210.115 71.6641 209.881 71.5039C209.646 71.3398 209.346 71.2578 208.979 71.2578ZM214.234 70.5781V73.2734H217.814V70.5781H218.787V77H217.814V74.0996H214.234V77H213.256V70.5781H214.234ZM227.102 79.2207H226.152V77H220.85V70.5781H221.828V76.1738H225.232V70.5781H226.205V76.1855H227.102V79.2207ZM229.334 70.5781V77H228.361V70.5781H229.334ZM228.859 68.1758C229.02 68.1758 229.156 68.2285 229.27 68.334C229.387 68.4355 229.445 68.5957 229.445 68.8145C229.445 69.0293 229.387 69.1895 229.27 69.2949C229.156 69.4004 229.02 69.4531 228.859 69.4531C228.691 69.4531 228.551 69.4004 228.438 69.2949C228.328 69.1895 228.273 69.0293 228.273 68.8145C228.273 68.5957 228.328 68.4355 228.438 68.334C228.551 68.2285 228.691 68.1758 228.859 68.1758ZM232.322 70.5781V74.6152C232.322 74.6934 232.32 74.7949 232.316 74.9199C232.312 75.041 232.307 75.1719 232.299 75.3125C232.291 75.4492 232.283 75.582 232.275 75.7109C232.271 75.8359 232.266 75.9395 232.258 76.0215L235.762 70.5781H236.957V77H236.049V73.0625C236.049 72.9375 236.051 72.7773 236.055 72.582C236.059 72.3867 236.064 72.1953 236.072 72.0078C236.08 71.8164 236.086 71.668 236.09 71.5625L232.598 77H231.396V70.5781H232.322ZM236.477 67.9355C236.441 68.3301 236.342 68.6602 236.178 68.9258C236.018 69.1914 235.781 69.3926 235.469 69.5293C235.156 69.6621 234.756 69.7285 234.268 69.7285C233.764 69.7285 233.357 69.6641 233.049 69.5352C232.744 69.4023 232.518 69.2031 232.369 68.9375C232.225 68.6719 232.139 68.3379 232.111 67.9355H233.025C233.068 68.3652 233.184 68.6582 233.371 68.8145C233.559 68.9707 233.863 69.0488 234.285 69.0488C234.66 69.0488 234.955 68.9668 235.17 68.8027C235.385 68.6387 235.514 68.3496 235.557 67.9355H236.477ZM246.52 71.4043H244.404V77H243.443V71.4043H241.357V70.5781H246.52V71.4043ZM250.193 70.4727C250.959 70.4727 251.527 70.6445 251.898 70.9883C252.27 71.332 252.455 71.8809 252.455 72.6348V77H251.746L251.559 76.0508H251.512C251.332 76.2852 251.145 76.4824 250.949 76.6426C250.754 76.7988 250.527 76.918 250.27 77C250.016 77.0781 249.703 77.1172 249.332 77.1172C248.941 77.1172 248.594 77.0488 248.289 76.9121C247.988 76.7754 247.75 76.5684 247.574 76.291C247.402 76.0137 247.316 75.6621 247.316 75.2363C247.316 74.5957 247.57 74.1035 248.078 73.7598C248.586 73.416 249.359 73.2285 250.398 73.1973L251.506 73.1504V72.7578C251.506 72.2031 251.387 71.8145 251.148 71.5918C250.91 71.3691 250.574 71.2578 250.141 71.2578C249.805 71.2578 249.484 71.3066 249.18 71.4043C248.875 71.502 248.586 71.6172 248.312 71.75L248.014 71.0117C248.303 70.8633 248.635 70.7363 249.01 70.6309C249.385 70.5254 249.779 70.4727 250.193 70.4727ZM251.494 73.8359L250.516 73.877C249.715 73.9082 249.15 74.0391 248.822 74.2695C248.494 74.5 248.33 74.8262 248.33 75.248C248.33 75.6152 248.441 75.8867 248.664 76.0625C248.887 76.2383 249.182 76.3262 249.549 76.3262C250.119 76.3262 250.586 76.168 250.949 75.8516C251.312 75.5352 251.494 75.0605 251.494 74.4277V73.8359ZM262.955 70.5781V77H261.977V71.416H258.555V77H257.576V70.5781H262.955ZM268.035 70.4609C268.836 70.4609 269.475 70.7363 269.951 71.2871C270.428 71.8379 270.666 72.666 270.666 73.7715C270.666 74.502 270.557 75.1152 270.338 75.6113C270.119 76.1074 269.811 76.4824 269.412 76.7363C269.018 76.9902 268.551 77.1172 268.012 77.1172C267.672 77.1172 267.373 77.0723 267.115 76.9824C266.857 76.8926 266.637 76.7715 266.453 76.6191C266.27 76.4668 266.117 76.3008 265.996 76.1211H265.926C265.938 76.2734 265.951 76.457 265.967 76.6719C265.986 76.8867 265.996 77.0742 265.996 77.2344V79.8711H265.018V70.5781H265.82L265.949 71.5273H265.996C266.121 71.332 266.273 71.1543 266.453 70.9941C266.633 70.8301 266.852 70.7012 267.109 70.6074C267.371 70.5098 267.68 70.4609 268.035 70.4609ZM267.865 71.2812C267.42 71.2812 267.061 71.3672 266.787 71.5391C266.518 71.7109 266.32 71.9688 266.195 72.3125C266.07 72.6523 266.004 73.0801 265.996 73.5957V73.7832C265.996 74.3262 266.055 74.7852 266.172 75.1602C266.293 75.5352 266.49 75.8203 266.764 76.0156C267.041 76.2109 267.412 76.3086 267.877 76.3086C268.275 76.3086 268.607 76.2012 268.873 75.9863C269.139 75.7715 269.336 75.4727 269.465 75.0898C269.598 74.7031 269.664 74.2598 269.664 73.7598C269.664 73.002 269.516 72.4004 269.219 71.9551C268.926 71.5059 268.475 71.2812 267.865 71.2812ZM273.291 70.5781V74.6152C273.291 74.6934 273.289 74.7949 273.285 74.9199C273.281 75.041 273.275 75.1719 273.268 75.3125C273.26 75.4492 273.252 75.582 273.244 75.7109C273.24 75.8359 273.234 75.9395 273.227 76.0215L276.73 70.5781H277.926V77H277.018V73.0625C277.018 72.9375 277.02 72.7773 277.023 72.582C277.027 72.3867 277.033 72.1953 277.041 72.0078C277.049 71.8164 277.055 71.668 277.059 71.5625L273.566 77H272.365V70.5781H273.291ZM280.92 70.5781V74.6152C280.92 74.6934 280.918 74.7949 280.914 74.9199C280.91 75.041 280.904 75.1719 280.896 75.3125C280.889 75.4492 280.881 75.582 280.873 75.7109C280.869 75.8359 280.863 75.9395 280.855 76.0215L284.359 70.5781H285.555V77H284.646V73.0625C284.646 72.9375 284.648 72.7773 284.652 72.582C284.656 72.3867 284.662 72.1953 284.67 72.0078C284.678 71.8164 284.684 71.668 284.688 71.5625L281.195 77H279.994V70.5781H280.92ZM285.074 67.9355C285.039 68.3301 284.939 68.6602 284.775 68.9258C284.615 69.1914 284.379 69.3926 284.066 69.5293C283.754 69.6621 283.354 69.7285 282.865 69.7285C282.361 69.7285 281.955 69.6641 281.646 69.5352C281.342 69.4023 281.115 69.2031 280.967 68.9375C280.822 68.6719 280.736 68.3379 280.709 67.9355H281.623C281.666 68.3652 281.781 68.6582 281.969 68.8145C282.156 68.9707 282.461 69.0488 282.883 69.0488C283.258 69.0488 283.553 68.9668 283.768 68.8027C283.982 68.6387 284.111 68.3496 284.154 67.9355H285.074ZM288.602 70.5781V73.2734H292.182V70.5781H293.154V77H292.182V74.0996H288.602V77H287.623V70.5781H288.602ZM295.527 77H294.391L296.242 74.293C295.973 74.2344 295.723 74.1348 295.492 73.9941C295.262 73.8496 295.074 73.6523 294.93 73.4023C294.789 73.1523 294.719 72.8418 294.719 72.4707C294.719 71.8535 294.924 71.3848 295.334 71.0645C295.748 70.7402 296.293 70.5781 296.969 70.5781H299.811V77H298.838V74.4219H297.209L295.527 77ZM295.662 72.4766C295.662 72.8594 295.799 73.1445 296.072 73.332C296.346 73.5156 296.736 73.6074 297.244 73.6074H298.838V71.3926H297.074C296.574 71.3926 296.213 71.4941 295.99 71.6973C295.771 71.8965 295.662 72.1562 295.662 72.4766ZM306.238 71.4043H304.123V77H303.162V71.4043H301.076V70.5781H306.238V71.4043ZM311.887 71.4043H309.771V77H308.811V71.4043H306.725V70.5781H311.887V71.4043ZM313.469 77H312.332L314.184 74.293C313.914 74.2344 313.664 74.1348 313.434 73.9941C313.203 73.8496 313.016 73.6523 312.871 73.4023C312.73 73.1523 312.66 72.8418 312.66 72.4707C312.66 71.8535 312.865 71.3848 313.275 71.0645C313.689 70.7402 314.234 70.5781 314.91 70.5781H317.752V77H316.779V74.4219H315.15L313.469 77ZM313.604 72.4766C313.604 72.8594 313.74 73.1445 314.014 73.332C314.287 73.5156 314.678 73.6074 315.186 73.6074H316.779V71.3926H315.016C314.516 71.3926 314.154 71.4941 313.932 71.6973C313.713 71.8965 313.604 72.1562 313.604 72.4766ZM115.598 93.1172C115.02 93.1172 114.51 92.998 114.068 92.7598C113.627 92.5215 113.283 92.1582 113.037 91.6699C112.791 91.1816 112.668 90.5664 112.668 89.8242C112.668 89.0469 112.797 88.4121 113.055 87.9199C113.316 87.4238 113.676 87.0566 114.133 86.8184C114.59 86.5801 115.109 86.4609 115.691 86.4609C116.012 86.4609 116.32 86.4941 116.617 86.5605C116.918 86.623 117.164 86.7031 117.355 86.8008L117.062 87.6152C116.867 87.5371 116.641 87.4668 116.383 87.4043C116.129 87.3418 115.891 87.3105 115.668 87.3105C115.223 87.3105 114.852 87.4062 114.555 87.5977C114.262 87.7891 114.041 88.0703 113.893 88.4414C113.748 88.8125 113.676 89.2695 113.676 89.8125C113.676 90.332 113.746 90.7754 113.887 91.1426C114.031 91.5098 114.244 91.791 114.525 91.9863C114.811 92.1777 115.166 92.2734 115.592 92.2734C115.932 92.2734 116.238 92.2383 116.512 92.168C116.785 92.0938 117.033 92.0078 117.256 91.9102V92.7773C117.041 92.8867 116.801 92.9707 116.535 93.0293C116.273 93.0879 115.961 93.1172 115.598 93.1172ZM123.156 87.4043H121.041V93H120.08V87.4043H117.994V86.5781H123.156V87.4043ZM127.445 86.4609C128.246 86.4609 128.885 86.7363 129.361 87.2871C129.838 87.8379 130.076 88.666 130.076 89.7715C130.076 90.502 129.967 91.1152 129.748 91.6113C129.529 92.1074 129.221 92.4824 128.822 92.7363C128.428 92.9902 127.961 93.1172 127.422 93.1172C127.082 93.1172 126.783 93.0723 126.525 92.9824C126.268 92.8926 126.047 92.7715 125.863 92.6191C125.68 92.4668 125.527 92.3008 125.406 92.1211H125.336C125.348 92.2734 125.361 92.457 125.377 92.6719C125.396 92.8867 125.406 93.0742 125.406 93.2344V95.8711H124.428V86.5781H125.23L125.359 87.5273H125.406C125.531 87.332 125.684 87.1543 125.863 86.9941C126.043 86.8301 126.262 86.7012 126.52 86.6074C126.781 86.5098 127.09 86.4609 127.445 86.4609ZM127.275 87.2812C126.83 87.2812 126.471 87.3672 126.197 87.5391C125.928 87.7109 125.73 87.9688 125.605 88.3125C125.48 88.6523 125.414 89.0801 125.406 89.5957V89.7832C125.406 90.3262 125.465 90.7852 125.582 91.1602C125.703 91.5352 125.9 91.8203 126.174 92.0156C126.451 92.2109 126.822 92.3086 127.287 92.3086C127.686 92.3086 128.018 92.2012 128.283 91.9863C128.549 91.7715 128.746 91.4727 128.875 91.0898C129.008 90.7031 129.074 90.2598 129.074 89.7598C129.074 89.002 128.926 88.4004 128.629 87.9551C128.336 87.5059 127.885 87.2812 127.275 87.2812ZM134.178 86.4727C134.943 86.4727 135.512 86.6445 135.883 86.9883C136.254 87.332 136.439 87.8809 136.439 88.6348V93H135.73L135.543 92.0508H135.496C135.316 92.2852 135.129 92.4824 134.934 92.6426C134.738 92.7988 134.512 92.918 134.254 93C134 93.0781 133.688 93.1172 133.316 93.1172C132.926 93.1172 132.578 93.0488 132.273 92.9121C131.973 92.7754 131.734 92.5684 131.559 92.291C131.387 92.0137 131.301 91.6621 131.301 91.2363C131.301 90.5957 131.555 90.1035 132.062 89.7598C132.57 89.416 133.344 89.2285 134.383 89.1973L135.49 89.1504V88.7578C135.49 88.2031 135.371 87.8145 135.133 87.5918C134.895 87.3691 134.559 87.2578 134.125 87.2578C133.789 87.2578 133.469 87.3066 133.164 87.4043C132.859 87.502 132.57 87.6172 132.297 87.75L131.998 87.0117C132.287 86.8633 132.619 86.7363 132.994 86.6309C133.369 86.5254 133.764 86.4727 134.178 86.4727ZM135.479 89.8359L134.5 89.877C133.699 89.9082 133.135 90.0391 132.807 90.2695C132.479 90.5 132.314 90.8262 132.314 91.248C132.314 91.6152 132.426 91.8867 132.648 92.0625C132.871 92.2383 133.166 92.3262 133.533 92.3262C134.104 92.3262 134.57 92.168 134.934 91.8516C135.297 91.5352 135.479 91.0605 135.479 90.4277V89.8359ZM142.82 87.4043H140.705V93H139.744V87.4043H137.658V86.5781H142.82V87.4043ZM146.564 86.4609C147.111 86.4609 147.58 86.582 147.971 86.8242C148.361 87.0664 148.66 87.4062 148.867 87.8438C149.074 88.2773 149.178 88.7852 149.178 89.3672V89.9707H144.742C144.754 90.7246 144.941 91.2988 145.305 91.6934C145.668 92.0879 146.18 92.2852 146.84 92.2852C147.246 92.2852 147.605 92.248 147.918 92.1738C148.23 92.0996 148.555 91.9902 148.891 91.8457V92.7012C148.566 92.8457 148.244 92.9512 147.924 93.0176C147.607 93.084 147.232 93.1172 146.799 93.1172C146.182 93.1172 145.643 92.9922 145.182 92.7422C144.725 92.4883 144.369 92.1172 144.115 91.6289C143.861 91.1406 143.734 90.543 143.734 89.8359C143.734 89.1445 143.85 88.5469 144.08 88.043C144.314 87.5352 144.643 87.1445 145.064 86.8711C145.49 86.5977 145.99 86.4609 146.564 86.4609ZM146.553 87.2578C146.033 87.2578 145.619 87.4277 145.311 87.7676C145.002 88.1074 144.818 88.582 144.76 89.1914H148.158C148.154 88.8086 148.094 88.4727 147.977 88.1836C147.863 87.8906 147.689 87.6641 147.455 87.5039C147.221 87.3398 146.92 87.2578 146.553 87.2578ZM154.727 86.5781V87.4043H151.809V93H150.83V86.5781H154.727ZM156.982 86.5781V93H156.01V86.5781H156.982ZM156.508 84.1758C156.668 84.1758 156.805 84.2285 156.918 84.334C157.035 84.4355 157.094 84.5957 157.094 84.8145C157.094 85.0293 157.035 85.1895 156.918 85.2949C156.805 85.4004 156.668 85.4531 156.508 85.4531C156.34 85.4531 156.199 85.4004 156.086 85.2949C155.977 85.1895 155.922 85.0293 155.922 84.8145C155.922 84.5957 155.977 84.4355 156.086 84.334C156.199 84.2285 156.34 84.1758 156.508 84.1758ZM159.895 86.5781V88.8867C159.895 89.2891 160.004 89.5859 160.223 89.7773C160.445 89.9688 160.768 90.0645 161.189 90.0645C161.596 90.0645 161.965 90.002 162.297 89.877C162.629 89.752 162.965 89.582 163.305 89.3672V86.5781H164.277V93H163.305V90.123C162.945 90.3535 162.592 90.5352 162.244 90.668C161.896 90.8008 161.48 90.8672 160.996 90.8672C160.336 90.8672 159.824 90.6953 159.461 90.3516C159.102 90.0078 158.922 89.543 158.922 88.957V86.5781H159.895ZM167.312 86.5781V89.2734H170.893V86.5781H171.865V93H170.893V90.0996H167.312V93H166.334V86.5781H167.312ZM174.854 86.5781V90.6152C174.854 90.6934 174.852 90.7949 174.848 90.9199C174.844 91.041 174.838 91.1719 174.83 91.3125C174.822 91.4492 174.814 91.582 174.807 91.7109C174.803 91.8359 174.797 91.9395 174.789 92.0215L178.293 86.5781H179.488V93H178.58V89.0625C178.58 88.9375 178.582 88.7773 178.586 88.582C178.59 88.3867 178.596 88.1953 178.604 88.0078C178.611 87.8164 178.617 87.668 178.621 87.5625L175.129 93H173.928V86.5781H174.854ZM183.086 89.7129L180.865 86.5781H181.979L183.672 89.0508L185.359 86.5781H186.461L184.24 89.7129L186.584 93H185.471L183.672 90.3809L181.861 93H180.76L183.086 89.7129ZM193.973 86.4609C194.773 86.4609 195.412 86.7363 195.889 87.2871C196.365 87.8379 196.604 88.666 196.604 89.7715C196.604 90.502 196.494 91.1152 196.275 91.6113C196.057 92.1074 195.748 92.4824 195.35 92.7363C194.955 92.9902 194.488 93.1172 193.949 93.1172C193.609 93.1172 193.311 93.0723 193.053 92.9824C192.795 92.8926 192.574 92.7715 192.391 92.6191C192.207 92.4668 192.055 92.3008 191.934 92.1211H191.863C191.875 92.2734 191.889 92.457 191.904 92.6719C191.924 92.8867 191.934 93.0742 191.934 93.2344V95.8711H190.955V86.5781H191.758L191.887 87.5273H191.934C192.059 87.332 192.211 87.1543 192.391 86.9941C192.57 86.8301 192.789 86.7012 193.047 86.6074C193.309 86.5098 193.617 86.4609 193.973 86.4609ZM193.803 87.2812C193.357 87.2812 192.998 87.3672 192.725 87.5391C192.455 87.7109 192.258 87.9688 192.133 88.3125C192.008 88.6523 191.941 89.0801 191.934 89.5957V89.7832C191.934 90.3262 191.992 90.7852 192.109 91.1602C192.23 91.5352 192.428 91.8203 192.701 92.0156C192.979 92.2109 193.35 92.3086 193.814 92.3086C194.213 92.3086 194.545 92.2012 194.811 91.9863C195.076 91.7715 195.273 91.4727 195.402 91.0898C195.535 90.7031 195.602 90.2598 195.602 89.7598C195.602 89.002 195.453 88.4004 195.156 87.9551C194.863 87.5059 194.412 87.2812 193.803 87.2812ZM199.275 86.5781V93H198.303V86.5781H199.275ZM198.801 84.1758C198.961 84.1758 199.098 84.2285 199.211 84.334C199.328 84.4355 199.387 84.5957 199.387 84.8145C199.387 85.0293 199.328 85.1895 199.211 85.2949C199.098 85.4004 198.961 85.4531 198.801 85.4531C198.633 85.4531 198.492 85.4004 198.379 85.2949C198.27 85.1895 198.215 85.0293 198.215 84.8145C198.215 84.5957 198.27 84.4355 198.379 84.334C198.492 84.2285 198.633 84.1758 198.801 84.1758ZM209.951 86.5781V93H201.338V86.5781H202.311V92.1738H205.152V86.5781H206.131V92.1738H208.979V86.5781H209.951ZM214.486 86.4609C215.033 86.4609 215.502 86.582 215.893 86.8242C216.283 87.0664 216.582 87.4062 216.789 87.8438C216.996 88.2773 217.1 88.7852 217.1 89.3672V89.9707H212.664C212.676 90.7246 212.863 91.2988 213.227 91.6934C213.59 92.0879 214.102 92.2852 214.762 92.2852C215.168 92.2852 215.527 92.248 215.84 92.1738C216.152 92.0996 216.477 91.9902 216.812 91.8457V92.7012C216.488 92.8457 216.166 92.9512 215.846 93.0176C215.529 93.084 215.154 93.1172 214.721 93.1172C214.104 93.1172 213.564 92.9922 213.104 92.7422C212.646 92.4883 212.291 92.1172 212.037 91.6289C211.783 91.1406 211.656 90.543 211.656 89.8359C211.656 89.1445 211.771 88.5469 212.002 88.043C212.236 87.5352 212.564 87.1445 212.986 86.8711C213.412 86.5977 213.912 86.4609 214.486 86.4609ZM214.475 87.2578C213.955 87.2578 213.541 87.4277 213.232 87.7676C212.924 88.1074 212.74 88.582 212.682 89.1914H216.08C216.076 88.8086 216.016 88.4727 215.898 88.1836C215.785 87.8906 215.611 87.6641 215.377 87.5039C215.143 87.3398 214.842 87.2578 214.475 87.2578ZM219.73 86.5781V89.2734H223.311V86.5781H224.283V93H223.311V90.0996H219.73V93H218.752V86.5781H219.73ZM227.324 89.2266H229.293C229.84 89.2266 230.295 89.2949 230.658 89.4316C231.021 89.5684 231.293 89.7715 231.473 90.041C231.656 90.3105 231.748 90.6445 231.748 91.043C231.748 91.4414 231.658 91.7871 231.479 92.0801C231.303 92.373 231.029 92.5996 230.658 92.7598C230.291 92.9199 229.816 93 229.234 93H226.346V86.5781H227.324V89.2266ZM230.77 91.0898C230.77 90.6953 230.629 90.4219 230.348 90.2695C230.07 90.1133 229.682 90.0352 229.182 90.0352H227.324V92.209H229.188C229.656 92.209 230.037 92.123 230.33 91.9512C230.623 91.7754 230.77 91.4883 230.77 91.0898Z" fill="#1E1E1E"/>
</svg>
