<svg width="18" height="17" viewBox="0 0 18 17" fill="none" xmlns="http://www.w3.org/2000/svg">
<g id="&#240;&#159;&#166;&#134; icon &#34;reports&#34;">
<path id="Vector" d="M6.13314 16.5H11.4665M6.13314 16.5V12.0556M6.13314 16.5H1.33314C1.03859 16.5 0.799805 16.2612 0.799805 15.9667V12.5889C0.799805 12.2943 1.03859 12.0556 1.33314 12.0556H6.13314M11.4665 16.5V5.83333M11.4665 16.5H16.2665C16.561 16.5 16.7998 16.2612 16.7998 15.9667V1.03333C16.7998 0.738782 16.561 0.5 16.2665 0.5H11.9998C11.7052 0.5 11.4665 0.738782 11.4665 1.03333V5.83333M6.13314 12.0556V6.36667C6.13314 6.07212 6.37192 5.83333 6.66647 5.83333H11.4665" stroke="black"/>
</g>
</svg>
