<svg width="353" height="120" viewBox="0 0 353 120" fill="none" xmlns="http://www.w3.org/2000/svg">
<rect x="1" y="1" width="98" height="98" rx="4" fill="#FAFAFA"/>
<rect x="1" y="1" width="98" height="98" rx="4" stroke="#5D59FF" stroke-width="2"/>
<line x1="59.8058" y1="37.6696" x2="41.3876" y2="59.6195" stroke="#5D59FF" stroke-width="2.08333"/>
<path d="M41.1412 41.7121L26.3671 43.1807L36.7407 53.8023" stroke="#5D59FF" stroke-width="2.71434" stroke-linecap="square" stroke-linejoin="round"/>
<path d="M62.7339 47.1357L73.1074 57.7573L58.3334 59.2259" stroke="#5D59FF" stroke-width="2.71434" stroke-linecap="square" stroke-linejoin="round"/>
<path d="M117.216 4.888L115.808 5.368L116.048 5.016V13.768L115.808 13.432L117.216 13.848V15H112.576V13.848L113.968 13.448L113.76 13.768V5.016L114.048 5.368L112.576 4.968V3.816L117.216 3.736V4.888ZM118.261 15V13.848L119.765 13.384L119.333 14.088V7.464L119.909 8.168L118.261 7.656V6.504L122.565 6.392V7.544L121.093 8.056L121.573 7.4V10.36L120.997 9.768H125.365L124.789 10.36V7.464L125.141 8.024L123.797 7.656V6.504L128.085 6.392V7.544L126.581 8.056L127.029 7.4V14.088L126.597 13.384L128.085 13.848V15H123.797V13.848L125.157 13.448L124.789 14.088V10.76L125.365 11.368H120.997L121.573 10.76V14.088L121.205 13.448L122.565 13.848V15H118.261ZM130.452 15V13.864L132.196 13.448L131.764 14.024V7.752L132.26 8.104H129.988L130.436 7.672L130.052 9.416H128.692V6.456H137.076V9.416H135.716L135.364 7.752L135.764 8.104H133.54L134.004 7.752V14.024L133.62 13.448L135.332 13.864V15H130.452ZM141.4 15.192C140.621 15.192 139.939 15.032 139.352 14.712C138.765 14.3813 138.307 13.896 137.976 13.256C137.656 12.6053 137.496 11.816 137.496 10.888C137.496 9.928 137.667 9.10667 138.008 8.424C138.36 7.73067 138.851 7.19733 139.48 6.824C140.109 6.45067 140.851 6.264 141.704 6.264C142.536 6.264 143.213 6.42933 143.736 6.76C144.259 7.09067 144.643 7.544 144.888 8.12C145.133 8.68533 145.256 9.32533 145.256 10.04C145.256 10.2213 145.245 10.4027 145.224 10.584C145.213 10.7653 145.192 10.9573 145.16 11.16H139.304V9.832H143.24L142.952 10.04C142.963 9.61333 142.92 9.24 142.824 8.92C142.739 8.58933 142.589 8.33333 142.376 8.152C142.173 7.97067 141.891 7.88 141.528 7.88C141.112 7.88 140.776 8.00267 140.52 8.248C140.264 8.48267 140.077 8.80267 139.96 9.208C139.853 9.61333 139.8 10.0667 139.8 10.568C139.8 11.1333 139.869 11.64 140.008 12.088C140.147 12.536 140.371 12.888 140.68 13.144C141 13.4 141.416 13.528 141.928 13.528C142.291 13.528 142.68 13.464 143.096 13.336C143.523 13.1973 143.965 12.9947 144.424 12.728L145.176 13.928C144.557 14.3547 143.923 14.6747 143.272 14.888C142.632 15.0907 142.008 15.192 141.4 15.192ZM146.117 18.68V17.528L147.477 17.08L147.189 17.464V7.752L147.445 8.056L146.117 7.656V6.504L148.933 6.376L149.189 7.768L148.933 7.64C149.434 7.192 149.92 6.85067 150.389 6.616C150.869 6.38133 151.365 6.264 151.877 6.264C152.496 6.264 153.04 6.42933 153.509 6.76C153.978 7.08 154.346 7.56 154.613 8.2C154.89 8.82933 155.029 9.60267 155.029 10.52C155.029 11.5547 154.853 12.4187 154.501 13.112C154.149 13.8053 153.653 14.328 153.013 14.68C152.384 15.0213 151.648 15.192 150.805 15.192C150.549 15.192 150.282 15.1707 150.005 15.128C149.728 15.096 149.44 15.048 149.141 14.984L149.429 14.728V17.464L149.189 17.128L150.677 17.528V18.68H146.117ZM150.517 13.608C151.274 13.608 151.824 13.352 152.165 12.84C152.517 12.328 152.693 11.6293 152.693 10.744C152.693 10.1573 152.624 9.656 152.485 9.24C152.346 8.81333 152.154 8.488 151.909 8.264C151.664 8.02933 151.36 7.912 150.997 7.912C150.72 7.912 150.426 7.98667 150.117 8.136C149.808 8.28533 149.488 8.51467 149.157 8.824L149.429 8.232V13.816L149.157 13.384C149.658 13.5333 150.112 13.608 150.517 13.608ZM155.995 15V13.848L157.499 13.384L157.067 14.088V7.464L157.643 8.168L155.995 7.656V6.504L160.299 6.392V7.544L158.827 8.056L159.307 7.4V10.36L158.731 9.768H163.099L162.523 10.36V7.464L162.875 8.024L161.531 7.656V6.504L165.819 6.392V7.544L164.315 8.056L164.763 7.4V14.088L164.331 13.384L165.819 13.848V15H161.531V13.848L162.891 13.448L162.523 14.088V10.76L163.099 11.368H158.731L159.307 10.76V14.088L158.939 13.448L160.299 13.848V15H155.995ZM170.681 15.192C169.903 15.192 169.22 15.032 168.633 14.712C168.047 14.3813 167.588 13.896 167.257 13.256C166.937 12.6053 166.777 11.816 166.777 10.888C166.777 9.928 166.948 9.10667 167.289 8.424C167.641 7.73067 168.132 7.19733 168.761 6.824C169.391 6.45067 170.132 6.264 170.985 6.264C171.817 6.264 172.495 6.42933 173.017 6.76C173.54 7.09067 173.924 7.544 174.169 8.12C174.415 8.68533 174.537 9.32533 174.537 10.04C174.537 10.2213 174.527 10.4027 174.505 10.584C174.495 10.7653 174.473 10.9573 174.441 11.16H168.585V9.832H172.521L172.233 10.04C172.244 9.61333 172.201 9.24 172.105 8.92C172.02 8.58933 171.871 8.33333 171.657 8.152C171.455 7.97067 171.172 7.88 170.809 7.88C170.393 7.88 170.057 8.00267 169.801 8.248C169.545 8.48267 169.359 8.80267 169.241 9.208C169.135 9.61333 169.081 10.0667 169.081 10.568C169.081 11.1333 169.151 11.64 169.289 12.088C169.428 12.536 169.652 12.888 169.961 13.144C170.281 13.4 170.697 13.528 171.209 13.528C171.572 13.528 171.961 13.464 172.377 13.336C172.804 13.1973 173.247 12.9947 173.705 12.728L174.457 13.928C173.839 14.3547 173.204 14.6747 172.553 14.888C171.913 15.0907 171.289 15.192 170.681 15.192ZM176.983 15V13.864L178.727 13.448L178.295 14.024V7.752L178.791 8.104H176.519L176.967 7.672L176.583 9.416H175.223V6.456H183.607V9.416H182.247L181.895 7.752L182.295 8.104H180.071L180.535 7.752V14.024L180.151 13.448L181.863 13.864V15H176.983ZM190.448 13.688L190.288 13.496L191.52 13.848V15H187.136V13.848L188.368 13.496L188.208 13.688V7.848L188.352 7.992L187.136 7.656V6.504L190.448 6.392V13.688ZM189.264 5.144C188.869 5.144 188.549 5.032 188.304 4.808C188.069 4.584 187.952 4.264 187.952 3.848C187.952 3.4 188.075 3.06933 188.32 2.856C188.576 2.632 188.896 2.52 189.28 2.52C189.653 2.52 189.963 2.632 190.208 2.856C190.453 3.06933 190.576 3.39467 190.576 3.832C190.576 4.26933 190.448 4.6 190.192 4.824C189.947 5.03733 189.637 5.144 189.264 5.144ZM198.417 6.456H199.665C200.358 6.456 200.955 6.52 201.457 6.648C201.969 6.776 202.363 6.99467 202.641 7.304C202.918 7.60267 203.057 8.024 203.057 8.568C203.057 9.06933 202.929 9.464 202.673 9.752C202.417 10.04 202.049 10.248 201.569 10.376C201.099 10.504 200.539 10.5947 199.889 10.648L200.017 10.424C200.475 10.424 200.907 10.456 201.313 10.52C201.729 10.584 202.091 10.7013 202.401 10.872C202.721 11.032 202.966 11.256 203.137 11.544C203.307 11.832 203.393 12.1947 203.393 12.632C203.393 13.4533 203.067 14.056 202.417 14.44C201.766 14.8133 200.806 15 199.537 15H195.105V13.848L196.337 13.496L196.177 13.688V7.848L196.321 7.992L195.105 7.656V6.504L198.417 6.456ZM199.201 7.912H198.065L198.417 7.56V10.248L198.065 9.992H198.977C199.627 9.992 200.091 9.912 200.369 9.752C200.657 9.58133 200.801 9.29867 200.801 8.904C200.801 8.52 200.673 8.25867 200.417 8.12C200.161 7.98133 199.755 7.912 199.201 7.912ZM199.249 13.512C199.878 13.512 200.337 13.432 200.625 13.272C200.913 13.1013 201.057 12.792 201.057 12.344C201.057 11.9493 200.939 11.6507 200.705 11.448C200.47 11.2453 200.086 11.144 199.553 11.144H198.065L198.417 10.856V13.832L198.065 13.512H199.249ZM208.291 15.192C207.512 15.192 206.829 15.032 206.243 14.712C205.656 14.3813 205.197 13.896 204.867 13.256C204.547 12.6053 204.387 11.816 204.387 10.888C204.387 9.928 204.557 9.10667 204.899 8.424C205.251 7.73067 205.741 7.19733 206.371 6.824C207 6.45067 207.741 6.264 208.595 6.264C209.427 6.264 210.104 6.42933 210.627 6.76C211.149 7.09067 211.533 7.544 211.779 8.12C212.024 8.68533 212.147 9.32533 212.147 10.04C212.147 10.2213 212.136 10.4027 212.115 10.584C212.104 10.7653 212.083 10.9573 212.051 11.16H206.195V9.832H210.131L209.843 10.04C209.853 9.61333 209.811 9.24 209.715 8.92C209.629 8.58933 209.48 8.33333 209.267 8.152C209.064 7.97067 208.781 7.88 208.419 7.88C208.003 7.88 207.667 8.00267 207.411 8.248C207.155 8.48267 206.968 8.80267 206.851 9.208C206.744 9.61333 206.691 10.0667 206.691 10.568C206.691 11.1333 206.76 11.64 206.899 12.088C207.037 12.536 207.261 12.888 207.571 13.144C207.891 13.4 208.307 13.528 208.819 13.528C209.181 13.528 209.571 13.464 209.987 13.336C210.413 13.1973 210.856 12.9947 211.315 12.728L212.067 13.928C211.448 14.3547 210.813 14.6747 210.163 14.888C209.523 15.0907 208.899 15.192 208.291 15.192ZM217.536 15.176C216.554 15.176 215.754 14.936 215.136 14.456C214.528 13.976 214.08 13.2987 213.792 12.424C213.504 11.5493 213.36 10.52 213.36 9.336C213.36 8.248 213.477 7.28267 213.712 6.44C213.957 5.59733 214.336 4.888 214.848 4.312C215.36 3.72533 216.026 3.28267 216.848 2.984C217.68 2.67467 218.682 2.51467 219.856 2.504L219.424 2.888L219.712 1.672H221.135L221.152 4.376C220.213 4.376 219.418 4.408 218.768 4.472C218.117 4.52533 217.589 4.63733 217.184 4.808C216.778 4.968 216.469 5.208 216.256 5.528C216.042 5.848 215.893 6.27467 215.808 6.808C215.722 7.34133 215.68 8.01333 215.68 8.824C215.68 9.4 215.696 9.928 215.728 10.408C215.76 10.888 215.813 11.32 215.888 11.704C215.962 12.0773 216.074 12.392 216.224 12.648C216.373 12.904 216.56 13.1013 216.784 13.24C217.018 13.368 217.301 13.432 217.632 13.432C218.229 13.432 218.677 13.224 218.976 12.808C219.274 12.3813 219.424 11.7893 219.424 11.032C219.424 10.4347 219.338 9.944 219.168 9.56C219.008 9.176 218.789 8.888 218.512 8.696C218.234 8.504 217.914 8.408 217.552 8.408C217.232 8.408 216.896 8.48267 216.544 8.632C216.192 8.77067 215.84 8.97867 215.488 9.256L215.408 7.816C215.888 7.44267 216.378 7.16533 216.88 6.984C217.392 6.792 217.882 6.696 218.352 6.696C218.981 6.696 219.552 6.85067 220.064 7.16C220.576 7.46933 220.981 7.92267 221.28 8.52C221.589 9.11733 221.744 9.85867 221.744 10.744C221.744 11.6933 221.562 12.4987 221.2 13.16C220.837 13.8213 220.341 14.3227 219.712 14.664C219.082 15.0053 218.357 15.176 217.536 15.176ZM228.283 9.464V11.16H223.259V9.464H228.283ZM229.664 18.68V17.528L231.024 17.08L230.736 17.464V7.752L230.992 8.056L229.664 7.656V6.504L232.48 6.376L232.736 7.768L232.48 7.64C232.981 7.192 233.466 6.85067 233.936 6.616C234.416 6.38133 234.912 6.264 235.424 6.264C236.042 6.264 236.586 6.42933 237.056 6.76C237.525 7.08 237.893 7.56 238.16 8.2C238.437 8.82933 238.576 9.60267 238.576 10.52C238.576 11.5547 238.4 12.4187 238.048 13.112C237.696 13.8053 237.2 14.328 236.56 14.68C235.93 15.0213 235.194 15.192 234.352 15.192C234.096 15.192 233.829 15.1707 233.552 15.128C233.274 15.096 232.986 15.048 232.688 14.984L232.976 14.728V17.464L232.736 17.128L234.224 17.528V18.68H229.664ZM234.064 13.608C234.821 13.608 235.37 13.352 235.712 12.84C236.064 12.328 236.24 11.6293 236.24 10.744C236.24 10.1573 236.17 9.656 236.032 9.24C235.893 8.81333 235.701 8.488 235.456 8.264C235.21 8.02933 234.906 7.912 234.544 7.912C234.266 7.912 233.973 7.98667 233.664 8.136C233.354 8.28533 233.034 8.51467 232.704 8.824L232.976 8.232V13.816L232.704 13.384C233.205 13.5333 233.658 13.608 234.064 13.608ZM243.814 6.264C245.073 6.264 246.054 6.63733 246.758 7.384C247.462 8.13067 247.814 9.192 247.814 10.568C247.814 11.528 247.643 12.3547 247.302 13.048C246.961 13.7307 246.47 14.2587 245.83 14.632C245.19 15.0053 244.422 15.192 243.526 15.192C242.267 15.192 241.291 14.8187 240.598 14.072C239.915 13.3253 239.574 12.264 239.574 10.888C239.574 9.928 239.739 9.10667 240.07 8.424C240.411 7.73067 240.897 7.19733 241.526 6.824C242.155 6.45067 242.918 6.264 243.814 6.264ZM243.702 7.864C243.094 7.864 242.641 8.104 242.342 8.584C242.043 9.05333 241.894 9.784 241.894 10.776C241.894 11.768 242.038 12.488 242.326 12.936C242.614 13.3733 243.051 13.592 243.638 13.592C244.065 13.592 244.411 13.4853 244.678 13.272C244.945 13.0587 245.147 12.7333 245.286 12.296C245.425 11.8587 245.494 11.32 245.494 10.68C245.494 9.70933 245.345 9 245.046 8.552C244.747 8.09333 244.299 7.864 243.702 7.864ZM251.673 15.192C251.15 15.192 250.627 15.1333 250.105 15.016C249.593 14.9093 249.123 14.7493 248.697 14.536L249.129 13.128C249.513 13.32 249.907 13.464 250.312 13.56C250.718 13.656 251.107 13.704 251.481 13.704C251.822 13.704 252.126 13.6613 252.393 13.576C252.67 13.4907 252.889 13.3573 253.049 13.176C253.219 12.984 253.305 12.7387 253.305 12.44C253.305 12.2053 253.246 12.0027 253.129 11.832C253.011 11.6507 252.83 11.512 252.585 11.416C252.339 11.32 252.014 11.272 251.609 11.272H250.521V9.944H251.545C252.131 9.944 252.553 9.84267 252.809 9.64C253.075 9.43733 253.209 9.15467 253.209 8.792C253.209 8.39733 253.075 8.12 252.809 7.96C252.542 7.78933 252.201 7.704 251.785 7.704C251.55 7.704 251.294 7.73067 251.017 7.784C250.739 7.82667 250.457 7.88533 250.169 7.96L250.601 7.544L250.361 8.888H248.985L248.905 6.76C249.449 6.61067 249.993 6.49333 250.537 6.408C251.081 6.312 251.609 6.264 252.121 6.264C252.75 6.264 253.315 6.33867 253.817 6.488C254.318 6.63733 254.713 6.87733 255.001 7.208C255.299 7.528 255.449 7.94933 255.449 8.472C255.449 9.112 255.23 9.608 254.793 9.96C254.355 10.3013 253.71 10.52 252.857 10.616L252.777 10.44C253.769 10.4933 254.494 10.7013 254.953 11.064C255.411 11.4267 255.641 11.9227 255.641 12.552C255.641 13.16 255.449 13.6613 255.065 14.056C254.691 14.44 254.201 14.728 253.593 14.92C252.995 15.1013 252.355 15.192 251.673 15.192ZM256.414 18.68V17.528L257.774 17.08L257.486 17.464V7.752L257.742 8.056L256.414 7.656V6.504L259.23 6.376L259.486 7.768L259.23 7.64C259.731 7.192 260.216 6.85067 260.686 6.616C261.166 6.38133 261.662 6.264 262.174 6.264C262.792 6.264 263.336 6.42933 263.806 6.76C264.275 7.08 264.643 7.56 264.91 8.2C265.187 8.82933 265.326 9.60267 265.326 10.52C265.326 11.5547 265.15 12.4187 264.798 13.112C264.446 13.8053 263.95 14.328 263.31 14.68C262.68 15.0213 261.944 15.192 261.102 15.192C260.846 15.192 260.579 15.1707 260.302 15.128C260.024 15.096 259.736 15.048 259.438 14.984L259.726 14.728V17.464L259.486 17.128L260.974 17.528V18.68H256.414ZM260.814 13.608C261.571 13.608 262.12 13.352 262.462 12.84C262.814 12.328 262.99 11.6293 262.99 10.744C262.99 10.1573 262.92 9.656 262.782 9.24C262.643 8.81333 262.451 8.488 262.206 8.264C261.96 8.02933 261.656 7.912 261.294 7.912C261.016 7.912 260.723 7.98667 260.414 8.136C260.104 8.28533 259.784 8.51467 259.454 8.824L259.726 8.232V13.816L259.454 13.384C259.955 13.5333 260.408 13.608 260.814 13.608ZM270.564 6.264C271.823 6.264 272.804 6.63733 273.508 7.384C274.212 8.13067 274.564 9.192 274.564 10.568C274.564 11.528 274.393 12.3547 274.052 13.048C273.711 13.7307 273.22 14.2587 272.58 14.632C271.94 15.0053 271.172 15.192 270.276 15.192C269.017 15.192 268.041 14.8187 267.348 14.072C266.665 13.3253 266.324 12.264 266.324 10.888C266.324 9.928 266.489 9.10667 266.82 8.424C267.161 7.73067 267.647 7.19733 268.276 6.824C268.905 6.45067 269.668 6.264 270.564 6.264ZM270.452 7.864C269.844 7.864 269.391 8.104 269.092 8.584C268.793 9.05333 268.644 9.784 268.644 10.776C268.644 11.768 268.788 12.488 269.076 12.936C269.364 13.3733 269.801 13.592 270.388 13.592C270.815 13.592 271.161 13.4853 271.428 13.272C271.695 13.0587 271.897 12.7333 272.036 12.296C272.175 11.8587 272.244 11.32 272.244 10.68C272.244 9.70933 272.095 9 271.796 8.552C271.497 8.09333 271.049 7.864 270.452 7.864ZM279.911 15.176C278.929 15.176 278.129 14.936 277.511 14.456C276.903 13.976 276.455 13.2987 276.167 12.424C275.879 11.5493 275.735 10.52 275.735 9.336C275.735 8.248 275.852 7.28267 276.087 6.44C276.332 5.59733 276.711 4.888 277.223 4.312C277.735 3.72533 278.401 3.28267 279.223 2.984C280.055 2.67467 281.057 2.51467 282.231 2.504L281.799 2.888L282.087 1.672H283.51L283.527 4.376C282.588 4.376 281.793 4.408 281.143 4.472C280.492 4.52533 279.964 4.63733 279.559 4.808C279.153 4.968 278.844 5.208 278.631 5.528C278.417 5.848 278.268 6.27467 278.183 6.808C278.097 7.34133 278.055 8.01333 278.055 8.824C278.055 9.4 278.071 9.928 278.103 10.408C278.135 10.888 278.188 11.32 278.263 11.704C278.337 12.0773 278.449 12.392 278.599 12.648C278.748 12.904 278.935 13.1013 279.159 13.24C279.393 13.368 279.676 13.432 280.007 13.432C280.604 13.432 281.052 13.224 281.351 12.808C281.649 12.3813 281.799 11.7893 281.799 11.032C281.799 10.4347 281.713 9.944 281.543 9.56C281.383 9.176 281.164 8.888 280.887 8.696C280.609 8.504 280.289 8.408 279.927 8.408C279.607 8.408 279.271 8.48267 278.919 8.632C278.567 8.77067 278.215 8.97867 277.863 9.256L277.783 7.816C278.263 7.44267 278.753 7.16533 279.255 6.984C279.767 6.792 280.257 6.696 280.727 6.696C281.356 6.696 281.927 6.85067 282.439 7.16C282.951 7.46933 283.356 7.92267 283.655 8.52C283.964 9.11733 284.119 9.85867 284.119 10.744C284.119 11.6933 283.937 12.4987 283.575 13.16C283.212 13.8213 282.716 14.3227 282.087 14.664C281.457 15.0053 280.732 15.176 279.911 15.176ZM285.042 15V13.848L286.386 13.464L286.114 13.88V7.592L286.434 8.024L285.042 7.656V6.504L289.282 6.392V7.544L288.13 7.928L288.354 7.592V10.2L287.986 9.736H290.114L289.426 10.136L291.026 7.64L291.186 7.88L290.066 7.656V6.52L293.954 6.392V7.528L292.626 7.832L293.218 7.496L291.09 10.712L291.282 10.136L293.33 13.816L293.026 13.544L294.242 13.864V15H291.618L289.618 11.16L289.954 11.224H287.986L288.354 11.16V13.88L288.114 13.448L289.442 13.848V15H285.042ZM301.743 13.864L301.439 13.416L302.815 13.848V14.984L300.015 15.128L299.711 13.592L299.871 13.64C299.445 14.1627 298.981 14.552 298.479 14.808C297.978 15.064 297.461 15.192 296.927 15.192C296.245 15.192 295.679 14.9733 295.231 14.536C294.783 14.0987 294.559 13.4693 294.559 12.648C294.559 12.04 294.687 11.56 294.943 11.208C295.21 10.8453 295.594 10.584 296.095 10.424C296.597 10.264 297.205 10.184 297.919 10.184H299.663L299.503 10.36V9.304C299.503 8.80267 299.381 8.44533 299.135 8.232C298.901 8.01867 298.554 7.912 298.095 7.912C297.871 7.912 297.631 7.93333 297.375 7.976C297.119 8.01867 296.842 8.08267 296.543 8.168L296.767 7.928L296.559 9.224H295.167L295.039 6.888C295.765 6.67467 296.426 6.52 297.023 6.424C297.631 6.31733 298.186 6.264 298.687 6.264C299.679 6.264 300.437 6.47733 300.959 6.904C301.482 7.33067 301.743 7.992 301.743 8.888V13.864ZM296.815 12.424C296.815 12.8187 296.906 13.112 297.087 13.304C297.279 13.4853 297.519 13.576 297.807 13.576C298.074 13.576 298.367 13.496 298.687 13.336C299.007 13.1653 299.311 12.936 299.599 12.648L299.503 13.032V11.208L299.663 11.368H298.287C297.733 11.368 297.349 11.4533 297.135 11.624C296.922 11.7947 296.815 12.0613 296.815 12.424Z" fill="#1E1E1E"/>
<path d="M115.41 36.4336C116.516 36.4336 117.322 36.6504 117.83 37.084C118.342 37.5137 118.598 38.1309 118.598 38.9355C118.598 39.2988 118.537 39.6445 118.416 39.9727C118.299 40.2969 118.107 40.584 117.842 40.834C117.576 41.0801 117.227 41.2754 116.793 41.4199C116.363 41.5605 115.836 41.6309 115.211 41.6309H114.168V45H113.172V36.4336H115.41ZM115.316 37.2832H114.168V40.7754H115.1C115.646 40.7754 116.102 40.7168 116.465 40.5996C116.832 40.4824 117.107 40.293 117.291 40.0312C117.475 39.7656 117.566 39.4141 117.566 38.9766C117.566 38.4062 117.385 37.9824 117.021 37.7051C116.658 37.4238 116.09 37.2832 115.316 37.2832ZM125.781 41.7773C125.781 42.3047 125.713 42.7754 125.576 43.1895C125.439 43.6035 125.242 43.9531 124.984 44.2383C124.727 44.5234 124.414 44.7422 124.047 44.8945C123.684 45.043 123.271 45.1172 122.811 45.1172C122.381 45.1172 121.986 45.043 121.627 44.8945C121.271 44.7422 120.963 44.5234 120.701 44.2383C120.443 43.9531 120.242 43.6035 120.098 43.1895C119.957 42.7754 119.887 42.3047 119.887 41.7773C119.887 41.0742 120.006 40.4766 120.244 39.9844C120.482 39.4883 120.822 39.1113 121.264 38.8535C121.709 38.5918 122.238 38.4609 122.852 38.4609C123.438 38.4609 123.949 38.5918 124.387 38.8535C124.828 39.1152 125.17 39.4941 125.412 39.9902C125.658 40.4824 125.781 41.0781 125.781 41.7773ZM120.895 41.7773C120.895 42.293 120.963 42.7402 121.1 43.1191C121.236 43.498 121.447 43.791 121.732 43.998C122.018 44.2051 122.385 44.3086 122.834 44.3086C123.279 44.3086 123.645 44.2051 123.93 43.998C124.219 43.791 124.432 43.498 124.568 43.1191C124.705 42.7402 124.773 42.293 124.773 41.7773C124.773 41.2656 124.705 40.8242 124.568 40.4531C124.432 40.0781 124.221 39.7891 123.936 39.5859C123.65 39.3828 123.281 39.2812 122.828 39.2812C122.16 39.2812 121.67 39.502 121.357 39.9434C121.049 40.3848 120.895 40.9961 120.895 41.7773ZM129.115 38.4609C129.596 38.4609 130.012 38.5273 130.363 38.6602C130.715 38.7891 130.986 38.9785 131.178 39.2285C131.369 39.4785 131.465 39.7832 131.465 40.1426C131.465 40.5293 131.359 40.8379 131.148 41.0684C130.938 41.2988 130.646 41.4648 130.275 41.5664V41.6133C130.537 41.6836 130.773 41.7852 130.984 41.918C131.199 42.0469 131.369 42.2188 131.494 42.4336C131.623 42.6445 131.688 42.9082 131.688 43.2246C131.688 43.584 131.59 43.9082 131.395 44.1973C131.199 44.4824 130.902 44.707 130.504 44.8711C130.105 45.0352 129.602 45.1172 128.992 45.1172C128.691 45.1172 128.406 45.0996 128.137 45.0645C127.867 45.0332 127.623 44.9863 127.404 44.9238C127.186 44.8613 126.994 44.7871 126.83 44.7012V43.8164C127.104 43.9492 127.424 44.0664 127.791 44.168C128.158 44.2695 128.555 44.3203 128.98 44.3203C129.309 44.3203 129.604 44.2832 129.865 44.209C130.127 44.1309 130.334 44.0078 130.486 43.8398C130.643 43.668 130.721 43.4434 130.721 43.166C130.721 42.9121 130.652 42.7031 130.516 42.5391C130.379 42.3711 130.174 42.248 129.9 42.1699C129.631 42.0879 129.289 42.0469 128.875 42.0469H128.014V41.25H128.723C129.273 41.25 129.713 41.1719 130.041 41.0156C130.369 40.8594 130.533 40.5957 130.533 40.2246C130.533 39.9043 130.406 39.666 130.152 39.5098C129.898 39.3496 129.535 39.2695 129.062 39.2695C128.711 39.2695 128.4 39.3066 128.131 39.3809C127.861 39.4512 127.57 39.5527 127.258 39.6855L126.912 38.9062C127.248 38.7578 127.6 38.6465 127.967 38.5723C128.334 38.498 128.717 38.4609 129.115 38.4609ZM136.281 38.4609C137.082 38.4609 137.721 38.7363 138.197 39.2871C138.674 39.8379 138.912 40.666 138.912 41.7715C138.912 42.502 138.803 43.1152 138.584 43.6113C138.365 44.1074 138.057 44.4824 137.658 44.7363C137.264 44.9902 136.797 45.1172 136.258 45.1172C135.918 45.1172 135.619 45.0723 135.361 44.9824C135.104 44.8926 134.883 44.7715 134.699 44.6191C134.516 44.4668 134.363 44.3008 134.242 44.1211H134.172C134.184 44.2734 134.197 44.457 134.213 44.6719C134.232 44.8867 134.242 45.0742 134.242 45.2344V47.8711H133.264V38.5781H134.066L134.195 39.5273H134.242C134.367 39.332 134.52 39.1543 134.699 38.9941C134.879 38.8301 135.098 38.7012 135.355 38.6074C135.617 38.5098 135.926 38.4609 136.281 38.4609ZM136.111 39.2812C135.666 39.2812 135.307 39.3672 135.033 39.5391C134.764 39.7109 134.566 39.9688 134.441 40.3125C134.316 40.6523 134.25 41.0801 134.242 41.5957V41.7832C134.242 42.3262 134.301 42.7852 134.418 43.1602C134.539 43.5352 134.736 43.8203 135.01 44.0156C135.287 44.2109 135.658 44.3086 136.123 44.3086C136.521 44.3086 136.854 44.2012 137.119 43.9863C137.385 43.7715 137.582 43.4727 137.711 43.0898C137.844 42.7031 137.91 42.2598 137.91 41.7598C137.91 41.002 137.762 40.4004 137.465 39.9551C137.172 39.5059 136.721 39.2812 136.111 39.2812ZM146.148 41.7773C146.148 42.3047 146.08 42.7754 145.943 43.1895C145.807 43.6035 145.609 43.9531 145.352 44.2383C145.094 44.5234 144.781 44.7422 144.414 44.8945C144.051 45.043 143.639 45.1172 143.178 45.1172C142.748 45.1172 142.354 45.043 141.994 44.8945C141.639 44.7422 141.33 44.5234 141.068 44.2383C140.811 43.9531 140.609 43.6035 140.465 43.1895C140.324 42.7754 140.254 42.3047 140.254 41.7773C140.254 41.0742 140.373 40.4766 140.611 39.9844C140.85 39.4883 141.189 39.1113 141.631 38.8535C142.076 38.5918 142.605 38.4609 143.219 38.4609C143.805 38.4609 144.316 38.5918 144.754 38.8535C145.195 39.1152 145.537 39.4941 145.779 39.9902C146.025 40.4824 146.148 41.0781 146.148 41.7773ZM141.262 41.7773C141.262 42.293 141.33 42.7402 141.467 43.1191C141.604 43.498 141.814 43.791 142.1 43.998C142.385 44.2051 142.752 44.3086 143.201 44.3086C143.646 44.3086 144.012 44.2051 144.297 43.998C144.586 43.791 144.799 43.498 144.936 43.1191C145.072 42.7402 145.141 42.293 145.141 41.7773C145.141 41.2656 145.072 40.8242 144.936 40.4531C144.799 40.0781 144.588 39.7891 144.303 39.5859C144.018 39.3828 143.648 39.2812 143.195 39.2812C142.527 39.2812 142.037 39.502 141.725 39.9434C141.416 40.3848 141.262 40.9961 141.262 41.7773ZM147.496 41.1445C147.496 40.2305 147.584 39.4512 147.76 38.8066C147.936 38.1582 148.207 37.6387 148.574 37.248C148.945 36.8535 149.422 36.584 150.004 36.4395C150.504 36.3027 151.012 36.1855 151.527 36.0879C152.043 35.9863 152.545 35.8984 153.033 35.8242L153.203 36.6797C152.957 36.7148 152.699 36.7559 152.43 36.8027C152.16 36.8457 151.891 36.8926 151.621 36.9434C151.352 36.9902 151.098 37.041 150.859 37.0957C150.621 37.1465 150.41 37.1992 150.227 37.2539C149.895 37.3438 149.607 37.5 149.365 37.7227C149.127 37.9453 148.938 38.252 148.797 38.6426C148.66 39.0332 148.578 39.5254 148.551 40.1191H148.621C148.738 39.9473 148.898 39.7773 149.102 39.6094C149.305 39.4414 149.547 39.3027 149.828 39.1934C150.109 39.0801 150.426 39.0234 150.777 39.0234C151.332 39.0234 151.795 39.1445 152.166 39.3867C152.537 39.625 152.816 39.9609 153.004 40.3945C153.191 40.8281 153.285 41.3359 153.285 41.918C153.285 42.6172 153.164 43.2051 152.922 43.6816C152.684 44.1582 152.348 44.5176 151.914 44.7598C151.48 44.998 150.971 45.1172 150.385 45.1172C149.932 45.1172 149.525 45.0293 149.166 44.8535C148.811 44.6777 148.508 44.4199 148.258 44.0801C148.012 43.7402 147.822 43.3242 147.689 42.832C147.561 42.3398 147.496 41.7773 147.496 41.1445ZM150.461 44.3086C150.832 44.3086 151.15 44.2305 151.416 44.0742C151.686 43.918 151.893 43.6719 152.037 43.3359C152.186 42.9961 152.26 42.5547 152.26 42.0117C152.26 41.332 152.129 40.8008 151.867 40.418C151.609 40.0312 151.195 39.8379 150.625 39.8379C150.27 39.8379 149.947 39.9141 149.658 40.0664C149.369 40.2148 149.125 40.3926 148.926 40.5996C148.727 40.8066 148.582 40.9922 148.492 41.1562C148.492 41.5547 148.521 41.9414 148.58 42.3164C148.639 42.6914 148.74 43.0293 148.885 43.3301C149.029 43.6309 149.229 43.8691 149.482 44.0449C149.74 44.2207 150.066 44.3086 150.461 44.3086ZM158.711 38.5781H159.783L157.012 41.6777L160.006 45H158.863L155.945 41.7422V45H154.967V38.5781H155.945V41.6953L158.711 38.5781ZM163.568 38.4727C164.334 38.4727 164.902 38.6445 165.273 38.9883C165.645 39.332 165.83 39.8809 165.83 40.6348V45H165.121L164.934 44.0508H164.887C164.707 44.2852 164.52 44.4824 164.324 44.6426C164.129 44.7988 163.902 44.918 163.645 45C163.391 45.0781 163.078 45.1172 162.707 45.1172C162.316 45.1172 161.969 45.0488 161.664 44.9121C161.363 44.7754 161.125 44.5684 160.949 44.291C160.777 44.0137 160.691 43.6621 160.691 43.2363C160.691 42.5957 160.945 42.1035 161.453 41.7598C161.961 41.416 162.734 41.2285 163.773 41.1973L164.881 41.1504V40.7578C164.881 40.2031 164.762 39.8145 164.523 39.5918C164.285 39.3691 163.949 39.2578 163.516 39.2578C163.18 39.2578 162.859 39.3066 162.555 39.4043C162.25 39.502 161.961 39.6172 161.688 39.75L161.389 39.0117C161.678 38.8633 162.01 38.7363 162.385 38.6309C162.76 38.5254 163.154 38.4727 163.568 38.4727ZM164.869 41.8359L163.891 41.877C163.09 41.9082 162.525 42.0391 162.197 42.2695C161.869 42.5 161.705 42.8262 161.705 43.248C161.705 43.6152 161.816 43.8867 162.039 44.0625C162.262 44.2383 162.557 44.3262 162.924 44.3262C163.494 44.3262 163.961 44.168 164.324 43.8516C164.688 43.5352 164.869 43.0605 164.869 42.4277V41.8359ZM176.055 40.1895C176.055 40.5918 175.938 40.9062 175.703 41.1328C175.469 41.3555 175.166 41.5059 174.795 41.584V41.6309C175.197 41.6855 175.543 41.8301 175.832 42.0645C176.125 42.2949 176.271 42.6484 176.271 43.125C176.271 43.4922 176.184 43.8164 176.008 44.0977C175.832 44.3789 175.557 44.5996 175.182 44.7598C174.807 44.9199 174.318 45 173.717 45H170.951V38.5781H173.693C174.154 38.5781 174.561 38.6309 174.912 38.7363C175.268 38.8379 175.547 39.0059 175.75 39.2402C175.953 39.4746 176.055 39.791 176.055 40.1895ZM175.258 43.125C175.258 42.7461 175.113 42.4727 174.824 42.3047C174.539 42.1367 174.123 42.0527 173.576 42.0527H171.93V44.209H173.6C174.139 44.209 174.549 44.127 174.83 43.9629C175.115 43.7949 175.258 43.5156 175.258 43.125ZM175.064 40.3008C175.064 39.9961 174.953 39.7695 174.73 39.6211C174.508 39.4688 174.143 39.3926 173.635 39.3926H171.93V41.2383H173.465C173.992 41.2383 174.391 41.1621 174.66 41.0098C174.93 40.8574 175.064 40.6211 175.064 40.3008ZM180.314 38.4609C180.861 38.4609 181.33 38.582 181.721 38.8242C182.111 39.0664 182.41 39.4062 182.617 39.8438C182.824 40.2773 182.928 40.7852 182.928 41.3672V41.9707H178.492C178.504 42.7246 178.691 43.2988 179.055 43.6934C179.418 44.0879 179.93 44.2852 180.59 44.2852C180.996 44.2852 181.355 44.248 181.668 44.1738C181.98 44.0996 182.305 43.9902 182.641 43.8457V44.7012C182.316 44.8457 181.994 44.9512 181.674 45.0176C181.357 45.084 180.982 45.1172 180.549 45.1172C179.932 45.1172 179.393 44.9922 178.932 44.7422C178.475 44.4883 178.119 44.1172 177.865 43.6289C177.611 43.1406 177.484 42.543 177.484 41.8359C177.484 41.1445 177.6 40.5469 177.83 40.043C178.064 39.5352 178.393 39.1445 178.814 38.8711C179.24 38.5977 179.74 38.4609 180.314 38.4609ZM180.303 39.2578C179.783 39.2578 179.369 39.4277 179.061 39.7676C178.752 40.1074 178.568 40.582 178.51 41.1914H181.908C181.904 40.8086 181.844 40.4727 181.727 40.1836C181.613 39.8906 181.439 39.6641 181.205 39.5039C180.971 39.3398 180.67 39.2578 180.303 39.2578ZM184.246 41.1445C184.246 40.2305 184.334 39.4512 184.51 38.8066C184.686 38.1582 184.957 37.6387 185.324 37.248C185.695 36.8535 186.172 36.584 186.754 36.4395C187.254 36.3027 187.762 36.1855 188.277 36.0879C188.793 35.9863 189.295 35.8984 189.783 35.8242L189.953 36.6797C189.707 36.7148 189.449 36.7559 189.18 36.8027C188.91 36.8457 188.641 36.8926 188.371 36.9434C188.102 36.9902 187.848 37.041 187.609 37.0957C187.371 37.1465 187.16 37.1992 186.977 37.2539C186.645 37.3438 186.357 37.5 186.115 37.7227C185.877 37.9453 185.688 38.252 185.547 38.6426C185.41 39.0332 185.328 39.5254 185.301 40.1191H185.371C185.488 39.9473 185.648 39.7773 185.852 39.6094C186.055 39.4414 186.297 39.3027 186.578 39.1934C186.859 39.0801 187.176 39.0234 187.527 39.0234C188.082 39.0234 188.545 39.1445 188.916 39.3867C189.287 39.625 189.566 39.9609 189.754 40.3945C189.941 40.8281 190.035 41.3359 190.035 41.918C190.035 42.6172 189.914 43.2051 189.672 43.6816C189.434 44.1582 189.098 44.5176 188.664 44.7598C188.23 44.998 187.721 45.1172 187.135 45.1172C186.682 45.1172 186.275 45.0293 185.916 44.8535C185.561 44.6777 185.258 44.4199 185.008 44.0801C184.762 43.7402 184.572 43.3242 184.439 42.832C184.311 42.3398 184.246 41.7773 184.246 41.1445ZM187.211 44.3086C187.582 44.3086 187.9 44.2305 188.166 44.0742C188.436 43.918 188.643 43.6719 188.787 43.3359C188.936 42.9961 189.01 42.5547 189.01 42.0117C189.01 41.332 188.879 40.8008 188.617 40.418C188.359 40.0312 187.945 39.8379 187.375 39.8379C187.02 39.8379 186.697 39.9141 186.408 40.0664C186.119 40.2148 185.875 40.3926 185.676 40.5996C185.477 40.8066 185.332 40.9922 185.242 41.1562C185.242 41.5547 185.271 41.9414 185.33 42.3164C185.389 42.6914 185.49 43.0293 185.635 43.3301C185.779 43.6309 185.979 43.8691 186.232 44.0449C186.49 44.2207 186.816 44.3086 187.211 44.3086ZM191.172 42.2109V41.3438H194.078V42.2109H191.172ZM198.156 45.1172C197.578 45.1172 197.068 44.998 196.627 44.7598C196.186 44.5215 195.842 44.1582 195.596 43.6699C195.35 43.1816 195.227 42.5664 195.227 41.8242C195.227 41.0469 195.355 40.4121 195.613 39.9199C195.875 39.4238 196.234 39.0566 196.691 38.8184C197.148 38.5801 197.668 38.4609 198.25 38.4609C198.57 38.4609 198.879 38.4941 199.176 38.5605C199.477 38.623 199.723 38.7031 199.914 38.8008L199.621 39.6152C199.426 39.5371 199.199 39.4668 198.941 39.4043C198.688 39.3418 198.449 39.3105 198.227 39.3105C197.781 39.3105 197.41 39.4062 197.113 39.5977C196.82 39.7891 196.6 40.0703 196.451 40.4414C196.307 40.8125 196.234 41.2695 196.234 41.8125C196.234 42.332 196.305 42.7754 196.445 43.1426C196.59 43.5098 196.803 43.791 197.084 43.9863C197.369 44.1777 197.725 44.2734 198.15 44.2734C198.49 44.2734 198.797 44.2383 199.07 44.168C199.344 44.0938 199.592 44.0078 199.814 43.9102V44.7773C199.6 44.8867 199.359 44.9707 199.094 45.0293C198.832 45.0879 198.52 45.1172 198.156 45.1172ZM203.74 38.4727C204.506 38.4727 205.074 38.6445 205.445 38.9883C205.816 39.332 206.002 39.8809 206.002 40.6348V45H205.293L205.105 44.0508H205.059C204.879 44.2852 204.691 44.4824 204.496 44.6426C204.301 44.7988 204.074 44.918 203.816 45C203.562 45.0781 203.25 45.1172 202.879 45.1172C202.488 45.1172 202.141 45.0488 201.836 44.9121C201.535 44.7754 201.297 44.5684 201.121 44.291C200.949 44.0137 200.863 43.6621 200.863 43.2363C200.863 42.5957 201.117 42.1035 201.625 41.7598C202.133 41.416 202.906 41.2285 203.945 41.1973L205.053 41.1504V40.7578C205.053 40.2031 204.934 39.8145 204.695 39.5918C204.457 39.3691 204.121 39.2578 203.688 39.2578C203.352 39.2578 203.031 39.3066 202.727 39.4043C202.422 39.502 202.133 39.6172 201.859 39.75L201.561 39.0117C201.85 38.8633 202.182 38.7363 202.557 38.6309C202.932 38.5254 203.326 38.4727 203.74 38.4727ZM205.041 41.8359L204.062 41.877C203.262 41.9082 202.697 42.0391 202.369 42.2695C202.041 42.5 201.877 42.8262 201.877 43.248C201.877 43.6152 201.988 43.8867 202.211 44.0625C202.434 44.2383 202.729 44.3262 203.096 44.3262C203.666 44.3262 204.133 44.168 204.496 43.8516C204.859 43.5352 205.041 43.0605 205.041 42.4277V41.8359ZM208.932 38.5781V42.6152C208.932 42.6934 208.93 42.7949 208.926 42.9199C208.922 43.041 208.916 43.1719 208.908 43.3125C208.9 43.4492 208.893 43.582 208.885 43.7109C208.881 43.8359 208.875 43.9395 208.867 44.0215L212.371 38.5781H213.566V45H212.658V41.0625C212.658 40.9375 212.66 40.7773 212.664 40.582C212.668 40.3867 212.674 40.1953 212.682 40.0078C212.689 39.8164 212.695 39.668 212.699 39.5625L209.207 45H208.006V38.5781H208.932ZM213.086 35.9355C213.051 36.3301 212.951 36.6602 212.787 36.9258C212.627 37.1914 212.391 37.3926 212.078 37.5293C211.766 37.6621 211.365 37.7285 210.877 37.7285C210.373 37.7285 209.967 37.6641 209.658 37.5352C209.354 37.4023 209.127 37.2031 208.979 36.9375C208.834 36.6719 208.748 36.3379 208.721 35.9355H209.635C209.678 36.3652 209.793 36.6582 209.98 36.8145C210.168 36.9707 210.473 37.0488 210.895 37.0488C211.27 37.0488 211.564 36.9668 211.779 36.8027C211.994 36.6387 212.123 36.3496 212.166 35.9355H213.086ZM220.012 39.4043H217.896V45H216.936V39.4043H214.85V38.5781H220.012V39.4043ZM222.256 38.5781V45H221.283V38.5781H222.256ZM221.781 36.1758C221.941 36.1758 222.078 36.2285 222.191 36.334C222.309 36.4355 222.367 36.5957 222.367 36.8145C222.367 37.0293 222.309 37.1895 222.191 37.2949C222.078 37.4004 221.941 37.4531 221.781 37.4531C221.613 37.4531 221.473 37.4004 221.359 37.2949C221.25 37.1895 221.195 37.0293 221.195 36.8145C221.195 36.5957 221.25 36.4355 221.359 36.334C221.473 36.2285 221.613 36.1758 221.781 36.1758ZM229.422 40.1895C229.422 40.5918 229.305 40.9062 229.07 41.1328C228.836 41.3555 228.533 41.5059 228.162 41.584V41.6309C228.564 41.6855 228.91 41.8301 229.199 42.0645C229.492 42.2949 229.639 42.6484 229.639 43.125C229.639 43.4922 229.551 43.8164 229.375 44.0977C229.199 44.3789 228.924 44.5996 228.549 44.7598C228.174 44.9199 227.686 45 227.084 45H224.318V38.5781H227.061C227.521 38.5781 227.928 38.6309 228.279 38.7363C228.635 38.8379 228.914 39.0059 229.117 39.2402C229.32 39.4746 229.422 39.791 229.422 40.1895ZM228.625 43.125C228.625 42.7461 228.48 42.4727 228.191 42.3047C227.906 42.1367 227.49 42.0527 226.943 42.0527H225.297V44.209H226.967C227.506 44.209 227.916 44.127 228.197 43.9629C228.482 43.7949 228.625 43.5156 228.625 43.125ZM228.432 40.3008C228.432 39.9961 228.32 39.7695 228.098 39.6211C227.875 39.4688 227.51 39.3926 227.002 39.3926H225.297V41.2383H226.832C227.359 41.2383 227.758 41.1621 228.027 41.0098C228.297 40.8574 228.432 40.6211 228.432 40.3008ZM238.703 39.4043H236.588V45H235.627V39.4043H233.541V38.5781H238.703V39.4043ZM242.377 38.4727C243.143 38.4727 243.711 38.6445 244.082 38.9883C244.453 39.332 244.639 39.8809 244.639 40.6348V45H243.93L243.742 44.0508H243.695C243.516 44.2852 243.328 44.4824 243.133 44.6426C242.938 44.7988 242.711 44.918 242.453 45C242.199 45.0781 241.887 45.1172 241.516 45.1172C241.125 45.1172 240.777 45.0488 240.473 44.9121C240.172 44.7754 239.934 44.5684 239.758 44.291C239.586 44.0137 239.5 43.6621 239.5 43.2363C239.5 42.5957 239.754 42.1035 240.262 41.7598C240.77 41.416 241.543 41.2285 242.582 41.1973L243.689 41.1504V40.7578C243.689 40.2031 243.57 39.8145 243.332 39.5918C243.094 39.3691 242.758 39.2578 242.324 39.2578C241.988 39.2578 241.668 39.3066 241.363 39.4043C241.059 39.502 240.77 39.6172 240.496 39.75L240.197 39.0117C240.486 38.8633 240.818 38.7363 241.193 38.6309C241.568 38.5254 241.963 38.4727 242.377 38.4727ZM243.678 41.8359L242.699 41.877C241.898 41.9082 241.334 42.0391 241.006 42.2695C240.678 42.5 240.514 42.8262 240.514 43.248C240.514 43.6152 240.625 43.8867 240.848 44.0625C241.07 44.2383 241.365 44.3262 241.732 44.3262C242.303 44.3262 242.77 44.168 243.133 43.8516C243.496 43.5352 243.678 43.0605 243.678 42.4277V41.8359ZM254.863 40.1895C254.863 40.5918 254.746 40.9062 254.512 41.1328C254.277 41.3555 253.975 41.5059 253.604 41.584V41.6309C254.006 41.6855 254.352 41.8301 254.641 42.0645C254.934 42.2949 255.08 42.6484 255.08 43.125C255.08 43.4922 254.992 43.8164 254.816 44.0977C254.641 44.3789 254.365 44.5996 253.99 44.7598C253.615 44.9199 253.127 45 252.525 45H249.76V38.5781H252.502C252.963 38.5781 253.369 38.6309 253.721 38.7363C254.076 38.8379 254.355 39.0059 254.559 39.2402C254.762 39.4746 254.863 39.791 254.863 40.1895ZM254.066 43.125C254.066 42.7461 253.922 42.4727 253.633 42.3047C253.348 42.1367 252.932 42.0527 252.385 42.0527H250.738V44.209H252.408C252.947 44.209 253.357 44.127 253.639 43.9629C253.924 43.7949 254.066 43.5156 254.066 43.125ZM253.873 40.3008C253.873 39.9961 253.762 39.7695 253.539 39.6211C253.316 39.4688 252.951 39.3926 252.443 39.3926H250.738V41.2383H252.273C252.801 41.2383 253.199 41.1621 253.469 41.0098C253.738 40.8574 253.873 40.6211 253.873 40.3008ZM259.123 38.4609C259.67 38.4609 260.139 38.582 260.529 38.8242C260.92 39.0664 261.219 39.4062 261.426 39.8438C261.633 40.2773 261.736 40.7852 261.736 41.3672V41.9707H257.301C257.312 42.7246 257.5 43.2988 257.863 43.6934C258.227 44.0879 258.738 44.2852 259.398 44.2852C259.805 44.2852 260.164 44.248 260.477 44.1738C260.789 44.0996 261.113 43.9902 261.449 43.8457V44.7012C261.125 44.8457 260.803 44.9512 260.482 45.0176C260.166 45.084 259.791 45.1172 259.357 45.1172C258.74 45.1172 258.201 44.9922 257.74 44.7422C257.283 44.4883 256.928 44.1172 256.674 43.6289C256.42 43.1406 256.293 42.543 256.293 41.8359C256.293 41.1445 256.408 40.5469 256.639 40.043C256.873 39.5352 257.201 39.1445 257.623 38.8711C258.049 38.5977 258.549 38.4609 259.123 38.4609ZM259.111 39.2578C258.592 39.2578 258.178 39.4277 257.869 39.7676C257.561 40.1074 257.377 40.582 257.318 41.1914H260.717C260.713 40.8086 260.652 40.4727 260.535 40.1836C260.422 39.8906 260.248 39.6641 260.014 39.5039C259.779 39.3398 259.479 39.2578 259.111 39.2578ZM263.055 41.1445C263.055 40.2305 263.143 39.4512 263.318 38.8066C263.494 38.1582 263.766 37.6387 264.133 37.248C264.504 36.8535 264.98 36.584 265.562 36.4395C266.062 36.3027 266.57 36.1855 267.086 36.0879C267.602 35.9863 268.104 35.8984 268.592 35.8242L268.762 36.6797C268.516 36.7148 268.258 36.7559 267.988 36.8027C267.719 36.8457 267.449 36.8926 267.18 36.9434C266.91 36.9902 266.656 37.041 266.418 37.0957C266.18 37.1465 265.969 37.1992 265.785 37.2539C265.453 37.3438 265.166 37.5 264.924 37.7227C264.686 37.9453 264.496 38.252 264.355 38.6426C264.219 39.0332 264.137 39.5254 264.109 40.1191H264.18C264.297 39.9473 264.457 39.7773 264.66 39.6094C264.863 39.4414 265.105 39.3027 265.387 39.1934C265.668 39.0801 265.984 39.0234 266.336 39.0234C266.891 39.0234 267.354 39.1445 267.725 39.3867C268.096 39.625 268.375 39.9609 268.562 40.3945C268.75 40.8281 268.844 41.3359 268.844 41.918C268.844 42.6172 268.723 43.2051 268.48 43.6816C268.242 44.1582 267.906 44.5176 267.473 44.7598C267.039 44.998 266.529 45.1172 265.943 45.1172C265.49 45.1172 265.084 45.0293 264.725 44.8535C264.369 44.6777 264.066 44.4199 263.816 44.0801C263.57 43.7402 263.381 43.3242 263.248 42.832C263.119 42.3398 263.055 41.7773 263.055 41.1445ZM266.02 44.3086C266.391 44.3086 266.709 44.2305 266.975 44.0742C267.244 43.918 267.451 43.6719 267.596 43.3359C267.744 42.9961 267.818 42.5547 267.818 42.0117C267.818 41.332 267.688 40.8008 267.426 40.418C267.168 40.0312 266.754 39.8379 266.184 39.8379C265.828 39.8379 265.506 39.9141 265.217 40.0664C264.928 40.2148 264.684 40.3926 264.484 40.5996C264.285 40.8066 264.141 40.9922 264.051 41.1562C264.051 41.5547 264.08 41.9414 264.139 42.3164C264.197 42.6914 264.299 43.0293 264.443 43.3301C264.588 43.6309 264.787 43.8691 265.041 44.0449C265.299 44.2207 265.625 44.3086 266.02 44.3086ZM269.98 42.2109V41.3438H272.887V42.2109H269.98ZM279.098 38.5781V44.1738H280.018V47.2207H279.074V45H274.527V47.2207H273.596V44.1738H274.1C274.467 43.666 274.771 43.1094 275.014 42.5039C275.256 41.8984 275.439 41.2637 275.564 40.5996C275.689 39.9316 275.756 39.2578 275.764 38.5781H279.098ZM278.154 39.3516H276.631C276.596 39.9219 276.512 40.502 276.379 41.0918C276.25 41.6816 276.078 42.2441 275.863 42.7793C275.648 43.3105 275.398 43.7754 275.113 44.1738H278.154V39.3516ZM286.832 41.7773C286.832 42.3047 286.764 42.7754 286.627 43.1895C286.49 43.6035 286.293 43.9531 286.035 44.2383C285.777 44.5234 285.465 44.7422 285.098 44.8945C284.734 45.043 284.322 45.1172 283.861 45.1172C283.432 45.1172 283.037 45.043 282.678 44.8945C282.322 44.7422 282.014 44.5234 281.752 44.2383C281.494 43.9531 281.293 43.6035 281.148 43.1895C281.008 42.7754 280.938 42.3047 280.938 41.7773C280.938 41.0742 281.057 40.4766 281.295 39.9844C281.533 39.4883 281.873 39.1113 282.314 38.8535C282.76 38.5918 283.289 38.4609 283.902 38.4609C284.488 38.4609 285 38.5918 285.438 38.8535C285.879 39.1152 286.221 39.4941 286.463 39.9902C286.709 40.4824 286.832 41.0781 286.832 41.7773ZM281.945 41.7773C281.945 42.293 282.014 42.7402 282.15 43.1191C282.287 43.498 282.498 43.791 282.783 43.998C283.068 44.2051 283.436 44.3086 283.885 44.3086C284.33 44.3086 284.695 44.2051 284.98 43.998C285.27 43.791 285.482 43.498 285.619 43.1191C285.756 42.7402 285.824 42.293 285.824 41.7773C285.824 41.2656 285.756 40.8242 285.619 40.4531C285.482 40.0781 285.271 39.7891 284.986 39.5859C284.701 39.3828 284.332 39.2812 283.879 39.2812C283.211 39.2812 282.721 39.502 282.408 39.9434C282.1 40.3848 281.945 40.9961 281.945 41.7773ZM293.219 38.5781V44.1738H294.139V47.2207H293.195V45H288.648V47.2207H287.717V44.1738H288.221C288.588 43.666 288.893 43.1094 289.135 42.5039C289.377 41.8984 289.561 41.2637 289.686 40.5996C289.811 39.9316 289.877 39.2578 289.885 38.5781H293.219ZM292.275 39.3516H290.752C290.717 39.9219 290.633 40.502 290.5 41.0918C290.371 41.6816 290.199 42.2441 289.984 42.7793C289.77 43.3105 289.52 43.7754 289.234 44.1738H292.275V39.3516ZM297.818 38.4727C298.584 38.4727 299.152 38.6445 299.523 38.9883C299.895 39.332 300.08 39.8809 300.08 40.6348V45H299.371L299.184 44.0508H299.137C298.957 44.2852 298.77 44.4824 298.574 44.6426C298.379 44.7988 298.152 44.918 297.895 45C297.641 45.0781 297.328 45.1172 296.957 45.1172C296.566 45.1172 296.219 45.0488 295.914 44.9121C295.613 44.7754 295.375 44.5684 295.199 44.291C295.027 44.0137 294.941 43.6621 294.941 43.2363C294.941 42.5957 295.195 42.1035 295.703 41.7598C296.211 41.416 296.984 41.2285 298.023 41.1973L299.131 41.1504V40.7578C299.131 40.2031 299.012 39.8145 298.773 39.5918C298.535 39.3691 298.199 39.2578 297.766 39.2578C297.43 39.2578 297.109 39.3066 296.805 39.4043C296.5 39.502 296.211 39.6172 295.938 39.75L295.639 39.0117C295.928 38.8633 296.26 38.7363 296.635 38.6309C297.01 38.5254 297.404 38.4727 297.818 38.4727ZM299.119 41.8359L298.141 41.877C297.34 41.9082 296.775 42.0391 296.447 42.2695C296.119 42.5 295.955 42.8262 295.955 43.248C295.955 43.6152 296.066 43.8867 296.289 44.0625C296.512 44.2383 296.807 44.3262 297.174 44.3262C297.744 44.3262 298.211 44.168 298.574 43.8516C298.938 43.5352 299.119 43.0605 299.119 42.4277V41.8359ZM306.461 39.4043H304.346V45H303.385V39.4043H301.299V38.5781H306.461V39.4043ZM311.477 38.5781H312.549L309.777 41.6777L312.771 45H311.629L308.711 41.7422V45H307.732V38.5781H308.711V41.6953L311.477 38.5781ZM314.904 38.5781V45H313.932V38.5781H314.904ZM314.43 36.1758C314.59 36.1758 314.727 36.2285 314.84 36.334C314.957 36.4355 315.016 36.5957 315.016 36.8145C315.016 37.0293 314.957 37.1895 314.84 37.2949C314.727 37.4004 314.59 37.4531 314.43 37.4531C314.262 37.4531 314.121 37.4004 314.008 37.2949C313.898 37.1895 313.844 37.0293 313.844 36.8145C313.844 36.5957 313.898 36.4355 314.008 36.334C314.121 36.2285 314.262 36.1758 314.43 36.1758ZM322.07 40.1895C322.07 40.5918 321.953 40.9062 321.719 41.1328C321.484 41.3555 321.182 41.5059 320.811 41.584V41.6309C321.213 41.6855 321.559 41.8301 321.848 42.0645C322.141 42.2949 322.287 42.6484 322.287 43.125C322.287 43.4922 322.199 43.8164 322.023 44.0977C321.848 44.3789 321.572 44.5996 321.197 44.7598C320.822 44.9199 320.334 45 319.732 45H316.967V38.5781H319.709C320.17 38.5781 320.576 38.6309 320.928 38.7363C321.283 38.8379 321.562 39.0059 321.766 39.2402C321.969 39.4746 322.07 39.791 322.07 40.1895ZM321.273 43.125C321.273 42.7461 321.129 42.4727 320.84 42.3047C320.555 42.1367 320.139 42.0527 319.592 42.0527H317.945V44.209H319.615C320.154 44.209 320.564 44.127 320.846 43.9629C321.131 43.7949 321.273 43.5156 321.273 43.125ZM321.08 40.3008C321.08 39.9961 320.969 39.7695 320.746 39.6211C320.523 39.4688 320.158 39.3926 319.65 39.3926H317.945V41.2383H319.48C320.008 41.2383 320.406 41.1621 320.676 41.0098C320.945 40.8574 321.08 40.6211 321.08 40.3008ZM324.971 43.6055L325.047 43.7402C324.977 44.0254 324.887 44.3301 324.777 44.6543C324.672 44.9785 324.555 45.3027 324.426 45.627C324.301 45.9551 324.174 46.2617 324.045 46.5469H323.318C323.4 46.2344 323.48 45.9043 323.559 45.5566C323.637 45.2129 323.707 44.873 323.77 44.5371C323.836 44.1973 323.889 43.8867 323.928 43.6055H324.971ZM118.129 56.1895C118.129 56.5918 118.012 56.9062 117.777 57.1328C117.543 57.3555 117.24 57.5059 116.869 57.584V57.6309C117.271 57.6855 117.617 57.8301 117.906 58.0645C118.199 58.2949 118.346 58.6484 118.346 59.125C118.346 59.4922 118.258 59.8164 118.082 60.0977C117.906 60.3789 117.631 60.5996 117.256 60.7598C116.881 60.9199 116.393 61 115.791 61H113.025V54.5781H115.768C116.229 54.5781 116.635 54.6309 116.986 54.7363C117.342 54.8379 117.621 55.0059 117.824 55.2402C118.027 55.4746 118.129 55.791 118.129 56.1895ZM117.332 59.125C117.332 58.7461 117.188 58.4727 116.898 58.3047C116.613 58.1367 116.197 58.0527 115.65 58.0527H114.004V60.209H115.674C116.213 60.209 116.623 60.127 116.904 59.9629C117.189 59.7949 117.332 59.5156 117.332 59.125ZM117.139 56.3008C117.139 55.9961 117.027 55.7695 116.805 55.6211C116.582 55.4688 116.217 55.3926 115.709 55.3926H114.004V57.2383H115.539C116.066 57.2383 116.465 57.1621 116.734 57.0098C117.004 56.8574 117.139 56.6211 117.139 56.3008ZM123.66 54.5781H124.732L121.961 57.6777L124.955 61H123.812L120.895 57.7422V61H119.916V54.5781H120.895V57.6953L123.66 54.5781ZM130.932 61H129.941V55.3926H127.99C127.912 56.4043 127.812 57.2715 127.691 57.9941C127.574 58.7129 127.426 59.3008 127.246 59.7578C127.07 60.2109 126.855 60.5449 126.602 60.7598C126.352 60.9707 126.053 61.0762 125.705 61.0762C125.6 61.0762 125.5 61.0703 125.406 61.0586C125.312 61.0469 125.232 61.0273 125.166 61V60.2617C125.217 60.2773 125.27 60.2891 125.324 60.2969C125.383 60.3047 125.443 60.3086 125.506 60.3086C125.682 60.3086 125.842 60.2363 125.986 60.0918C126.135 59.9434 126.268 59.7207 126.385 59.4238C126.506 59.127 126.613 58.752 126.707 58.2988C126.801 57.8418 126.883 57.3047 126.953 56.6875C127.027 56.0664 127.092 55.3633 127.146 54.5781H130.932V61ZM141.238 57.7773C141.238 58.4766 141.125 59.0762 140.898 59.5762C140.676 60.0762 140.355 60.459 139.938 60.7246C139.52 60.9863 139.02 61.1172 138.438 61.1172C137.895 61.1172 137.42 61 137.014 60.7656C136.611 60.5312 136.293 60.1895 136.059 59.7402C135.828 59.291 135.695 58.7441 135.66 58.0996H133.955V61H132.982V54.5781H133.955V57.2734H135.672C135.727 56.6797 135.871 56.1738 136.105 55.7559C136.34 55.3379 136.656 55.0176 137.055 54.7949C137.453 54.5723 137.922 54.4609 138.461 54.4609C139.023 54.4609 139.512 54.5938 139.926 54.8594C140.344 55.1211 140.666 55.5 140.893 55.9961C141.123 56.4883 141.238 57.082 141.238 57.7773ZM136.656 57.7773C136.656 58.3164 136.717 58.7754 136.838 59.1543C136.963 59.5293 137.156 59.8164 137.418 60.0156C137.684 60.2109 138.027 60.3086 138.449 60.3086C138.867 60.3086 139.207 60.2109 139.469 60.0156C139.734 59.8203 139.928 59.5352 140.049 59.1602C140.174 58.7812 140.236 58.3203 140.236 57.7773C140.236 57.2422 140.174 56.7891 140.049 56.418C139.924 56.0469 139.73 55.7656 139.469 55.5742C139.207 55.3789 138.867 55.2812 138.449 55.2812C138.031 55.2812 137.689 55.3789 137.424 55.5742C137.162 55.7656 136.969 56.0469 136.844 56.418C136.719 56.7891 136.656 57.2422 136.656 57.7773ZM143.781 54.5781V56.8867C143.781 57.2891 143.891 57.5859 144.109 57.7773C144.332 57.9688 144.654 58.0645 145.076 58.0645C145.482 58.0645 145.852 58.002 146.184 57.877C146.516 57.752 146.852 57.582 147.191 57.3672V54.5781H148.164V61H147.191V58.123C146.832 58.3535 146.479 58.5352 146.131 58.668C145.783 58.8008 145.367 58.8672 144.883 58.8672C144.223 58.8672 143.711 58.6953 143.348 58.3516C142.988 58.0078 142.809 57.543 142.809 56.957V54.5781H143.781ZM152.623 54.4727C153.389 54.4727 153.957 54.6445 154.328 54.9883C154.699 55.332 154.885 55.8809 154.885 56.6348V61H154.176L153.988 60.0508H153.941C153.762 60.2852 153.574 60.4824 153.379 60.6426C153.184 60.7988 152.957 60.918 152.699 61C152.445 61.0781 152.133 61.1172 151.762 61.1172C151.371 61.1172 151.023 61.0488 150.719 60.9121C150.418 60.7754 150.18 60.5684 150.004 60.291C149.832 60.0137 149.746 59.6621 149.746 59.2363C149.746 58.5957 150 58.1035 150.508 57.7598C151.016 57.416 151.789 57.2285 152.828 57.1973L153.936 57.1504V56.7578C153.936 56.2031 153.816 55.8145 153.578 55.5918C153.34 55.3691 153.004 55.2578 152.57 55.2578C152.234 55.2578 151.914 55.3066 151.609 55.4043C151.305 55.502 151.016 55.6172 150.742 55.75L150.443 55.0117C150.732 54.8633 151.064 54.7363 151.439 54.6309C151.814 54.5254 152.209 54.4727 152.623 54.4727ZM153.924 57.8359L152.945 57.877C152.145 57.9082 151.58 58.0391 151.252 58.2695C150.924 58.5 150.76 58.8262 150.76 59.248C150.76 59.6152 150.871 59.8867 151.094 60.0625C151.316 60.2383 151.611 60.3262 151.979 60.3262C152.549 60.3262 153.016 60.168 153.379 59.8516C153.742 59.5352 153.924 59.0605 153.924 58.4277V57.8359ZM165.145 57.7773C165.145 58.4766 165.031 59.0762 164.805 59.5762C164.582 60.0762 164.262 60.459 163.844 60.7246C163.426 60.9863 162.926 61.1172 162.344 61.1172C161.801 61.1172 161.326 61 160.92 60.7656C160.518 60.5312 160.199 60.1895 159.965 59.7402C159.734 59.291 159.602 58.7441 159.566 58.0996H157.861V61H156.889V54.5781H157.861V57.2734H159.578C159.633 56.6797 159.777 56.1738 160.012 55.7559C160.246 55.3379 160.562 55.0176 160.961 54.7949C161.359 54.5723 161.828 54.4609 162.367 54.4609C162.93 54.4609 163.418 54.5938 163.832 54.8594C164.25 55.1211 164.572 55.5 164.799 55.9961C165.029 56.4883 165.145 57.082 165.145 57.7773ZM160.562 57.7773C160.562 58.3164 160.623 58.7754 160.744 59.1543C160.869 59.5293 161.062 59.8164 161.324 60.0156C161.59 60.2109 161.934 60.3086 162.355 60.3086C162.773 60.3086 163.113 60.2109 163.375 60.0156C163.641 59.8203 163.834 59.5352 163.955 59.1602C164.08 58.7812 164.143 58.3203 164.143 57.7773C164.143 57.2422 164.08 56.7891 163.955 56.418C163.83 56.0469 163.637 55.7656 163.375 55.5742C163.113 55.3789 162.773 55.2812 162.355 55.2812C161.938 55.2812 161.596 55.3789 161.33 55.5742C161.068 55.7656 160.875 56.0469 160.75 56.418C160.625 56.7891 160.562 57.2422 160.562 57.7773ZM167.688 54.5781V56.8867C167.688 57.2891 167.797 57.5859 168.016 57.7773C168.238 57.9688 168.561 58.0645 168.982 58.0645C169.389 58.0645 169.758 58.002 170.09 57.877C170.422 57.752 170.758 57.582 171.098 57.3672V54.5781H172.07V61H171.098V58.123C170.738 58.3535 170.385 58.5352 170.037 58.668C169.689 58.8008 169.273 58.8672 168.789 58.8672C168.129 58.8672 167.617 58.6953 167.254 58.3516C166.895 58.0078 166.715 57.543 166.715 56.957V54.5781H167.688ZM175.053 54.5781V58.6152C175.053 58.6934 175.051 58.7949 175.047 58.9199C175.043 59.041 175.037 59.1719 175.029 59.3125C175.021 59.4492 175.014 59.582 175.006 59.7109C175.002 59.8359 174.996 59.9395 174.988 60.0215L178.492 54.5781H179.688V61H178.779V57.0625C178.779 56.9375 178.781 56.7773 178.785 56.582C178.789 56.3867 178.795 56.1953 178.803 56.0078C178.811 55.8164 178.816 55.668 178.82 55.5625L175.328 61H174.127V54.5781H175.053ZM188.605 51.8828V54.4844C189.242 54.5391 189.797 54.7051 190.27 54.9824C190.742 55.2559 191.109 55.6289 191.371 56.1016C191.633 56.5742 191.764 57.1367 191.764 57.7891C191.764 58.4297 191.637 58.9883 191.383 59.4648C191.133 59.9414 190.771 60.3184 190.299 60.5957C189.83 60.873 189.266 61.0391 188.605 61.0938V63.8828H187.656V61.0938C187.02 61.0469 186.465 60.8867 185.992 60.6133C185.523 60.3359 185.158 59.959 184.896 59.4824C184.635 59.0059 184.504 58.4414 184.504 57.7891C184.504 57.1367 184.629 56.5742 184.879 56.1016C185.133 55.625 185.496 55.25 185.969 54.9766C186.441 54.6992 187.014 54.5352 187.686 54.4844V51.8828H188.605ZM187.686 55.293C187.189 55.3359 186.781 55.4609 186.461 55.668C186.141 55.875 185.902 56.1562 185.746 56.5117C185.594 56.8672 185.518 57.293 185.518 57.7891C185.518 58.2852 185.596 58.7129 185.752 59.0723C185.908 59.4277 186.146 59.709 186.467 59.916C186.787 60.123 187.193 60.25 187.686 60.2969V55.293ZM188.605 55.3047V60.2969C189.098 60.2461 189.502 60.1152 189.818 59.9043C190.139 59.6934 190.375 59.4102 190.527 59.0547C190.684 58.6992 190.762 58.2773 190.762 57.7891C190.762 57.0469 190.584 56.4668 190.229 56.0488C189.873 55.627 189.332 55.3789 188.605 55.3047ZM196.48 54.4609C197.281 54.4609 197.92 54.7363 198.396 55.2871C198.873 55.8379 199.111 56.666 199.111 57.7715C199.111 58.502 199.002 59.1152 198.783 59.6113C198.564 60.1074 198.256 60.4824 197.857 60.7363C197.463 60.9902 196.996 61.1172 196.457 61.1172C196.117 61.1172 195.818 61.0723 195.561 60.9824C195.303 60.8926 195.082 60.7715 194.898 60.6191C194.715 60.4668 194.562 60.3008 194.441 60.1211H194.371C194.383 60.2734 194.396 60.457 194.412 60.6719C194.432 60.8867 194.441 61.0742 194.441 61.2344V63.8711H193.463V54.5781H194.266L194.395 55.5273H194.441C194.566 55.332 194.719 55.1543 194.898 54.9941C195.078 54.8301 195.297 54.7012 195.555 54.6074C195.816 54.5098 196.125 54.4609 196.48 54.4609ZM196.311 55.2812C195.865 55.2812 195.506 55.3672 195.232 55.5391C194.963 55.7109 194.766 55.9688 194.641 56.3125C194.516 56.6523 194.449 57.0801 194.441 57.5957V57.7832C194.441 58.3262 194.5 58.7852 194.617 59.1602C194.738 59.5352 194.936 59.8203 195.209 60.0156C195.486 60.2109 195.857 60.3086 196.322 60.3086C196.721 60.3086 197.053 60.2012 197.318 59.9863C197.584 59.7715 197.781 59.4727 197.91 59.0898C198.043 58.7031 198.109 58.2598 198.109 57.7598C198.109 57.002 197.961 56.4004 197.664 55.9551C197.371 55.5059 196.92 55.2812 196.311 55.2812ZM206.348 57.7773C206.348 58.3047 206.279 58.7754 206.143 59.1895C206.006 59.6035 205.809 59.9531 205.551 60.2383C205.293 60.5234 204.98 60.7422 204.613 60.8945C204.25 61.043 203.838 61.1172 203.377 61.1172C202.947 61.1172 202.553 61.043 202.193 60.8945C201.838 60.7422 201.529 60.5234 201.268 60.2383C201.01 59.9531 200.809 59.6035 200.664 59.1895C200.523 58.7754 200.453 58.3047 200.453 57.7773C200.453 57.0742 200.572 56.4766 200.811 55.9844C201.049 55.4883 201.389 55.1113 201.83 54.8535C202.275 54.5918 202.805 54.4609 203.418 54.4609C204.004 54.4609 204.516 54.5918 204.953 54.8535C205.395 55.1152 205.736 55.4941 205.979 55.9902C206.225 56.4824 206.348 57.0781 206.348 57.7773ZM201.461 57.7773C201.461 58.293 201.529 58.7402 201.666 59.1191C201.803 59.498 202.014 59.791 202.299 59.998C202.584 60.2051 202.951 60.3086 203.4 60.3086C203.846 60.3086 204.211 60.2051 204.496 59.998C204.785 59.791 204.998 59.498 205.135 59.1191C205.271 58.7402 205.34 58.293 205.34 57.7773C205.34 57.2656 205.271 56.8242 205.135 56.4531C204.998 56.0781 204.787 55.7891 204.502 55.5859C204.217 55.3828 203.848 55.2812 203.395 55.2812C202.727 55.2812 202.236 55.502 201.924 55.9434C201.615 56.3848 201.461 56.9961 201.461 57.7773ZM209.008 54.5781V57.2734H212.588V54.5781H213.561V61H212.588V58.0996H209.008V61H208.029V54.5781H209.008ZM220 55.4043H217.885V61H216.924V55.4043H214.838V54.5781H220V55.4043ZM223.744 54.4609C224.291 54.4609 224.76 54.582 225.15 54.8242C225.541 55.0664 225.84 55.4062 226.047 55.8438C226.254 56.2773 226.357 56.7852 226.357 57.3672V57.9707H221.922C221.934 58.7246 222.121 59.2988 222.484 59.6934C222.848 60.0879 223.359 60.2852 224.02 60.2852C224.426 60.2852 224.785 60.248 225.098 60.1738C225.41 60.0996 225.734 59.9902 226.07 59.8457V60.7012C225.746 60.8457 225.424 60.9512 225.104 61.0176C224.787 61.084 224.412 61.1172 223.979 61.1172C223.361 61.1172 222.822 60.9922 222.361 60.7422C221.904 60.4883 221.549 60.1172 221.295 59.6289C221.041 59.1406 220.914 58.543 220.914 57.8359C220.914 57.1445 221.029 56.5469 221.26 56.043C221.494 55.5352 221.822 55.1445 222.244 54.8711C222.67 54.5977 223.17 54.4609 223.744 54.4609ZM223.732 55.2578C223.213 55.2578 222.799 55.4277 222.49 55.7676C222.182 56.1074 221.998 56.582 221.939 57.1914H225.338C225.334 56.8086 225.273 56.4727 225.156 56.1836C225.043 55.8906 224.869 55.6641 224.635 55.5039C224.4 55.3398 224.1 55.2578 223.732 55.2578ZM228.988 54.5781V57.2734H232.568V54.5781H233.541V61H232.568V58.0996H228.988V61H228.01V54.5781H228.988ZM240.309 54.5781V60.1738H241.229V63.2207H240.285V61H235.738V63.2207H234.807V60.1738H235.311C235.678 59.666 235.982 59.1094 236.225 58.5039C236.467 57.8984 236.65 57.2637 236.775 56.5996C236.9 55.9316 236.967 55.2578 236.975 54.5781H240.309ZM239.365 55.3516H237.842C237.807 55.9219 237.723 56.502 237.59 57.0918C237.461 57.6816 237.289 58.2441 237.074 58.7793C236.859 59.3105 236.609 59.7754 236.324 60.1738H239.365V55.3516ZM245.078 57.7129C245.078 57.0527 245.141 56.4102 245.266 55.7852C245.395 55.1602 245.59 54.5645 245.852 53.998C246.113 53.4316 246.443 52.9102 246.842 52.4336H247.773C247.207 53.1758 246.781 54 246.496 54.9062C246.211 55.8125 246.068 56.7441 246.068 57.7012C246.068 58.3262 246.131 58.9434 246.256 59.5527C246.385 60.1582 246.574 60.7422 246.824 61.3047C247.078 61.8672 247.391 62.3984 247.762 62.8984H246.842C246.443 62.4297 246.113 61.918 245.852 61.3633C245.59 60.8125 245.395 60.2285 245.266 59.6113C245.141 58.9941 245.078 58.3613 245.078 57.7129ZM252.906 54.5781H253.979L251.207 57.6777L254.201 61H253.059L250.141 57.7422V61H249.162V54.5781H250.141V57.6953L252.906 54.5781ZM260.178 61H259.188V55.3926H257.236C257.158 56.4043 257.059 57.2715 256.938 57.9941C256.82 58.7129 256.672 59.3008 256.492 59.7578C256.316 60.2109 256.102 60.5449 255.848 60.7598C255.598 60.9707 255.299 61.0762 254.951 61.0762C254.846 61.0762 254.746 61.0703 254.652 61.0586C254.559 61.0469 254.479 61.0273 254.412 61V60.2617C254.463 60.2773 254.516 60.2891 254.57 60.2969C254.629 60.3047 254.689 60.3086 254.752 60.3086C254.928 60.3086 255.088 60.2363 255.232 60.0918C255.381 59.9434 255.514 59.7207 255.631 59.4238C255.752 59.127 255.859 58.752 255.953 58.2988C256.047 57.8418 256.129 57.3047 256.199 56.6875C256.273 56.0664 256.338 55.3633 256.393 54.5781H260.178V61ZM263.201 54.5781V61H262.229V54.5781H263.201ZM262.727 52.1758C262.887 52.1758 263.023 52.2285 263.137 52.334C263.254 52.4355 263.312 52.5957 263.312 52.8145C263.312 53.0293 263.254 53.1895 263.137 53.2949C263.023 53.4004 262.887 53.4531 262.727 53.4531C262.559 53.4531 262.418 53.4004 262.305 53.2949C262.195 53.1895 262.141 53.0293 262.141 52.8145C262.141 52.5957 262.195 52.4355 262.305 52.334C262.418 52.2285 262.559 52.1758 262.727 52.1758ZM267.947 61.1172C267.346 61.1172 266.816 61 266.359 60.7656C265.902 60.5312 265.545 60.1719 265.287 59.6875C265.033 59.1992 264.906 58.5781 264.906 57.8242C264.906 57.043 265.039 56.4043 265.305 55.9082C265.574 55.4121 265.941 55.0469 266.406 54.8125C266.875 54.5781 267.406 54.4609 268 54.4609C268.324 54.4609 268.639 54.4922 268.943 54.5547C269.252 54.6172 269.52 54.6992 269.746 54.8008L269.459 55.6035C269.236 55.5137 268.992 55.4414 268.727 55.3867C268.461 55.3281 268.213 55.2988 267.982 55.2988C267.557 55.2988 267.197 55.373 266.904 55.5215C266.611 55.6699 266.383 55.8926 266.219 56.1895C266.059 56.4824 265.957 56.8496 265.914 57.291H269.16V58.0938H265.902C265.926 58.5742 266.014 58.9785 266.166 59.3066C266.318 59.6309 266.541 59.875 266.834 60.0391C267.127 60.2031 267.492 60.2852 267.93 60.2852C268.281 60.2852 268.598 60.25 268.879 60.1797C269.16 60.1094 269.42 60.0254 269.658 59.9277V60.7773C269.432 60.8867 269.182 60.9707 268.908 61.0293C268.639 61.0879 268.318 61.1172 267.947 61.1172ZM272.16 54.5781V57.2734H275.74V54.5781H276.713V61H275.74V58.0996H272.16V61H271.182V54.5781H272.16ZM283.152 55.4043H281.037V61H280.076V55.4043H277.99V54.5781H283.152V55.4043ZM286.996 61.1172C286.418 61.1172 285.908 60.998 285.467 60.7598C285.025 60.5215 284.682 60.1582 284.436 59.6699C284.189 59.1816 284.066 58.5664 284.066 57.8242C284.066 57.0469 284.195 56.4121 284.453 55.9199C284.715 55.4238 285.074 55.0566 285.531 54.8184C285.988 54.5801 286.508 54.4609 287.09 54.4609C287.41 54.4609 287.719 54.4941 288.016 54.5605C288.316 54.623 288.562 54.7031 288.754 54.8008L288.461 55.6152C288.266 55.5371 288.039 55.4668 287.781 55.4043C287.527 55.3418 287.289 55.3105 287.066 55.3105C286.621 55.3105 286.25 55.4062 285.953 55.5977C285.66 55.7891 285.439 56.0703 285.291 56.4414C285.146 56.8125 285.074 57.2695 285.074 57.8125C285.074 58.332 285.145 58.7754 285.285 59.1426C285.43 59.5098 285.643 59.791 285.924 59.9863C286.209 60.1777 286.564 60.2734 286.99 60.2734C287.33 60.2734 287.637 60.2383 287.91 60.168C288.184 60.0938 288.432 60.0078 288.654 59.9102V60.7773C288.439 60.8867 288.199 60.9707 287.934 61.0293C287.672 61.0879 287.359 61.1172 286.996 61.1172ZM291.156 57.2266H293.125C293.672 57.2266 294.127 57.2949 294.49 57.4316C294.854 57.5684 295.125 57.7715 295.305 58.041C295.488 58.3105 295.58 58.6445 295.58 59.043C295.58 59.4414 295.49 59.7871 295.311 60.0801C295.135 60.373 294.861 60.5996 294.49 60.7598C294.123 60.9199 293.648 61 293.066 61H290.178V54.5781H291.156V57.2266ZM294.602 59.0898C294.602 58.6953 294.461 58.4219 294.18 58.2695C293.902 58.1133 293.514 58.0352 293.014 58.0352H291.156V60.209H293.02C293.488 60.209 293.869 60.123 294.162 59.9512C294.455 59.7754 294.602 59.4883 294.602 59.0898ZM301 54.5781H302.072L299.301 57.6777L302.295 61H301.152L298.234 57.7422V61H297.256V54.5781H298.234V57.6953L301 54.5781ZM305.857 54.4727C306.623 54.4727 307.191 54.6445 307.562 54.9883C307.934 55.332 308.119 55.8809 308.119 56.6348V61H307.41L307.223 60.0508H307.176C306.996 60.2852 306.809 60.4824 306.613 60.6426C306.418 60.7988 306.191 60.918 305.934 61C305.68 61.0781 305.367 61.1172 304.996 61.1172C304.605 61.1172 304.258 61.0488 303.953 60.9121C303.652 60.7754 303.414 60.5684 303.238 60.291C303.066 60.0137 302.98 59.6621 302.98 59.2363C302.98 58.5957 303.234 58.1035 303.742 57.7598C304.25 57.416 305.023 57.2285 306.062 57.1973L307.17 57.1504V56.7578C307.17 56.2031 307.051 55.8145 306.812 55.5918C306.574 55.3691 306.238 55.2578 305.805 55.2578C305.469 55.2578 305.148 55.3066 304.844 55.4043C304.539 55.502 304.25 55.6172 303.977 55.75L303.678 55.0117C303.967 54.8633 304.299 54.7363 304.674 54.6309C305.049 54.5254 305.443 54.4727 305.857 54.4727ZM307.158 57.8359L306.18 57.877C305.379 57.9082 304.814 58.0391 304.486 58.2695C304.158 58.5 303.994 58.8262 303.994 59.248C303.994 59.6152 304.105 59.8867 304.328 60.0625C304.551 60.2383 304.846 60.3262 305.213 60.3262C305.783 60.3262 306.25 60.168 306.613 59.8516C306.977 59.5352 307.158 59.0605 307.158 58.4277V57.8359ZM113.875 70.5781V72.8867C113.875 73.2891 113.984 73.5859 114.203 73.7773C114.426 73.9688 114.748 74.0645 115.17 74.0645C115.576 74.0645 115.945 74.002 116.277 73.877C116.609 73.752 116.945 73.582 117.285 73.3672V70.5781H118.258V77H117.285V74.123C116.926 74.3535 116.572 74.5352 116.225 74.668C115.877 74.8008 115.461 74.8672 114.977 74.8672C114.316 74.8672 113.805 74.6953 113.441 74.3516C113.082 74.0078 112.902 73.543 112.902 72.957V70.5781H113.875ZM122.717 70.4727C123.482 70.4727 124.051 70.6445 124.422 70.9883C124.793 71.332 124.979 71.8809 124.979 72.6348V77H124.27L124.082 76.0508H124.035C123.855 76.2852 123.668 76.4824 123.473 76.6426C123.277 76.7988 123.051 76.918 122.793 77C122.539 77.0781 122.227 77.1172 121.855 77.1172C121.465 77.1172 121.117 77.0488 120.812 76.9121C120.512 76.7754 120.273 76.5684 120.098 76.291C119.926 76.0137 119.84 75.6621 119.84 75.2363C119.84 74.5957 120.094 74.1035 120.602 73.7598C121.109 73.416 121.883 73.2285 122.922 73.1973L124.029 73.1504V72.7578C124.029 72.2031 123.91 71.8145 123.672 71.5918C123.434 71.3691 123.098 71.2578 122.664 71.2578C122.328 71.2578 122.008 71.3066 121.703 71.4043C121.398 71.502 121.109 71.6172 120.836 71.75L120.537 71.0117C120.826 70.8633 121.158 70.7363 121.533 70.6309C121.908 70.5254 122.303 70.4727 122.717 70.4727ZM124.018 73.8359L123.039 73.877C122.238 73.9082 121.674 74.0391 121.346 74.2695C121.018 74.5 120.854 74.8262 120.854 75.248C120.854 75.6152 120.965 75.8867 121.188 76.0625C121.41 76.2383 121.705 76.3262 122.072 76.3262C122.643 76.3262 123.109 76.168 123.473 75.8516C123.836 75.5352 124.018 75.0605 124.018 74.4277V73.8359ZM129.555 77.1172C128.977 77.1172 128.467 76.998 128.025 76.7598C127.584 76.5215 127.24 76.1582 126.994 75.6699C126.748 75.1816 126.625 74.5664 126.625 73.8242C126.625 73.0469 126.754 72.4121 127.012 71.9199C127.273 71.4238 127.633 71.0566 128.09 70.8184C128.547 70.5801 129.066 70.4609 129.648 70.4609C129.969 70.4609 130.277 70.4941 130.574 70.5605C130.875 70.623 131.121 70.7031 131.312 70.8008L131.02 71.6152C130.824 71.5371 130.598 71.4668 130.34 71.4043C130.086 71.3418 129.848 71.3105 129.625 71.3105C129.18 71.3105 128.809 71.4062 128.512 71.5977C128.219 71.7891 127.998 72.0703 127.85 72.4414C127.705 72.8125 127.633 73.2695 127.633 73.8125C127.633 74.332 127.703 74.7754 127.844 75.1426C127.988 75.5098 128.201 75.791 128.482 75.9863C128.768 76.1777 129.123 76.2734 129.549 76.2734C129.889 76.2734 130.195 76.2383 130.469 76.168C130.742 76.0938 130.99 76.0078 131.213 75.9102V76.7773C130.998 76.8867 130.758 76.9707 130.492 77.0293C130.23 77.0879 129.918 77.1172 129.555 77.1172ZM137.113 71.4043H134.998V77H134.037V71.4043H131.951V70.5781H137.113V71.4043ZM139.311 70.5781V74.6152C139.311 74.6934 139.309 74.7949 139.305 74.9199C139.301 75.041 139.295 75.1719 139.287 75.3125C139.279 75.4492 139.271 75.582 139.264 75.7109C139.26 75.8359 139.254 75.9395 139.246 76.0215L142.75 70.5781H143.945V77H143.037V73.0625C143.037 72.9375 143.039 72.7773 143.043 72.582C143.047 72.3867 143.053 72.1953 143.061 72.0078C143.068 71.8164 143.074 71.668 143.078 71.5625L139.586 77H138.385V70.5781H139.311ZM146.992 70.5781V73.2734H150.572V70.5781H151.545V77H150.572V74.0996H146.992V77H146.014V70.5781H146.992ZM156.01 70.4727C156.775 70.4727 157.344 70.6445 157.715 70.9883C158.086 71.332 158.271 71.8809 158.271 72.6348V77H157.562L157.375 76.0508H157.328C157.148 76.2852 156.961 76.4824 156.766 76.6426C156.57 76.7988 156.344 76.918 156.086 77C155.832 77.0781 155.52 77.1172 155.148 77.1172C154.758 77.1172 154.41 77.0488 154.105 76.9121C153.805 76.7754 153.566 76.5684 153.391 76.291C153.219 76.0137 153.133 75.6621 153.133 75.2363C153.133 74.5957 153.387 74.1035 153.895 73.7598C154.402 73.416 155.176 73.2285 156.215 73.1973L157.322 73.1504V72.7578C157.322 72.2031 157.203 71.8145 156.965 71.5918C156.727 71.3691 156.391 71.2578 155.957 71.2578C155.621 71.2578 155.301 71.3066 154.996 71.4043C154.691 71.502 154.402 71.6172 154.129 71.75L153.83 71.0117C154.119 70.8633 154.451 70.7363 154.826 70.6309C155.201 70.5254 155.596 70.4727 156.01 70.4727ZM157.311 73.8359L156.332 73.877C155.531 73.9082 154.967 74.0391 154.639 74.2695C154.311 74.5 154.146 74.8262 154.146 75.248C154.146 75.6152 154.258 75.8867 154.48 76.0625C154.703 76.2383 154.998 76.3262 155.365 76.3262C155.936 76.3262 156.402 76.168 156.766 75.8516C157.129 75.5352 157.311 75.0605 157.311 74.4277V73.8359ZM162.309 73.7012C162.309 74.3535 162.244 74.9902 162.115 75.6113C161.99 76.2285 161.797 76.8145 161.535 77.3691C161.277 77.9238 160.947 78.4336 160.545 78.8984H159.625C160 78.4023 160.312 77.8711 160.562 77.3047C160.816 76.7383 161.006 76.1523 161.131 75.5469C161.26 74.9375 161.324 74.3203 161.324 73.6953C161.324 73.0586 161.26 72.4316 161.131 71.8145C161.002 71.1973 160.811 70.6035 160.557 70.0332C160.307 69.4629 159.992 68.9297 159.613 68.4336H160.545C160.947 68.9141 161.277 69.4375 161.535 70.0039C161.797 70.5664 161.99 71.1602 162.115 71.7852C162.244 72.4062 162.309 73.0449 162.309 73.7012ZM171.309 71.4043H169.193V77H168.232V71.4043H166.146V70.5781H171.309V71.4043ZM174.982 70.4727C175.748 70.4727 176.316 70.6445 176.688 70.9883C177.059 71.332 177.244 71.8809 177.244 72.6348V77H176.535L176.348 76.0508H176.301C176.121 76.2852 175.934 76.4824 175.738 76.6426C175.543 76.7988 175.316 76.918 175.059 77C174.805 77.0781 174.492 77.1172 174.121 77.1172C173.73 77.1172 173.383 77.0488 173.078 76.9121C172.777 76.7754 172.539 76.5684 172.363 76.291C172.191 76.0137 172.105 75.6621 172.105 75.2363C172.105 74.5957 172.359 74.1035 172.867 73.7598C173.375 73.416 174.148 73.2285 175.188 73.1973L176.295 73.1504V72.7578C176.295 72.2031 176.176 71.8145 175.938 71.5918C175.699 71.3691 175.363 71.2578 174.93 71.2578C174.594 71.2578 174.273 71.3066 173.969 71.4043C173.664 71.502 173.375 71.6172 173.102 71.75L172.803 71.0117C173.092 70.8633 173.424 70.7363 173.799 70.6309C174.174 70.5254 174.568 70.4727 174.982 70.4727ZM176.283 73.8359L175.305 73.877C174.504 73.9082 173.939 74.0391 173.611 74.2695C173.283 74.5 173.119 74.8262 173.119 75.248C173.119 75.6152 173.23 75.8867 173.453 76.0625C173.676 76.2383 173.971 76.3262 174.338 76.3262C174.908 76.3262 175.375 76.168 175.738 75.8516C176.102 75.5352 176.283 75.0605 176.283 74.4277V73.8359ZM182.031 73.1445C182.031 72.2305 182.119 71.4512 182.295 70.8066C182.471 70.1582 182.742 69.6387 183.109 69.248C183.48 68.8535 183.957 68.584 184.539 68.4395C185.039 68.3027 185.547 68.1855 186.062 68.0879C186.578 67.9863 187.08 67.8984 187.568 67.8242L187.738 68.6797C187.492 68.7148 187.234 68.7559 186.965 68.8027C186.695 68.8457 186.426 68.8926 186.156 68.9434C185.887 68.9902 185.633 69.041 185.395 69.0957C185.156 69.1465 184.945 69.1992 184.762 69.2539C184.43 69.3438 184.143 69.5 183.9 69.7227C183.662 69.9453 183.473 70.252 183.332 70.6426C183.195 71.0332 183.113 71.5254 183.086 72.1191H183.156C183.273 71.9473 183.434 71.7773 183.637 71.6094C183.84 71.4414 184.082 71.3027 184.363 71.1934C184.645 71.0801 184.961 71.0234 185.312 71.0234C185.867 71.0234 186.33 71.1445 186.701 71.3867C187.072 71.625 187.352 71.9609 187.539 72.3945C187.727 72.8281 187.82 73.3359 187.82 73.918C187.82 74.6172 187.699 75.2051 187.457 75.6816C187.219 76.1582 186.883 76.5176 186.449 76.7598C186.016 76.998 185.506 77.1172 184.92 77.1172C184.467 77.1172 184.061 77.0293 183.701 76.8535C183.346 76.6777 183.043 76.4199 182.793 76.0801C182.547 75.7402 182.357 75.3242 182.225 74.832C182.096 74.3398 182.031 73.7773 182.031 73.1445ZM184.996 76.3086C185.367 76.3086 185.686 76.2305 185.951 76.0742C186.221 75.918 186.428 75.6719 186.572 75.3359C186.721 74.9961 186.795 74.5547 186.795 74.0117C186.795 73.332 186.664 72.8008 186.402 72.418C186.145 72.0312 185.73 71.8379 185.16 71.8379C184.805 71.8379 184.482 71.9141 184.193 72.0664C183.904 72.2148 183.66 72.3926 183.461 72.5996C183.262 72.8066 183.117 72.9922 183.027 73.1562C183.027 73.5547 183.057 73.9414 183.115 74.3164C183.174 74.6914 183.275 75.0293 183.42 75.3301C183.564 75.6309 183.764 75.8691 184.018 76.0449C184.275 76.2207 184.602 76.3086 184.996 76.3086ZM191.975 70.4609C192.521 70.4609 192.99 70.582 193.381 70.8242C193.771 71.0664 194.07 71.4062 194.277 71.8438C194.484 72.2773 194.588 72.7852 194.588 73.3672V73.9707H190.152C190.164 74.7246 190.352 75.2988 190.715 75.6934C191.078 76.0879 191.59 76.2852 192.25 76.2852C192.656 76.2852 193.016 76.248 193.328 76.1738C193.641 76.0996 193.965 75.9902 194.301 75.8457V76.7012C193.977 76.8457 193.654 76.9512 193.334 77.0176C193.018 77.084 192.643 77.1172 192.209 77.1172C191.592 77.1172 191.053 76.9922 190.592 76.7422C190.135 76.4883 189.779 76.1172 189.525 75.6289C189.271 75.1406 189.145 74.543 189.145 73.8359C189.145 73.1445 189.26 72.5469 189.49 72.043C189.725 71.5352 190.053 71.1445 190.475 70.8711C190.9 70.5977 191.4 70.4609 191.975 70.4609ZM191.963 71.2578C191.443 71.2578 191.029 71.4277 190.721 71.7676C190.412 72.1074 190.229 72.582 190.17 73.1914H193.568C193.564 72.8086 193.504 72.4727 193.387 72.1836C193.273 71.8906 193.1 71.6641 192.865 71.5039C192.631 71.3398 192.33 71.2578 191.963 71.2578ZM199.984 70.5781H201.057L198.285 73.6777L201.279 77H200.137L197.219 73.7422V77H196.24V70.5781H197.219V73.6953L199.984 70.5781ZM204.912 70.4609C205.459 70.4609 205.928 70.582 206.318 70.8242C206.709 71.0664 207.008 71.4062 207.215 71.8438C207.422 72.2773 207.525 72.7852 207.525 73.3672V73.9707H203.09C203.102 74.7246 203.289 75.2988 203.652 75.6934C204.016 76.0879 204.527 76.2852 205.188 76.2852C205.594 76.2852 205.953 76.248 206.266 76.1738C206.578 76.0996 206.902 75.9902 207.238 75.8457V76.7012C206.914 76.8457 206.592 76.9512 206.271 77.0176C205.955 77.084 205.58 77.1172 205.146 77.1172C204.529 77.1172 203.99 76.9922 203.529 76.7422C203.072 76.4883 202.717 76.1172 202.463 75.6289C202.209 75.1406 202.082 74.543 202.082 73.8359C202.082 73.1445 202.197 72.5469 202.428 72.043C202.662 71.5352 202.99 71.1445 203.412 70.8711C203.838 70.5977 204.338 70.4609 204.912 70.4609ZM204.9 71.2578C204.381 71.2578 203.967 71.4277 203.658 71.7676C203.35 72.1074 203.166 72.582 203.107 73.1914H206.506C206.502 72.8086 206.441 72.4727 206.324 72.1836C206.211 71.8906 206.037 71.6641 205.803 71.5039C205.568 71.3398 205.268 71.2578 204.9 71.2578ZM210.156 70.5781V73.2734H213.736V70.5781H214.709V77H213.736V74.0996H210.156V77H209.178V70.5781H210.156ZM221.477 70.5781V76.1738H222.396V79.2207H221.453V77H216.906V79.2207H215.975V76.1738H216.479C216.846 75.666 217.15 75.1094 217.393 74.5039C217.635 73.8984 217.818 73.2637 217.943 72.5996C218.068 71.9316 218.135 71.2578 218.143 70.5781H221.477ZM220.533 71.3516H219.01C218.975 71.9219 218.891 72.502 218.758 73.0918C218.629 73.6816 218.457 74.2441 218.242 74.7793C218.027 75.3105 217.777 75.7754 217.492 76.1738H220.533V71.3516ZM226.246 73.7129C226.246 73.0527 226.309 72.4102 226.434 71.7852C226.562 71.1602 226.758 70.5645 227.02 69.998C227.281 69.4316 227.611 68.9102 228.01 68.4336H228.941C228.375 69.1758 227.949 70 227.664 70.9062C227.379 71.8125 227.236 72.7441 227.236 73.7012C227.236 74.3262 227.299 74.9434 227.424 75.5527C227.553 76.1582 227.742 76.7422 227.992 77.3047C228.246 77.8672 228.559 78.3984 228.93 78.8984H228.01C227.611 78.4297 227.281 77.918 227.02 77.3633C226.758 76.8125 226.562 76.2285 226.434 75.6113C226.309 74.9941 226.246 74.3613 226.246 73.7129ZM232.902 77.1172C232.324 77.1172 231.814 76.998 231.373 76.7598C230.932 76.5215 230.588 76.1582 230.342 75.6699C230.096 75.1816 229.973 74.5664 229.973 73.8242C229.973 73.0469 230.102 72.4121 230.359 71.9199C230.621 71.4238 230.98 71.0566 231.438 70.8184C231.895 70.5801 232.414 70.4609 232.996 70.4609C233.316 70.4609 233.625 70.4941 233.922 70.5605C234.223 70.623 234.469 70.7031 234.66 70.8008L234.367 71.6152C234.172 71.5371 233.945 71.4668 233.688 71.4043C233.434 71.3418 233.195 71.3105 232.973 71.3105C232.527 71.3105 232.156 71.4062 231.859 71.5977C231.566 71.7891 231.346 72.0703 231.197 72.4414C231.053 72.8125 230.98 73.2695 230.98 73.8125C230.98 74.332 231.051 74.7754 231.191 75.1426C231.336 75.5098 231.549 75.791 231.83 75.9863C232.115 76.1777 232.471 76.2734 232.896 76.2734C233.236 76.2734 233.543 76.2383 233.816 76.168C234.09 76.0938 234.338 76.0078 234.561 75.9102V76.7773C234.346 76.8867 234.105 76.9707 233.84 77.0293C233.578 77.0879 233.266 77.1172 232.902 77.1172ZM238.557 70.4609C239.104 70.4609 239.572 70.582 239.963 70.8242C240.354 71.0664 240.652 71.4062 240.859 71.8438C241.066 72.2773 241.17 72.7852 241.17 73.3672V73.9707H236.734C236.746 74.7246 236.934 75.2988 237.297 75.6934C237.66 76.0879 238.172 76.2852 238.832 76.2852C239.238 76.2852 239.598 76.248 239.91 76.1738C240.223 76.0996 240.547 75.9902 240.883 75.8457V76.7012C240.559 76.8457 240.236 76.9512 239.916 77.0176C239.6 77.084 239.225 77.1172 238.791 77.1172C238.174 77.1172 237.635 76.9922 237.174 76.7422C236.717 76.4883 236.361 76.1172 236.107 75.6289C235.854 75.1406 235.727 74.543 235.727 73.8359C235.727 73.1445 235.842 72.5469 236.072 72.043C236.307 71.5352 236.635 71.1445 237.057 70.8711C237.482 70.5977 237.982 70.4609 238.557 70.4609ZM238.545 71.2578C238.025 71.2578 237.611 71.4277 237.303 71.7676C236.994 72.1074 236.811 72.582 236.752 73.1914H240.15C240.146 72.8086 240.086 72.4727 239.969 72.1836C239.855 71.8906 239.682 71.6641 239.447 71.5039C239.213 71.3398 238.912 71.2578 238.545 71.2578ZM245.84 70.4609C246.641 70.4609 247.279 70.7363 247.756 71.2871C248.232 71.8379 248.471 72.666 248.471 73.7715C248.471 74.502 248.361 75.1152 248.143 75.6113C247.924 76.1074 247.615 76.4824 247.217 76.7363C246.822 76.9902 246.355 77.1172 245.816 77.1172C245.477 77.1172 245.178 77.0723 244.92 76.9824C244.662 76.8926 244.441 76.7715 244.258 76.6191C244.074 76.4668 243.922 76.3008 243.801 76.1211H243.73C243.742 76.2734 243.756 76.457 243.771 76.6719C243.791 76.8867 243.801 77.0742 243.801 77.2344V79.8711H242.822V70.5781H243.625L243.754 71.5273H243.801C243.926 71.332 244.078 71.1543 244.258 70.9941C244.438 70.8301 244.656 70.7012 244.914 70.6074C245.176 70.5098 245.484 70.4609 245.84 70.4609ZM245.67 71.2812C245.225 71.2812 244.865 71.3672 244.592 71.5391C244.322 71.7109 244.125 71.9688 244 72.3125C243.875 72.6523 243.809 73.0801 243.801 73.5957V73.7832C243.801 74.3262 243.859 74.7852 243.977 75.1602C244.098 75.5352 244.295 75.8203 244.568 76.0156C244.846 76.2109 245.217 76.3086 245.682 76.3086C246.08 76.3086 246.412 76.2012 246.678 75.9863C246.943 75.7715 247.141 75.4727 247.27 75.0898C247.402 74.7031 247.469 74.2598 247.469 73.7598C247.469 73.002 247.32 72.4004 247.023 71.9551C246.73 71.5059 246.279 71.2812 245.67 71.2812ZM255.273 72.1895C255.273 72.5918 255.156 72.9062 254.922 73.1328C254.688 73.3555 254.385 73.5059 254.014 73.584V73.6309C254.416 73.6855 254.762 73.8301 255.051 74.0645C255.344 74.2949 255.49 74.6484 255.49 75.125C255.49 75.4922 255.402 75.8164 255.227 76.0977C255.051 76.3789 254.775 76.5996 254.4 76.7598C254.025 76.9199 253.537 77 252.936 77H250.17V70.5781H252.912C253.373 70.5781 253.779 70.6309 254.131 70.7363C254.486 70.8379 254.766 71.0059 254.969 71.2402C255.172 71.4746 255.273 71.791 255.273 72.1895ZM254.477 75.125C254.477 74.7461 254.332 74.4727 254.043 74.3047C253.758 74.1367 253.342 74.0527 252.795 74.0527H251.148V76.209H252.818C253.357 76.209 253.768 76.127 254.049 75.9629C254.334 75.7949 254.477 75.5156 254.477 75.125ZM254.283 72.3008C254.283 71.9961 254.172 71.7695 253.949 71.6211C253.727 71.4688 253.361 71.3926 252.854 71.3926H251.148V73.2383H252.684C253.211 73.2383 253.609 73.1621 253.879 73.0098C254.148 72.8574 254.283 72.6211 254.283 72.3008ZM259.533 70.4609C260.08 70.4609 260.549 70.582 260.939 70.8242C261.33 71.0664 261.629 71.4062 261.836 71.8438C262.043 72.2773 262.146 72.7852 262.146 73.3672V73.9707H257.711C257.723 74.7246 257.91 75.2988 258.273 75.6934C258.637 76.0879 259.148 76.2852 259.809 76.2852C260.215 76.2852 260.574 76.248 260.887 76.1738C261.199 76.0996 261.523 75.9902 261.859 75.8457V76.7012C261.535 76.8457 261.213 76.9512 260.893 77.0176C260.576 77.084 260.201 77.1172 259.768 77.1172C259.15 77.1172 258.611 76.9922 258.15 76.7422C257.693 76.4883 257.338 76.1172 257.084 75.6289C256.83 75.1406 256.703 74.543 256.703 73.8359C256.703 73.1445 256.818 72.5469 257.049 72.043C257.283 71.5352 257.611 71.1445 258.033 70.8711C258.459 70.5977 258.959 70.4609 259.533 70.4609ZM259.521 71.2578C259.002 71.2578 258.588 71.4277 258.279 71.7676C257.971 72.1074 257.787 72.582 257.729 73.1914H261.127C261.123 72.8086 261.062 72.4727 260.945 72.1836C260.832 71.8906 260.658 71.6641 260.424 71.5039C260.189 71.3398 259.889 71.2578 259.521 71.2578ZM266.816 70.4609C267.617 70.4609 268.256 70.7363 268.732 71.2871C269.209 71.8379 269.447 72.666 269.447 73.7715C269.447 74.502 269.338 75.1152 269.119 75.6113C268.9 76.1074 268.592 76.4824 268.193 76.7363C267.799 76.9902 267.332 77.1172 266.793 77.1172C266.453 77.1172 266.154 77.0723 265.896 76.9824C265.639 76.8926 265.418 76.7715 265.234 76.6191C265.051 76.4668 264.898 76.3008 264.777 76.1211H264.707C264.719 76.2734 264.732 76.457 264.748 76.6719C264.768 76.8867 264.777 77.0742 264.777 77.2344V79.8711H263.799V70.5781H264.602L264.73 71.5273H264.777C264.902 71.332 265.055 71.1543 265.234 70.9941C265.414 70.8301 265.633 70.7012 265.891 70.6074C266.152 70.5098 266.461 70.4609 266.816 70.4609ZM266.646 71.2812C266.201 71.2812 265.842 71.3672 265.568 71.5391C265.299 71.7109 265.102 71.9688 264.977 72.3125C264.852 72.6523 264.785 73.0801 264.777 73.5957V73.7832C264.777 74.3262 264.836 74.7852 264.953 75.1602C265.074 75.5352 265.271 75.8203 265.545 76.0156C265.822 76.2109 266.193 76.3086 266.658 76.3086C267.057 76.3086 267.389 76.2012 267.654 75.9863C267.92 75.7715 268.117 75.4727 268.246 75.0898C268.379 74.7031 268.445 74.2598 268.445 73.7598C268.445 73.002 268.297 72.4004 268 71.9551C267.707 71.5059 267.256 71.2812 266.646 71.2812ZM272.125 70.5781V73.2734H275.705V70.5781H276.678V77H275.705V74.0996H272.125V77H271.146V70.5781H272.125ZM281.143 70.4727C281.908 70.4727 282.477 70.6445 282.848 70.9883C283.219 71.332 283.404 71.8809 283.404 72.6348V77H282.695L282.508 76.0508H282.461C282.281 76.2852 282.094 76.4824 281.898 76.6426C281.703 76.7988 281.477 76.918 281.219 77C280.965 77.0781 280.652 77.1172 280.281 77.1172C279.891 77.1172 279.543 77.0488 279.238 76.9121C278.938 76.7754 278.699 76.5684 278.523 76.291C278.352 76.0137 278.266 75.6621 278.266 75.2363C278.266 74.5957 278.52 74.1035 279.027 73.7598C279.535 73.416 280.309 73.2285 281.348 73.1973L282.455 73.1504V72.7578C282.455 72.2031 282.336 71.8145 282.098 71.5918C281.859 71.3691 281.523 71.2578 281.09 71.2578C280.754 71.2578 280.434 71.3066 280.129 71.4043C279.824 71.502 279.535 71.6172 279.262 71.75L278.963 71.0117C279.252 70.8633 279.584 70.7363 279.959 70.6309C280.334 70.5254 280.729 70.4727 281.143 70.4727ZM282.443 73.8359L281.465 73.877C280.664 73.9082 280.1 74.0391 279.771 74.2695C279.443 74.5 279.279 74.8262 279.279 75.248C279.279 75.6152 279.391 75.8867 279.613 76.0625C279.836 76.2383 280.131 76.3262 280.498 76.3262C281.068 76.3262 281.535 76.168 281.898 75.8516C282.262 75.5352 282.443 75.0605 282.443 74.4277V73.8359ZM113.875 86.5781V88.8867C113.875 89.2891 113.984 89.5859 114.203 89.7773C114.426 89.9688 114.748 90.0645 115.17 90.0645C115.576 90.0645 115.945 90.002 116.277 89.877C116.609 89.752 116.945 89.582 117.285 89.3672V86.5781H118.258V93H117.285V90.123C116.926 90.3535 116.572 90.5352 116.225 90.668C115.877 90.8008 115.461 90.8672 114.977 90.8672C114.316 90.8672 113.805 90.6953 113.441 90.3516C113.082 90.0078 112.902 89.543 112.902 88.957V86.5781H113.875ZM122.717 86.4727C123.482 86.4727 124.051 86.6445 124.422 86.9883C124.793 87.332 124.979 87.8809 124.979 88.6348V93H124.27L124.082 92.0508H124.035C123.855 92.2852 123.668 92.4824 123.473 92.6426C123.277 92.7988 123.051 92.918 122.793 93C122.539 93.0781 122.227 93.1172 121.855 93.1172C121.465 93.1172 121.117 93.0488 120.812 92.9121C120.512 92.7754 120.273 92.5684 120.098 92.291C119.926 92.0137 119.84 91.6621 119.84 91.2363C119.84 90.5957 120.094 90.1035 120.602 89.7598C121.109 89.416 121.883 89.2285 122.922 89.1973L124.029 89.1504V88.7578C124.029 88.2031 123.91 87.8145 123.672 87.5918C123.434 87.3691 123.098 87.2578 122.664 87.2578C122.328 87.2578 122.008 87.3066 121.703 87.4043C121.398 87.502 121.109 87.6172 120.836 87.75L120.537 87.0117C120.826 86.8633 121.158 86.7363 121.533 86.6309C121.908 86.5254 122.303 86.4727 122.717 86.4727ZM124.018 89.8359L123.039 89.877C122.238 89.9082 121.674 90.0391 121.346 90.2695C121.018 90.5 120.854 90.8262 120.854 91.248C120.854 91.6152 120.965 91.8867 121.188 92.0625C121.41 92.2383 121.705 92.3262 122.072 92.3262C122.643 92.3262 123.109 92.168 123.473 91.8516C123.836 91.5352 124.018 91.0605 124.018 90.4277V89.8359ZM129.555 93.1172C128.977 93.1172 128.467 92.998 128.025 92.7598C127.584 92.5215 127.24 92.1582 126.994 91.6699C126.748 91.1816 126.625 90.5664 126.625 89.8242C126.625 89.0469 126.754 88.4121 127.012 87.9199C127.273 87.4238 127.633 87.0566 128.09 86.8184C128.547 86.5801 129.066 86.4609 129.648 86.4609C129.969 86.4609 130.277 86.4941 130.574 86.5605C130.875 86.623 131.121 86.7031 131.312 86.8008L131.02 87.6152C130.824 87.5371 130.598 87.4668 130.34 87.4043C130.086 87.3418 129.848 87.3105 129.625 87.3105C129.18 87.3105 128.809 87.4062 128.512 87.5977C128.219 87.7891 127.998 88.0703 127.85 88.4414C127.705 88.8125 127.633 89.2695 127.633 89.8125C127.633 90.332 127.703 90.7754 127.844 91.1426C127.988 91.5098 128.201 91.791 128.482 91.9863C128.768 92.1777 129.123 92.2734 129.549 92.2734C129.889 92.2734 130.195 92.2383 130.469 92.168C130.742 92.0938 130.99 92.0078 131.213 91.9102V92.7773C130.998 92.8867 130.758 92.9707 130.492 93.0293C130.23 93.0879 129.918 93.1172 129.555 93.1172ZM137.113 87.4043H134.998V93H134.037V87.4043H131.951V86.5781H137.113V87.4043ZM139.311 86.5781V90.6152C139.311 90.6934 139.309 90.7949 139.305 90.9199C139.301 91.041 139.295 91.1719 139.287 91.3125C139.279 91.4492 139.271 91.582 139.264 91.7109C139.26 91.8359 139.254 91.9395 139.246 92.0215L142.75 86.5781H143.945V93H143.037V89.0625C143.037 88.9375 143.039 88.7773 143.043 88.582C143.047 88.3867 143.053 88.1953 143.061 88.0078C143.068 87.8164 143.074 87.668 143.078 87.5625L139.586 93H138.385V86.5781H139.311ZM146.992 86.5781V89.2734H150.572V86.5781H151.545V93H150.572V90.0996H146.992V93H146.014V86.5781H146.992ZM156.01 86.4727C156.775 86.4727 157.344 86.6445 157.715 86.9883C158.086 87.332 158.271 87.8809 158.271 88.6348V93H157.562L157.375 92.0508H157.328C157.148 92.2852 156.961 92.4824 156.766 92.6426C156.57 92.7988 156.344 92.918 156.086 93C155.832 93.0781 155.52 93.1172 155.148 93.1172C154.758 93.1172 154.41 93.0488 154.105 92.9121C153.805 92.7754 153.566 92.5684 153.391 92.291C153.219 92.0137 153.133 91.6621 153.133 91.2363C153.133 90.5957 153.387 90.1035 153.895 89.7598C154.402 89.416 155.176 89.2285 156.215 89.1973L157.322 89.1504V88.7578C157.322 88.2031 157.203 87.8145 156.965 87.5918C156.727 87.3691 156.391 87.2578 155.957 87.2578C155.621 87.2578 155.301 87.3066 154.996 87.4043C154.691 87.502 154.402 87.6172 154.129 87.75L153.83 87.0117C154.119 86.8633 154.451 86.7363 154.826 86.6309C155.201 86.5254 155.596 86.4727 156.01 86.4727ZM157.311 89.8359L156.332 89.877C155.531 89.9082 154.967 90.0391 154.639 90.2695C154.311 90.5 154.146 90.8262 154.146 91.248C154.146 91.6152 154.258 91.8867 154.48 92.0625C154.703 92.2383 154.998 92.3262 155.365 92.3262C155.936 92.3262 156.402 92.168 156.766 91.8516C157.129 91.5352 157.311 91.0605 157.311 90.4277V89.8359ZM162.309 89.7012C162.309 90.3535 162.244 90.9902 162.115 91.6113C161.99 92.2285 161.797 92.8145 161.535 93.3691C161.277 93.9238 160.947 94.4336 160.545 94.8984H159.625C160 94.4023 160.312 93.8711 160.562 93.3047C160.816 92.7383 161.006 92.1523 161.131 91.5469C161.26 90.9375 161.324 90.3203 161.324 89.6953C161.324 89.0586 161.26 88.4316 161.131 87.8145C161.002 87.1973 160.811 86.6035 160.557 86.0332C160.307 85.4629 159.992 84.9297 159.613 84.4336H160.545C160.947 84.9141 161.277 85.4375 161.535 86.0039C161.797 86.5664 161.99 87.1602 162.115 87.7852C162.244 88.4062 162.309 89.0449 162.309 89.7012ZM169.949 86.4609C170.75 86.4609 171.389 86.7363 171.865 87.2871C172.342 87.8379 172.58 88.666 172.58 89.7715C172.58 90.502 172.471 91.1152 172.252 91.6113C172.033 92.1074 171.725 92.4824 171.326 92.7363C170.932 92.9902 170.465 93.1172 169.926 93.1172C169.586 93.1172 169.287 93.0723 169.029 92.9824C168.771 92.8926 168.551 92.7715 168.367 92.6191C168.184 92.4668 168.031 92.3008 167.91 92.1211H167.84C167.852 92.2734 167.865 92.457 167.881 92.6719C167.9 92.8867 167.91 93.0742 167.91 93.2344V95.8711H166.932V86.5781H167.734L167.863 87.5273H167.91C168.035 87.332 168.188 87.1543 168.367 86.9941C168.547 86.8301 168.766 86.7012 169.023 86.6074C169.285 86.5098 169.594 86.4609 169.949 86.4609ZM169.779 87.2812C169.334 87.2812 168.975 87.3672 168.701 87.5391C168.432 87.7109 168.234 87.9688 168.109 88.3125C167.984 88.6523 167.918 89.0801 167.91 89.5957V89.7832C167.91 90.3262 167.969 90.7852 168.086 91.1602C168.207 91.5352 168.404 91.8203 168.678 92.0156C168.955 92.2109 169.326 92.3086 169.791 92.3086C170.189 92.3086 170.521 92.2012 170.787 91.9863C171.053 91.7715 171.25 91.4727 171.379 91.0898C171.512 90.7031 171.578 90.2598 171.578 89.7598C171.578 89.002 171.43 88.4004 171.133 87.9551C170.84 87.5059 170.389 87.2812 169.779 87.2812ZM179.816 89.7773C179.816 90.3047 179.748 90.7754 179.611 91.1895C179.475 91.6035 179.277 91.9531 179.02 92.2383C178.762 92.5234 178.449 92.7422 178.082 92.8945C177.719 93.043 177.307 93.1172 176.846 93.1172C176.416 93.1172 176.021 93.043 175.662 92.8945C175.307 92.7422 174.998 92.5234 174.736 92.2383C174.479 91.9531 174.277 91.6035 174.133 91.1895C173.992 90.7754 173.922 90.3047 173.922 89.7773C173.922 89.0742 174.041 88.4766 174.279 87.9844C174.518 87.4883 174.857 87.1113 175.299 86.8535C175.744 86.5918 176.273 86.4609 176.887 86.4609C177.473 86.4609 177.984 86.5918 178.422 86.8535C178.863 87.1152 179.205 87.4941 179.447 87.9902C179.693 88.4824 179.816 89.0781 179.816 89.7773ZM174.93 89.7773C174.93 90.293 174.998 90.7402 175.135 91.1191C175.271 91.498 175.482 91.791 175.768 91.998C176.053 92.2051 176.42 92.3086 176.869 92.3086C177.314 92.3086 177.68 92.2051 177.965 91.998C178.254 91.791 178.467 91.498 178.604 91.1191C178.74 90.7402 178.809 90.293 178.809 89.7773C178.809 89.2656 178.74 88.8242 178.604 88.4531C178.467 88.0781 178.256 87.7891 177.971 87.5859C177.686 87.3828 177.316 87.2812 176.863 87.2812C176.195 87.2812 175.705 87.502 175.393 87.9434C175.084 88.3848 174.93 88.9961 174.93 89.7773ZM183.15 86.4609C183.631 86.4609 184.047 86.5273 184.398 86.6602C184.75 86.7891 185.021 86.9785 185.213 87.2285C185.404 87.4785 185.5 87.7832 185.5 88.1426C185.5 88.5293 185.395 88.8379 185.184 89.0684C184.973 89.2988 184.682 89.4648 184.311 89.5664V89.6133C184.572 89.6836 184.809 89.7852 185.02 89.918C185.234 90.0469 185.404 90.2188 185.529 90.4336C185.658 90.6445 185.723 90.9082 185.723 91.2246C185.723 91.584 185.625 91.9082 185.43 92.1973C185.234 92.4824 184.938 92.707 184.539 92.8711C184.141 93.0352 183.637 93.1172 183.027 93.1172C182.727 93.1172 182.441 93.0996 182.172 93.0645C181.902 93.0332 181.658 92.9863 181.439 92.9238C181.221 92.8613 181.029 92.7871 180.865 92.7012V91.8164C181.139 91.9492 181.459 92.0664 181.826 92.168C182.193 92.2695 182.59 92.3203 183.016 92.3203C183.344 92.3203 183.639 92.2832 183.9 92.209C184.162 92.1309 184.369 92.0078 184.521 91.8398C184.678 91.668 184.756 91.4434 184.756 91.166C184.756 90.9121 184.688 90.7031 184.551 90.5391C184.414 90.3711 184.209 90.248 183.936 90.1699C183.666 90.0879 183.324 90.0469 182.91 90.0469H182.049V89.25H182.758C183.309 89.25 183.748 89.1719 184.076 89.0156C184.404 88.8594 184.568 88.5957 184.568 88.2246C184.568 87.9043 184.441 87.666 184.188 87.5098C183.934 87.3496 183.57 87.2695 183.098 87.2695C182.746 87.2695 182.436 87.3066 182.166 87.3809C181.896 87.4512 181.605 87.5527 181.293 87.6855L180.947 86.9062C181.283 86.7578 181.635 86.6465 182.002 86.5723C182.369 86.498 182.752 86.4609 183.15 86.4609ZM190.316 86.4609C191.117 86.4609 191.756 86.7363 192.232 87.2871C192.709 87.8379 192.947 88.666 192.947 89.7715C192.947 90.502 192.838 91.1152 192.619 91.6113C192.4 92.1074 192.092 92.4824 191.693 92.7363C191.299 92.9902 190.832 93.1172 190.293 93.1172C189.953 93.1172 189.654 93.0723 189.396 92.9824C189.139 92.8926 188.918 92.7715 188.734 92.6191C188.551 92.4668 188.398 92.3008 188.277 92.1211H188.207C188.219 92.2734 188.232 92.457 188.248 92.6719C188.268 92.8867 188.277 93.0742 188.277 93.2344V95.8711H187.299V86.5781H188.102L188.23 87.5273H188.277C188.402 87.332 188.555 87.1543 188.734 86.9941C188.914 86.8301 189.133 86.7012 189.391 86.6074C189.652 86.5098 189.961 86.4609 190.316 86.4609ZM190.146 87.2812C189.701 87.2812 189.342 87.3672 189.068 87.5391C188.799 87.7109 188.602 87.9688 188.477 88.3125C188.352 88.6523 188.285 89.0801 188.277 89.5957V89.7832C188.277 90.3262 188.336 90.7852 188.453 91.1602C188.574 91.5352 188.771 91.8203 189.045 92.0156C189.322 92.2109 189.693 92.3086 190.158 92.3086C190.557 92.3086 190.889 92.2012 191.154 91.9863C191.42 91.7715 191.617 91.4727 191.746 91.0898C191.879 90.7031 191.945 90.2598 191.945 89.7598C191.945 89.002 191.797 88.4004 191.5 87.9551C191.207 87.5059 190.756 87.2812 190.146 87.2812ZM200.184 89.7773C200.184 90.3047 200.115 90.7754 199.979 91.1895C199.842 91.6035 199.645 91.9531 199.387 92.2383C199.129 92.5234 198.816 92.7422 198.449 92.8945C198.086 93.043 197.674 93.1172 197.213 93.1172C196.783 93.1172 196.389 93.043 196.029 92.8945C195.674 92.7422 195.365 92.5234 195.104 92.2383C194.846 91.9531 194.645 91.6035 194.5 91.1895C194.359 90.7754 194.289 90.3047 194.289 89.7773C194.289 89.0742 194.408 88.4766 194.646 87.9844C194.885 87.4883 195.225 87.1113 195.666 86.8535C196.111 86.5918 196.641 86.4609 197.254 86.4609C197.84 86.4609 198.352 86.5918 198.789 86.8535C199.23 87.1152 199.572 87.4941 199.814 87.9902C200.061 88.4824 200.184 89.0781 200.184 89.7773ZM195.297 89.7773C195.297 90.293 195.365 90.7402 195.502 91.1191C195.639 91.498 195.85 91.791 196.135 91.998C196.42 92.2051 196.787 92.3086 197.236 92.3086C197.682 92.3086 198.047 92.2051 198.332 91.998C198.621 91.791 198.834 91.498 198.971 91.1191C199.107 90.7402 199.176 90.293 199.176 89.7773C199.176 89.2656 199.107 88.8242 198.971 88.4531C198.834 88.0781 198.623 87.7891 198.338 87.5859C198.053 87.3828 197.684 87.2812 197.23 87.2812C196.562 87.2812 196.072 87.502 195.76 87.9434C195.451 88.3848 195.297 88.9961 195.297 89.7773ZM201.531 89.1445C201.531 88.2305 201.619 87.4512 201.795 86.8066C201.971 86.1582 202.242 85.6387 202.609 85.248C202.98 84.8535 203.457 84.584 204.039 84.4395C204.539 84.3027 205.047 84.1855 205.562 84.0879C206.078 83.9863 206.58 83.8984 207.068 83.8242L207.238 84.6797C206.992 84.7148 206.734 84.7559 206.465 84.8027C206.195 84.8457 205.926 84.8926 205.656 84.9434C205.387 84.9902 205.133 85.041 204.895 85.0957C204.656 85.1465 204.445 85.1992 204.262 85.2539C203.93 85.3438 203.643 85.5 203.4 85.7227C203.162 85.9453 202.973 86.252 202.832 86.6426C202.695 87.0332 202.613 87.5254 202.586 88.1191H202.656C202.773 87.9473 202.934 87.7773 203.137 87.6094C203.34 87.4414 203.582 87.3027 203.863 87.1934C204.145 87.0801 204.461 87.0234 204.812 87.0234C205.367 87.0234 205.83 87.1445 206.201 87.3867C206.572 87.625 206.852 87.9609 207.039 88.3945C207.227 88.8281 207.32 89.3359 207.32 89.918C207.32 90.6172 207.199 91.2051 206.957 91.6816C206.719 92.1582 206.383 92.5176 205.949 92.7598C205.516 92.998 205.006 93.1172 204.42 93.1172C203.967 93.1172 203.561 93.0293 203.201 92.8535C202.846 92.6777 202.543 92.4199 202.293 92.0801C202.047 91.7402 201.857 91.3242 201.725 90.832C201.596 90.3398 201.531 89.7773 201.531 89.1445ZM204.496 92.3086C204.867 92.3086 205.186 92.2305 205.451 92.0742C205.721 91.918 205.928 91.6719 206.072 91.3359C206.221 90.9961 206.295 90.5547 206.295 90.0117C206.295 89.332 206.164 88.8008 205.902 88.418C205.645 88.0312 205.23 87.8379 204.66 87.8379C204.305 87.8379 203.982 87.9141 203.693 88.0664C203.404 88.2148 203.16 88.3926 202.961 88.5996C202.762 88.8066 202.617 88.9922 202.527 89.1562C202.527 89.5547 202.557 89.9414 202.615 90.3164C202.674 90.6914 202.775 91.0293 202.92 91.3301C203.064 91.6309 203.264 91.8691 203.518 92.0449C203.775 92.2207 204.102 92.3086 204.496 92.3086ZM212.746 86.5781H213.818L211.047 89.6777L214.041 93H212.898L209.98 89.7422V93H209.002V86.5781H209.98V89.6953L212.746 86.5781ZM214.188 86.5781H215.23L216.648 90.3047C216.73 90.5234 216.807 90.7344 216.877 90.9375C216.947 91.1367 217.01 91.3281 217.064 91.5117C217.119 91.6953 217.162 91.873 217.193 92.0449H217.234C217.289 91.8496 217.367 91.5938 217.469 91.2773C217.57 90.957 217.68 90.6309 217.797 90.2988L219.139 86.5781H220.188L217.393 93.9434C217.244 94.3379 217.07 94.6816 216.871 94.9746C216.676 95.2676 216.438 95.4922 216.156 95.6484C215.875 95.8086 215.535 95.8887 215.137 95.8887C214.953 95.8887 214.791 95.877 214.65 95.8535C214.51 95.834 214.389 95.8105 214.287 95.7832V95.0039C214.373 95.0234 214.477 95.041 214.598 95.0566C214.723 95.0723 214.852 95.0801 214.984 95.0801C215.227 95.0801 215.436 95.0332 215.611 94.9395C215.791 94.8496 215.945 94.7168 216.074 94.541C216.203 94.3652 216.314 94.1562 216.408 93.9141L216.76 93.0117L214.188 86.5781Z" fill="#1E1E1E"/>
</svg>
