<svg width="353" height="120" viewBox="0 0 353 120" fill="none" xmlns="http://www.w3.org/2000/svg">
<rect x="0.783871" y="0.783871" width="98.4323" height="98.4323" rx="3.13548" fill="#FAFAFA"/>
<rect x="0.783871" y="0.783871" width="98.4323" height="98.4323" rx="3.13548" stroke="#5D59FF" stroke-width="1.56774"/>
<g clip-path="url(#clip0_689_14515)">
<rect width="44.6429" height="29.0178" transform="translate(30.3574 32.9999)" fill="#5D59FF"/>
<rect width="44.6429" height="4.46428" transform="translate(30.3574 32.9999)" fill="#1E1E1E"/>
<ellipse cx="32.5895" cy="35.2319" rx="0.446429" ry="0.446428" fill="#D1CFFF"/>
<ellipse cx="34.3751" cy="35.2319" rx="0.446429" ry="0.446428" fill="#D1CFFF"/>
<ellipse cx="36.1608" cy="35.2319" rx="0.446429" ry="0.446428" fill="#D1CFFF"/>
</g>
<g clip-path="url(#clip1_689_14515)">
<rect width="44.6429" height="29.0178" transform="translate(25 38.3568)" fill="#D1CFFF"/>
<rect width="44.6429" height="4.46428" transform="translate(25 38.3568)" fill="#1E1E1E"/>
<ellipse cx="27.2321" cy="40.589" rx="0.446429" ry="0.446428" fill="#D1CFFF"/>
<ellipse cx="29.0177" cy="40.5891" rx="0.446429" ry="0.446428" fill="#D1CFFF"/>
<ellipse cx="30.8034" cy="40.5891" rx="0.446429" ry="0.446428" fill="#D1CFFF"/>
<g clip-path="url(#clip2_689_14515)">
<rect width="17.8571" height="17.8571" transform="translate(26.7856 44.6068)" fill="#FAFAFA"/>
<rect width="17.8571" height="17.8571" transform="translate(26.7856 44.6068)" fill="#FAFAFA"/>
<path fill-rule="evenodd" clip-rule="evenodd" d="M37.9707 51.9099C38.3922 51.9099 38.734 51.5493 38.734 51.1044C38.734 50.6595 38.3922 50.2988 37.9707 50.2988C37.5492 50.2988 37.2075 50.6595 37.2075 51.1044C37.2075 51.5493 37.5492 51.9099 37.9707 51.9099ZM35.8583 56.788H31.466C31.2091 56.788 31.0524 56.4924 31.1882 56.2644L34.1174 51.3428C34.2434 51.131 34.5357 51.1255 34.6669 51.3338C35.1251 52.0607 36.0647 53.5544 36.873 54.8562L37.7215 53.4221C37.8447 53.2139 38.1309 53.2044 38.2665 53.404L40.2014 56.252C40.3546 56.4777 40.2032 56.7904 39.9388 56.7928L38.0637 56.8123L35.8583 56.788Z" fill="#5D59FF"/>
</g>
<line x1="46.4287" y1="45.0532" x2="58.4823" y2="45.0532" stroke="#353395" stroke-width="0.892856"/>
<line x1="46.4287" y1="47.955" x2="67.8573" y2="47.955" stroke="#1E1E1E" stroke-width="0.446428"/>
<line x1="46.4287" y1="49.7408" x2="58.0359" y2="49.7408" stroke="#1E1E1E" stroke-width="0.446428"/>
<line x1="58.9287" y1="49.7408" x2="67.8573" y2="49.7408" stroke="#1E1E1E" stroke-width="0.446428"/>
<line x1="65.1787" y1="51.5264" x2="67.8573" y2="51.5264" stroke="#1E1E1E" stroke-width="0.446428"/>
<line x1="46.4287" y1="53.3122" x2="53.1251" y2="53.3122" stroke="#1E1E1E" stroke-width="0.446428"/>
<line x1="54.0181" y1="53.3122" x2="67.8574" y2="53.3122" stroke="#1E1E1E" stroke-width="0.446428"/>
<line x1="46.4287" y1="55.0978" x2="67.8573" y2="55.0978" stroke="#1E1E1E" stroke-width="0.446428"/>
<line x1="46.4287" y1="56.8836" x2="56.6966" y2="56.8836" stroke="#1E1E1E" stroke-width="0.446428"/>
<line x1="57.5894" y1="56.8836" x2="67.8572" y2="56.8836" stroke="#1E1E1E" stroke-width="0.446428"/>
<line x1="46.4287" y1="51.5264" x2="63.393" y2="51.5264" stroke="#1E1E1E" stroke-width="0.446428"/>
<rect width="21.4286" height="3.125" transform="translate(46.4287 59.339)" fill="#A17CFC"/>
</g>
<path d="M114.512 13.944L114.544 13.352H119.632L119.2 13.928V4.856L119.552 5.384H116.272L116.56 4.952C116.56 5.98667 116.544 6.92 116.512 7.752C116.48 8.57333 116.416 9.31467 116.32 9.976C116.235 10.6373 116.112 11.224 115.952 11.736C115.803 12.2373 115.611 12.6693 115.376 13.032C115.141 13.3947 114.853 13.6987 114.512 13.944ZM113.024 13.672C113.291 13.352 113.52 13.0213 113.712 12.68C113.915 12.3387 114.085 11.9547 114.224 11.528C114.363 11.0907 114.475 10.5787 114.56 9.992C114.645 9.40533 114.709 8.70667 114.752 7.896C114.795 7.08533 114.816 6.12533 114.816 5.016L115.232 5.4L113.648 4.968V3.816L116.528 3.736H122.672V4.888L121.184 5.384L121.488 4.904V13.928L121.136 13.352L123.136 13.464L123.152 18.056H121.792L121.056 14.792L121.296 15H113.984L114.208 14.792L113.424 18.056H112.064L112.112 13.464L113.664 13.352L113.024 13.672ZM123.995 15V13.848L125.499 13.384L125.067 13.848V7.672L125.643 8.168L123.995 7.656V6.504L128.187 6.392V7.544L126.715 8.056L127.195 7.624V11.672L126.891 11.592L130.827 8.104L130.683 8.424L130.667 7.672L131.019 8.024L129.675 7.656V6.504L133.867 6.392V7.544L132.363 8.056L132.795 7.624V13.848L132.363 13.384L133.867 13.848V15H129.675V13.848L131.035 13.448L130.667 13.848V9.448L130.923 9.752L127.019 13.4L127.195 13.048V13.848L127.067 13.544L128.187 13.848V15H123.995ZM137.673 15.192C137.15 15.192 136.627 15.1333 136.105 15.016C135.593 14.9093 135.123 14.7493 134.697 14.536L135.129 13.128C135.513 13.32 135.907 13.464 136.312 13.56C136.718 13.656 137.107 13.704 137.481 13.704C137.822 13.704 138.126 13.6613 138.393 13.576C138.67 13.4907 138.889 13.3573 139.049 13.176C139.219 12.984 139.305 12.7387 139.305 12.44C139.305 12.2053 139.246 12.0027 139.129 11.832C139.011 11.6507 138.83 11.512 138.585 11.416C138.339 11.32 138.014 11.272 137.609 11.272H136.521V9.944H137.545C138.131 9.944 138.553 9.84267 138.809 9.64C139.075 9.43733 139.209 9.15467 139.209 8.792C139.209 8.39733 139.075 8.12 138.809 7.96C138.542 7.78933 138.201 7.704 137.785 7.704C137.55 7.704 137.294 7.73067 137.017 7.784C136.739 7.82667 136.457 7.88533 136.169 7.96L136.601 7.544L136.361 8.888H134.985L134.905 6.76C135.449 6.61067 135.993 6.49333 136.537 6.408C137.081 6.312 137.609 6.264 138.121 6.264C138.75 6.264 139.315 6.33867 139.817 6.488C140.318 6.63733 140.713 6.87733 141.001 7.208C141.299 7.528 141.449 7.94933 141.449 8.472C141.449 9.112 141.23 9.608 140.793 9.96C140.355 10.3013 139.71 10.52 138.857 10.616L138.777 10.44C139.769 10.4933 140.494 10.7013 140.953 11.064C141.411 11.4267 141.641 11.9227 141.641 12.552C141.641 13.16 141.449 13.6613 141.065 14.056C140.691 14.44 140.201 14.728 139.593 14.92C138.995 15.1013 138.355 15.192 137.673 15.192ZM149.884 13.864L149.58 13.416L150.956 13.848V14.984L148.156 15.128L147.852 13.592L148.012 13.64C147.585 14.1627 147.121 14.552 146.62 14.808C146.119 15.064 145.601 15.192 145.068 15.192C144.385 15.192 143.82 14.9733 143.372 14.536C142.924 14.0987 142.7 13.4693 142.7 12.648C142.7 12.04 142.828 11.56 143.084 11.208C143.351 10.8453 143.735 10.584 144.236 10.424C144.737 10.264 145.345 10.184 146.06 10.184H147.804L147.644 10.36V9.304C147.644 8.80267 147.521 8.44533 147.276 8.232C147.041 8.01867 146.695 7.912 146.236 7.912C146.012 7.912 145.772 7.93333 145.516 7.976C145.26 8.01867 144.983 8.08267 144.684 8.168L144.908 7.928L144.7 9.224H143.308L143.18 6.888C143.905 6.67467 144.567 6.52 145.164 6.424C145.772 6.31733 146.327 6.264 146.828 6.264C147.82 6.264 148.577 6.47733 149.1 6.904C149.623 7.33067 149.884 7.992 149.884 8.888V13.864ZM144.956 12.424C144.956 12.8187 145.047 13.112 145.228 13.304C145.42 13.4853 145.66 13.576 145.948 13.576C146.215 13.576 146.508 13.496 146.828 13.336C147.148 13.1653 147.452 12.936 147.74 12.648L147.644 13.032V11.208L147.804 11.368H146.428C145.873 11.368 145.489 11.4533 145.276 11.624C145.063 11.7947 144.956 12.0613 144.956 12.424ZM151.605 15V13.848L153.109 13.384L152.677 13.848V7.672L153.253 8.168L151.605 7.656V6.504L155.797 6.392V7.544L154.325 8.056L154.805 7.624V11.672L154.501 11.592L158.437 8.104L158.293 8.424L158.277 7.672L158.629 8.024L157.285 7.656V6.504L161.477 6.392V7.544L159.973 8.056L160.405 7.624V13.848L159.973 13.384L161.477 13.848V15H157.285V13.848L158.645 13.448L158.277 13.848V9.448L158.533 9.752L154.629 13.4L154.805 13.048V13.848L154.677 13.544L155.797 13.848V15H151.605ZM156.549 4.856C156.015 4.856 155.525 4.77067 155.077 4.6C154.639 4.42933 154.277 4.15733 153.989 3.784C153.701 3.4 153.541 2.90933 153.509 2.312L155.605 2.216C155.626 2.728 155.754 3.10667 155.989 3.352C156.234 3.58667 156.522 3.704 156.853 3.704C157.183 3.704 157.461 3.58667 157.685 3.352C157.909 3.10667 158.005 2.75467 157.973 2.296L159.541 2.216C159.562 2.824 159.434 3.32533 159.157 3.72C158.879 4.104 158.506 4.392 158.037 4.584C157.578 4.76533 157.082 4.856 156.549 4.856ZM162.386 15V13.848L163.89 13.384L163.458 14.088V7.464L164.034 8.168L162.386 7.656V6.504L166.69 6.392V7.544L165.218 8.056L165.698 7.4V10.36L165.122 9.768H169.49L168.914 10.36V7.464L169.266 8.024L167.922 7.656V6.504L172.21 6.392V7.544L170.706 8.056L171.154 7.4V14.088L170.722 13.384L172.21 13.848V15H167.922V13.848L169.282 13.448L168.914 14.088V10.76L169.49 11.368H165.122L165.698 10.76V14.088L165.33 13.448L166.69 13.848V15H162.386Z" fill="#1E1E1E"/>
<path d="M116.834 37.1895C116.361 37.1895 115.936 37.2715 115.557 37.4355C115.182 37.5957 114.861 37.8301 114.596 38.1387C114.334 38.4434 114.133 38.8125 113.992 39.2461C113.852 39.6797 113.781 40.168 113.781 40.7109C113.781 41.4297 113.893 42.0547 114.115 42.5859C114.342 43.1133 114.678 43.5215 115.123 43.8105C115.572 44.0996 116.133 44.2441 116.805 44.2441C117.188 44.2441 117.547 44.2129 117.883 44.1504C118.223 44.084 118.553 44.002 118.873 43.9043V44.7715C118.561 44.8887 118.232 44.9746 117.889 45.0293C117.545 45.0879 117.137 45.1172 116.664 45.1172C115.793 45.1172 115.064 44.9375 114.479 44.5781C113.896 44.2148 113.459 43.7031 113.166 43.043C112.877 42.3828 112.732 41.6035 112.732 40.7051C112.732 40.0566 112.822 39.4648 113.002 38.9297C113.186 38.3906 113.451 37.9258 113.799 37.5352C114.15 37.1445 114.58 36.8438 115.088 36.6328C115.6 36.418 116.186 36.3105 116.846 36.3105C117.279 36.3105 117.697 36.3535 118.1 36.4395C118.502 36.5254 118.865 36.6484 119.189 36.8086L118.791 37.6523C118.518 37.5273 118.217 37.4199 117.889 37.3301C117.564 37.2363 117.213 37.1895 116.834 37.1895ZM124.961 39.4043H122.846V45H121.885V39.4043H119.799V38.5781H124.961V39.4043ZM131.336 40.1895C131.336 40.5918 131.219 40.9062 130.984 41.1328C130.75 41.3555 130.447 41.5059 130.076 41.584V41.6309C130.479 41.6855 130.824 41.8301 131.113 42.0645C131.406 42.2949 131.553 42.6484 131.553 43.125C131.553 43.4922 131.465 43.8164 131.289 44.0977C131.113 44.3789 130.838 44.5996 130.463 44.7598C130.088 44.9199 129.6 45 128.998 45H126.232V38.5781H128.975C129.436 38.5781 129.842 38.6309 130.193 38.7363C130.549 38.8379 130.828 39.0059 131.031 39.2402C131.234 39.4746 131.336 39.791 131.336 40.1895ZM130.539 43.125C130.539 42.7461 130.395 42.4727 130.105 42.3047C129.82 42.1367 129.404 42.0527 128.857 42.0527H127.211V44.209H128.881C129.42 44.209 129.83 44.127 130.111 43.9629C130.396 43.7949 130.539 43.5156 130.539 43.125ZM130.346 40.3008C130.346 39.9961 130.234 39.7695 130.012 39.6211C129.789 39.4688 129.424 39.3926 128.916 39.3926H127.211V41.2383H128.746C129.273 41.2383 129.672 41.1621 129.941 41.0098C130.211 40.8574 130.346 40.6211 130.346 40.3008ZM138.66 41.7773C138.66 42.3047 138.592 42.7754 138.455 43.1895C138.318 43.6035 138.121 43.9531 137.863 44.2383C137.605 44.5234 137.293 44.7422 136.926 44.8945C136.562 45.043 136.15 45.1172 135.689 45.1172C135.26 45.1172 134.865 45.043 134.506 44.8945C134.15 44.7422 133.842 44.5234 133.58 44.2383C133.322 43.9531 133.121 43.6035 132.977 43.1895C132.836 42.7754 132.766 42.3047 132.766 41.7773C132.766 41.0742 132.885 40.4766 133.123 39.9844C133.361 39.4883 133.701 39.1113 134.143 38.8535C134.588 38.5918 135.117 38.4609 135.73 38.4609C136.316 38.4609 136.828 38.5918 137.266 38.8535C137.707 39.1152 138.049 39.4941 138.291 39.9902C138.537 40.4824 138.66 41.0781 138.66 41.7773ZM133.773 41.7773C133.773 42.293 133.842 42.7402 133.979 43.1191C134.115 43.498 134.326 43.791 134.611 43.998C134.896 44.2051 135.264 44.3086 135.713 44.3086C136.158 44.3086 136.523 44.2051 136.809 43.998C137.098 43.791 137.311 43.498 137.447 43.1191C137.584 42.7402 137.652 42.293 137.652 41.7773C137.652 41.2656 137.584 40.8242 137.447 40.4531C137.311 40.0781 137.1 39.7891 136.814 39.5859C136.529 39.3828 136.16 39.2812 135.707 39.2812C135.039 39.2812 134.549 39.502 134.236 39.9434C133.928 40.3848 133.773 40.9961 133.773 41.7773ZM143.359 38.4609C144.16 38.4609 144.799 38.7363 145.275 39.2871C145.752 39.8379 145.99 40.666 145.99 41.7715C145.99 42.502 145.881 43.1152 145.662 43.6113C145.443 44.1074 145.135 44.4824 144.736 44.7363C144.342 44.9902 143.875 45.1172 143.336 45.1172C142.996 45.1172 142.697 45.0723 142.439 44.9824C142.182 44.8926 141.961 44.7715 141.777 44.6191C141.594 44.4668 141.441 44.3008 141.32 44.1211H141.25C141.262 44.2734 141.275 44.457 141.291 44.6719C141.311 44.8867 141.32 45.0742 141.32 45.2344V47.8711H140.342V38.5781H141.145L141.273 39.5273H141.32C141.445 39.332 141.598 39.1543 141.777 38.9941C141.957 38.8301 142.176 38.7012 142.434 38.6074C142.695 38.5098 143.004 38.4609 143.359 38.4609ZM143.189 39.2812C142.744 39.2812 142.385 39.3672 142.111 39.5391C141.842 39.7109 141.645 39.9688 141.52 40.3125C141.395 40.6523 141.328 41.0801 141.32 41.5957V41.7832C141.32 42.3262 141.379 42.7852 141.496 43.1602C141.617 43.5352 141.814 43.8203 142.088 44.0156C142.365 44.2109 142.736 44.3086 143.201 44.3086C143.6 44.3086 143.932 44.2012 144.197 43.9863C144.463 43.7715 144.66 43.4727 144.789 43.0898C144.922 42.7031 144.988 42.2598 144.988 41.7598C144.988 41.002 144.84 40.4004 144.543 39.9551C144.25 39.5059 143.799 39.2812 143.189 39.2812ZM150.162 38.4609C150.709 38.4609 151.178 38.582 151.568 38.8242C151.959 39.0664 152.258 39.4062 152.465 39.8438C152.672 40.2773 152.775 40.7852 152.775 41.3672V41.9707H148.34C148.352 42.7246 148.539 43.2988 148.902 43.6934C149.266 44.0879 149.777 44.2852 150.438 44.2852C150.844 44.2852 151.203 44.248 151.516 44.1738C151.828 44.0996 152.152 43.9902 152.488 43.8457V44.7012C152.164 44.8457 151.842 44.9512 151.521 45.0176C151.205 45.084 150.83 45.1172 150.396 45.1172C149.779 45.1172 149.24 44.9922 148.779 44.7422C148.322 44.4883 147.967 44.1172 147.713 43.6289C147.459 43.1406 147.332 42.543 147.332 41.8359C147.332 41.1445 147.447 40.5469 147.678 40.043C147.912 39.5352 148.24 39.1445 148.662 38.8711C149.088 38.5977 149.588 38.4609 150.162 38.4609ZM150.15 39.2578C149.631 39.2578 149.217 39.4277 148.908 39.7676C148.6 40.1074 148.416 40.582 148.357 41.1914H151.756C151.752 40.8086 151.691 40.4727 151.574 40.1836C151.461 39.8906 151.287 39.6641 151.053 39.5039C150.818 39.3398 150.518 39.2578 150.15 39.2578ZM155.406 38.5781V41.2734H158.986V38.5781H159.959V45H158.986V42.0996H155.406V45H154.428V38.5781H155.406ZM163 38.5781V41.2734H166.58V38.5781H167.553V45H166.58V42.0996H163V45H162.021V38.5781H163ZM169.926 45H168.789L170.641 42.293C170.371 42.2344 170.121 42.1348 169.891 41.9941C169.66 41.8496 169.473 41.6523 169.328 41.4023C169.188 41.1523 169.117 40.8418 169.117 40.4707C169.117 39.8535 169.322 39.3848 169.732 39.0645C170.146 38.7402 170.691 38.5781 171.367 38.5781H174.209V45H173.236V42.4219H171.607L169.926 45ZM170.061 40.4766C170.061 40.8594 170.197 41.1445 170.471 41.332C170.744 41.5156 171.135 41.6074 171.643 41.6074H173.236V39.3926H171.473C170.973 39.3926 170.611 39.4941 170.389 39.6973C170.17 39.8965 170.061 40.1562 170.061 40.4766ZM184.48 40.1895C184.48 40.5918 184.363 40.9062 184.129 41.1328C183.895 41.3555 183.592 41.5059 183.221 41.584V41.6309C183.623 41.6855 183.969 41.8301 184.258 42.0645C184.551 42.2949 184.697 42.6484 184.697 43.125C184.697 43.4922 184.609 43.8164 184.434 44.0977C184.258 44.3789 183.982 44.5996 183.607 44.7598C183.232 44.9199 182.744 45 182.143 45H179.377V38.5781H182.119C182.58 38.5781 182.986 38.6309 183.338 38.7363C183.693 38.8379 183.973 39.0059 184.176 39.2402C184.379 39.4746 184.48 39.791 184.48 40.1895ZM183.684 43.125C183.684 42.7461 183.539 42.4727 183.25 42.3047C182.965 42.1367 182.549 42.0527 182.002 42.0527H180.355V44.209H182.025C182.564 44.209 182.975 44.127 183.256 43.9629C183.541 43.7949 183.684 43.5156 183.684 43.125ZM183.49 40.3008C183.49 39.9961 183.379 39.7695 183.156 39.6211C182.934 39.4688 182.568 39.3926 182.061 39.3926H180.355V41.2383H181.891C182.418 41.2383 182.816 41.1621 183.086 41.0098C183.355 40.8574 183.49 40.6211 183.49 40.3008ZM187.24 38.5781V45H186.268V38.5781H187.24ZM186.766 36.1758C186.926 36.1758 187.062 36.2285 187.176 36.334C187.293 36.4355 187.352 36.5957 187.352 36.8145C187.352 37.0293 187.293 37.1895 187.176 37.2949C187.062 37.4004 186.926 37.4531 186.766 37.4531C186.598 37.4531 186.457 37.4004 186.344 37.2949C186.234 37.1895 186.18 37.0293 186.18 36.8145C186.18 36.5957 186.234 36.4355 186.344 36.334C186.457 36.2285 186.598 36.1758 186.766 36.1758ZM190.955 38.4609C191.436 38.4609 191.852 38.5273 192.203 38.6602C192.555 38.7891 192.826 38.9785 193.018 39.2285C193.209 39.4785 193.305 39.7832 193.305 40.1426C193.305 40.5293 193.199 40.8379 192.988 41.0684C192.777 41.2988 192.486 41.4648 192.115 41.5664V41.6133C192.377 41.6836 192.613 41.7852 192.824 41.918C193.039 42.0469 193.209 42.2188 193.334 42.4336C193.463 42.6445 193.527 42.9082 193.527 43.2246C193.527 43.584 193.43 43.9082 193.234 44.1973C193.039 44.4824 192.742 44.707 192.344 44.8711C191.945 45.0352 191.441 45.1172 190.832 45.1172C190.531 45.1172 190.246 45.0996 189.977 45.0645C189.707 45.0332 189.463 44.9863 189.244 44.9238C189.025 44.8613 188.834 44.7871 188.67 44.7012V43.8164C188.943 43.9492 189.264 44.0664 189.631 44.168C189.998 44.2695 190.395 44.3203 190.82 44.3203C191.148 44.3203 191.443 44.2832 191.705 44.209C191.967 44.1309 192.174 44.0078 192.326 43.8398C192.482 43.668 192.561 43.4434 192.561 43.166C192.561 42.9121 192.492 42.7031 192.355 42.5391C192.219 42.3711 192.014 42.248 191.74 42.1699C191.471 42.0879 191.129 42.0469 190.715 42.0469H189.854V41.25H190.562C191.113 41.25 191.553 41.1719 191.881 41.0156C192.209 40.8594 192.373 40.5957 192.373 40.2246C192.373 39.9043 192.246 39.666 191.992 39.5098C191.738 39.3496 191.375 39.2695 190.902 39.2695C190.551 39.2695 190.24 39.3066 189.971 39.3809C189.701 39.4512 189.41 39.5527 189.098 39.6855L188.752 38.9062C189.088 38.7578 189.439 38.6465 189.807 38.5723C190.174 38.498 190.557 38.4609 190.955 38.4609ZM194.09 38.5781H195.133L196.551 42.3047C196.633 42.5234 196.709 42.7344 196.779 42.9375C196.85 43.1367 196.912 43.3281 196.967 43.5117C197.021 43.6953 197.064 43.873 197.096 44.0449H197.137C197.191 43.8496 197.27 43.5938 197.371 43.2773C197.473 42.957 197.582 42.6309 197.699 42.2988L199.041 38.5781H200.09L197.295 45.9434C197.146 46.3379 196.973 46.6816 196.773 46.9746C196.578 47.2676 196.34 47.4922 196.059 47.6484C195.777 47.8086 195.438 47.8887 195.039 47.8887C194.855 47.8887 194.693 47.877 194.553 47.8535C194.412 47.834 194.291 47.8105 194.189 47.7832V47.0039C194.275 47.0234 194.379 47.041 194.5 47.0566C194.625 47.0723 194.754 47.0801 194.887 47.0801C195.129 47.0801 195.338 47.0332 195.514 46.9395C195.693 46.8496 195.848 46.7168 195.977 46.541C196.105 46.3652 196.217 46.1562 196.311 45.9141L196.662 45.0117L194.09 38.5781ZM203.518 38.4727C204.283 38.4727 204.852 38.6445 205.223 38.9883C205.594 39.332 205.779 39.8809 205.779 40.6348V45H205.07L204.883 44.0508H204.836C204.656 44.2852 204.469 44.4824 204.273 44.6426C204.078 44.7988 203.852 44.918 203.594 45C203.34 45.0781 203.027 45.1172 202.656 45.1172C202.266 45.1172 201.918 45.0488 201.613 44.9121C201.312 44.7754 201.074 44.5684 200.898 44.291C200.727 44.0137 200.641 43.6621 200.641 43.2363C200.641 42.5957 200.895 42.1035 201.402 41.7598C201.91 41.416 202.684 41.2285 203.723 41.1973L204.83 41.1504V40.7578C204.83 40.2031 204.711 39.8145 204.473 39.5918C204.234 39.3691 203.898 39.2578 203.465 39.2578C203.129 39.2578 202.809 39.3066 202.504 39.4043C202.199 39.502 201.91 39.6172 201.637 39.75L201.338 39.0117C201.627 38.8633 201.959 38.7363 202.334 38.6309C202.709 38.5254 203.104 38.4727 203.518 38.4727ZM204.818 41.8359L203.84 41.877C203.039 41.9082 202.475 42.0391 202.146 42.2695C201.818 42.5 201.654 42.8262 201.654 43.248C201.654 43.6152 201.766 43.8867 201.988 44.0625C202.211 44.2383 202.506 44.3262 202.873 44.3262C203.443 44.3262 203.91 44.168 204.273 43.8516C204.637 43.5352 204.818 43.0605 204.818 42.4277V41.8359ZM212.6 45H211.609V39.3926H209.658C209.58 40.4043 209.48 41.2715 209.359 41.9941C209.242 42.7129 209.094 43.3008 208.914 43.7578C208.738 44.2109 208.523 44.5449 208.27 44.7598C208.02 44.9707 207.721 45.0762 207.373 45.0762C207.268 45.0762 207.168 45.0703 207.074 45.0586C206.98 45.0469 206.9 45.0273 206.834 45V44.2617C206.885 44.2773 206.938 44.2891 206.992 44.2969C207.051 44.3047 207.111 44.3086 207.174 44.3086C207.35 44.3086 207.51 44.2363 207.654 44.0918C207.803 43.9434 207.936 43.7207 208.053 43.4238C208.174 43.127 208.281 42.752 208.375 42.2988C208.469 41.8418 208.551 41.3047 208.621 40.6875C208.695 40.0664 208.76 39.3633 208.814 38.5781H212.6V45ZM215.629 41.2266H217.598C218.145 41.2266 218.6 41.2949 218.963 41.4316C219.326 41.5684 219.598 41.7715 219.777 42.041C219.961 42.3105 220.053 42.6445 220.053 43.043C220.053 43.4414 219.963 43.7871 219.783 44.0801C219.607 44.373 219.334 44.5996 218.963 44.7598C218.596 44.9199 218.121 45 217.539 45H214.65V38.5781H215.629V41.2266ZM219.074 43.0898C219.074 42.6953 218.934 42.4219 218.652 42.2695C218.375 42.1133 217.986 42.0352 217.486 42.0352H215.629V44.209H217.492C217.961 44.209 218.342 44.123 218.635 43.9512C218.928 43.7754 219.074 43.4883 219.074 43.0898ZM222.707 38.5781V41.2734H226.287V38.5781H227.26V45H226.287V42.0996H222.707V45H221.729V38.5781H222.707ZM234.859 41.7773C234.859 42.3047 234.791 42.7754 234.654 43.1895C234.518 43.6035 234.32 43.9531 234.062 44.2383C233.805 44.5234 233.492 44.7422 233.125 44.8945C232.762 45.043 232.35 45.1172 231.889 45.1172C231.459 45.1172 231.064 45.043 230.705 44.8945C230.35 44.7422 230.041 44.5234 229.779 44.2383C229.521 43.9531 229.32 43.6035 229.176 43.1895C229.035 42.7754 228.965 42.3047 228.965 41.7773C228.965 41.0742 229.084 40.4766 229.322 39.9844C229.561 39.4883 229.9 39.1113 230.342 38.8535C230.787 38.5918 231.316 38.4609 231.93 38.4609C232.516 38.4609 233.027 38.5918 233.465 38.8535C233.906 39.1152 234.248 39.4941 234.49 39.9902C234.736 40.4824 234.859 41.0781 234.859 41.7773ZM229.973 41.7773C229.973 42.293 230.041 42.7402 230.178 43.1191C230.314 43.498 230.525 43.791 230.811 43.998C231.096 44.2051 231.463 44.3086 231.912 44.3086C232.357 44.3086 232.723 44.2051 233.008 43.998C233.297 43.791 233.51 43.498 233.646 43.1191C233.783 42.7402 233.852 42.293 233.852 41.7773C233.852 41.2656 233.783 40.8242 233.646 40.4531C233.51 40.0781 233.299 39.7891 233.014 39.5859C232.729 39.3828 232.359 39.2812 231.906 39.2812C231.238 39.2812 230.748 39.502 230.436 39.9434C230.127 40.3848 229.973 40.9961 229.973 41.7773ZM245.037 38.5781V45H244.059V39.416H240.637V45H239.658V38.5781H245.037ZM250.117 38.4609C250.918 38.4609 251.557 38.7363 252.033 39.2871C252.51 39.8379 252.748 40.666 252.748 41.7715C252.748 42.502 252.639 43.1152 252.42 43.6113C252.201 44.1074 251.893 44.4824 251.494 44.7363C251.1 44.9902 250.633 45.1172 250.094 45.1172C249.754 45.1172 249.455 45.0723 249.197 44.9824C248.939 44.8926 248.719 44.7715 248.535 44.6191C248.352 44.4668 248.199 44.3008 248.078 44.1211H248.008C248.02 44.2734 248.033 44.457 248.049 44.6719C248.068 44.8867 248.078 45.0742 248.078 45.2344V47.8711H247.1V38.5781H247.902L248.031 39.5273H248.078C248.203 39.332 248.355 39.1543 248.535 38.9941C248.715 38.8301 248.934 38.7012 249.191 38.6074C249.453 38.5098 249.762 38.4609 250.117 38.4609ZM249.947 39.2812C249.502 39.2812 249.143 39.3672 248.869 39.5391C248.6 39.7109 248.402 39.9688 248.277 40.3125C248.152 40.6523 248.086 41.0801 248.078 41.5957V41.7832C248.078 42.3262 248.137 42.7852 248.254 43.1602C248.375 43.5352 248.572 43.8203 248.846 44.0156C249.123 44.2109 249.494 44.3086 249.959 44.3086C250.357 44.3086 250.689 44.2012 250.955 43.9863C251.221 43.7715 251.418 43.4727 251.547 43.0898C251.68 42.7031 251.746 42.2598 251.746 41.7598C251.746 41.002 251.598 40.4004 251.301 39.9551C251.008 39.5059 250.557 39.2812 249.947 39.2812ZM255.373 38.5781V42.6152C255.373 42.6934 255.371 42.7949 255.367 42.9199C255.363 43.041 255.357 43.1719 255.35 43.3125C255.342 43.4492 255.334 43.582 255.326 43.7109C255.322 43.8359 255.316 43.9395 255.309 44.0215L258.812 38.5781H260.008V45H259.1V41.0625C259.1 40.9375 259.102 40.7773 259.105 40.582C259.109 40.3867 259.115 40.1953 259.123 40.0078C259.131 39.8164 259.137 39.668 259.141 39.5625L255.648 45H254.447V38.5781H255.373ZM267.18 40.1895C267.18 40.5918 267.062 40.9062 266.828 41.1328C266.594 41.3555 266.291 41.5059 265.92 41.584V41.6309C266.322 41.6855 266.668 41.8301 266.957 42.0645C267.25 42.2949 267.396 42.6484 267.396 43.125C267.396 43.4922 267.309 43.8164 267.133 44.0977C266.957 44.3789 266.682 44.5996 266.307 44.7598C265.932 44.9199 265.443 45 264.842 45H262.076V38.5781H264.818C265.279 38.5781 265.686 38.6309 266.037 38.7363C266.393 38.8379 266.672 39.0059 266.875 39.2402C267.078 39.4746 267.18 39.791 267.18 40.1895ZM266.383 43.125C266.383 42.7461 266.238 42.4727 265.949 42.3047C265.664 42.1367 265.248 42.0527 264.701 42.0527H263.055V44.209H264.725C265.264 44.209 265.674 44.127 265.955 43.9629C266.24 43.7949 266.383 43.5156 266.383 43.125ZM266.189 40.3008C266.189 39.9961 266.078 39.7695 265.855 39.6211C265.633 39.4688 265.268 39.3926 264.76 39.3926H263.055V41.2383H264.59C265.117 41.2383 265.516 41.1621 265.785 41.0098C266.055 40.8574 266.189 40.6211 266.189 40.3008ZM271.369 38.4727C272.135 38.4727 272.703 38.6445 273.074 38.9883C273.445 39.332 273.631 39.8809 273.631 40.6348V45H272.922L272.734 44.0508H272.688C272.508 44.2852 272.32 44.4824 272.125 44.6426C271.93 44.7988 271.703 44.918 271.445 45C271.191 45.0781 270.879 45.1172 270.508 45.1172C270.117 45.1172 269.77 45.0488 269.465 44.9121C269.164 44.7754 268.926 44.5684 268.75 44.291C268.578 44.0137 268.492 43.6621 268.492 43.2363C268.492 42.5957 268.746 42.1035 269.254 41.7598C269.762 41.416 270.535 41.2285 271.574 41.1973L272.682 41.1504V40.7578C272.682 40.2031 272.562 39.8145 272.324 39.5918C272.086 39.3691 271.75 39.2578 271.316 39.2578C270.98 39.2578 270.66 39.3066 270.355 39.4043C270.051 39.502 269.762 39.6172 269.488 39.75L269.189 39.0117C269.479 38.8633 269.811 38.7363 270.186 38.6309C270.561 38.5254 270.955 38.4727 271.369 38.4727ZM272.67 41.8359L271.691 41.877C270.891 41.9082 270.326 42.0391 269.998 42.2695C269.67 42.5 269.506 42.8262 269.506 43.248C269.506 43.6152 269.617 43.8867 269.84 44.0625C270.062 44.2383 270.357 44.3262 270.725 44.3262C271.295 44.3262 271.762 44.168 272.125 43.8516C272.488 43.5352 272.67 43.0605 272.67 42.4277V41.8359ZM275.301 41.1445C275.301 40.2305 275.389 39.4512 275.564 38.8066C275.74 38.1582 276.012 37.6387 276.379 37.248C276.75 36.8535 277.227 36.584 277.809 36.4395C278.309 36.3027 278.816 36.1855 279.332 36.0879C279.848 35.9863 280.35 35.8984 280.838 35.8242L281.008 36.6797C280.762 36.7148 280.504 36.7559 280.234 36.8027C279.965 36.8457 279.695 36.8926 279.426 36.9434C279.156 36.9902 278.902 37.041 278.664 37.0957C278.426 37.1465 278.215 37.1992 278.031 37.2539C277.699 37.3438 277.412 37.5 277.17 37.7227C276.932 37.9453 276.742 38.252 276.602 38.6426C276.465 39.0332 276.383 39.5254 276.355 40.1191H276.426C276.543 39.9473 276.703 39.7773 276.906 39.6094C277.109 39.4414 277.352 39.3027 277.633 39.1934C277.914 39.0801 278.23 39.0234 278.582 39.0234C279.137 39.0234 279.6 39.1445 279.971 39.3867C280.342 39.625 280.621 39.9609 280.809 40.3945C280.996 40.8281 281.09 41.3359 281.09 41.918C281.09 42.6172 280.969 43.2051 280.727 43.6816C280.488 44.1582 280.152 44.5176 279.719 44.7598C279.285 44.998 278.775 45.1172 278.189 45.1172C277.736 45.1172 277.33 45.0293 276.971 44.8535C276.615 44.6777 276.312 44.4199 276.062 44.0801C275.816 43.7402 275.627 43.3242 275.494 42.832C275.365 42.3398 275.301 41.7773 275.301 41.1445ZM278.266 44.3086C278.637 44.3086 278.955 44.2305 279.221 44.0742C279.49 43.918 279.697 43.6719 279.842 43.3359C279.99 42.9961 280.064 42.5547 280.064 42.0117C280.064 41.332 279.934 40.8008 279.672 40.418C279.414 40.0312 279 39.8379 278.43 39.8379C278.074 39.8379 277.752 39.9141 277.463 40.0664C277.174 40.2148 276.93 40.3926 276.73 40.5996C276.531 40.8066 276.387 40.9922 276.297 41.1562C276.297 41.5547 276.326 41.9414 276.385 42.3164C276.443 42.6914 276.545 43.0293 276.689 43.3301C276.834 43.6309 277.033 43.8691 277.287 44.0449C277.545 44.2207 277.871 44.3086 278.266 44.3086ZM287.588 45H286.598V39.3926H284.646C284.568 40.4043 284.469 41.2715 284.348 41.9941C284.23 42.7129 284.082 43.3008 283.902 43.7578C283.727 44.2109 283.512 44.5449 283.258 44.7598C283.008 44.9707 282.709 45.0762 282.361 45.0762C282.256 45.0762 282.156 45.0703 282.062 45.0586C281.969 45.0469 281.889 45.0273 281.822 45V44.2617C281.873 44.2773 281.926 44.2891 281.98 44.2969C282.039 44.3047 282.1 44.3086 282.162 44.3086C282.338 44.3086 282.498 44.2363 282.643 44.0918C282.791 43.9434 282.924 43.7207 283.041 43.4238C283.162 43.127 283.27 42.752 283.363 42.2988C283.457 41.8418 283.539 41.3047 283.609 40.6875C283.684 40.0664 283.748 39.3633 283.803 38.5781H287.588V45ZM290.564 38.5781V42.6152C290.564 42.6934 290.562 42.7949 290.559 42.9199C290.555 43.041 290.549 43.1719 290.541 43.3125C290.533 43.4492 290.525 43.582 290.518 43.7109C290.514 43.8359 290.508 43.9395 290.5 44.0215L294.004 38.5781H295.199V45H294.291V41.0625C294.291 40.9375 294.293 40.7773 294.297 40.582C294.301 40.3867 294.307 40.1953 294.314 40.0078C294.322 39.8164 294.328 39.668 294.332 39.5625L290.84 45H289.639V38.5781H290.564ZM302.371 40.1895C302.371 40.5918 302.254 40.9062 302.02 41.1328C301.785 41.3555 301.482 41.5059 301.111 41.584V41.6309C301.514 41.6855 301.859 41.8301 302.148 42.0645C302.441 42.2949 302.588 42.6484 302.588 43.125C302.588 43.4922 302.5 43.8164 302.324 44.0977C302.148 44.3789 301.873 44.5996 301.498 44.7598C301.123 44.9199 300.635 45 300.033 45H297.268V38.5781H300.01C300.471 38.5781 300.877 38.6309 301.229 38.7363C301.584 38.8379 301.863 39.0059 302.066 39.2402C302.27 39.4746 302.371 39.791 302.371 40.1895ZM301.574 43.125C301.574 42.7461 301.43 42.4727 301.141 42.3047C300.855 42.1367 300.439 42.0527 299.893 42.0527H298.246V44.209H299.916C300.455 44.209 300.865 44.127 301.146 43.9629C301.432 43.7949 301.574 43.5156 301.574 43.125ZM301.381 40.3008C301.381 39.9961 301.27 39.7695 301.047 39.6211C300.824 39.4688 300.459 39.3926 299.951 39.3926H298.246V41.2383H299.781C300.309 41.2383 300.707 41.1621 300.977 41.0098C301.246 40.8574 301.381 40.6211 301.381 40.3008ZM305.084 38.5781V42.6152C305.084 42.6934 305.082 42.7949 305.078 42.9199C305.074 43.041 305.068 43.1719 305.061 43.3125C305.053 43.4492 305.045 43.582 305.037 43.7109C305.033 43.8359 305.027 43.9395 305.02 44.0215L308.523 38.5781H309.719V45H308.811V41.0625C308.811 40.9375 308.812 40.7773 308.816 40.582C308.82 40.3867 308.826 40.1953 308.834 40.0078C308.842 39.8164 308.848 39.668 308.852 39.5625L305.359 45H304.158V38.5781H305.084ZM313.316 41.7129L311.096 38.5781H312.209L313.902 41.0508L315.59 38.5781H316.691L314.471 41.7129L316.814 45H315.701L313.902 42.3809L312.092 45H310.99L313.316 41.7129ZM117.402 55.4043H115.287V61H114.326V55.4043H112.24V54.5781H117.402V55.4043ZM121.076 54.4727C121.842 54.4727 122.41 54.6445 122.781 54.9883C123.152 55.332 123.338 55.8809 123.338 56.6348V61H122.629L122.441 60.0508H122.395C122.215 60.2852 122.027 60.4824 121.832 60.6426C121.637 60.7988 121.41 60.918 121.152 61C120.898 61.0781 120.586 61.1172 120.215 61.1172C119.824 61.1172 119.477 61.0488 119.172 60.9121C118.871 60.7754 118.633 60.5684 118.457 60.291C118.285 60.0137 118.199 59.6621 118.199 59.2363C118.199 58.5957 118.453 58.1035 118.961 57.7598C119.469 57.416 120.242 57.2285 121.281 57.1973L122.389 57.1504V56.7578C122.389 56.2031 122.27 55.8145 122.031 55.5918C121.793 55.3691 121.457 55.2578 121.023 55.2578C120.688 55.2578 120.367 55.3066 120.062 55.4043C119.758 55.502 119.469 55.6172 119.195 55.75L118.896 55.0117C119.186 54.8633 119.518 54.7363 119.893 54.6309C120.268 54.5254 120.662 54.4727 121.076 54.4727ZM122.377 57.8359L121.398 57.877C120.598 57.9082 120.033 58.0391 119.705 58.2695C119.377 58.5 119.213 58.8262 119.213 59.248C119.213 59.6152 119.324 59.8867 119.547 60.0625C119.77 60.2383 120.064 60.3262 120.432 60.3262C121.002 60.3262 121.469 60.168 121.832 59.8516C122.195 59.5352 122.377 59.0605 122.377 58.4277V57.8359ZM130.932 54.4609C131.479 54.4609 131.947 54.582 132.338 54.8242C132.729 55.0664 133.027 55.4062 133.234 55.8438C133.441 56.2773 133.545 56.7852 133.545 57.3672V57.9707H129.109C129.121 58.7246 129.309 59.2988 129.672 59.6934C130.035 60.0879 130.547 60.2852 131.207 60.2852C131.613 60.2852 131.973 60.248 132.285 60.1738C132.598 60.0996 132.922 59.9902 133.258 59.8457V60.7012C132.934 60.8457 132.611 60.9512 132.291 61.0176C131.975 61.084 131.6 61.1172 131.166 61.1172C130.549 61.1172 130.01 60.9922 129.549 60.7422C129.092 60.4883 128.736 60.1172 128.482 59.6289C128.229 59.1406 128.102 58.543 128.102 57.8359C128.102 57.1445 128.217 56.5469 128.447 56.043C128.682 55.5352 129.01 55.1445 129.432 54.8711C129.857 54.5977 130.357 54.4609 130.932 54.4609ZM130.92 55.2578C130.4 55.2578 129.986 55.4277 129.678 55.7676C129.369 56.1074 129.186 56.582 129.127 57.1914H132.525C132.521 56.8086 132.461 56.4727 132.344 56.1836C132.23 55.8906 132.057 55.6641 131.822 55.5039C131.588 55.3398 131.287 55.2578 130.92 55.2578ZM138.93 51.8828V54.4844C139.566 54.5391 140.121 54.7051 140.594 54.9824C141.066 55.2559 141.434 55.6289 141.695 56.1016C141.957 56.5742 142.088 57.1367 142.088 57.7891C142.088 58.4297 141.961 58.9883 141.707 59.4648C141.457 59.9414 141.096 60.3184 140.623 60.5957C140.154 60.873 139.59 61.0391 138.93 61.0938V63.8828H137.98V61.0938C137.344 61.0469 136.789 60.8867 136.316 60.6133C135.848 60.3359 135.482 59.959 135.221 59.4824C134.959 59.0059 134.828 58.4414 134.828 57.7891C134.828 57.1367 134.953 56.5742 135.203 56.1016C135.457 55.625 135.82 55.25 136.293 54.9766C136.766 54.6992 137.338 54.5352 138.01 54.4844V51.8828H138.93ZM138.01 55.293C137.514 55.3359 137.105 55.4609 136.785 55.668C136.465 55.875 136.227 56.1562 136.07 56.5117C135.918 56.8672 135.842 57.293 135.842 57.7891C135.842 58.2852 135.92 58.7129 136.076 59.0723C136.232 59.4277 136.471 59.709 136.791 59.916C137.111 60.123 137.518 60.25 138.01 60.2969V55.293ZM138.93 55.3047V60.2969C139.422 60.2461 139.826 60.1152 140.143 59.9043C140.463 59.6934 140.699 59.4102 140.852 59.0547C141.008 58.6992 141.086 58.2773 141.086 57.7891C141.086 57.0469 140.908 56.4668 140.553 56.0488C140.197 55.627 139.656 55.3789 138.93 55.3047ZM146.26 54.4609C146.807 54.4609 147.275 54.582 147.666 54.8242C148.057 55.0664 148.355 55.4062 148.562 55.8438C148.77 56.2773 148.873 56.7852 148.873 57.3672V57.9707H144.438C144.449 58.7246 144.637 59.2988 145 59.6934C145.363 60.0879 145.875 60.2852 146.535 60.2852C146.941 60.2852 147.301 60.248 147.613 60.1738C147.926 60.0996 148.25 59.9902 148.586 59.8457V60.7012C148.262 60.8457 147.939 60.9512 147.619 61.0176C147.303 61.084 146.928 61.1172 146.494 61.1172C145.877 61.1172 145.338 60.9922 144.877 60.7422C144.42 60.4883 144.064 60.1172 143.811 59.6289C143.557 59.1406 143.43 58.543 143.43 57.8359C143.43 57.1445 143.545 56.5469 143.775 56.043C144.01 55.5352 144.338 55.1445 144.76 54.8711C145.186 54.5977 145.686 54.4609 146.26 54.4609ZM146.248 55.2578C145.729 55.2578 145.314 55.4277 145.006 55.7676C144.697 56.1074 144.514 56.582 144.455 57.1914H147.854C147.85 56.8086 147.789 56.4727 147.672 56.1836C147.559 55.8906 147.385 55.6641 147.15 55.5039C146.916 55.3398 146.615 55.2578 146.248 55.2578ZM154.27 54.5781H155.342L152.57 57.6777L155.564 61H154.422L151.504 57.7422V61H150.525V54.5781H151.504V57.6953L154.27 54.5781ZM161.102 55.4043H158.986V61H158.025V55.4043H155.939V54.5781H161.102V55.4043ZM163.299 54.5781V58.6152C163.299 58.6934 163.297 58.7949 163.293 58.9199C163.289 59.041 163.283 59.1719 163.275 59.3125C163.268 59.4492 163.26 59.582 163.252 59.7109C163.248 59.8359 163.242 59.9395 163.234 60.0215L166.738 54.5781H167.934V61H167.025V57.0625C167.025 56.9375 167.027 56.7773 167.031 56.582C167.035 56.3867 167.041 56.1953 167.049 56.0078C167.057 55.8164 167.062 55.668 167.066 55.5625L163.574 61H162.373V54.5781H163.299ZM175.105 56.1895C175.105 56.5918 174.988 56.9062 174.754 57.1328C174.52 57.3555 174.217 57.5059 173.846 57.584V57.6309C174.248 57.6855 174.594 57.8301 174.883 58.0645C175.176 58.2949 175.322 58.6484 175.322 59.125C175.322 59.4922 175.234 59.8164 175.059 60.0977C174.883 60.3789 174.607 60.5996 174.232 60.7598C173.857 60.9199 173.369 61 172.768 61H170.002V54.5781H172.744C173.205 54.5781 173.611 54.6309 173.963 54.7363C174.318 54.8379 174.598 55.0059 174.801 55.2402C175.004 55.4746 175.105 55.791 175.105 56.1895ZM174.309 59.125C174.309 58.7461 174.164 58.4727 173.875 58.3047C173.59 58.1367 173.174 58.0527 172.627 58.0527H170.98V60.209H172.65C173.189 60.209 173.6 60.127 173.881 59.9629C174.166 59.7949 174.309 59.5156 174.309 59.125ZM174.115 56.3008C174.115 55.9961 174.004 55.7695 173.781 55.6211C173.559 55.4688 173.193 55.3926 172.686 55.3926H170.98V57.2383H172.516C173.043 57.2383 173.441 57.1621 173.711 57.0098C173.98 56.8574 174.115 56.6211 174.115 56.3008ZM177.871 54.5781V57.2734H181.451V54.5781H182.424V61H181.451V58.0996H177.871V61H176.893V54.5781H177.871ZM185.412 54.5781V58.6152C185.412 58.6934 185.41 58.7949 185.406 58.9199C185.402 59.041 185.396 59.1719 185.389 59.3125C185.381 59.4492 185.373 59.582 185.365 59.7109C185.361 59.8359 185.355 59.9395 185.348 60.0215L188.852 54.5781H190.047V61H189.139V57.0625C189.139 56.9375 189.141 56.7773 189.145 56.582C189.148 56.3867 189.154 56.1953 189.162 56.0078C189.17 55.8164 189.176 55.668 189.18 55.5625L185.688 61H184.486V54.5781H185.412ZM193.645 57.7129L191.424 54.5781H192.537L194.23 57.0508L195.918 54.5781H197.02L194.799 57.7129L197.143 61H196.029L194.23 58.3809L192.42 61H191.318L193.645 57.7129ZM203.166 54.4609C203.646 54.4609 204.062 54.5273 204.414 54.6602C204.766 54.7891 205.037 54.9785 205.229 55.2285C205.42 55.4785 205.516 55.7832 205.516 56.1426C205.516 56.5293 205.41 56.8379 205.199 57.0684C204.988 57.2988 204.697 57.4648 204.326 57.5664V57.6133C204.588 57.6836 204.824 57.7852 205.035 57.918C205.25 58.0469 205.42 58.2188 205.545 58.4336C205.674 58.6445 205.738 58.9082 205.738 59.2246C205.738 59.584 205.641 59.9082 205.445 60.1973C205.25 60.4824 204.953 60.707 204.555 60.8711C204.156 61.0352 203.652 61.1172 203.043 61.1172C202.742 61.1172 202.457 61.0996 202.188 61.0645C201.918 61.0332 201.674 60.9863 201.455 60.9238C201.236 60.8613 201.045 60.7871 200.881 60.7012V59.8164C201.154 59.9492 201.475 60.0664 201.842 60.168C202.209 60.2695 202.605 60.3203 203.031 60.3203C203.359 60.3203 203.654 60.2832 203.916 60.209C204.178 60.1309 204.385 60.0078 204.537 59.8398C204.693 59.668 204.771 59.4434 204.771 59.166C204.771 58.9121 204.703 58.7031 204.566 58.5391C204.43 58.3711 204.225 58.248 203.951 58.1699C203.682 58.0879 203.34 58.0469 202.926 58.0469H202.064V57.25H202.773C203.324 57.25 203.764 57.1719 204.092 57.0156C204.42 56.8594 204.584 56.5957 204.584 56.2246C204.584 55.9043 204.457 55.666 204.203 55.5098C203.949 55.3496 203.586 55.2695 203.113 55.2695C202.762 55.2695 202.451 55.3066 202.182 55.3809C201.912 55.4512 201.621 55.5527 201.309 55.6855L200.963 54.9062C201.299 54.7578 201.65 54.6465 202.018 54.5723C202.385 54.498 202.768 54.4609 203.166 54.4609ZM212.852 57.7773C212.852 58.3047 212.783 58.7754 212.646 59.1895C212.51 59.6035 212.312 59.9531 212.055 60.2383C211.797 60.5234 211.484 60.7422 211.117 60.8945C210.754 61.043 210.342 61.1172 209.881 61.1172C209.451 61.1172 209.057 61.043 208.697 60.8945C208.342 60.7422 208.033 60.5234 207.771 60.2383C207.514 59.9531 207.312 59.6035 207.168 59.1895C207.027 58.7754 206.957 58.3047 206.957 57.7773C206.957 57.0742 207.076 56.4766 207.314 55.9844C207.553 55.4883 207.893 55.1113 208.334 54.8535C208.779 54.5918 209.309 54.4609 209.922 54.4609C210.508 54.4609 211.02 54.5918 211.457 54.8535C211.898 55.1152 212.24 55.4941 212.482 55.9902C212.729 56.4824 212.852 57.0781 212.852 57.7773ZM207.965 57.7773C207.965 58.293 208.033 58.7402 208.17 59.1191C208.307 59.498 208.518 59.791 208.803 59.998C209.088 60.2051 209.455 60.3086 209.904 60.3086C210.35 60.3086 210.715 60.2051 211 59.998C211.289 59.791 211.502 59.498 211.639 59.1191C211.775 58.7402 211.844 58.293 211.844 57.7773C211.844 57.2656 211.775 56.8242 211.639 56.4531C211.502 56.0781 211.291 55.7891 211.006 55.5859C210.721 55.3828 210.352 55.2812 209.898 55.2812C209.23 55.2812 208.74 55.502 208.428 55.9434C208.119 56.3848 207.965 56.9961 207.965 57.7773ZM214.199 57.1445C214.199 56.2305 214.287 55.4512 214.463 54.8066C214.639 54.1582 214.91 53.6387 215.277 53.248C215.648 52.8535 216.125 52.584 216.707 52.4395C217.207 52.3027 217.715 52.1855 218.23 52.0879C218.746 51.9863 219.248 51.8984 219.736 51.8242L219.906 52.6797C219.66 52.7148 219.402 52.7559 219.133 52.8027C218.863 52.8457 218.594 52.8926 218.324 52.9434C218.055 52.9902 217.801 53.041 217.562 53.0957C217.324 53.1465 217.113 53.1992 216.93 53.2539C216.598 53.3438 216.311 53.5 216.068 53.7227C215.83 53.9453 215.641 54.252 215.5 54.6426C215.363 55.0332 215.281 55.5254 215.254 56.1191H215.324C215.441 55.9473 215.602 55.7773 215.805 55.6094C216.008 55.4414 216.25 55.3027 216.531 55.1934C216.812 55.0801 217.129 55.0234 217.48 55.0234C218.035 55.0234 218.498 55.1445 218.869 55.3867C219.24 55.625 219.52 55.9609 219.707 56.3945C219.895 56.8281 219.988 57.3359 219.988 57.918C219.988 58.6172 219.867 59.2051 219.625 59.6816C219.387 60.1582 219.051 60.5176 218.617 60.7598C218.184 60.998 217.674 61.1172 217.088 61.1172C216.635 61.1172 216.229 61.0293 215.869 60.8535C215.514 60.6777 215.211 60.4199 214.961 60.0801C214.715 59.7402 214.525 59.3242 214.393 58.832C214.264 58.3398 214.199 57.7773 214.199 57.1445ZM217.164 60.3086C217.535 60.3086 217.854 60.2305 218.119 60.0742C218.389 59.918 218.596 59.6719 218.74 59.3359C218.889 58.9961 218.963 58.5547 218.963 58.0117C218.963 57.332 218.832 56.8008 218.57 56.418C218.312 56.0312 217.898 55.8379 217.328 55.8379C216.973 55.8379 216.65 55.9141 216.361 56.0664C216.072 56.2148 215.828 56.3926 215.629 56.5996C215.43 56.8066 215.285 56.9922 215.195 57.1562C215.195 57.5547 215.225 57.9414 215.283 58.3164C215.342 58.6914 215.443 59.0293 215.588 59.3301C215.732 59.6309 215.932 59.8691 216.186 60.0449C216.443 60.2207 216.77 60.3086 217.164 60.3086ZM224.688 54.4609C225.488 54.4609 226.127 54.7363 226.604 55.2871C227.08 55.8379 227.318 56.666 227.318 57.7715C227.318 58.502 227.209 59.1152 226.99 59.6113C226.771 60.1074 226.463 60.4824 226.064 60.7363C225.67 60.9902 225.203 61.1172 224.664 61.1172C224.324 61.1172 224.025 61.0723 223.768 60.9824C223.51 60.8926 223.289 60.7715 223.105 60.6191C222.922 60.4668 222.77 60.3008 222.648 60.1211H222.578C222.59 60.2734 222.604 60.457 222.619 60.6719C222.639 60.8867 222.648 61.0742 222.648 61.2344V63.8711H221.67V54.5781H222.473L222.602 55.5273H222.648C222.773 55.332 222.926 55.1543 223.105 54.9941C223.285 54.8301 223.504 54.7012 223.762 54.6074C224.023 54.5098 224.332 54.4609 224.688 54.4609ZM224.518 55.2812C224.072 55.2812 223.713 55.3672 223.439 55.5391C223.17 55.7109 222.973 55.9688 222.848 56.3125C222.723 56.6523 222.656 57.0801 222.648 57.5957V57.7832C222.648 58.3262 222.707 58.7852 222.824 59.1602C222.945 59.5352 223.143 59.8203 223.416 60.0156C223.693 60.2109 224.064 60.3086 224.529 60.3086C224.928 60.3086 225.26 60.2012 225.525 59.9863C225.791 59.7715 225.988 59.4727 226.117 59.0898C226.25 58.7031 226.316 58.2598 226.316 57.7598C226.316 57.002 226.168 56.4004 225.871 55.9551C225.578 55.5059 225.127 55.2812 224.518 55.2812ZM231.42 54.4727C232.186 54.4727 232.754 54.6445 233.125 54.9883C233.496 55.332 233.682 55.8809 233.682 56.6348V61H232.973L232.785 60.0508H232.738C232.559 60.2852 232.371 60.4824 232.176 60.6426C231.98 60.7988 231.754 60.918 231.496 61C231.242 61.0781 230.93 61.1172 230.559 61.1172C230.168 61.1172 229.82 61.0488 229.516 60.9121C229.215 60.7754 228.977 60.5684 228.801 60.291C228.629 60.0137 228.543 59.6621 228.543 59.2363C228.543 58.5957 228.797 58.1035 229.305 57.7598C229.812 57.416 230.586 57.2285 231.625 57.1973L232.732 57.1504V56.7578C232.732 56.2031 232.613 55.8145 232.375 55.5918C232.137 55.3691 231.801 55.2578 231.367 55.2578C231.031 55.2578 230.711 55.3066 230.406 55.4043C230.102 55.502 229.812 55.6172 229.539 55.75L229.24 55.0117C229.529 54.8633 229.861 54.7363 230.236 54.6309C230.611 54.5254 231.006 54.4727 231.42 54.4727ZM232.721 57.8359L231.742 57.877C230.941 57.9082 230.377 58.0391 230.049 58.2695C229.721 58.5 229.557 58.8262 229.557 59.248C229.557 59.6152 229.668 59.8867 229.891 60.0625C230.113 60.2383 230.408 60.3262 230.775 60.3262C231.346 60.3262 231.812 60.168 232.176 59.8516C232.539 59.5352 232.721 59.0605 232.721 58.4277V57.8359ZM243.209 54.5781L240.537 57.7012L243.438 61H242.324L239.512 57.7422V61H238.604V57.7422L235.797 61H234.684L237.584 57.7012L234.906 54.5781H235.979L238.604 57.6953V54.5781H239.512V57.6953L242.148 54.5781H243.209ZM246.982 54.4609C247.529 54.4609 247.998 54.582 248.389 54.8242C248.779 55.0664 249.078 55.4062 249.285 55.8438C249.492 56.2773 249.596 56.7852 249.596 57.3672V57.9707H245.16C245.172 58.7246 245.359 59.2988 245.723 59.6934C246.086 60.0879 246.598 60.2852 247.258 60.2852C247.664 60.2852 248.023 60.248 248.336 60.1738C248.648 60.0996 248.973 59.9902 249.309 59.8457V60.7012C248.984 60.8457 248.662 60.9512 248.342 61.0176C248.025 61.084 247.65 61.1172 247.217 61.1172C246.6 61.1172 246.061 60.9922 245.6 60.7422C245.143 60.4883 244.787 60.1172 244.533 59.6289C244.279 59.1406 244.152 58.543 244.152 57.8359C244.152 57.1445 244.268 56.5469 244.498 56.043C244.732 55.5352 245.061 55.1445 245.482 54.8711C245.908 54.5977 246.408 54.4609 246.982 54.4609ZM246.971 55.2578C246.451 55.2578 246.037 55.4277 245.729 55.7676C245.42 56.1074 245.236 56.582 245.178 57.1914H248.576C248.572 56.8086 248.512 56.4727 248.395 56.1836C248.281 55.8906 248.107 55.6641 247.873 55.5039C247.639 55.3398 247.338 55.2578 246.971 55.2578ZM252.227 54.5781V57.2734H255.807V54.5781H256.779V61H255.807V58.0996H252.227V61H251.248V54.5781H252.227ZM259.82 57.2266H261.789C262.336 57.2266 262.791 57.2949 263.154 57.4316C263.518 57.5684 263.789 57.7715 263.969 58.041C264.152 58.3105 264.244 58.6445 264.244 59.043C264.244 59.4414 264.154 59.7871 263.975 60.0801C263.799 60.373 263.525 60.5996 263.154 60.7598C262.787 60.9199 262.312 61 261.73 61H258.842V54.5781H259.82V57.2266ZM263.266 59.0898C263.266 58.6953 263.125 58.4219 262.844 58.2695C262.566 58.1133 262.178 58.0352 261.678 58.0352H259.82V60.209H261.684C262.152 60.209 262.533 60.123 262.826 59.9512C263.119 59.7754 263.266 59.4883 263.266 59.0898ZM273.742 54.5781V60.1738H274.662V63.2207H273.719V61H269.172V63.2207H268.24V60.1738H268.744C269.111 59.666 269.416 59.1094 269.658 58.5039C269.9 57.8984 270.084 57.2637 270.209 56.5996C270.334 55.9316 270.4 55.2578 270.408 54.5781H273.742ZM272.799 55.3516H271.275C271.24 55.9219 271.156 56.502 271.023 57.0918C270.895 57.6816 270.723 58.2441 270.508 58.7793C270.293 59.3105 270.043 59.7754 269.758 60.1738H272.799V55.3516ZM280.756 61H279.766V55.3926H277.814C277.736 56.4043 277.637 57.2715 277.516 57.9941C277.398 58.7129 277.25 59.3008 277.07 59.7578C276.895 60.2109 276.68 60.5449 276.426 60.7598C276.176 60.9707 275.877 61.0762 275.529 61.0762C275.424 61.0762 275.324 61.0703 275.23 61.0586C275.137 61.0469 275.057 61.0273 274.99 61V60.2617C275.041 60.2773 275.094 60.2891 275.148 60.2969C275.207 60.3047 275.268 60.3086 275.33 60.3086C275.506 60.3086 275.666 60.2363 275.811 60.0918C275.959 59.9434 276.092 59.7207 276.209 59.4238C276.33 59.127 276.438 58.752 276.531 58.2988C276.625 57.8418 276.707 57.3047 276.777 56.6875C276.852 56.0664 276.916 55.3633 276.971 54.5781H280.756V61ZM283.117 61H281.98L283.832 58.293C283.562 58.2344 283.312 58.1348 283.082 57.9941C282.852 57.8496 282.664 57.6523 282.52 57.4023C282.379 57.1523 282.309 56.8418 282.309 56.4707C282.309 55.8535 282.514 55.3848 282.924 55.0645C283.338 54.7402 283.883 54.5781 284.559 54.5781H287.4V61H286.428V58.4219H284.799L283.117 61ZM283.252 56.4766C283.252 56.8594 283.389 57.1445 283.662 57.332C283.936 57.5156 284.326 57.6074 284.834 57.6074H286.428V55.3926H284.664C284.164 55.3926 283.803 55.4941 283.58 55.6973C283.361 55.8965 283.252 56.1562 283.252 56.4766ZM295.586 54.4609C296.387 54.4609 297.025 54.7363 297.502 55.2871C297.979 55.8379 298.217 56.666 298.217 57.7715C298.217 58.502 298.107 59.1152 297.889 59.6113C297.67 60.1074 297.361 60.4824 296.963 60.7363C296.568 60.9902 296.102 61.1172 295.562 61.1172C295.223 61.1172 294.924 61.0723 294.666 60.9824C294.408 60.8926 294.188 60.7715 294.004 60.6191C293.82 60.4668 293.668 60.3008 293.547 60.1211H293.477C293.488 60.2734 293.502 60.457 293.518 60.6719C293.537 60.8867 293.547 61.0742 293.547 61.2344V63.8711H292.568V54.5781H293.371L293.5 55.5273H293.547C293.672 55.332 293.824 55.1543 294.004 54.9941C294.184 54.8301 294.402 54.7012 294.66 54.6074C294.922 54.5098 295.23 54.4609 295.586 54.4609ZM295.416 55.2812C294.971 55.2812 294.611 55.3672 294.338 55.5391C294.068 55.7109 293.871 55.9688 293.746 56.3125C293.621 56.6523 293.555 57.0801 293.547 57.5957V57.7832C293.547 58.3262 293.605 58.7852 293.723 59.1602C293.844 59.5352 294.041 59.8203 294.314 60.0156C294.592 60.2109 294.963 60.3086 295.428 60.3086C295.826 60.3086 296.158 60.2012 296.424 59.9863C296.689 59.7715 296.887 59.4727 297.016 59.0898C297.148 58.7031 297.215 58.2598 297.215 57.7598C297.215 57.002 297.066 56.4004 296.77 55.9551C296.477 55.5059 296.025 55.2812 295.416 55.2812ZM300.889 54.5781V61H299.916V54.5781H300.889ZM300.414 52.1758C300.574 52.1758 300.711 52.2285 300.824 52.334C300.941 52.4355 301 52.5957 301 52.8145C301 53.0293 300.941 53.1895 300.824 53.2949C300.711 53.4004 300.574 53.4531 300.414 53.4531C300.246 53.4531 300.105 53.4004 299.992 53.2949C299.883 53.1895 299.828 53.0293 299.828 52.8145C299.828 52.5957 299.883 52.4355 299.992 52.334C300.105 52.2285 300.246 52.1758 300.414 52.1758ZM304.604 54.4609C305.084 54.4609 305.5 54.5273 305.852 54.6602C306.203 54.7891 306.475 54.9785 306.666 55.2285C306.857 55.4785 306.953 55.7832 306.953 56.1426C306.953 56.5293 306.848 56.8379 306.637 57.0684C306.426 57.2988 306.135 57.4648 305.764 57.5664V57.6133C306.025 57.6836 306.262 57.7852 306.473 57.918C306.688 58.0469 306.857 58.2188 306.982 58.4336C307.111 58.6445 307.176 58.9082 307.176 59.2246C307.176 59.584 307.078 59.9082 306.883 60.1973C306.688 60.4824 306.391 60.707 305.992 60.8711C305.594 61.0352 305.09 61.1172 304.48 61.1172C304.18 61.1172 303.895 61.0996 303.625 61.0645C303.355 61.0332 303.111 60.9863 302.893 60.9238C302.674 60.8613 302.482 60.7871 302.318 60.7012V59.8164C302.592 59.9492 302.912 60.0664 303.279 60.168C303.646 60.2695 304.043 60.3203 304.469 60.3203C304.797 60.3203 305.092 60.2832 305.354 60.209C305.615 60.1309 305.822 60.0078 305.975 59.8398C306.131 59.668 306.209 59.4434 306.209 59.166C306.209 58.9121 306.141 58.7031 306.004 58.5391C305.867 58.3711 305.662 58.248 305.389 58.1699C305.119 58.0879 304.777 58.0469 304.363 58.0469H303.502V57.25H304.211C304.762 57.25 305.201 57.1719 305.529 57.0156C305.857 56.8594 306.021 56.5957 306.021 56.2246C306.021 55.9043 305.895 55.666 305.641 55.5098C305.387 55.3496 305.023 55.2695 304.551 55.2695C304.199 55.2695 303.889 55.3066 303.619 55.3809C303.35 55.4512 303.059 55.5527 302.746 55.6855L302.4 54.9062C302.736 54.7578 303.088 54.6465 303.455 54.5723C303.822 54.498 304.205 54.4609 304.604 54.4609ZM309.73 54.5781V57.2734H313.311V54.5781H314.283V61H313.311V58.0996H309.73V61H308.752V54.5781H309.73ZM317.271 54.5781V58.6152C317.271 58.6934 317.27 58.7949 317.266 58.9199C317.262 59.041 317.256 59.1719 317.248 59.3125C317.24 59.4492 317.232 59.582 317.225 59.7109C317.221 59.8359 317.215 59.9395 317.207 60.0215L320.711 54.5781H321.906V61H320.998V57.0625C320.998 56.9375 321 56.7773 321.004 56.582C321.008 56.3867 321.014 56.1953 321.021 56.0078C321.029 55.8164 321.035 55.668 321.039 55.5625L317.547 61H316.346V54.5781H317.271ZM325.504 57.7129L323.283 54.5781H324.396L326.09 57.0508L327.777 54.5781H328.879L326.658 57.7129L329.002 61H327.889L326.09 58.3809L324.279 61H323.178L325.504 57.7129ZM119.805 70.5781V77H118.926V72.8164C118.926 72.6445 118.93 72.4707 118.938 72.2949C118.949 72.1152 118.963 71.9355 118.979 71.7559H118.943L116.811 77H115.984L113.904 71.7559H113.869C113.881 71.9355 113.889 72.1152 113.893 72.2949C113.9 72.4707 113.904 72.6562 113.904 72.8516V77H113.02V70.5781H114.326L116.4 75.8281L118.504 70.5781H119.805ZM124.299 70.4609C124.846 70.4609 125.314 70.582 125.705 70.8242C126.096 71.0664 126.395 71.4062 126.602 71.8438C126.809 72.2773 126.912 72.7852 126.912 73.3672V73.9707H122.477C122.488 74.7246 122.676 75.2988 123.039 75.6934C123.402 76.0879 123.914 76.2852 124.574 76.2852C124.98 76.2852 125.34 76.248 125.652 76.1738C125.965 76.0996 126.289 75.9902 126.625 75.8457V76.7012C126.301 76.8457 125.979 76.9512 125.658 77.0176C125.342 77.084 124.967 77.1172 124.533 77.1172C123.916 77.1172 123.377 76.9922 122.916 76.7422C122.459 76.4883 122.104 76.1172 121.85 75.6289C121.596 75.1406 121.469 74.543 121.469 73.8359C121.469 73.1445 121.584 72.5469 121.814 72.043C122.049 71.5352 122.377 71.1445 122.799 70.8711C123.225 70.5977 123.725 70.4609 124.299 70.4609ZM124.287 71.2578C123.768 71.2578 123.354 71.4277 123.045 71.7676C122.736 72.1074 122.553 72.582 122.494 73.1914H125.893C125.889 72.8086 125.828 72.4727 125.711 72.1836C125.598 71.8906 125.424 71.6641 125.189 71.5039C124.955 71.3398 124.654 71.2578 124.287 71.2578ZM133.27 70.5781V76.1738H134.189V79.2207H133.246V77H128.699V79.2207H127.768V76.1738H128.271C128.639 75.666 128.943 75.1094 129.186 74.5039C129.428 73.8984 129.611 73.2637 129.736 72.5996C129.861 71.9316 129.928 71.2578 129.936 70.5781H133.27ZM132.326 71.3516H130.803C130.768 71.9219 130.684 72.502 130.551 73.0918C130.422 73.6816 130.25 74.2441 130.035 74.7793C129.82 75.3105 129.57 75.7754 129.285 76.1738H132.326V71.3516ZM136.439 70.5781V77H135.467V70.5781H136.439ZM135.965 68.1758C136.125 68.1758 136.262 68.2285 136.375 68.334C136.492 68.4355 136.551 68.5957 136.551 68.8145C136.551 69.0293 136.492 69.1895 136.375 69.2949C136.262 69.4004 136.125 69.4531 135.965 69.4531C135.797 69.4531 135.656 69.4004 135.543 69.2949C135.434 69.1895 135.379 69.0293 135.379 68.8145C135.379 68.5957 135.434 68.4355 135.543 68.334C135.656 68.2285 135.797 68.1758 135.965 68.1758ZM140.904 70.4727C141.67 70.4727 142.238 70.6445 142.609 70.9883C142.98 71.332 143.166 71.8809 143.166 72.6348V77H142.457L142.27 76.0508H142.223C142.043 76.2852 141.855 76.4824 141.66 76.6426C141.465 76.7988 141.238 76.918 140.98 77C140.727 77.0781 140.414 77.1172 140.043 77.1172C139.652 77.1172 139.305 77.0488 139 76.9121C138.699 76.7754 138.461 76.5684 138.285 76.291C138.113 76.0137 138.027 75.6621 138.027 75.2363C138.027 74.5957 138.281 74.1035 138.789 73.7598C139.297 73.416 140.07 73.2285 141.109 73.1973L142.217 73.1504V72.7578C142.217 72.2031 142.098 71.8145 141.859 71.5918C141.621 71.3691 141.285 71.2578 140.852 71.2578C140.516 71.2578 140.195 71.3066 139.891 71.4043C139.586 71.502 139.297 71.6172 139.023 71.75L138.725 71.0117C139.014 70.8633 139.346 70.7363 139.721 70.6309C140.096 70.5254 140.49 70.4727 140.904 70.4727ZM142.205 73.8359L141.227 73.877C140.426 73.9082 139.861 74.0391 139.533 74.2695C139.205 74.5 139.041 74.8262 139.041 75.248C139.041 75.6152 139.152 75.8867 139.375 76.0625C139.598 76.2383 139.893 76.3262 140.26 76.3262C140.83 76.3262 141.297 76.168 141.66 75.8516C142.023 75.5352 142.205 75.0605 142.205 74.4277V73.8359ZM146.283 75.6055L146.359 75.7402C146.289 76.0254 146.199 76.3301 146.09 76.6543C145.984 76.9785 145.867 77.3027 145.738 77.627C145.613 77.9551 145.486 78.2617 145.357 78.5469H144.631C144.713 78.2344 144.793 77.9043 144.871 77.5566C144.949 77.2129 145.02 76.873 145.082 76.5371C145.148 76.1973 145.201 75.8867 145.24 75.6055H146.283ZM155.77 71.4043H153.654V77H152.693V71.4043H150.607V70.5781H155.77V71.4043ZM159.443 70.4727C160.209 70.4727 160.777 70.6445 161.148 70.9883C161.52 71.332 161.705 71.8809 161.705 72.6348V77H160.996L160.809 76.0508H160.762C160.582 76.2852 160.395 76.4824 160.199 76.6426C160.004 76.7988 159.777 76.918 159.52 77C159.266 77.0781 158.953 77.1172 158.582 77.1172C158.191 77.1172 157.844 77.0488 157.539 76.9121C157.238 76.7754 157 76.5684 156.824 76.291C156.652 76.0137 156.566 75.6621 156.566 75.2363C156.566 74.5957 156.82 74.1035 157.328 73.7598C157.836 73.416 158.609 73.2285 159.648 73.1973L160.756 73.1504V72.7578C160.756 72.2031 160.637 71.8145 160.398 71.5918C160.16 71.3691 159.824 71.2578 159.391 71.2578C159.055 71.2578 158.734 71.3066 158.43 71.4043C158.125 71.502 157.836 71.6172 157.562 71.75L157.264 71.0117C157.553 70.8633 157.885 70.7363 158.26 70.6309C158.635 70.5254 159.029 70.4727 159.443 70.4727ZM160.744 73.8359L159.766 73.877C158.965 73.9082 158.4 74.0391 158.072 74.2695C157.744 74.5 157.58 74.8262 157.58 75.248C157.58 75.6152 157.691 75.8867 157.914 76.0625C158.137 76.2383 158.432 76.3262 158.799 76.3262C159.369 76.3262 159.836 76.168 160.199 75.8516C160.562 75.5352 160.744 75.0605 160.744 74.4277V73.8359ZM167.453 70.5781H168.525L165.754 73.6777L168.748 77H167.605L164.688 73.7422V77H163.709V70.5781H164.688V73.6953L167.453 70.5781ZM170.834 70.5781V74.6152C170.834 74.6934 170.832 74.7949 170.828 74.9199C170.824 75.041 170.818 75.1719 170.811 75.3125C170.803 75.4492 170.795 75.582 170.787 75.7109C170.783 75.8359 170.777 75.9395 170.77 76.0215L174.273 70.5781H175.469V77H174.561V73.0625C174.561 72.9375 174.562 72.7773 174.566 72.582C174.57 72.3867 174.576 72.1953 174.584 72.0078C174.592 71.8164 174.598 71.668 174.602 71.5625L171.109 77H169.908V70.5781H170.834ZM179.066 73.7129L176.846 70.5781H177.959L179.652 73.0508L181.34 70.5781H182.441L180.221 73.7129L182.564 77H181.451L179.652 74.3809L177.842 77H176.74L179.066 73.7129ZM192.039 72.1895C192.039 72.5918 191.922 72.9062 191.688 73.1328C191.453 73.3555 191.15 73.5059 190.779 73.584V73.6309C191.182 73.6855 191.527 73.8301 191.816 74.0645C192.109 74.2949 192.256 74.6484 192.256 75.125C192.256 75.4922 192.168 75.8164 191.992 76.0977C191.816 76.3789 191.541 76.5996 191.166 76.7598C190.791 76.9199 190.303 77 189.701 77H186.936V70.5781H189.678C190.139 70.5781 190.545 70.6309 190.896 70.7363C191.252 70.8379 191.531 71.0059 191.734 71.2402C191.938 71.4746 192.039 71.791 192.039 72.1895ZM191.242 75.125C191.242 74.7461 191.098 74.4727 190.809 74.3047C190.523 74.1367 190.107 74.0527 189.561 74.0527H187.914V76.209H189.584C190.123 76.209 190.533 76.127 190.814 75.9629C191.1 75.7949 191.242 75.5156 191.242 75.125ZM191.049 72.3008C191.049 71.9961 190.938 71.7695 190.715 71.6211C190.492 71.4688 190.127 71.3926 189.619 71.3926H187.914V73.2383H189.449C189.977 73.2383 190.375 73.1621 190.645 73.0098C190.914 72.8574 191.049 72.6211 191.049 72.3008ZM196.299 70.4609C196.846 70.4609 197.314 70.582 197.705 70.8242C198.096 71.0664 198.395 71.4062 198.602 71.8438C198.809 72.2773 198.912 72.7852 198.912 73.3672V73.9707H194.477C194.488 74.7246 194.676 75.2988 195.039 75.6934C195.402 76.0879 195.914 76.2852 196.574 76.2852C196.98 76.2852 197.34 76.248 197.652 76.1738C197.965 76.0996 198.289 75.9902 198.625 75.8457V76.7012C198.301 76.8457 197.979 76.9512 197.658 77.0176C197.342 77.084 196.967 77.1172 196.533 77.1172C195.916 77.1172 195.377 76.9922 194.916 76.7422C194.459 76.4883 194.104 76.1172 193.85 75.6289C193.596 75.1406 193.469 74.543 193.469 73.8359C193.469 73.1445 193.584 72.5469 193.814 72.043C194.049 71.5352 194.377 71.1445 194.799 70.8711C195.225 70.5977 195.725 70.4609 196.299 70.4609ZM196.287 71.2578C195.768 71.2578 195.354 71.4277 195.045 71.7676C194.736 72.1074 194.553 72.582 194.494 73.1914H197.893C197.889 72.8086 197.828 72.4727 197.711 72.1836C197.598 71.8906 197.424 71.6641 197.189 71.5039C196.955 71.3398 196.654 71.2578 196.287 71.2578ZM200.23 73.1445C200.23 72.2305 200.318 71.4512 200.494 70.8066C200.67 70.1582 200.941 69.6387 201.309 69.248C201.68 68.8535 202.156 68.584 202.738 68.4395C203.238 68.3027 203.746 68.1855 204.262 68.0879C204.777 67.9863 205.279 67.8984 205.768 67.8242L205.938 68.6797C205.691 68.7148 205.434 68.7559 205.164 68.8027C204.895 68.8457 204.625 68.8926 204.355 68.9434C204.086 68.9902 203.832 69.041 203.594 69.0957C203.355 69.1465 203.145 69.1992 202.961 69.2539C202.629 69.3438 202.342 69.5 202.1 69.7227C201.861 69.9453 201.672 70.252 201.531 70.6426C201.395 71.0332 201.312 71.5254 201.285 72.1191H201.355C201.473 71.9473 201.633 71.7773 201.836 71.6094C202.039 71.4414 202.281 71.3027 202.562 71.1934C202.844 71.0801 203.16 71.0234 203.512 71.0234C204.066 71.0234 204.529 71.1445 204.9 71.3867C205.271 71.625 205.551 71.9609 205.738 72.3945C205.926 72.8281 206.02 73.3359 206.02 73.918C206.02 74.6172 205.898 75.2051 205.656 75.6816C205.418 76.1582 205.082 76.5176 204.648 76.7598C204.215 76.998 203.705 77.1172 203.119 77.1172C202.666 77.1172 202.26 77.0293 201.9 76.8535C201.545 76.6777 201.242 76.4199 200.992 76.0801C200.746 75.7402 200.557 75.3242 200.424 74.832C200.295 74.3398 200.23 73.7773 200.23 73.1445ZM203.195 76.3086C203.566 76.3086 203.885 76.2305 204.15 76.0742C204.42 75.918 204.627 75.6719 204.771 75.3359C204.92 74.9961 204.994 74.5547 204.994 74.0117C204.994 73.332 204.863 72.8008 204.602 72.418C204.344 72.0312 203.93 71.8379 203.359 71.8379C203.004 71.8379 202.682 71.9141 202.393 72.0664C202.104 72.2148 201.859 72.3926 201.66 72.5996C201.461 72.8066 201.316 72.9922 201.227 73.1562C201.227 73.5547 201.256 73.9414 201.314 74.3164C201.373 74.6914 201.475 75.0293 201.619 75.3301C201.764 75.6309 201.963 75.8691 202.217 76.0449C202.475 76.2207 202.801 76.3086 203.195 76.3086ZM207.156 74.2109V73.3438H210.062V74.2109H207.156ZM214.141 77.1172C213.562 77.1172 213.053 76.998 212.611 76.7598C212.17 76.5215 211.826 76.1582 211.58 75.6699C211.334 75.1816 211.211 74.5664 211.211 73.8242C211.211 73.0469 211.34 72.4121 211.598 71.9199C211.859 71.4238 212.219 71.0566 212.676 70.8184C213.133 70.5801 213.652 70.4609 214.234 70.4609C214.555 70.4609 214.863 70.4941 215.16 70.5605C215.461 70.623 215.707 70.7031 215.898 70.8008L215.605 71.6152C215.41 71.5371 215.184 71.4668 214.926 71.4043C214.672 71.3418 214.434 71.3105 214.211 71.3105C213.766 71.3105 213.395 71.4062 213.098 71.5977C212.805 71.7891 212.584 72.0703 212.436 72.4414C212.291 72.8125 212.219 73.2695 212.219 73.8125C212.219 74.332 212.289 74.7754 212.43 75.1426C212.574 75.5098 212.787 75.791 213.068 75.9863C213.354 76.1777 213.709 76.2734 214.135 76.2734C214.475 76.2734 214.781 76.2383 215.055 76.168C215.328 76.0938 215.576 76.0078 215.799 75.9102V76.7773C215.584 76.8867 215.344 76.9707 215.078 77.0293C214.816 77.0879 214.504 77.1172 214.141 77.1172ZM219.725 70.4727C220.49 70.4727 221.059 70.6445 221.43 70.9883C221.801 71.332 221.986 71.8809 221.986 72.6348V77H221.277L221.09 76.0508H221.043C220.863 76.2852 220.676 76.4824 220.48 76.6426C220.285 76.7988 220.059 76.918 219.801 77C219.547 77.0781 219.234 77.1172 218.863 77.1172C218.473 77.1172 218.125 77.0488 217.82 76.9121C217.52 76.7754 217.281 76.5684 217.105 76.291C216.934 76.0137 216.848 75.6621 216.848 75.2363C216.848 74.5957 217.102 74.1035 217.609 73.7598C218.117 73.416 218.891 73.2285 219.93 73.1973L221.037 73.1504V72.7578C221.037 72.2031 220.918 71.8145 220.68 71.5918C220.441 71.3691 220.105 71.2578 219.672 71.2578C219.336 71.2578 219.016 71.3066 218.711 71.4043C218.406 71.502 218.117 71.6172 217.844 71.75L217.545 71.0117C217.834 70.8633 218.166 70.7363 218.541 70.6309C218.916 70.5254 219.311 70.4727 219.725 70.4727ZM221.025 73.8359L220.047 73.877C219.246 73.9082 218.682 74.0391 218.354 74.2695C218.025 74.5 217.861 74.8262 217.861 75.248C217.861 75.6152 217.973 75.8867 218.195 76.0625C218.418 76.2383 218.713 76.3262 219.08 76.3262C219.65 76.3262 220.117 76.168 220.48 75.8516C220.844 75.5352 221.025 75.0605 221.025 74.4277V73.8359ZM224.916 70.5781V74.6152C224.916 74.6934 224.914 74.7949 224.91 74.9199C224.906 75.041 224.9 75.1719 224.893 75.3125C224.885 75.4492 224.877 75.582 224.869 75.7109C224.865 75.8359 224.859 75.9395 224.852 76.0215L228.355 70.5781H229.551V77H228.643V73.0625C228.643 72.9375 228.645 72.7773 228.648 72.582C228.652 72.3867 228.658 72.1953 228.666 72.0078C228.674 71.8164 228.68 71.668 228.684 71.5625L225.191 77H223.99V70.5781H224.916ZM229.07 67.9355C229.035 68.3301 228.936 68.6602 228.771 68.9258C228.611 69.1914 228.375 69.3926 228.062 69.5293C227.75 69.6621 227.35 69.7285 226.861 69.7285C226.357 69.7285 225.951 69.6641 225.643 69.5352C225.338 69.4023 225.111 69.2031 224.963 68.9375C224.818 68.6719 224.732 68.3379 224.705 67.9355H225.619C225.662 68.3652 225.777 68.6582 225.965 68.8145C226.152 68.9707 226.457 69.0488 226.879 69.0488C227.254 69.0488 227.549 68.9668 227.764 68.8027C227.979 68.6387 228.107 68.3496 228.15 67.9355H229.07ZM235.996 71.4043H233.881V77H232.92V71.4043H230.834V70.5781H235.996V71.4043ZM238.193 70.5781V74.6152C238.193 74.6934 238.191 74.7949 238.188 74.9199C238.184 75.041 238.178 75.1719 238.17 75.3125C238.162 75.4492 238.154 75.582 238.146 75.7109C238.143 75.8359 238.137 75.9395 238.129 76.0215L241.633 70.5781H242.828V77H241.92V73.0625C241.92 72.9375 241.922 72.7773 241.926 72.582C241.93 72.3867 241.936 72.1953 241.943 72.0078C241.951 71.8164 241.957 71.668 241.961 71.5625L238.469 77H237.268V70.5781H238.193ZM246.01 75.6055L246.086 75.7402C246.016 76.0254 245.926 76.3301 245.816 76.6543C245.711 76.9785 245.594 77.3027 245.465 77.627C245.34 77.9551 245.213 78.2617 245.084 78.5469H244.357C244.439 78.2344 244.52 77.9043 244.598 77.5566C244.676 77.2129 244.746 76.873 244.809 76.5371C244.875 76.1973 244.928 75.8867 244.967 75.6055H246.01ZM255.936 77H254.945V71.3926H252.994C252.916 72.4043 252.816 73.2715 252.695 73.9941C252.578 74.7129 252.43 75.3008 252.25 75.7578C252.074 76.2109 251.859 76.5449 251.605 76.7598C251.355 76.9707 251.057 77.0762 250.709 77.0762C250.604 77.0762 250.504 77.0703 250.41 77.0586C250.316 77.0469 250.236 77.0273 250.17 77V76.2617C250.221 76.2773 250.273 76.2891 250.328 76.2969C250.387 76.3047 250.447 76.3086 250.51 76.3086C250.686 76.3086 250.846 76.2363 250.99 76.0918C251.139 75.9434 251.271 75.7207 251.389 75.4238C251.51 75.127 251.617 74.752 251.711 74.2988C251.805 73.8418 251.887 73.3047 251.957 72.6875C252.031 72.0664 252.096 71.3633 252.15 70.5781H255.936V77ZM263.523 73.7773C263.523 74.3047 263.455 74.7754 263.318 75.1895C263.182 75.6035 262.984 75.9531 262.727 76.2383C262.469 76.5234 262.156 76.7422 261.789 76.8945C261.426 77.043 261.014 77.1172 260.553 77.1172C260.123 77.1172 259.729 77.043 259.369 76.8945C259.014 76.7422 258.705 76.5234 258.443 76.2383C258.186 75.9531 257.984 75.6035 257.84 75.1895C257.699 74.7754 257.629 74.3047 257.629 73.7773C257.629 73.0742 257.748 72.4766 257.986 71.9844C258.225 71.4883 258.564 71.1113 259.006 70.8535C259.451 70.5918 259.98 70.4609 260.594 70.4609C261.18 70.4609 261.691 70.5918 262.129 70.8535C262.57 71.1152 262.912 71.4941 263.154 71.9902C263.4 72.4824 263.523 73.0781 263.523 73.7773ZM258.637 73.7773C258.637 74.293 258.705 74.7402 258.842 75.1191C258.979 75.498 259.189 75.791 259.475 75.998C259.76 76.2051 260.127 76.3086 260.576 76.3086C261.021 76.3086 261.387 76.2051 261.672 75.998C261.961 75.791 262.174 75.498 262.311 75.1191C262.447 74.7402 262.516 74.293 262.516 73.7773C262.516 73.2656 262.447 72.8242 262.311 72.4531C262.174 72.0781 261.963 71.7891 261.678 71.5859C261.393 71.3828 261.023 71.2812 260.57 71.2812C259.902 71.2812 259.412 71.502 259.1 71.9434C258.791 72.3848 258.637 72.9961 258.637 73.7773ZM269.102 70.5781V71.4043H266.184V77H265.205V70.5781H269.102ZM275.922 73.7773C275.922 74.3047 275.854 74.7754 275.717 75.1895C275.58 75.6035 275.383 75.9531 275.125 76.2383C274.867 76.5234 274.555 76.7422 274.188 76.8945C273.824 77.043 273.412 77.1172 272.951 77.1172C272.521 77.1172 272.127 77.043 271.768 76.8945C271.412 76.7422 271.104 76.5234 270.842 76.2383C270.584 75.9531 270.383 75.6035 270.238 75.1895C270.098 74.7754 270.027 74.3047 270.027 73.7773C270.027 73.0742 270.146 72.4766 270.385 71.9844C270.623 71.4883 270.963 71.1113 271.404 70.8535C271.85 70.5918 272.379 70.4609 272.992 70.4609C273.578 70.4609 274.09 70.5918 274.527 70.8535C274.969 71.1152 275.311 71.4941 275.553 71.9902C275.799 72.4824 275.922 73.0781 275.922 73.7773ZM271.035 73.7773C271.035 74.293 271.104 74.7402 271.24 75.1191C271.377 75.498 271.588 75.791 271.873 75.998C272.158 76.2051 272.525 76.3086 272.975 76.3086C273.42 76.3086 273.785 76.2051 274.07 75.998C274.359 75.791 274.572 75.498 274.709 75.1191C274.846 74.7402 274.914 74.293 274.914 73.7773C274.914 73.2656 274.846 72.8242 274.709 72.4531C274.572 72.0781 274.361 71.7891 274.076 71.5859C273.791 71.3828 273.422 71.2812 272.969 71.2812C272.301 71.2812 271.811 71.502 271.498 71.9434C271.189 72.3848 271.035 72.9961 271.035 73.7773ZM281.98 71.4043H279.865V77H278.904V71.4043H276.818V70.5781H281.98V71.4043ZM284.178 70.5781V74.6152C284.178 74.6934 284.176 74.7949 284.172 74.9199C284.168 75.041 284.162 75.1719 284.154 75.3125C284.146 75.4492 284.139 75.582 284.131 75.7109C284.127 75.8359 284.121 75.9395 284.113 76.0215L287.617 70.5781H288.812V77H287.904V73.0625C287.904 72.9375 287.906 72.7773 287.91 72.582C287.914 72.3867 287.92 72.1953 287.928 72.0078C287.936 71.8164 287.941 71.668 287.945 71.5625L284.453 77H283.252V70.5781H284.178ZM296.26 70.5781V77H295.281V71.416H291.859V77H290.881V70.5781H296.26ZM299.248 70.5781V74.6152C299.248 74.6934 299.246 74.7949 299.242 74.9199C299.238 75.041 299.232 75.1719 299.225 75.3125C299.217 75.4492 299.209 75.582 299.201 75.7109C299.197 75.8359 299.191 75.9395 299.184 76.0215L302.688 70.5781H303.883V77H302.975V73.0625C302.975 72.9375 302.977 72.7773 302.98 72.582C302.984 72.3867 302.99 72.1953 302.998 72.0078C303.006 71.8164 303.012 71.668 303.016 71.5625L299.523 77H298.322V70.5781H299.248Z" fill="#1E1E1E"/>
<defs>
<clipPath id="clip0_689_14515">
<rect width="44.6429" height="29.0178" fill="white" transform="translate(30.3574 32.9999)"/>
</clipPath>
<clipPath id="clip1_689_14515">
<rect width="44.6429" height="29.0178" fill="white" transform="translate(25 38.3568)"/>
</clipPath>
<clipPath id="clip2_689_14515">
<rect width="17.8571" height="17.8571" fill="white" transform="translate(26.7856 44.6068)"/>
</clipPath>
</defs>
</svg>
