<svg width="68" height="25" viewBox="0 0 68 25" fill="none" xmlns="http://www.w3.org/2000/svg">
<rect width="68" height="25" rx="4" fill="#D1CFFF"/>
<path d="M10 18.5H14M10 18.5V15.1667M10 18.5H6.4C6.17909 18.5 6 18.3209 6 18.1V15.5667C6 15.3457 6.17909 15.1667 6.4 15.1667H10M14 18.5V10.5M14 18.5H17.6C17.8209 18.5 18 18.3209 18 18.1V6.9C18 6.67909 17.8209 6.5 17.6 6.5H14.4C14.1791 6.5 14 6.67909 14 6.9V10.5M10 15.1667V10.9C10 10.6791 10.1791 10.5 10.4 10.5H14" stroke="#1E1E1E"/>
<path d="M31.9414 17.5H27.1719V8.93359H31.9414V9.8125H28.168V12.584H31.7246V13.4512H28.168V16.6211H31.9414V17.5ZM35.2227 14.2129L33.002 11.0781H34.1152L35.8086 13.5508L37.4961 11.0781H38.5977L36.377 14.2129L38.7207 17.5H37.6074L35.8086 14.8809L33.998 17.5H32.8965L35.2227 14.2129ZM42.9922 10.9609C43.793 10.9609 44.4316 11.2363 44.9082 11.7871C45.3848 12.3379 45.623 13.166 45.623 14.2715C45.623 15.002 45.5137 15.6152 45.2949 16.1113C45.0762 16.6074 44.7676 16.9824 44.3691 17.2363C43.9746 17.4902 43.5078 17.6172 42.9688 17.6172C42.6289 17.6172 42.3301 17.5723 42.0723 17.4824C41.8145 17.3926 41.5938 17.2715 41.4102 17.1191C41.2266 16.9668 41.0742 16.8008 40.9531 16.6211H40.8828C40.8945 16.7734 40.9082 16.957 40.9238 17.1719C40.9434 17.3867 40.9531 17.5742 40.9531 17.7344V20.3711H39.9746V11.0781H40.7773L40.9062 12.0273H40.9531C41.0781 11.832 41.2305 11.6543 41.4102 11.4941C41.5898 11.3301 41.8086 11.2012 42.0664 11.1074C42.3281 11.0098 42.6367 10.9609 42.9922 10.9609ZM42.8223 11.7812C42.377 11.7812 42.0176 11.8672 41.7441 12.0391C41.4746 12.2109 41.2773 12.4688 41.1523 12.8125C41.0273 13.1523 40.9609 13.5801 40.9531 14.0957V14.2832C40.9531 14.8262 41.0117 15.2852 41.1289 15.6602C41.25 16.0352 41.4473 16.3203 41.7207 16.5156C41.998 16.7109 42.3691 16.8086 42.834 16.8086C43.2324 16.8086 43.5645 16.7012 43.8301 16.4863C44.0957 16.2715 44.293 15.9727 44.4219 15.5898C44.5547 15.2031 44.6211 14.7598 44.6211 14.2598C44.6211 13.502 44.4727 12.9004 44.1758 12.4551C43.8828 12.0059 43.4316 11.7812 42.8223 11.7812ZM49.7949 10.9609C50.3418 10.9609 50.8105 11.082 51.2012 11.3242C51.5918 11.5664 51.8906 11.9062 52.0977 12.3438C52.3047 12.7773 52.4082 13.2852 52.4082 13.8672V14.4707H47.9727C47.9844 15.2246 48.1719 15.7988 48.5352 16.1934C48.8984 16.5879 49.4102 16.7852 50.0703 16.7852C50.4766 16.7852 50.8359 16.748 51.1484 16.6738C51.4609 16.5996 51.7852 16.4902 52.1211 16.3457V17.2012C51.7969 17.3457 51.4746 17.4512 51.1543 17.5176C50.8379 17.584 50.4629 17.6172 50.0293 17.6172C49.4121 17.6172 48.873 17.4922 48.4121 17.2422C47.9551 16.9883 47.5996 16.6172 47.3457 16.1289C47.0918 15.6406 46.9648 15.043 46.9648 14.3359C46.9648 13.6445 47.0801 13.0469 47.3105 12.543C47.5449 12.0352 47.873 11.6445 48.2949 11.3711C48.7207 11.0977 49.2207 10.9609 49.7949 10.9609ZM49.7832 11.7578C49.2637 11.7578 48.8496 11.9277 48.541 12.2676C48.2324 12.6074 48.0488 13.082 47.9902 13.6914H51.3887C51.3848 13.3086 51.3242 12.9727 51.207 12.6836C51.0938 12.3906 50.9199 12.1641 50.6855 12.0039C50.4512 11.8398 50.1504 11.7578 49.7832 11.7578ZM56.9785 10.9609C57.1074 10.9609 57.2422 10.9688 57.3828 10.9844C57.5234 10.9961 57.6484 11.0137 57.7578 11.0371L57.6348 11.9395C57.5293 11.9121 57.4121 11.8906 57.2832 11.875C57.1543 11.8594 57.0332 11.8516 56.9199 11.8516C56.6621 11.8516 56.418 11.9043 56.1875 12.0098C55.9609 12.1113 55.7617 12.2598 55.5898 12.4551C55.418 12.6465 55.2832 12.8789 55.1855 13.1523C55.0879 13.4219 55.0391 13.7227 55.0391 14.0547V17.5H54.0605V11.0781H54.8691L54.9746 12.2617H55.0156C55.1484 12.0234 55.3086 11.8066 55.4961 11.6113C55.6836 11.4121 55.9004 11.2539 56.1465 11.1367C56.3965 11.0195 56.6738 10.9609 56.9785 10.9609ZM61.0449 16.8203C61.2051 16.8203 61.3691 16.8066 61.5371 16.7793C61.7051 16.752 61.8418 16.7188 61.9473 16.6797V17.4355C61.834 17.4863 61.6758 17.5293 61.4727 17.5645C61.2734 17.5996 61.0781 17.6172 60.8867 17.6172C60.5469 17.6172 60.2383 17.5586 59.9609 17.4414C59.6836 17.3203 59.4609 17.1172 59.293 16.832C59.1289 16.5469 59.0469 16.1523 59.0469 15.6484V11.8398H58.1328V11.3652L59.0527 10.9844L59.4395 9.58984H60.0254V11.0781H61.9062V11.8398H60.0254V15.6191C60.0254 16.0215 60.1172 16.3223 60.3008 16.5215C60.4883 16.7207 60.7363 16.8203 61.0449 16.8203Z" fill="#1E1E1E"/>
</svg>
