<svg width="103" height="25" viewBox="0 0 103 25" fill="none" xmlns="http://www.w3.org/2000/svg">
<rect width="103" height="25" rx="4" fill="#D1CFFF"/>
<path d="M10 18.5H14M10 18.5V15.1667M10 18.5H6.4C6.17909 18.5 6 18.3209 6 18.1V15.5667C6 15.3457 6.17909 15.1667 6.4 15.1667H10M14 18.5V10.5M14 18.5H17.6C17.8209 18.5 18 18.3209 18 18.1V6.9C18 6.67909 17.8209 6.5 17.6 6.5H14.4C14.1791 6.5 14 6.67909 14 6.9V10.5M10 15.1667V10.9C10 10.6791 10.1791 10.5 10.4 10.5H14" stroke="#1E1E1E"/>
<path d="M27.1719 17.5V8.93359H28.168V17.5H27.1719ZM33.418 10.9609C34.1797 10.9609 34.7559 11.1484 35.1465 11.5234C35.5371 11.8945 35.7324 12.4922 35.7324 13.3164V17.5H34.7715V13.3809C34.7715 12.8457 34.6484 12.4453 34.4023 12.1797C34.1602 11.9141 33.7871 11.7812 33.2832 11.7812C32.5723 11.7812 32.0723 11.9824 31.7832 12.3848C31.4941 12.7871 31.3496 13.3711 31.3496 14.1367V17.5H30.377V11.0781H31.1621L31.3086 12.0039H31.3613C31.498 11.7773 31.6719 11.5879 31.8828 11.4355C32.0938 11.2793 32.3301 11.1621 32.5918 11.084C32.8535 11.002 33.1289 10.9609 33.418 10.9609ZM39.8105 16.8203C39.9707 16.8203 40.1348 16.8066 40.3027 16.7793C40.4707 16.752 40.6074 16.7188 40.7129 16.6797V17.4355C40.5996 17.4863 40.4414 17.5293 40.2383 17.5645C40.0391 17.5996 39.8438 17.6172 39.6523 17.6172C39.3125 17.6172 39.0039 17.5586 38.7266 17.4414C38.4492 17.3203 38.2266 17.1172 38.0586 16.832C37.8945 16.5469 37.8125 16.1523 37.8125 15.6484V11.8398H36.8984V11.3652L37.8184 10.9844L38.2051 9.58984H38.791V11.0781H40.6719V11.8398H38.791V15.6191C38.791 16.0215 38.8828 16.3223 39.0664 16.5215C39.2539 16.7207 39.502 16.8203 39.8105 16.8203ZM44.4863 10.9609C45.0332 10.9609 45.502 11.082 45.8926 11.3242C46.2832 11.5664 46.582 11.9062 46.7891 12.3438C46.9961 12.7773 47.0996 13.2852 47.0996 13.8672V14.4707H42.6641C42.6758 15.2246 42.8633 15.7988 43.2266 16.1934C43.5898 16.5879 44.1016 16.7852 44.7617 16.7852C45.168 16.7852 45.5273 16.748 45.8398 16.6738C46.1523 16.5996 46.4766 16.4902 46.8125 16.3457V17.2012C46.4883 17.3457 46.166 17.4512 45.8457 17.5176C45.5293 17.584 45.1543 17.6172 44.7207 17.6172C44.1035 17.6172 43.5645 17.4922 43.1035 17.2422C42.6465 16.9883 42.291 16.6172 42.0371 16.1289C41.7832 15.6406 41.6562 15.043 41.6562 14.3359C41.6562 13.6445 41.7715 13.0469 42.002 12.543C42.2363 12.0352 42.5645 11.6445 42.9863 11.3711C43.4121 11.0977 43.9121 10.9609 44.4863 10.9609ZM44.4746 11.7578C43.9551 11.7578 43.541 11.9277 43.2324 12.2676C42.9238 12.6074 42.7402 13.082 42.6816 13.6914H46.0801C46.0762 13.3086 46.0156 12.9727 45.8984 12.6836C45.7852 12.3906 45.6113 12.1641 45.377 12.0039C45.1426 11.8398 44.8418 11.7578 44.4746 11.7578ZM51.6699 10.9609C51.7988 10.9609 51.9336 10.9688 52.0742 10.9844C52.2148 10.9961 52.3398 11.0137 52.4492 11.0371L52.3262 11.9395C52.2207 11.9121 52.1035 11.8906 51.9746 11.875C51.8457 11.8594 51.7246 11.8516 51.6113 11.8516C51.3535 11.8516 51.1094 11.9043 50.8789 12.0098C50.6523 12.1113 50.4531 12.2598 50.2812 12.4551C50.1094 12.6465 49.9746 12.8789 49.877 13.1523C49.7793 13.4219 49.7305 13.7227 49.7305 14.0547V17.5H48.752V11.0781H49.5605L49.666 12.2617H49.707C49.8398 12.0234 50 11.8066 50.1875 11.6113C50.375 11.4121 50.5918 11.2539 50.8379 11.1367C51.0879 11.0195 51.3652 10.9609 51.6699 10.9609ZM60.6348 10.9609C61.3418 10.9609 61.875 11.1465 62.2344 11.5176C62.5938 11.8848 62.7734 12.4766 62.7734 13.293V17.5H61.8125V13.3398C61.8125 12.8203 61.6992 12.4316 61.4727 12.1738C61.25 11.9121 60.918 11.7812 60.4766 11.7812C59.8555 11.7812 59.4043 11.9609 59.123 12.3203C58.8418 12.6797 58.7012 13.209 58.7012 13.9082V17.5H57.7344V13.3398C57.7344 12.9922 57.6836 12.7031 57.582 12.4727C57.4844 12.2422 57.3359 12.0703 57.1367 11.957C56.9414 11.8398 56.6934 11.7812 56.3926 11.7812C55.9668 11.7812 55.625 11.8691 55.3672 12.0449C55.1094 12.2207 54.9219 12.4824 54.8047 12.8301C54.6914 13.1738 54.6348 13.5977 54.6348 14.1016V17.5H53.6621V11.0781H54.4473L54.5938 11.9863H54.6465C54.7754 11.7637 54.9375 11.5762 55.1328 11.4238C55.3281 11.2715 55.5469 11.1562 55.7891 11.0781C56.0312 11 56.2891 10.9609 56.5625 10.9609C57.0508 10.9609 57.459 11.0527 57.7871 11.2363C58.1191 11.416 58.3594 11.6914 58.5078 12.0625H58.5605C58.7715 11.6914 59.0605 11.416 59.4277 11.2363C59.7949 11.0527 60.1973 10.9609 60.6348 10.9609ZM67.2441 10.9609C67.791 10.9609 68.2598 11.082 68.6504 11.3242C69.041 11.5664 69.3398 11.9062 69.5469 12.3438C69.7539 12.7773 69.8574 13.2852 69.8574 13.8672V14.4707H65.4219C65.4336 15.2246 65.6211 15.7988 65.9844 16.1934C66.3477 16.5879 66.8594 16.7852 67.5195 16.7852C67.9258 16.7852 68.2852 16.748 68.5977 16.6738C68.9102 16.5996 69.2344 16.4902 69.5703 16.3457V17.2012C69.2461 17.3457 68.9238 17.4512 68.6035 17.5176C68.2871 17.584 67.9121 17.6172 67.4785 17.6172C66.8613 17.6172 66.3223 17.4922 65.8613 17.2422C65.4043 16.9883 65.0488 16.6172 64.7949 16.1289C64.541 15.6406 64.4141 15.043 64.4141 14.3359C64.4141 13.6445 64.5293 13.0469 64.7598 12.543C64.9941 12.0352 65.3223 11.6445 65.7441 11.3711C66.1699 11.0977 66.6699 10.9609 67.2441 10.9609ZM67.2324 11.7578C66.7129 11.7578 66.2988 11.9277 65.9902 12.2676C65.6816 12.6074 65.498 13.082 65.4395 13.6914H68.8379C68.834 13.3086 68.7734 12.9727 68.6562 12.6836C68.543 12.3906 68.3691 12.1641 68.1348 12.0039C67.9004 11.8398 67.5996 11.7578 67.2324 11.7578ZM73.7949 17.6172C72.9824 17.6172 72.3379 17.3398 71.8613 16.7852C71.3887 16.2305 71.1523 15.4062 71.1523 14.3125C71.1523 13.207 71.3945 12.373 71.8789 11.8105C72.3633 11.2441 73.0078 10.9609 73.8125 10.9609C74.1523 10.9609 74.4492 11.0059 74.7031 11.0957C74.957 11.1855 75.1758 11.3066 75.3594 11.459C75.543 11.6074 75.6973 11.7773 75.8223 11.9688H75.8926C75.877 11.8477 75.8613 11.6816 75.8457 11.4707C75.8301 11.2598 75.8223 11.0879 75.8223 10.9551V8.38281H76.7949V17.5H76.0098L75.8633 16.5859H75.8223C75.7012 16.7773 75.5469 16.9512 75.3594 17.1074C75.1758 17.2637 74.9551 17.3887 74.6973 17.4824C74.4434 17.5723 74.1426 17.6172 73.7949 17.6172ZM73.9473 16.8086C74.6348 16.8086 75.1211 16.6133 75.4062 16.2227C75.6914 15.832 75.834 15.252 75.834 14.4824V14.3066C75.834 13.4902 75.6973 12.8633 75.4238 12.4258C75.1543 11.9883 74.6621 11.7695 73.9473 11.7695C73.3496 11.7695 72.9023 12 72.6055 12.4609C72.3086 12.918 72.1602 13.543 72.1602 14.3359C72.1602 15.125 72.3066 15.7344 72.5996 16.1641C72.8965 16.5938 73.3457 16.8086 73.9473 16.8086ZM79.8301 11.0781V17.5H78.8574V11.0781H79.8301ZM79.3555 8.67578C79.5156 8.67578 79.6523 8.72852 79.7656 8.83398C79.8828 8.93555 79.9414 9.0957 79.9414 9.31445C79.9414 9.5293 79.8828 9.68945 79.7656 9.79492C79.6523 9.90039 79.5156 9.95312 79.3555 9.95312C79.1875 9.95312 79.0469 9.90039 78.9336 9.79492C78.8242 9.68945 78.7695 9.5293 78.7695 9.31445C78.7695 9.0957 78.8242 8.93555 78.9336 8.83398C79.0469 8.72852 79.1875 8.67578 79.3555 8.67578ZM84.2949 10.9727C85.0605 10.9727 85.6289 11.1445 86 11.4883C86.3711 11.832 86.5566 12.3809 86.5566 13.1348V17.5H85.8477L85.6602 16.5508H85.6133C85.4336 16.7852 85.2461 16.9824 85.0508 17.1426C84.8555 17.2988 84.6289 17.418 84.3711 17.5C84.1172 17.5781 83.8047 17.6172 83.4336 17.6172C83.043 17.6172 82.6953 17.5488 82.3906 17.4121C82.0898 17.2754 81.8516 17.0684 81.6758 16.791C81.5039 16.5137 81.418 16.1621 81.418 15.7363C81.418 15.0957 81.6719 14.6035 82.1797 14.2598C82.6875 13.916 83.4609 13.7285 84.5 13.6973L85.6074 13.6504V13.2578C85.6074 12.7031 85.4883 12.3145 85.25 12.0918C85.0117 11.8691 84.6758 11.7578 84.2422 11.7578C83.9062 11.7578 83.5859 11.8066 83.2812 11.9043C82.9766 12.002 82.6875 12.1172 82.4141 12.25L82.1152 11.5117C82.4043 11.3633 82.7363 11.2363 83.1113 11.1309C83.4863 11.0254 83.8809 10.9727 84.2949 10.9727ZM85.5957 14.3359L84.6172 14.377C83.8164 14.4082 83.252 14.5391 82.9238 14.7695C82.5957 15 82.4316 15.3262 82.4316 15.748C82.4316 16.1152 82.543 16.3867 82.7656 16.5625C82.9883 16.7383 83.2832 16.8262 83.6504 16.8262C84.2207 16.8262 84.6875 16.668 85.0508 16.3516C85.4141 16.0352 85.5957 15.5605 85.5957 14.9277V14.3359ZM90.6348 16.8203C90.7949 16.8203 90.959 16.8066 91.127 16.7793C91.2949 16.752 91.4316 16.7188 91.5371 16.6797V17.4355C91.4238 17.4863 91.2656 17.5293 91.0625 17.5645C90.8633 17.5996 90.668 17.6172 90.4766 17.6172C90.1367 17.6172 89.8281 17.5586 89.5508 17.4414C89.2734 17.3203 89.0508 17.1172 88.8828 16.832C88.7188 16.5469 88.6367 16.1523 88.6367 15.6484V11.8398H87.7227V11.3652L88.6426 10.9844L89.0293 9.58984H89.6152V11.0781H91.4961V11.8398H89.6152V15.6191C89.6152 16.0215 89.707 16.3223 89.8906 16.5215C90.0781 16.7207 90.3262 16.8203 90.6348 16.8203ZM95.3105 10.9609C95.8574 10.9609 96.3262 11.082 96.7168 11.3242C97.1074 11.5664 97.4062 11.9062 97.6133 12.3438C97.8203 12.7773 97.9238 13.2852 97.9238 13.8672V14.4707H93.4883C93.5 15.2246 93.6875 15.7988 94.0508 16.1934C94.4141 16.5879 94.9258 16.7852 95.5859 16.7852C95.9922 16.7852 96.3516 16.748 96.6641 16.6738C96.9766 16.5996 97.3008 16.4902 97.6367 16.3457V17.2012C97.3125 17.3457 96.9902 17.4512 96.6699 17.5176C96.3535 17.584 95.9785 17.6172 95.5449 17.6172C94.9277 17.6172 94.3887 17.4922 93.9277 17.2422C93.4707 16.9883 93.1152 16.6172 92.8613 16.1289C92.6074 15.6406 92.4805 15.043 92.4805 14.3359C92.4805 13.6445 92.5957 13.0469 92.8262 12.543C93.0605 12.0352 93.3887 11.6445 93.8105 11.3711C94.2363 11.0977 94.7363 10.9609 95.3105 10.9609ZM95.2988 11.7578C94.7793 11.7578 94.3652 11.9277 94.0566 12.2676C93.748 12.6074 93.5645 13.082 93.5059 13.6914H96.9043C96.9004 13.3086 96.8398 12.9727 96.7227 12.6836C96.6094 12.3906 96.4355 12.1641 96.2012 12.0039C95.9668 11.8398 95.666 11.7578 95.2988 11.7578Z" fill="#1E1E1E"/>
</svg>
