<svg width="353" height="120" viewBox="0 0 353 120" fill="none" xmlns="http://www.w3.org/2000/svg">
<rect x="0.783871" y="0.783871" width="98.4323" height="98.4323" rx="3.13548" fill="#FAFAFA"/>
<rect x="0.783871" y="0.783871" width="98.4323" height="98.4323" rx="3.13548" stroke="#5D59FF" stroke-width="1.56774"/>
<ellipse cx="49.6582" cy="49.5" rx="22.5" ry="22.5" fill="#5D59FF"/>
<path d="M45.1582 41.8637C46.4453 41.0022 47.9931 40.4998 49.6582 40.4998C53.351 40.4998 56.4666 42.9709 57.4416 46.3497" stroke="#353395" stroke-width="0.999999" stroke-linecap="round" stroke-linejoin="round"/>
<path d="M57.7578 58.5001V51.3002" stroke="#353395" stroke-width="0.999999" stroke-linecap="round" stroke-linejoin="round"/>
<path d="M41.5581 58.5002V48.6003C41.5581 47.6535 41.7205 46.7448 42.019 45.9003" stroke="#353395" stroke-width="0.999999" stroke-linecap="round" stroke-linejoin="round"/>
<path d="M55.0583 58.5001V48.8702C55.0583 45.7387 52.6406 43.2002 49.6583 43.2002C46.676 43.2002 44.2583 45.7387 44.2583 48.8702V51.3002" stroke="#353395" stroke-width="0.999999" stroke-linecap="round" stroke-linejoin="round"/>
<path d="M44.2583 58.4999V54.8999" stroke="#353395" stroke-width="0.999999" stroke-linecap="round" stroke-linejoin="round"/>
<path d="M46.958 58.5002V48.7353C46.958 47.1695 48.1668 45.9003 49.658 45.9003C50.4368 45.9003 51.1385 46.2465 51.6313 46.8003" stroke="#353395" stroke-width="0.999999" stroke-linecap="round" stroke-linejoin="round"/>
<path d="M52.3584 58.5001V51.3002" stroke="#353395" stroke-width="0.999999" stroke-linecap="round" stroke-linejoin="round"/>
<path d="M49.6582 58.5001V55.3501" stroke="#353395" stroke-width="0.999999" stroke-linecap="round" stroke-linejoin="round"/>
<path d="M49.6582 48.5996V51.2996" stroke="#353395" stroke-width="0.999999" stroke-linecap="round" stroke-linejoin="round"/>
<path d="M74.9368 65.25H76.6285C77.029 65.25 77.3535 65.5773 77.3535 65.9812V74.2687C77.3535 74.6726 77.029 75 76.6285 75H63.5785C63.1781 75 62.8535 74.6726 62.8535 74.2687V65.9812C62.8535 65.5773 63.1781 65.25 63.5785 65.25H65.2702M74.9368 65.25V60.375C74.9368 58.75 73.9702 55.5 70.1035 55.5C66.2368 55.5 65.2702 58.75 65.2702 60.375V65.25M74.9368 65.25H65.2702" stroke="#353395" stroke-width="0.999999" stroke-linecap="round" stroke-linejoin="round"/>
<rect x="62.6582" y="64.9999" width="15" height="9.99998" rx="0.999999" fill="#A17CFC"/>
<rect x="62.6582" y="64.9999" width="15" height="9.99998" rx="0.999999" stroke="#353395" stroke-width="0.999999"/>
<path d="M37.2481 45.5H22.9398C21.5718 45.5 20.7157 44.0202 21.3976 42.8342L28.5518 30.3922C29.2358 29.2026 30.9522 29.2026 31.6362 30.3922L38.7904 42.8342C39.4723 44.0202 38.6162 45.5 37.2481 45.5Z" fill="#A17CFC" stroke="#353395" stroke-width="0.999999" stroke-linecap="round"/>
<path d="M30.0938 34.8259V38.3839V34.8259Z" fill="#A17CFC"/>
<path d="M30.0938 34.8259V38.3839" stroke="#353395" stroke-width="0.999999" stroke-linecap="round"/>
<path d="M30.0938 41.9516L30.1034 41.9408L30.0938 41.9516Z" fill="#A17CFC"/>
<path d="M30.0938 41.9516L30.1034 41.9408" stroke="#353395" stroke-width="0.999999" stroke-linecap="round" stroke-linejoin="round"/>
<path d="M122.528 13.912L121.904 13.432L123.28 13.848V15H118.736V13.848L119.952 13.432L119.904 13.816L117.168 9.624L117.776 10.072H115.696L116.048 9.608V13.88L115.76 13.384L117.168 13.848V15H112.576V13.848L114 13.432L113.76 13.88V4.904L114 5.336L112.576 4.968V3.816L117.168 3.736V4.856L115.76 5.336L116.048 4.856V8.792L115.696 8.424H117.936L117.344 8.776L119.616 4.936L119.792 5.272L118.448 4.968V3.816L122.768 3.736V4.888L121.344 5.336L121.84 4.952L119.072 9.432V8.84L122.528 13.912ZM127.12 13.688L126.96 13.496L128.192 13.848V15H123.808V13.848L125.04 13.496L124.88 13.688V7.848L125.024 7.992L123.808 7.656V6.504L127.12 6.392V13.688ZM125.936 5.144C125.541 5.144 125.221 5.032 124.976 4.808C124.741 4.584 124.624 4.264 124.624 3.848C124.624 3.4 124.746 3.06933 124.992 2.856C125.248 2.632 125.568 2.52 125.952 2.52C126.325 2.52 126.634 2.632 126.88 2.856C127.125 3.06933 127.248 3.39467 127.248 3.832C127.248 4.26933 127.12 4.6 126.864 4.824C126.618 5.03733 126.309 5.144 125.936 5.144ZM133.286 15.176C132.304 15.176 131.504 14.936 130.886 14.456C130.278 13.976 129.83 13.2987 129.542 12.424C129.254 11.5493 129.11 10.52 129.11 9.336C129.11 8.248 129.227 7.28267 129.462 6.44C129.707 5.59733 130.086 4.888 130.598 4.312C131.11 3.72533 131.776 3.28267 132.598 2.984C133.43 2.67467 134.432 2.51467 135.606 2.504L135.174 2.888L135.462 1.672H136.885L136.902 4.376C135.963 4.376 135.168 4.408 134.518 4.472C133.867 4.52533 133.339 4.63733 132.934 4.808C132.528 4.968 132.219 5.208 132.006 5.528C131.792 5.848 131.643 6.27467 131.558 6.808C131.472 7.34133 131.43 8.01333 131.43 8.824C131.43 9.4 131.446 9.928 131.478 10.408C131.51 10.888 131.563 11.32 131.638 11.704C131.712 12.0773 131.824 12.392 131.974 12.648C132.123 12.904 132.31 13.1013 132.534 13.24C132.768 13.368 133.051 13.432 133.382 13.432C133.979 13.432 134.427 13.224 134.726 12.808C135.024 12.3813 135.174 11.7893 135.174 11.032C135.174 10.4347 135.088 9.944 134.918 9.56C134.758 9.176 134.539 8.888 134.262 8.696C133.984 8.504 133.664 8.408 133.302 8.408C132.982 8.408 132.646 8.48267 132.294 8.632C131.942 8.77067 131.59 8.97867 131.238 9.256L131.158 7.816C131.638 7.44267 132.128 7.16533 132.63 6.984C133.142 6.792 133.632 6.696 134.102 6.696C134.731 6.696 135.302 6.85067 135.814 7.16C136.326 7.46933 136.731 7.92267 137.03 8.52C137.339 9.11733 137.494 9.85867 137.494 10.744C137.494 11.6933 137.312 12.4987 136.95 13.16C136.587 13.8213 136.091 14.3227 135.462 14.664C134.832 15.0053 134.107 15.176 133.286 15.176ZM142.353 15.192C141.574 15.192 140.892 15.032 140.305 14.712C139.718 14.3813 139.26 13.896 138.929 13.256C138.609 12.6053 138.449 11.816 138.449 10.888C138.449 9.928 138.62 9.10667 138.961 8.424C139.313 7.73067 139.804 7.19733 140.433 6.824C141.062 6.45067 141.804 6.264 142.657 6.264C143.489 6.264 144.166 6.42933 144.689 6.76C145.212 7.09067 145.596 7.544 145.841 8.12C146.086 8.68533 146.209 9.32533 146.209 10.04C146.209 10.2213 146.198 10.4027 146.177 10.584C146.166 10.7653 146.145 10.9573 146.113 11.16H140.257V9.832H144.193L143.905 10.04C143.916 9.61333 143.873 9.24 143.777 8.92C143.692 8.58933 143.542 8.33333 143.329 8.152C143.126 7.97067 142.844 7.88 142.481 7.88C142.065 7.88 141.729 8.00267 141.473 8.248C141.217 8.48267 141.03 8.80267 140.913 9.208C140.806 9.61333 140.753 10.0667 140.753 10.568C140.753 11.1333 140.822 11.64 140.961 12.088C141.1 12.536 141.324 12.888 141.633 13.144C141.953 13.4 142.369 13.528 142.881 13.528C143.244 13.528 143.633 13.464 144.049 13.336C144.476 13.1973 144.918 12.9947 145.377 12.728L146.129 13.928C145.51 14.3547 144.876 14.6747 144.225 14.888C143.585 15.0907 142.961 15.192 142.353 15.192ZM147.07 18.68V17.528L148.43 17.08L148.142 17.464V7.752L148.398 8.056L147.07 7.656V6.504L149.886 6.376L150.142 7.768L149.886 7.64C150.387 7.192 150.873 6.85067 151.342 6.616C151.822 6.38133 152.318 6.264 152.83 6.264C153.449 6.264 153.993 6.42933 154.462 6.76C154.931 7.08 155.299 7.56 155.566 8.2C155.843 8.82933 155.982 9.60267 155.982 10.52C155.982 11.5547 155.806 12.4187 155.454 13.112C155.102 13.8053 154.606 14.328 153.966 14.68C153.337 15.0213 152.601 15.192 151.758 15.192C151.502 15.192 151.235 15.1707 150.958 15.128C150.681 15.096 150.393 15.048 150.094 14.984L150.382 14.728V17.464L150.142 17.128L151.63 17.528V18.68H147.07ZM151.47 13.608C152.227 13.608 152.777 13.352 153.118 12.84C153.47 12.328 153.646 11.6293 153.646 10.744C153.646 10.1573 153.577 9.656 153.438 9.24C153.299 8.81333 153.107 8.488 152.862 8.264C152.617 8.02933 152.313 7.912 151.95 7.912C151.673 7.912 151.379 7.98667 151.07 8.136C150.761 8.28533 150.441 8.51467 150.11 8.824L150.382 8.232V13.816L150.11 13.384C150.611 13.5333 151.065 13.608 151.47 13.608ZM161.332 15.176C160.351 15.176 159.551 14.936 158.932 14.456C158.324 13.976 157.876 13.2987 157.588 12.424C157.3 11.5493 157.156 10.52 157.156 9.336C157.156 8.248 157.274 7.28267 157.508 6.44C157.754 5.59733 158.132 4.888 158.644 4.312C159.156 3.72533 159.823 3.28267 160.644 2.984C161.476 2.67467 162.479 2.51467 163.652 2.504L163.22 2.888L163.508 1.672H164.932L164.948 4.376C164.01 4.376 163.215 4.408 162.564 4.472C161.914 4.52533 161.386 4.63733 160.98 4.808C160.575 4.968 160.266 5.208 160.052 5.528C159.839 5.848 159.69 6.27467 159.604 6.808C159.519 7.34133 159.476 8.01333 159.476 8.824C159.476 9.4 159.492 9.928 159.524 10.408C159.556 10.888 159.61 11.32 159.684 11.704C159.759 12.0773 159.871 12.392 160.02 12.648C160.17 12.904 160.356 13.1013 160.58 13.24C160.815 13.368 161.098 13.432 161.428 13.432C162.026 13.432 162.474 13.224 162.772 12.808C163.071 12.3813 163.22 11.7893 163.22 11.032C163.22 10.4347 163.135 9.944 162.964 9.56C162.804 9.176 162.586 8.888 162.308 8.696C162.031 8.504 161.711 8.408 161.348 8.408C161.028 8.408 160.692 8.48267 160.34 8.632C159.988 8.77067 159.636 8.97867 159.284 9.256L159.204 7.816C159.684 7.44267 160.175 7.16533 160.676 6.984C161.188 6.792 161.679 6.696 162.148 6.696C162.778 6.696 163.348 6.85067 163.86 7.16C164.372 7.46933 164.778 7.92267 165.076 8.52C165.386 9.11733 165.54 9.85867 165.54 10.744C165.54 11.6933 165.359 12.4987 164.996 13.16C164.634 13.8213 164.138 14.3227 163.508 14.664C162.879 15.0053 162.154 15.176 161.332 15.176ZM170.4 15.192C169.621 15.192 168.939 15.032 168.352 14.712C167.765 14.3813 167.307 13.896 166.976 13.256C166.656 12.6053 166.496 11.816 166.496 10.888C166.496 9.928 166.667 9.10667 167.008 8.424C167.36 7.73067 167.851 7.19733 168.48 6.824C169.109 6.45067 169.851 6.264 170.704 6.264C171.536 6.264 172.213 6.42933 172.736 6.76C173.259 7.09067 173.643 7.544 173.888 8.12C174.133 8.68533 174.256 9.32533 174.256 10.04C174.256 10.2213 174.245 10.4027 174.224 10.584C174.213 10.7653 174.192 10.9573 174.16 11.16H168.304V9.832H172.24L171.952 10.04C171.963 9.61333 171.92 9.24 171.824 8.92C171.739 8.58933 171.589 8.33333 171.376 8.152C171.173 7.97067 170.891 7.88 170.528 7.88C170.112 7.88 169.776 8.00267 169.52 8.248C169.264 8.48267 169.077 8.80267 168.96 9.208C168.853 9.61333 168.8 10.0667 168.8 10.568C168.8 11.1333 168.869 11.64 169.008 12.088C169.147 12.536 169.371 12.888 169.68 13.144C170 13.4 170.416 13.528 170.928 13.528C171.291 13.528 171.68 13.464 172.096 13.336C172.523 13.1973 172.965 12.9947 173.424 12.728L174.176 13.928C173.557 14.3547 172.923 14.6747 172.272 14.888C171.632 15.0907 171.008 15.192 170.4 15.192ZM177.891 15.192C177.369 15.192 176.846 15.1333 176.323 15.016C175.811 14.9093 175.342 14.7493 174.915 14.536L175.347 13.128C175.731 13.32 176.126 13.464 176.531 13.56C176.937 13.656 177.326 13.704 177.699 13.704C178.041 13.704 178.345 13.6613 178.611 13.576C178.889 13.4907 179.107 13.3573 179.267 13.176C179.438 12.984 179.523 12.7387 179.523 12.44C179.523 12.2053 179.465 12.0027 179.347 11.832C179.23 11.6507 179.049 11.512 178.803 11.416C178.558 11.32 178.233 11.272 177.827 11.272H176.739V9.944H177.763C178.35 9.944 178.771 9.84267 179.027 9.64C179.294 9.43733 179.427 9.15467 179.427 8.792C179.427 8.39733 179.294 8.12 179.027 7.96C178.761 7.78933 178.419 7.704 178.003 7.704C177.769 7.704 177.513 7.73067 177.235 7.784C176.958 7.82667 176.675 7.88533 176.387 7.96L176.819 7.544L176.579 8.888H175.203L175.123 6.76C175.667 6.61067 176.211 6.49333 176.755 6.408C177.299 6.312 177.827 6.264 178.339 6.264C178.969 6.264 179.534 6.33867 180.035 6.488C180.537 6.63733 180.931 6.87733 181.219 7.208C181.518 7.528 181.667 7.94933 181.667 8.472C181.667 9.112 181.449 9.608 181.011 9.96C180.574 10.3013 179.929 10.52 179.075 10.616L178.995 10.44C179.987 10.4933 180.713 10.7013 181.171 11.064C181.63 11.4267 181.859 11.9227 181.859 12.552C181.859 13.16 181.667 13.6613 181.283 14.056C180.91 14.44 180.419 14.728 179.811 14.92C179.214 15.1013 178.574 15.192 177.891 15.192ZM182.777 15V13.848L184.281 13.384L183.849 14.088V7.368L184.424 8.184L182.777 7.656V6.504L186.041 6.456H192.553V7.592L191.049 8.136L191.481 7.32V14.088L191.049 13.384L192.553 13.848V15H188.281V13.848L189.609 13.448L189.241 14.088V7.528L189.833 8.104H185.513L186.089 7.528V14.088L185.721 13.448L187.049 13.848V15H182.777ZM197.416 15.192C196.637 15.192 195.954 15.032 195.368 14.712C194.781 14.3813 194.322 13.896 193.992 13.256C193.672 12.6053 193.512 11.816 193.512 10.888C193.512 9.928 193.682 9.10667 194.024 8.424C194.376 7.73067 194.866 7.19733 195.496 6.824C196.125 6.45067 196.866 6.264 197.72 6.264C198.552 6.264 199.229 6.42933 199.752 6.76C200.274 7.09067 200.658 7.544 200.904 8.12C201.149 8.68533 201.272 9.32533 201.272 10.04C201.272 10.2213 201.261 10.4027 201.24 10.584C201.229 10.7653 201.208 10.9573 201.176 11.16H195.32V9.832H199.256L198.968 10.04C198.978 9.61333 198.936 9.24 198.84 8.92C198.754 8.58933 198.605 8.33333 198.392 8.152C198.189 7.97067 197.906 7.88 197.544 7.88C197.128 7.88 196.792 8.00267 196.536 8.248C196.28 8.48267 196.093 8.80267 195.976 9.208C195.869 9.61333 195.816 10.0667 195.816 10.568C195.816 11.1333 195.885 11.64 196.024 12.088C196.162 12.536 196.386 12.888 196.696 13.144C197.016 13.4 197.432 13.528 197.944 13.528C198.306 13.528 198.696 13.464 199.112 13.336C199.538 13.1973 199.981 12.9947 200.44 12.728L201.192 13.928C200.573 14.3547 199.938 14.6747 199.288 14.888C198.648 15.0907 198.024 15.192 197.416 15.192ZM202.277 15V13.848L203.621 13.464L203.349 13.88V7.592L203.669 8.024L202.277 7.656V6.504L206.516 6.392V7.544L205.365 7.928L205.589 7.592V10.2L205.221 9.736H207.349L206.661 10.136L208.261 7.64L208.421 7.88L207.301 7.656V6.52L211.189 6.392V7.528L209.861 7.832L210.453 7.496L208.325 10.712L208.517 10.136L210.565 13.816L210.26 13.544L211.477 13.864V15H208.853L206.853 11.16L207.189 11.224H205.221L205.589 11.16V13.88L205.349 13.448L206.677 13.848V15H202.277ZM218.978 13.864L218.674 13.416L220.05 13.848V14.984L217.25 15.128L216.946 13.592L217.106 13.64C216.679 14.1627 216.215 14.552 215.714 14.808C215.212 15.064 214.695 15.192 214.162 15.192C213.479 15.192 212.914 14.9733 212.466 14.536C212.018 14.0987 211.794 13.4693 211.794 12.648C211.794 12.04 211.922 11.56 212.178 11.208C212.444 10.8453 212.828 10.584 213.33 10.424C213.831 10.264 214.439 10.184 215.154 10.184H216.898L216.738 10.36V9.304C216.738 8.80267 216.615 8.44533 216.37 8.232C216.135 8.01867 215.788 7.912 215.33 7.912C215.106 7.912 214.866 7.93333 214.61 7.976C214.354 8.01867 214.076 8.08267 213.778 8.168L214.002 7.928L213.794 9.224H212.402L212.274 6.888C212.999 6.67467 213.66 6.52 214.258 6.424C214.866 6.31733 215.42 6.264 215.922 6.264C216.914 6.264 217.671 6.47733 218.194 6.904C218.716 7.33067 218.978 7.992 218.978 8.888V13.864ZM214.05 12.424C214.05 12.8187 214.14 13.112 214.322 13.304C214.514 13.4853 214.754 13.576 215.042 13.576C215.308 13.576 215.602 13.496 215.922 13.336C216.242 13.1653 216.546 12.936 216.834 12.648L216.738 13.032V11.208L216.898 11.368H215.522C214.967 11.368 214.583 11.4533 214.37 11.624C214.156 11.7947 214.05 12.0613 214.05 12.424Z" fill="#1E1E1E"/>
<path d="M118.17 38.4434C118.17 39.0254 117.99 39.4863 117.631 39.8262C117.271 40.1621 116.791 40.3809 116.189 40.4824V40.5234C116.893 40.625 117.428 40.8516 117.795 41.2031C118.162 41.5547 118.346 42.0156 118.346 42.5859C118.346 43.0898 118.219 43.5332 117.965 43.916C117.715 44.2949 117.338 44.5898 116.834 44.8008C116.33 45.0117 115.703 45.1172 114.953 45.1172C114.488 45.1172 114.045 45.0801 113.623 45.0059C113.201 44.9355 112.814 44.8164 112.463 44.6484V43.7285C112.705 43.8457 112.967 43.9473 113.248 44.0332C113.529 44.1191 113.814 44.1855 114.104 44.2324C114.396 44.2754 114.676 44.2969 114.941 44.2969C115.715 44.2969 116.301 44.1484 116.699 43.8516C117.102 43.5508 117.303 43.1289 117.303 42.5859C117.303 42.0273 117.07 41.6211 116.605 41.3672C116.145 41.1094 115.496 40.9805 114.66 40.9805H113.43V40.1426H114.619C115.182 40.1426 115.648 40.0781 116.02 39.9492C116.391 39.8164 116.668 39.6309 116.852 39.3926C117.039 39.1504 117.133 38.8652 117.133 38.5371C117.133 38.0879 116.969 37.7422 116.641 37.5C116.316 37.2578 115.893 37.1367 115.369 37.1367C114.826 37.1367 114.377 37.207 114.021 37.3477C113.666 37.4844 113.32 37.6621 112.984 37.8809L112.504 37.2012C112.73 37.0371 112.988 36.8887 113.277 36.7559C113.566 36.6191 113.887 36.5117 114.238 36.4336C114.59 36.3516 114.969 36.3105 115.375 36.3105C115.98 36.3105 116.49 36.4023 116.904 36.5859C117.318 36.7656 117.633 37.0156 117.848 37.3359C118.062 37.6562 118.17 38.0254 118.17 38.4434ZM122.424 38.4727C123.189 38.4727 123.758 38.6445 124.129 38.9883C124.5 39.332 124.686 39.8809 124.686 40.6348V45H123.977L123.789 44.0508H123.742C123.562 44.2852 123.375 44.4824 123.18 44.6426C122.984 44.7988 122.758 44.918 122.5 45C122.246 45.0781 121.934 45.1172 121.562 45.1172C121.172 45.1172 120.824 45.0488 120.52 44.9121C120.219 44.7754 119.98 44.5684 119.805 44.291C119.633 44.0137 119.547 43.6621 119.547 43.2363C119.547 42.5957 119.801 42.1035 120.309 41.7598C120.816 41.416 121.59 41.2285 122.629 41.1973L123.736 41.1504V40.7578C123.736 40.2031 123.617 39.8145 123.379 39.5918C123.141 39.3691 122.805 39.2578 122.371 39.2578C122.035 39.2578 121.715 39.3066 121.41 39.4043C121.105 39.502 120.816 39.6172 120.543 39.75L120.244 39.0117C120.533 38.8633 120.865 38.7363 121.24 38.6309C121.615 38.5254 122.01 38.4727 122.424 38.4727ZM123.725 41.8359L122.746 41.877C121.945 41.9082 121.381 42.0391 121.053 42.2695C120.725 42.5 120.561 42.8262 120.561 43.248C120.561 43.6152 120.672 43.8867 120.895 44.0625C121.117 44.2383 121.412 44.3262 121.779 44.3262C122.35 44.3262 122.816 44.168 123.18 43.8516C123.543 43.5352 123.725 43.0605 123.725 42.4277V41.8359ZM128.219 41.7129L125.998 38.5781H127.111L128.805 41.0508L130.492 38.5781H131.594L129.373 41.7129L131.717 45H130.604L128.805 42.3809L126.994 45H125.893L128.219 41.7129ZM133.896 38.5781V42.6152C133.896 42.6934 133.895 42.7949 133.891 42.9199C133.887 43.041 133.881 43.1719 133.873 43.3125C133.865 43.4492 133.857 43.582 133.85 43.7109C133.846 43.8359 133.84 43.9395 133.832 44.0215L137.336 38.5781H138.531V45H137.623V41.0625C137.623 40.9375 137.625 40.7773 137.629 40.582C137.633 40.3867 137.639 40.1953 137.646 40.0078C137.654 39.8164 137.66 39.668 137.664 39.5625L134.172 45H132.971V38.5781H133.896ZM143.172 45.1172C142.594 45.1172 142.084 44.998 141.643 44.7598C141.201 44.5215 140.857 44.1582 140.611 43.6699C140.365 43.1816 140.242 42.5664 140.242 41.8242C140.242 41.0469 140.371 40.4121 140.629 39.9199C140.891 39.4238 141.25 39.0566 141.707 38.8184C142.164 38.5801 142.684 38.4609 143.266 38.4609C143.586 38.4609 143.895 38.4941 144.191 38.5605C144.492 38.623 144.738 38.7031 144.93 38.8008L144.637 39.6152C144.441 39.5371 144.215 39.4668 143.957 39.4043C143.703 39.3418 143.465 39.3105 143.242 39.3105C142.797 39.3105 142.426 39.4062 142.129 39.5977C141.836 39.7891 141.615 40.0703 141.467 40.4414C141.322 40.8125 141.25 41.2695 141.25 41.8125C141.25 42.332 141.32 42.7754 141.461 43.1426C141.605 43.5098 141.818 43.791 142.1 43.9863C142.385 44.1777 142.74 44.2734 143.166 44.2734C143.506 44.2734 143.812 44.2383 144.086 44.168C144.359 44.0938 144.607 44.0078 144.83 43.9102V44.7773C144.615 44.8867 144.375 44.9707 144.109 45.0293C143.848 45.0879 143.535 45.1172 143.172 45.1172ZM150.73 39.4043H148.615V45H147.654V39.4043H145.568V38.5781H150.73V39.4043ZM156.092 38.5781V45H155.119V38.5781H156.092ZM155.617 36.1758C155.777 36.1758 155.914 36.2285 156.027 36.334C156.145 36.4355 156.203 36.5957 156.203 36.8145C156.203 37.0293 156.145 37.1895 156.027 37.2949C155.914 37.4004 155.777 37.4531 155.617 37.4531C155.449 37.4531 155.309 37.4004 155.195 37.2949C155.086 37.1895 155.031 37.0293 155.031 36.8145C155.031 36.5957 155.086 36.4355 155.195 36.334C155.309 36.2285 155.449 36.1758 155.617 36.1758ZM159.133 38.5781V41.2734H162.713V38.5781H163.686V45H162.713V42.0996H159.133V45H158.154V38.5781H159.133ZM169.48 35.8828V38.4844C170.117 38.5391 170.672 38.7051 171.145 38.9824C171.617 39.2559 171.984 39.6289 172.246 40.1016C172.508 40.5742 172.639 41.1367 172.639 41.7891C172.639 42.4297 172.512 42.9883 172.258 43.4648C172.008 43.9414 171.646 44.3184 171.174 44.5957C170.705 44.873 170.141 45.0391 169.48 45.0938V47.8828H168.531V45.0938C167.895 45.0469 167.34 44.8867 166.867 44.6133C166.398 44.3359 166.033 43.959 165.771 43.4824C165.51 43.0059 165.379 42.4414 165.379 41.7891C165.379 41.1367 165.504 40.5742 165.754 40.1016C166.008 39.625 166.371 39.25 166.844 38.9766C167.316 38.6992 167.889 38.5352 168.561 38.4844V35.8828H169.48ZM168.561 39.293C168.064 39.3359 167.656 39.4609 167.336 39.668C167.016 39.875 166.777 40.1562 166.621 40.5117C166.469 40.8672 166.393 41.293 166.393 41.7891C166.393 42.2852 166.471 42.7129 166.627 43.0723C166.783 43.4277 167.021 43.709 167.342 43.916C167.662 44.123 168.068 44.25 168.561 44.2969V39.293ZM169.48 39.3047V44.2969C169.973 44.2461 170.377 44.1152 170.693 43.9043C171.014 43.6934 171.25 43.4102 171.402 43.0547C171.559 42.6992 171.637 42.2773 171.637 41.7891C171.637 41.0469 171.459 40.4668 171.104 40.0488C170.748 39.627 170.207 39.3789 169.48 39.3047ZM179.875 41.7773C179.875 42.3047 179.807 42.7754 179.67 43.1895C179.533 43.6035 179.336 43.9531 179.078 44.2383C178.82 44.5234 178.508 44.7422 178.141 44.8945C177.777 45.043 177.365 45.1172 176.904 45.1172C176.475 45.1172 176.08 45.043 175.721 44.8945C175.365 44.7422 175.057 44.5234 174.795 44.2383C174.537 43.9531 174.336 43.6035 174.191 43.1895C174.051 42.7754 173.98 42.3047 173.98 41.7773C173.98 41.0742 174.1 40.4766 174.338 39.9844C174.576 39.4883 174.916 39.1113 175.357 38.8535C175.803 38.5918 176.332 38.4609 176.945 38.4609C177.531 38.4609 178.043 38.5918 178.48 38.8535C178.922 39.1152 179.264 39.4941 179.506 39.9902C179.752 40.4824 179.875 41.0781 179.875 41.7773ZM174.988 41.7773C174.988 42.293 175.057 42.7402 175.193 43.1191C175.33 43.498 175.541 43.791 175.826 43.998C176.111 44.2051 176.479 44.3086 176.928 44.3086C177.373 44.3086 177.738 44.2051 178.023 43.998C178.312 43.791 178.525 43.498 178.662 43.1191C178.799 42.7402 178.867 42.293 178.867 41.7773C178.867 41.2656 178.799 40.8242 178.662 40.4531C178.525 40.0781 178.314 39.7891 178.029 39.5859C177.744 39.3828 177.375 39.2812 176.922 39.2812C176.254 39.2812 175.764 39.502 175.451 39.9434C175.143 40.3848 174.988 40.9961 174.988 41.7773ZM184.574 38.4609C185.375 38.4609 186.014 38.7363 186.49 39.2871C186.967 39.8379 187.205 40.666 187.205 41.7715C187.205 42.502 187.096 43.1152 186.877 43.6113C186.658 44.1074 186.35 44.4824 185.951 44.7363C185.557 44.9902 185.09 45.1172 184.551 45.1172C184.211 45.1172 183.912 45.0723 183.654 44.9824C183.396 44.8926 183.176 44.7715 182.992 44.6191C182.809 44.4668 182.656 44.3008 182.535 44.1211H182.465C182.477 44.2734 182.49 44.457 182.506 44.6719C182.525 44.8867 182.535 45.0742 182.535 45.2344V47.8711H181.557V38.5781H182.359L182.488 39.5273H182.535C182.66 39.332 182.812 39.1543 182.992 38.9941C183.172 38.8301 183.391 38.7012 183.648 38.6074C183.91 38.5098 184.219 38.4609 184.574 38.4609ZM184.404 39.2812C183.959 39.2812 183.6 39.3672 183.326 39.5391C183.057 39.7109 182.859 39.9688 182.734 40.3125C182.609 40.6523 182.543 41.0801 182.535 41.5957V41.7832C182.535 42.3262 182.594 42.7852 182.711 43.1602C182.832 43.5352 183.029 43.8203 183.303 44.0156C183.58 44.2109 183.951 44.3086 184.416 44.3086C184.814 44.3086 185.146 44.2012 185.412 43.9863C185.678 43.7715 185.875 43.4727 186.004 43.0898C186.137 42.7031 186.203 42.2598 186.203 41.7598C186.203 41.002 186.055 40.4004 185.758 39.9551C185.465 39.5059 185.014 39.2812 184.404 39.2812ZM195.684 38.5781V45H194.805V40.8164C194.805 40.6445 194.809 40.4707 194.816 40.2949C194.828 40.1152 194.842 39.9355 194.857 39.7559H194.822L192.689 45H191.863L189.783 39.7559H189.748C189.76 39.9355 189.768 40.1152 189.771 40.2949C189.779 40.4707 189.783 40.6562 189.783 40.8516V45H188.898V38.5781H190.205L192.279 43.8281L194.383 38.5781H195.684ZM200.107 38.4727C200.873 38.4727 201.441 38.6445 201.812 38.9883C202.184 39.332 202.369 39.8809 202.369 40.6348V45H201.66L201.473 44.0508H201.426C201.246 44.2852 201.059 44.4824 200.863 44.6426C200.668 44.7988 200.441 44.918 200.184 45C199.93 45.0781 199.617 45.1172 199.246 45.1172C198.855 45.1172 198.508 45.0488 198.203 44.9121C197.902 44.7754 197.664 44.5684 197.488 44.291C197.316 44.0137 197.23 43.6621 197.23 43.2363C197.23 42.5957 197.484 42.1035 197.992 41.7598C198.5 41.416 199.273 41.2285 200.312 41.1973L201.42 41.1504V40.7578C201.42 40.2031 201.301 39.8145 201.062 39.5918C200.824 39.3691 200.488 39.2578 200.055 39.2578C199.719 39.2578 199.398 39.3066 199.094 39.4043C198.789 39.502 198.5 39.6172 198.227 39.75L197.928 39.0117C198.217 38.8633 198.549 38.7363 198.924 38.6309C199.299 38.5254 199.693 38.4727 200.107 38.4727ZM201.408 41.8359L200.43 41.877C199.629 41.9082 199.064 42.0391 198.736 42.2695C198.408 42.5 198.244 42.8262 198.244 43.248C198.244 43.6152 198.355 43.8867 198.578 44.0625C198.801 44.2383 199.096 44.3262 199.463 44.3262C200.033 44.3262 200.5 44.168 200.863 43.8516C201.227 43.5352 201.408 43.0605 201.408 42.4277V41.8359ZM210.625 47.2207H209.676V45H204.373V38.5781H205.352V44.1738H208.756V38.5781H209.729V44.1855H210.625V47.2207ZM212.857 38.5781V45H211.885V38.5781H212.857ZM212.383 36.1758C212.543 36.1758 212.68 36.2285 212.793 36.334C212.91 36.4355 212.969 36.5957 212.969 36.8145C212.969 37.0293 212.91 37.1895 212.793 37.2949C212.68 37.4004 212.543 37.4531 212.383 37.4531C212.215 37.4531 212.074 37.4004 211.961 37.2949C211.852 37.1895 211.797 37.0293 211.797 36.8145C211.797 36.5957 211.852 36.4355 211.961 36.334C212.074 36.2285 212.215 36.1758 212.383 36.1758ZM215.893 45H214.92V38.5781H215.893V45ZM213.748 36.832C213.748 36.6367 213.799 36.4941 213.9 36.4043C214.002 36.3145 214.127 36.2695 214.275 36.2695C214.428 36.2695 214.555 36.3145 214.656 36.4043C214.762 36.4941 214.814 36.6367 214.814 36.832C214.814 37.0234 214.762 37.168 214.656 37.2656C214.555 37.3594 214.428 37.4062 214.275 37.4062C214.127 37.4062 214.002 37.3594 213.9 37.2656C213.799 37.168 213.748 37.0234 213.748 36.832ZM215.998 36.832C215.998 36.6367 216.049 36.4941 216.15 36.4043C216.252 36.3145 216.375 36.2695 216.52 36.2695C216.668 36.2695 216.795 36.3145 216.9 36.4043C217.006 36.4941 217.059 36.6367 217.059 36.832C217.059 37.0234 217.006 37.168 216.9 37.2656C216.795 37.3594 216.668 37.4062 216.52 37.4062C216.375 37.4062 216.252 37.3594 216.15 37.2656C216.049 37.168 215.998 37.0234 215.998 36.832ZM219.068 43.6055L219.145 43.7402C219.074 44.0254 218.984 44.3301 218.875 44.6543C218.77 44.9785 218.652 45.3027 218.523 45.627C218.398 45.9551 218.271 46.2617 218.143 46.5469H217.416C217.498 46.2344 217.578 45.9043 217.656 45.5566C217.734 45.2129 217.805 44.873 217.867 44.5371C217.934 44.1973 217.986 43.8867 218.025 43.6055H219.068ZM227.922 38.5781H228.994L226.223 41.6777L229.217 45H228.074L225.156 41.7422V45H224.178V38.5781H225.156V41.6953L227.922 38.5781ZM235.914 41.7773C235.914 42.3047 235.846 42.7754 235.709 43.1895C235.572 43.6035 235.375 43.9531 235.117 44.2383C234.859 44.5234 234.547 44.7422 234.18 44.8945C233.816 45.043 233.404 45.1172 232.943 45.1172C232.514 45.1172 232.119 45.043 231.76 44.8945C231.404 44.7422 231.096 44.5234 230.834 44.2383C230.576 43.9531 230.375 43.6035 230.23 43.1895C230.09 42.7754 230.02 42.3047 230.02 41.7773C230.02 41.0742 230.139 40.4766 230.377 39.9844C230.615 39.4883 230.955 39.1113 231.396 38.8535C231.842 38.5918 232.371 38.4609 232.984 38.4609C233.57 38.4609 234.082 38.5918 234.52 38.8535C234.961 39.1152 235.303 39.4941 235.545 39.9902C235.791 40.4824 235.914 41.0781 235.914 41.7773ZM231.027 41.7773C231.027 42.293 231.096 42.7402 231.232 43.1191C231.369 43.498 231.58 43.791 231.865 43.998C232.15 44.2051 232.518 44.3086 232.967 44.3086C233.412 44.3086 233.777 44.2051 234.062 43.998C234.352 43.791 234.564 43.498 234.701 43.1191C234.838 42.7402 234.906 42.293 234.906 41.7773C234.906 41.2656 234.838 40.8242 234.701 40.4531C234.564 40.0781 234.354 39.7891 234.068 39.5859C233.783 39.3828 233.414 39.2812 232.961 39.2812C232.293 39.2812 231.803 39.502 231.49 39.9434C231.182 40.3848 231.027 40.9961 231.027 41.7773ZM244.375 38.5781V45H243.496V40.8164C243.496 40.6445 243.5 40.4707 243.508 40.2949C243.52 40.1152 243.533 39.9355 243.549 39.7559H243.514L241.381 45H240.555L238.475 39.7559H238.439C238.451 39.9355 238.459 40.1152 238.463 40.2949C238.471 40.4707 238.475 40.6562 238.475 40.8516V45H237.59V38.5781H238.896L240.971 43.8281L243.074 38.5781H244.375ZM251.775 38.5781V45H250.797V39.416H247.375V45H246.396V38.5781H251.775ZM254.658 36.4336L254.436 39.5273H253.82L253.604 36.4336H254.658ZM264.73 41.7773C264.73 42.4766 264.617 43.0762 264.391 43.5762C264.168 44.0762 263.848 44.459 263.43 44.7246C263.012 44.9863 262.512 45.1172 261.93 45.1172C261.387 45.1172 260.912 45 260.506 44.7656C260.104 44.5312 259.785 44.1895 259.551 43.7402C259.32 43.291 259.188 42.7441 259.152 42.0996H257.447V45H256.475V38.5781H257.447V41.2734H259.164C259.219 40.6797 259.363 40.1738 259.598 39.7559C259.832 39.3379 260.148 39.0176 260.547 38.7949C260.945 38.5723 261.414 38.4609 261.953 38.4609C262.516 38.4609 263.004 38.5938 263.418 38.8594C263.836 39.1211 264.158 39.5 264.385 39.9961C264.615 40.4883 264.73 41.082 264.73 41.7773ZM260.148 41.7773C260.148 42.3164 260.209 42.7754 260.33 43.1543C260.455 43.5293 260.648 43.8164 260.91 44.0156C261.176 44.2109 261.52 44.3086 261.941 44.3086C262.359 44.3086 262.699 44.2109 262.961 44.0156C263.227 43.8203 263.42 43.5352 263.541 43.1602C263.666 42.7812 263.729 42.3203 263.729 41.7773C263.729 41.2422 263.666 40.7891 263.541 40.418C263.416 40.0469 263.223 39.7656 262.961 39.5742C262.699 39.3789 262.359 39.2812 261.941 39.2812C261.523 39.2812 261.182 39.3789 260.916 39.5742C260.654 39.7656 260.461 40.0469 260.336 40.418C260.211 40.7891 260.148 41.2422 260.148 41.7773ZM270.801 39.4043H268.686V45H267.725V39.4043H265.639V38.5781H270.801V39.4043ZM274.545 38.4609C275.092 38.4609 275.561 38.582 275.951 38.8242C276.342 39.0664 276.641 39.4062 276.848 39.8438C277.055 40.2773 277.158 40.7852 277.158 41.3672V41.9707H272.723C272.734 42.7246 272.922 43.2988 273.285 43.6934C273.648 44.0879 274.16 44.2852 274.82 44.2852C275.227 44.2852 275.586 44.248 275.898 44.1738C276.211 44.0996 276.535 43.9902 276.871 43.8457V44.7012C276.547 44.8457 276.225 44.9512 275.904 45.0176C275.588 45.084 275.213 45.1172 274.779 45.1172C274.162 45.1172 273.623 44.9922 273.162 44.7422C272.705 44.4883 272.35 44.1172 272.096 43.6289C271.842 43.1406 271.715 42.543 271.715 41.8359C271.715 41.1445 271.83 40.5469 272.061 40.043C272.295 39.5352 272.623 39.1445 273.045 38.8711C273.471 38.5977 273.971 38.4609 274.545 38.4609ZM274.533 39.2578C274.014 39.2578 273.6 39.4277 273.291 39.7676C272.982 40.1074 272.799 40.582 272.74 41.1914H276.139C276.135 40.8086 276.074 40.4727 275.957 40.1836C275.844 39.8906 275.67 39.6641 275.436 39.5039C275.201 39.3398 274.9 39.2578 274.533 39.2578ZM281.828 38.4609C282.629 38.4609 283.268 38.7363 283.744 39.2871C284.221 39.8379 284.459 40.666 284.459 41.7715C284.459 42.502 284.35 43.1152 284.131 43.6113C283.912 44.1074 283.604 44.4824 283.205 44.7363C282.811 44.9902 282.344 45.1172 281.805 45.1172C281.465 45.1172 281.166 45.0723 280.908 44.9824C280.65 44.8926 280.43 44.7715 280.246 44.6191C280.062 44.4668 279.91 44.3008 279.789 44.1211H279.719C279.73 44.2734 279.744 44.457 279.76 44.6719C279.779 44.8867 279.789 45.0742 279.789 45.2344V47.8711H278.811V38.5781H279.613L279.742 39.5273H279.789C279.914 39.332 280.066 39.1543 280.246 38.9941C280.426 38.8301 280.645 38.7012 280.902 38.6074C281.164 38.5098 281.473 38.4609 281.828 38.4609ZM281.658 39.2812C281.213 39.2812 280.854 39.3672 280.58 39.5391C280.311 39.7109 280.113 39.9688 279.988 40.3125C279.863 40.6523 279.797 41.0801 279.789 41.5957V41.7832C279.789 42.3262 279.848 42.7852 279.965 43.1602C280.086 43.5352 280.283 43.8203 280.557 44.0156C280.834 44.2109 281.205 44.3086 281.67 44.3086C282.068 44.3086 282.4 44.2012 282.666 43.9863C282.932 43.7715 283.129 43.4727 283.258 43.0898C283.391 42.7031 283.457 42.2598 283.457 41.7598C283.457 41.002 283.309 40.4004 283.012 39.9551C282.719 39.5059 282.268 39.2812 281.658 39.2812ZM287.137 38.5781V41.2734H290.717V38.5781H291.689V45H290.717V42.0996H287.137V45H286.158V38.5781H287.137ZM294.678 38.5781V42.6152C294.678 42.6934 294.676 42.7949 294.672 42.9199C294.668 43.041 294.662 43.1719 294.654 43.3125C294.646 43.4492 294.639 43.582 294.631 43.7109C294.627 43.8359 294.621 43.9395 294.613 44.0215L298.117 38.5781H299.312V45H298.404V41.0625C298.404 40.9375 298.406 40.7773 298.41 40.582C298.414 40.3867 298.42 40.1953 298.428 40.0078C298.436 39.8164 298.441 39.668 298.445 39.5625L294.953 45H293.752V38.5781H294.678ZM302.91 41.7129L300.689 38.5781H301.803L303.496 41.0508L305.184 38.5781H306.285L304.064 41.7129L306.408 45H305.295L303.496 42.3809L301.686 45H300.584L302.91 41.7129ZM115.598 61.1172C115.02 61.1172 114.51 60.998 114.068 60.7598C113.627 60.5215 113.283 60.1582 113.037 59.6699C112.791 59.1816 112.668 58.5664 112.668 57.8242C112.668 57.0469 112.797 56.4121 113.055 55.9199C113.316 55.4238 113.676 55.0566 114.133 54.8184C114.59 54.5801 115.109 54.4609 115.691 54.4609C116.012 54.4609 116.32 54.4941 116.617 54.5605C116.918 54.623 117.164 54.7031 117.355 54.8008L117.062 55.6152C116.867 55.5371 116.641 55.4668 116.383 55.4043C116.129 55.3418 115.891 55.3105 115.668 55.3105C115.223 55.3105 114.852 55.4062 114.555 55.5977C114.262 55.7891 114.041 56.0703 113.893 56.4414C113.748 56.8125 113.676 57.2695 113.676 57.8125C113.676 58.332 113.746 58.7754 113.887 59.1426C114.031 59.5098 114.244 59.791 114.525 59.9863C114.811 60.1777 115.166 60.2734 115.592 60.2734C115.932 60.2734 116.238 60.2383 116.512 60.168C116.785 60.0938 117.033 60.0078 117.256 59.9102V60.7773C117.041 60.8867 116.801 60.9707 116.535 61.0293C116.273 61.0879 115.961 61.1172 115.598 61.1172ZM119.705 54.5781V58.6152C119.705 58.6934 119.703 58.7949 119.699 58.9199C119.695 59.041 119.689 59.1719 119.682 59.3125C119.674 59.4492 119.666 59.582 119.658 59.7109C119.654 59.8359 119.648 59.9395 119.641 60.0215L123.145 54.5781H124.34V61H123.432V57.0625C123.432 56.9375 123.434 56.7773 123.438 56.582C123.441 56.3867 123.447 56.1953 123.455 56.0078C123.463 55.8164 123.469 55.668 123.473 55.5625L119.98 61H118.779V54.5781H119.705ZM128.98 61.1172C128.402 61.1172 127.893 60.998 127.451 60.7598C127.01 60.5215 126.666 60.1582 126.42 59.6699C126.174 59.1816 126.051 58.5664 126.051 57.8242C126.051 57.0469 126.18 56.4121 126.438 55.9199C126.699 55.4238 127.059 55.0566 127.516 54.8184C127.973 54.5801 128.492 54.4609 129.074 54.4609C129.395 54.4609 129.703 54.4941 130 54.5605C130.301 54.623 130.547 54.7031 130.738 54.8008L130.445 55.6152C130.25 55.5371 130.023 55.4668 129.766 55.4043C129.512 55.3418 129.273 55.3105 129.051 55.3105C128.605 55.3105 128.234 55.4062 127.938 55.5977C127.645 55.7891 127.424 56.0703 127.275 56.4414C127.131 56.8125 127.059 57.2695 127.059 57.8125C127.059 58.332 127.129 58.7754 127.27 59.1426C127.414 59.5098 127.627 59.791 127.908 59.9863C128.193 60.1777 128.549 60.2734 128.975 60.2734C129.314 60.2734 129.621 60.2383 129.895 60.168C130.168 60.0938 130.416 60.0078 130.639 59.9102V60.7773C130.424 60.8867 130.184 60.9707 129.918 61.0293C129.656 61.0879 129.344 61.1172 128.98 61.1172ZM136.539 55.4043H134.424V61H133.463V55.4043H131.377V54.5781H136.539V55.4043ZM140.283 54.4609C140.83 54.4609 141.299 54.582 141.689 54.8242C142.08 55.0664 142.379 55.4062 142.586 55.8438C142.793 56.2773 142.896 56.7852 142.896 57.3672V57.9707H138.461C138.473 58.7246 138.66 59.2988 139.023 59.6934C139.387 60.0879 139.898 60.2852 140.559 60.2852C140.965 60.2852 141.324 60.248 141.637 60.1738C141.949 60.0996 142.273 59.9902 142.609 59.8457V60.7012C142.285 60.8457 141.963 60.9512 141.643 61.0176C141.326 61.084 140.951 61.1172 140.518 61.1172C139.9 61.1172 139.361 60.9922 138.9 60.7422C138.443 60.4883 138.088 60.1172 137.834 59.6289C137.58 59.1406 137.453 58.543 137.453 57.8359C137.453 57.1445 137.568 56.5469 137.799 56.043C138.033 55.5352 138.361 55.1445 138.783 54.8711C139.209 54.5977 139.709 54.4609 140.283 54.4609ZM140.271 55.2578C139.752 55.2578 139.338 55.4277 139.029 55.7676C138.721 56.1074 138.537 56.582 138.479 57.1914H141.877C141.873 56.8086 141.812 56.4727 141.695 56.1836C141.582 55.8906 141.408 55.6641 141.174 55.5039C140.939 55.3398 140.639 55.2578 140.271 55.2578ZM151.328 54.5781V61H150.449V56.8164C150.449 56.6445 150.453 56.4707 150.461 56.2949C150.473 56.1152 150.486 55.9355 150.502 55.7559H150.467L148.334 61H147.508L145.428 55.7559H145.393C145.404 55.9355 145.412 56.1152 145.416 56.2949C145.424 56.4707 145.428 56.6562 145.428 56.8516V61H144.543V54.5781H145.85L147.924 59.8281L150.027 54.5781H151.328ZM160.844 55.4043H158.729V61H157.768V55.4043H155.682V54.5781H160.844V55.4043ZM164.518 54.4727C165.283 54.4727 165.852 54.6445 166.223 54.9883C166.594 55.332 166.779 55.8809 166.779 56.6348V61H166.07L165.883 60.0508H165.836C165.656 60.2852 165.469 60.4824 165.273 60.6426C165.078 60.7988 164.852 60.918 164.594 61C164.34 61.0781 164.027 61.1172 163.656 61.1172C163.266 61.1172 162.918 61.0488 162.613 60.9121C162.312 60.7754 162.074 60.5684 161.898 60.291C161.727 60.0137 161.641 59.6621 161.641 59.2363C161.641 58.5957 161.895 58.1035 162.402 57.7598C162.91 57.416 163.684 57.2285 164.723 57.1973L165.83 57.1504V56.7578C165.83 56.2031 165.711 55.8145 165.473 55.5918C165.234 55.3691 164.898 55.2578 164.465 55.2578C164.129 55.2578 163.809 55.3066 163.504 55.4043C163.199 55.502 162.91 55.6172 162.637 55.75L162.338 55.0117C162.627 54.8633 162.959 54.7363 163.334 54.6309C163.709 54.5254 164.104 54.4727 164.518 54.4727ZM165.818 57.8359L164.84 57.877C164.039 57.9082 163.475 58.0391 163.146 58.2695C162.818 58.5 162.654 58.8262 162.654 59.248C162.654 59.6152 162.766 59.8867 162.988 60.0625C163.211 60.2383 163.506 60.3262 163.873 60.3262C164.443 60.3262 164.91 60.168 165.273 59.8516C165.637 59.5352 165.818 59.0605 165.818 58.4277V57.8359ZM178.68 54.5781V61H177.801V56.8164C177.801 56.6445 177.805 56.4707 177.812 56.2949C177.824 56.1152 177.838 55.9355 177.854 55.7559H177.818L175.686 61H174.859L172.779 55.7559H172.744C172.756 55.9355 172.764 56.1152 172.768 56.2949C172.775 56.4707 172.779 56.6562 172.779 56.8516V61H171.895V54.5781H173.201L175.275 59.8281L177.379 54.5781H178.68ZM183.174 54.4609C183.721 54.4609 184.189 54.582 184.58 54.8242C184.971 55.0664 185.27 55.4062 185.477 55.8438C185.684 56.2773 185.787 56.7852 185.787 57.3672V57.9707H181.352C181.363 58.7246 181.551 59.2988 181.914 59.6934C182.277 60.0879 182.789 60.2852 183.449 60.2852C183.855 60.2852 184.215 60.248 184.527 60.1738C184.84 60.0996 185.164 59.9902 185.5 59.8457V60.7012C185.176 60.8457 184.854 60.9512 184.533 61.0176C184.217 61.084 183.842 61.1172 183.408 61.1172C182.791 61.1172 182.252 60.9922 181.791 60.7422C181.334 60.4883 180.979 60.1172 180.725 59.6289C180.471 59.1406 180.344 58.543 180.344 57.8359C180.344 57.1445 180.459 56.5469 180.689 56.043C180.924 55.5352 181.252 55.1445 181.674 54.8711C182.1 54.5977 182.6 54.4609 183.174 54.4609ZM183.162 55.2578C182.643 55.2578 182.229 55.4277 181.92 55.7676C181.611 56.1074 181.428 56.582 181.369 57.1914H184.768C184.764 56.8086 184.703 56.4727 184.586 56.1836C184.473 55.8906 184.299 55.6641 184.064 55.5039C183.83 55.3398 183.529 55.2578 183.162 55.2578ZM190.457 54.4609C191.258 54.4609 191.896 54.7363 192.373 55.2871C192.85 55.8379 193.088 56.666 193.088 57.7715C193.088 58.502 192.979 59.1152 192.76 59.6113C192.541 60.1074 192.232 60.4824 191.834 60.7363C191.439 60.9902 190.973 61.1172 190.434 61.1172C190.094 61.1172 189.795 61.0723 189.537 60.9824C189.279 60.8926 189.059 60.7715 188.875 60.6191C188.691 60.4668 188.539 60.3008 188.418 60.1211H188.348C188.359 60.2734 188.373 60.457 188.389 60.6719C188.408 60.8867 188.418 61.0742 188.418 61.2344V63.8711H187.439V54.5781H188.242L188.371 55.5273H188.418C188.543 55.332 188.695 55.1543 188.875 54.9941C189.055 54.8301 189.273 54.7012 189.531 54.6074C189.793 54.5098 190.102 54.4609 190.457 54.4609ZM190.287 55.2812C189.842 55.2812 189.482 55.3672 189.209 55.5391C188.939 55.7109 188.742 55.9688 188.617 56.3125C188.492 56.6523 188.426 57.0801 188.418 57.5957V57.7832C188.418 58.3262 188.477 58.7852 188.594 59.1602C188.715 59.5352 188.912 59.8203 189.186 60.0156C189.463 60.2109 189.834 60.3086 190.299 60.3086C190.697 60.3086 191.029 60.2012 191.295 59.9863C191.561 59.7715 191.758 59.4727 191.887 59.0898C192.02 58.7031 192.086 58.2598 192.086 57.7598C192.086 57.002 191.938 56.4004 191.641 55.9551C191.348 55.5059 190.896 55.2812 190.287 55.2812ZM197.26 54.4609C197.807 54.4609 198.275 54.582 198.666 54.8242C199.057 55.0664 199.355 55.4062 199.562 55.8438C199.77 56.2773 199.873 56.7852 199.873 57.3672V57.9707H195.438C195.449 58.7246 195.637 59.2988 196 59.6934C196.363 60.0879 196.875 60.2852 197.535 60.2852C197.941 60.2852 198.301 60.248 198.613 60.1738C198.926 60.0996 199.25 59.9902 199.586 59.8457V60.7012C199.262 60.8457 198.939 60.9512 198.619 61.0176C198.303 61.084 197.928 61.1172 197.494 61.1172C196.877 61.1172 196.338 60.9922 195.877 60.7422C195.42 60.4883 195.064 60.1172 194.811 59.6289C194.557 59.1406 194.43 58.543 194.43 57.8359C194.43 57.1445 194.545 56.5469 194.775 56.043C195.01 55.5352 195.338 55.1445 195.76 54.8711C196.186 54.5977 196.686 54.4609 197.26 54.4609ZM197.248 55.2578C196.729 55.2578 196.314 55.4277 196.006 55.7676C195.697 56.1074 195.514 56.582 195.455 57.1914H198.854C198.85 56.8086 198.789 56.4727 198.672 56.1836C198.559 55.8906 198.385 55.6641 198.15 55.5039C197.916 55.3398 197.615 55.2578 197.248 55.2578ZM209.049 54.5781L206.377 57.7012L209.277 61H208.164L205.352 57.7422V61H204.443V57.7422L201.637 61H200.523L203.424 57.7012L200.746 54.5781H201.818L204.443 57.6953V54.5781H205.352V57.6953L207.988 54.5781H209.049ZM218.57 56.1895C218.57 56.5918 218.453 56.9062 218.219 57.1328C217.984 57.3555 217.682 57.5059 217.311 57.584V57.6309C217.713 57.6855 218.059 57.8301 218.348 58.0645C218.641 58.2949 218.787 58.6484 218.787 59.125C218.787 59.4922 218.699 59.8164 218.523 60.0977C218.348 60.3789 218.072 60.5996 217.697 60.7598C217.322 60.9199 216.834 61 216.232 61H213.467V54.5781H216.209C216.67 54.5781 217.076 54.6309 217.428 54.7363C217.783 54.8379 218.062 55.0059 218.266 55.2402C218.469 55.4746 218.57 55.791 218.57 56.1895ZM217.773 59.125C217.773 58.7461 217.629 58.4727 217.34 58.3047C217.055 58.1367 216.639 58.0527 216.092 58.0527H214.445V60.209H216.115C216.654 60.209 217.064 60.127 217.346 59.9629C217.631 59.7949 217.773 59.5156 217.773 59.125ZM217.58 56.3008C217.58 55.9961 217.469 55.7695 217.246 55.6211C217.023 55.4688 216.658 55.3926 216.15 55.3926H214.445V57.2383H215.98C216.508 57.2383 216.906 57.1621 217.176 57.0098C217.445 56.8574 217.58 56.6211 217.58 56.3008ZM221.33 54.5781V61H220.357V54.5781H221.33ZM220.855 52.1758C221.016 52.1758 221.152 52.2285 221.266 52.334C221.383 52.4355 221.441 52.5957 221.441 52.8145C221.441 53.0293 221.383 53.1895 221.266 53.2949C221.152 53.4004 221.016 53.4531 220.855 53.4531C220.688 53.4531 220.547 53.4004 220.434 53.2949C220.324 53.1895 220.27 53.0293 220.27 52.8145C220.27 52.5957 220.324 52.4355 220.434 52.334C220.547 52.2285 220.688 52.1758 220.855 52.1758ZM228.098 54.5781V60.1738H229.018V63.2207H228.074V61H223.527V63.2207H222.596V60.1738H223.1C223.467 59.666 223.771 59.1094 224.014 58.5039C224.256 57.8984 224.439 57.2637 224.564 56.5996C224.689 55.9316 224.756 55.2578 224.764 54.5781H228.098ZM227.154 55.3516H225.631C225.596 55.9219 225.512 56.502 225.379 57.0918C225.25 57.6816 225.078 58.2441 224.863 58.7793C224.648 59.3105 224.398 59.7754 224.113 60.1738H227.154V55.3516ZM114.004 70.5781V73.2734H117.584V70.5781H118.557V77H117.584V74.0996H114.004V77H113.025V70.5781H114.004ZM123.092 70.4609C123.639 70.4609 124.107 70.582 124.498 70.8242C124.889 71.0664 125.188 71.4062 125.395 71.8438C125.602 72.2773 125.705 72.7852 125.705 73.3672V73.9707H121.27C121.281 74.7246 121.469 75.2988 121.832 75.6934C122.195 76.0879 122.707 76.2852 123.367 76.2852C123.773 76.2852 124.133 76.248 124.445 76.1738C124.758 76.0996 125.082 75.9902 125.418 75.8457V76.7012C125.094 76.8457 124.771 76.9512 124.451 77.0176C124.135 77.084 123.76 77.1172 123.326 77.1172C122.709 77.1172 122.17 76.9922 121.709 76.7422C121.252 76.4883 120.896 76.1172 120.643 75.6289C120.389 75.1406 120.262 74.543 120.262 73.8359C120.262 73.1445 120.377 72.5469 120.607 72.043C120.842 71.5352 121.17 71.1445 121.592 70.8711C122.018 70.5977 122.518 70.4609 123.092 70.4609ZM123.08 71.2578C122.561 71.2578 122.146 71.4277 121.838 71.7676C121.529 72.1074 121.346 72.582 121.287 73.1914H124.686C124.682 72.8086 124.621 72.4727 124.504 72.1836C124.391 71.8906 124.217 71.6641 123.982 71.5039C123.748 71.3398 123.447 71.2578 123.08 71.2578ZM129.93 77.1172C129.352 77.1172 128.842 76.998 128.4 76.7598C127.959 76.5215 127.615 76.1582 127.369 75.6699C127.123 75.1816 127 74.5664 127 73.8242C127 73.0469 127.129 72.4121 127.387 71.9199C127.648 71.4238 128.008 71.0566 128.465 70.8184C128.922 70.5801 129.441 70.4609 130.023 70.4609C130.344 70.4609 130.652 70.4941 130.949 70.5605C131.25 70.623 131.496 70.7031 131.688 70.8008L131.395 71.6152C131.199 71.5371 130.973 71.4668 130.715 71.4043C130.461 71.3418 130.223 71.3105 130 71.3105C129.555 71.3105 129.184 71.4062 128.887 71.5977C128.594 71.7891 128.373 72.0703 128.225 72.4414C128.08 72.8125 128.008 73.2695 128.008 73.8125C128.008 74.332 128.078 74.7754 128.219 75.1426C128.363 75.5098 128.576 75.791 128.857 75.9863C129.143 76.1777 129.498 76.2734 129.924 76.2734C130.264 76.2734 130.57 76.2383 130.844 76.168C131.117 76.0938 131.365 76.0078 131.588 75.9102V76.7773C131.373 76.8867 131.133 76.9707 130.867 77.0293C130.605 77.0879 130.293 77.1172 129.93 77.1172ZM135.514 70.4727C136.279 70.4727 136.848 70.6445 137.219 70.9883C137.59 71.332 137.775 71.8809 137.775 72.6348V77H137.066L136.879 76.0508H136.832C136.652 76.2852 136.465 76.4824 136.27 76.6426C136.074 76.7988 135.848 76.918 135.59 77C135.336 77.0781 135.023 77.1172 134.652 77.1172C134.262 77.1172 133.914 77.0488 133.609 76.9121C133.309 76.7754 133.07 76.5684 132.895 76.291C132.723 76.0137 132.637 75.6621 132.637 75.2363C132.637 74.5957 132.891 74.1035 133.398 73.7598C133.906 73.416 134.68 73.2285 135.719 73.1973L136.826 73.1504V72.7578C136.826 72.2031 136.707 71.8145 136.469 71.5918C136.23 71.3691 135.895 71.2578 135.461 71.2578C135.125 71.2578 134.805 71.3066 134.5 71.4043C134.195 71.502 133.906 71.6172 133.633 71.75L133.334 71.0117C133.623 70.8633 133.955 70.7363 134.33 70.6309C134.705 70.5254 135.1 70.4727 135.514 70.4727ZM136.814 73.8359L135.836 73.877C135.035 73.9082 134.471 74.0391 134.143 74.2695C133.814 74.5 133.65 74.8262 133.65 75.248C133.65 75.6152 133.762 75.8867 133.984 76.0625C134.207 76.2383 134.502 76.3262 134.869 76.3262C135.439 76.3262 135.906 76.168 136.27 75.8516C136.633 75.5352 136.814 75.0605 136.814 74.4277V73.8359ZM140.758 70.5781V73.2734H144.338V70.5781H145.311V77H144.338V74.0996H140.758V77H139.779V70.5781H140.758ZM151.117 70.5781H152.189L149.418 73.6777L152.412 77H151.27L148.352 73.7422V77H147.373V70.5781H148.352V73.6953L151.117 70.5781ZM159.824 79.2207H158.875V77H153.572V70.5781H154.551V76.1738H157.955V70.5781H158.928V76.1855H159.824V79.2207ZM162.057 70.5781V77H161.084V70.5781H162.057ZM161.582 68.1758C161.742 68.1758 161.879 68.2285 161.992 68.334C162.109 68.4355 162.168 68.5957 162.168 68.8145C162.168 69.0293 162.109 69.1895 161.992 69.2949C161.879 69.4004 161.742 69.4531 161.582 69.4531C161.414 69.4531 161.273 69.4004 161.16 69.2949C161.051 69.1895 160.996 69.0293 160.996 68.8145C160.996 68.5957 161.051 68.4355 161.16 68.334C161.273 68.2285 161.414 68.1758 161.582 68.1758ZM169.656 73.7773C169.656 74.3047 169.588 74.7754 169.451 75.1895C169.314 75.6035 169.117 75.9531 168.859 76.2383C168.602 76.5234 168.289 76.7422 167.922 76.8945C167.559 77.043 167.146 77.1172 166.686 77.1172C166.256 77.1172 165.861 77.043 165.502 76.8945C165.146 76.7422 164.838 76.5234 164.576 76.2383C164.318 75.9531 164.117 75.6035 163.973 75.1895C163.832 74.7754 163.762 74.3047 163.762 73.7773C163.762 73.0742 163.881 72.4766 164.119 71.9844C164.357 71.4883 164.697 71.1113 165.139 70.8535C165.584 70.5918 166.113 70.4609 166.727 70.4609C167.312 70.4609 167.824 70.5918 168.262 70.8535C168.703 71.1152 169.045 71.4941 169.287 71.9902C169.533 72.4824 169.656 73.0781 169.656 73.7773ZM164.77 73.7773C164.77 74.293 164.838 74.7402 164.975 75.1191C165.111 75.498 165.322 75.791 165.607 75.998C165.893 76.2051 166.26 76.3086 166.709 76.3086C167.154 76.3086 167.52 76.2051 167.805 75.998C168.094 75.791 168.307 75.498 168.443 75.1191C168.58 74.7402 168.648 74.293 168.648 73.7773C168.648 73.2656 168.58 72.8242 168.443 72.4531C168.307 72.0781 168.096 71.7891 167.811 71.5859C167.525 71.3828 167.156 71.2812 166.703 71.2812C166.035 71.2812 165.545 71.502 165.232 71.9434C164.924 72.3848 164.77 72.9961 164.77 73.7773ZM172.316 70.5781V73.2734H175.896V70.5781H176.869V77H175.896V74.0996H172.316V77H171.338V70.5781H172.316ZM184.469 73.7773C184.469 74.3047 184.4 74.7754 184.264 75.1895C184.127 75.6035 183.93 75.9531 183.672 76.2383C183.414 76.5234 183.102 76.7422 182.734 76.8945C182.371 77.043 181.959 77.1172 181.498 77.1172C181.068 77.1172 180.674 77.043 180.314 76.8945C179.959 76.7422 179.65 76.5234 179.389 76.2383C179.131 75.9531 178.93 75.6035 178.785 75.1895C178.645 74.7754 178.574 74.3047 178.574 73.7773C178.574 73.0742 178.693 72.4766 178.932 71.9844C179.17 71.4883 179.51 71.1113 179.951 70.8535C180.396 70.5918 180.926 70.4609 181.539 70.4609C182.125 70.4609 182.637 70.5918 183.074 70.8535C183.516 71.1152 183.857 71.4941 184.1 71.9902C184.346 72.4824 184.469 73.0781 184.469 73.7773ZM179.582 73.7773C179.582 74.293 179.65 74.7402 179.787 75.1191C179.924 75.498 180.135 75.791 180.42 75.998C180.705 76.2051 181.072 76.3086 181.521 76.3086C181.967 76.3086 182.332 76.2051 182.617 75.998C182.906 75.791 183.119 75.498 183.256 75.1191C183.393 74.7402 183.461 74.293 183.461 73.7773C183.461 73.2656 183.393 72.8242 183.256 72.4531C183.119 72.0781 182.908 71.7891 182.623 71.5859C182.338 71.3828 181.969 71.2812 181.516 71.2812C180.848 71.2812 180.357 71.502 180.045 71.9434C179.736 72.3848 179.582 72.9961 179.582 73.7773ZM191.254 72.1895C191.254 72.5918 191.137 72.9062 190.902 73.1328C190.668 73.3555 190.365 73.5059 189.994 73.584V73.6309C190.396 73.6855 190.742 73.8301 191.031 74.0645C191.324 74.2949 191.471 74.6484 191.471 75.125C191.471 75.4922 191.383 75.8164 191.207 76.0977C191.031 76.3789 190.756 76.5996 190.381 76.7598C190.006 76.9199 189.518 77 188.916 77H186.15V70.5781H188.893C189.354 70.5781 189.76 70.6309 190.111 70.7363C190.467 70.8379 190.746 71.0059 190.949 71.2402C191.152 71.4746 191.254 71.791 191.254 72.1895ZM190.457 75.125C190.457 74.7461 190.312 74.4727 190.023 74.3047C189.738 74.1367 189.322 74.0527 188.775 74.0527H187.129V76.209H188.799C189.338 76.209 189.748 76.127 190.029 75.9629C190.314 75.7949 190.457 75.5156 190.457 75.125ZM190.264 72.3008C190.264 71.9961 190.152 71.7695 189.93 71.6211C189.707 71.4688 189.342 71.3926 188.834 71.3926H187.129V73.2383H188.664C189.191 73.2383 189.59 73.1621 189.859 73.0098C190.129 72.8574 190.264 72.6211 190.264 72.3008ZM195.443 70.4727C196.209 70.4727 196.777 70.6445 197.148 70.9883C197.52 71.332 197.705 71.8809 197.705 72.6348V77H196.996L196.809 76.0508H196.762C196.582 76.2852 196.395 76.4824 196.199 76.6426C196.004 76.7988 195.777 76.918 195.52 77C195.266 77.0781 194.953 77.1172 194.582 77.1172C194.191 77.1172 193.844 77.0488 193.539 76.9121C193.238 76.7754 193 76.5684 192.824 76.291C192.652 76.0137 192.566 75.6621 192.566 75.2363C192.566 74.5957 192.82 74.1035 193.328 73.7598C193.836 73.416 194.609 73.2285 195.648 73.1973L196.756 73.1504V72.7578C196.756 72.2031 196.637 71.8145 196.398 71.5918C196.16 71.3691 195.824 71.2578 195.391 71.2578C195.055 71.2578 194.734 71.3066 194.43 71.4043C194.125 71.502 193.836 71.6172 193.562 71.75L193.264 71.0117C193.553 70.8633 193.885 70.7363 194.26 70.6309C194.635 70.5254 195.029 70.4727 195.443 70.4727ZM196.744 73.8359L195.766 73.877C194.965 73.9082 194.4 74.0391 194.072 74.2695C193.744 74.5 193.58 74.8262 193.58 75.248C193.58 75.6152 193.691 75.8867 193.914 76.0625C194.137 76.2383 194.432 76.3262 194.799 76.3262C195.369 76.3262 195.836 76.168 196.199 75.8516C196.562 75.5352 196.744 75.0605 196.744 74.4277V73.8359ZM200.688 70.5781V73.2734H204.268V70.5781H205.24V77H204.268V74.0996H200.688V77H199.709V70.5781H200.688ZM212.84 73.7773C212.84 74.3047 212.771 74.7754 212.635 75.1895C212.498 75.6035 212.301 75.9531 212.043 76.2383C211.785 76.5234 211.473 76.7422 211.105 76.8945C210.742 77.043 210.33 77.1172 209.869 77.1172C209.439 77.1172 209.045 77.043 208.686 76.8945C208.33 76.7422 208.021 76.5234 207.76 76.2383C207.502 75.9531 207.301 75.6035 207.156 75.1895C207.016 74.7754 206.945 74.3047 206.945 73.7773C206.945 73.0742 207.064 72.4766 207.303 71.9844C207.541 71.4883 207.881 71.1113 208.322 70.8535C208.768 70.5918 209.297 70.4609 209.91 70.4609C210.496 70.4609 211.008 70.5918 211.445 70.8535C211.887 71.1152 212.229 71.4941 212.471 71.9902C212.717 72.4824 212.84 73.0781 212.84 73.7773ZM207.953 73.7773C207.953 74.293 208.021 74.7402 208.158 75.1191C208.295 75.498 208.506 75.791 208.791 75.998C209.076 76.2051 209.443 76.3086 209.893 76.3086C210.338 76.3086 210.703 76.2051 210.988 75.998C211.277 75.791 211.49 75.498 211.627 75.1191C211.764 74.7402 211.832 74.293 211.832 73.7773C211.832 73.2656 211.764 72.8242 211.627 72.4531C211.49 72.0781 211.279 71.7891 210.994 71.5859C210.709 71.3828 210.34 71.2812 209.887 71.2812C209.219 71.2812 208.729 71.502 208.416 71.9434C208.107 72.3848 207.953 72.9961 207.953 73.7773ZM218.418 70.5781V71.4043H215.5V77H214.521V70.5781H218.418ZM225.238 73.7773C225.238 74.3047 225.17 74.7754 225.033 75.1895C224.896 75.6035 224.699 75.9531 224.441 76.2383C224.184 76.5234 223.871 76.7422 223.504 76.8945C223.141 77.043 222.729 77.1172 222.268 77.1172C221.838 77.1172 221.443 77.043 221.084 76.8945C220.729 76.7422 220.42 76.5234 220.158 76.2383C219.9 75.9531 219.699 75.6035 219.555 75.1895C219.414 74.7754 219.344 74.3047 219.344 73.7773C219.344 73.0742 219.463 72.4766 219.701 71.9844C219.939 71.4883 220.279 71.1113 220.721 70.8535C221.166 70.5918 221.695 70.4609 222.309 70.4609C222.895 70.4609 223.406 70.5918 223.844 70.8535C224.285 71.1152 224.627 71.4941 224.869 71.9902C225.115 72.4824 225.238 73.0781 225.238 73.7773ZM220.352 73.7773C220.352 74.293 220.42 74.7402 220.557 75.1191C220.693 75.498 220.904 75.791 221.189 75.998C221.475 76.2051 221.842 76.3086 222.291 76.3086C222.736 76.3086 223.102 76.2051 223.387 75.998C223.676 75.791 223.889 75.498 224.025 75.1191C224.162 74.7402 224.23 74.293 224.23 73.7773C224.23 73.2656 224.162 72.8242 224.025 72.4531C223.889 72.0781 223.678 71.7891 223.393 71.5859C223.107 71.3828 222.738 71.2812 222.285 71.2812C221.617 71.2812 221.127 71.502 220.814 71.9434C220.506 72.3848 220.352 72.9961 220.352 73.7773ZM234.742 70.5781V76.1738H235.662V79.2207H234.719V77H230.172V79.2207H229.24V76.1738H229.744C230.111 75.666 230.416 75.1094 230.658 74.5039C230.9 73.8984 231.084 73.2637 231.209 72.5996C231.334 71.9316 231.4 71.2578 231.408 70.5781H234.742ZM233.799 71.3516H232.275C232.24 71.9219 232.156 72.502 232.023 73.0918C231.895 73.6816 231.723 74.2441 231.508 74.7793C231.293 75.3105 231.043 75.7754 230.758 76.1738H233.799V71.3516ZM242.477 73.7773C242.477 74.3047 242.408 74.7754 242.271 75.1895C242.135 75.6035 241.938 75.9531 241.68 76.2383C241.422 76.5234 241.109 76.7422 240.742 76.8945C240.379 77.043 239.967 77.1172 239.506 77.1172C239.076 77.1172 238.682 77.043 238.322 76.8945C237.967 76.7422 237.658 76.5234 237.396 76.2383C237.139 75.9531 236.938 75.6035 236.793 75.1895C236.652 74.7754 236.582 74.3047 236.582 73.7773C236.582 73.0742 236.701 72.4766 236.939 71.9844C237.178 71.4883 237.518 71.1113 237.959 70.8535C238.404 70.5918 238.934 70.4609 239.547 70.4609C240.133 70.4609 240.645 70.5918 241.082 70.8535C241.523 71.1152 241.865 71.4941 242.107 71.9902C242.354 72.4824 242.477 73.0781 242.477 73.7773ZM237.59 73.7773C237.59 74.293 237.658 74.7402 237.795 75.1191C237.932 75.498 238.143 75.791 238.428 75.998C238.713 76.2051 239.08 76.3086 239.529 76.3086C239.975 76.3086 240.34 76.2051 240.625 75.998C240.914 75.791 241.127 75.498 241.264 75.1191C241.4 74.7402 241.469 74.293 241.469 73.7773C241.469 73.2656 241.4 72.8242 241.264 72.4531C241.127 72.0781 240.916 71.7891 240.631 71.5859C240.346 71.3828 239.977 71.2812 239.523 71.2812C238.855 71.2812 238.365 71.502 238.053 71.9434C237.744 72.3848 237.59 72.9961 237.59 73.7773ZM246.73 77.1172C246.152 77.1172 245.643 76.998 245.201 76.7598C244.76 76.5215 244.416 76.1582 244.17 75.6699C243.924 75.1816 243.801 74.5664 243.801 73.8242C243.801 73.0469 243.93 72.4121 244.188 71.9199C244.449 71.4238 244.809 71.0566 245.266 70.8184C245.723 70.5801 246.242 70.4609 246.824 70.4609C247.145 70.4609 247.453 70.4941 247.75 70.5605C248.051 70.623 248.297 70.7031 248.488 70.8008L248.195 71.6152C248 71.5371 247.773 71.4668 247.516 71.4043C247.262 71.3418 247.023 71.3105 246.801 71.3105C246.355 71.3105 245.984 71.4062 245.688 71.5977C245.395 71.7891 245.174 72.0703 245.025 72.4414C244.881 72.8125 244.809 73.2695 244.809 73.8125C244.809 74.332 244.879 74.7754 245.02 75.1426C245.164 75.5098 245.377 75.791 245.658 75.9863C245.943 76.1777 246.299 76.2734 246.725 76.2734C247.064 76.2734 247.371 76.2383 247.645 76.168C247.918 76.0938 248.166 76.0078 248.389 75.9102V76.7773C248.174 76.8867 247.934 76.9707 247.668 77.0293C247.406 77.0879 247.094 77.1172 246.73 77.1172ZM254.289 71.4043H252.174V77H251.213V71.4043H249.127V70.5781H254.289V71.4043ZM254.547 70.5781H255.59L257.008 74.3047C257.09 74.5234 257.166 74.7344 257.236 74.9375C257.307 75.1367 257.369 75.3281 257.424 75.5117C257.479 75.6953 257.521 75.873 257.553 76.0449H257.594C257.648 75.8496 257.727 75.5938 257.828 75.2773C257.93 74.957 258.039 74.6309 258.156 74.2988L259.498 70.5781H260.547L257.752 77.9434C257.604 78.3379 257.43 78.6816 257.23 78.9746C257.035 79.2676 256.797 79.4922 256.516 79.6484C256.234 79.8086 255.895 79.8887 255.496 79.8887C255.312 79.8887 255.15 79.877 255.01 79.8535C254.869 79.834 254.748 79.8105 254.646 79.7832V79.0039C254.732 79.0234 254.836 79.041 254.957 79.0566C255.082 79.0723 255.211 79.0801 255.344 79.0801C255.586 79.0801 255.795 79.0332 255.971 78.9395C256.15 78.8496 256.305 78.7168 256.434 78.541C256.562 78.3652 256.674 78.1562 256.768 77.9141L257.119 77.0117L254.547 70.5781ZM266.951 70.5781V77H265.973V71.416H262.551V77H261.572V70.5781H266.951ZM268 70.5781H269.043L270.461 74.3047C270.543 74.5234 270.619 74.7344 270.689 74.9375C270.76 75.1367 270.822 75.3281 270.877 75.5117C270.932 75.6953 270.975 75.873 271.006 76.0449H271.047C271.102 75.8496 271.18 75.5938 271.281 75.2773C271.383 74.957 271.492 74.6309 271.609 74.2988L272.951 70.5781H274L271.205 77.9434C271.057 78.3379 270.883 78.6816 270.684 78.9746C270.488 79.2676 270.25 79.4922 269.969 79.6484C269.688 79.8086 269.348 79.8887 268.949 79.8887C268.766 79.8887 268.604 79.877 268.463 79.8535C268.322 79.834 268.201 79.8105 268.1 79.7832V79.0039C268.186 79.0234 268.289 79.041 268.41 79.0566C268.535 79.0723 268.664 79.0801 268.797 79.0801C269.039 79.0801 269.248 79.0332 269.424 78.9395C269.604 78.8496 269.758 78.7168 269.887 78.541C270.016 78.3652 270.127 78.1562 270.221 77.9141L270.572 77.0117L268 70.5781ZM276.139 75.6055L276.215 75.7402C276.145 76.0254 276.055 76.3301 275.945 76.6543C275.84 76.9785 275.723 77.3027 275.594 77.627C275.469 77.9551 275.342 78.2617 275.213 78.5469H274.486C274.568 78.2344 274.648 77.9043 274.727 77.5566C274.805 77.2129 274.875 76.873 274.938 76.5371C275.004 76.1973 275.057 75.8867 275.096 75.6055H276.139ZM283.65 70.4727C284.416 70.4727 284.984 70.6445 285.355 70.9883C285.727 71.332 285.912 71.8809 285.912 72.6348V77H285.203L285.016 76.0508H284.969C284.789 76.2852 284.602 76.4824 284.406 76.6426C284.211 76.7988 283.984 76.918 283.727 77C283.473 77.0781 283.16 77.1172 282.789 77.1172C282.398 77.1172 282.051 77.0488 281.746 76.9121C281.445 76.7754 281.207 76.5684 281.031 76.291C280.859 76.0137 280.773 75.6621 280.773 75.2363C280.773 74.5957 281.027 74.1035 281.535 73.7598C282.043 73.416 282.816 73.2285 283.855 73.1973L284.963 73.1504V72.7578C284.963 72.2031 284.844 71.8145 284.605 71.5918C284.367 71.3691 284.031 71.2578 283.598 71.2578C283.262 71.2578 282.941 71.3066 282.637 71.4043C282.332 71.502 282.043 71.6172 281.77 71.75L281.471 71.0117C281.76 70.8633 282.092 70.7363 282.467 70.6309C282.842 70.5254 283.236 70.4727 283.65 70.4727ZM284.951 73.8359L283.973 73.877C283.172 73.9082 282.607 74.0391 282.279 74.2695C281.951 74.5 281.787 74.8262 281.787 75.248C281.787 75.6152 281.898 75.8867 282.121 76.0625C282.344 76.2383 282.639 76.3262 283.006 76.3262C283.576 76.3262 284.043 76.168 284.406 75.8516C284.77 75.5352 284.951 75.0605 284.951 74.4277V73.8359ZM292.293 71.4043H290.178V77H289.217V71.4043H287.131V70.5781H292.293V71.4043ZM295.967 70.4727C296.732 70.4727 297.301 70.6445 297.672 70.9883C298.043 71.332 298.229 71.8809 298.229 72.6348V77H297.52L297.332 76.0508H297.285C297.105 76.2852 296.918 76.4824 296.723 76.6426C296.527 76.7988 296.301 76.918 296.043 77C295.789 77.0781 295.477 77.1172 295.105 77.1172C294.715 77.1172 294.367 77.0488 294.062 76.9121C293.762 76.7754 293.523 76.5684 293.348 76.291C293.176 76.0137 293.09 75.6621 293.09 75.2363C293.09 74.5957 293.344 74.1035 293.852 73.7598C294.359 73.416 295.133 73.2285 296.172 73.1973L297.279 73.1504V72.7578C297.279 72.2031 297.16 71.8145 296.922 71.5918C296.684 71.3691 296.348 71.2578 295.914 71.2578C295.578 71.2578 295.258 71.3066 294.953 71.4043C294.648 71.502 294.359 71.6172 294.086 71.75L293.787 71.0117C294.076 70.8633 294.408 70.7363 294.783 70.6309C295.158 70.5254 295.553 70.4727 295.967 70.4727ZM297.268 73.8359L296.289 73.877C295.488 73.9082 294.924 74.0391 294.596 74.2695C294.268 74.5 294.104 74.8262 294.104 75.248C294.104 75.6152 294.215 75.8867 294.438 76.0625C294.66 76.2383 294.955 76.3262 295.322 76.3262C295.893 76.3262 296.359 76.168 296.723 75.8516C297.086 75.5352 297.268 75.0605 297.268 74.4277V73.8359ZM303.977 70.5781H305.049L302.277 73.6777L305.271 77H304.129L301.211 73.7422V77H300.232V70.5781H301.211V73.6953L303.977 70.5781ZM313.926 71.4043H311.811V77H310.85V71.4043H308.764V70.5781H313.926V71.4043ZM317.6 70.4727C318.365 70.4727 318.934 70.6445 319.305 70.9883C319.676 71.332 319.861 71.8809 319.861 72.6348V77H319.152L318.965 76.0508H318.918C318.738 76.2852 318.551 76.4824 318.355 76.6426C318.16 76.7988 317.934 76.918 317.676 77C317.422 77.0781 317.109 77.1172 316.738 77.1172C316.348 77.1172 316 77.0488 315.695 76.9121C315.395 76.7754 315.156 76.5684 314.98 76.291C314.809 76.0137 314.723 75.6621 314.723 75.2363C314.723 74.5957 314.977 74.1035 315.484 73.7598C315.992 73.416 316.766 73.2285 317.805 73.1973L318.912 73.1504V72.7578C318.912 72.2031 318.793 71.8145 318.555 71.5918C318.316 71.3691 317.98 71.2578 317.547 71.2578C317.211 71.2578 316.891 71.3066 316.586 71.4043C316.281 71.502 315.992 71.6172 315.719 71.75L315.42 71.0117C315.709 70.8633 316.041 70.7363 316.416 70.6309C316.791 70.5254 317.186 70.4727 317.6 70.4727ZM318.9 73.8359L317.922 73.877C317.121 73.9082 316.557 74.0391 316.229 74.2695C315.9 74.5 315.736 74.8262 315.736 75.248C315.736 75.6152 315.848 75.8867 316.07 76.0625C316.293 76.2383 316.588 76.3262 316.955 76.3262C317.525 76.3262 317.992 76.168 318.355 75.8516C318.719 75.5352 318.9 75.0605 318.9 74.4277V73.8359ZM113.998 86.5781V93H113.025V86.5781H113.998ZM113.523 84.1758C113.684 84.1758 113.82 84.2285 113.934 84.334C114.051 84.4355 114.109 84.5957 114.109 84.8145C114.109 85.0293 114.051 85.1895 113.934 85.2949C113.82 85.4004 113.684 85.4531 113.523 85.4531C113.355 85.4531 113.215 85.4004 113.102 85.2949C112.992 85.1895 112.938 85.0293 112.938 84.8145C112.938 84.5957 112.992 84.4355 113.102 84.334C113.215 84.2285 113.355 84.1758 113.523 84.1758ZM117.039 86.5781V89.2734H120.619V86.5781H121.592V93H120.619V90.0996H117.039V93H116.061V86.5781H117.039ZM132.268 86.5781V93H123.654V86.5781H124.627V92.1738H127.469V86.5781H128.447V92.1738H131.295V86.5781H132.268ZM135.256 86.5781V90.6152C135.256 90.6934 135.254 90.7949 135.25 90.9199C135.246 91.041 135.24 91.1719 135.232 91.3125C135.225 91.4492 135.217 91.582 135.209 91.7109C135.205 91.8359 135.199 91.9395 135.191 92.0215L138.695 86.5781H139.891V93H138.982V89.0625C138.982 88.9375 138.984 88.7773 138.988 88.582C138.992 88.3867 138.998 88.1953 139.006 88.0078C139.014 87.8164 139.02 87.668 139.023 87.5625L135.531 93H134.33V86.5781H135.256ZM143.488 89.7129L141.268 86.5781H142.381L144.074 89.0508L145.762 86.5781H146.863L144.643 89.7129L146.986 93H145.873L144.074 90.3809L142.264 93H141.162L143.488 89.7129ZM153.01 86.4609C153.49 86.4609 153.906 86.5273 154.258 86.6602C154.609 86.7891 154.881 86.9785 155.072 87.2285C155.264 87.4785 155.359 87.7832 155.359 88.1426C155.359 88.5293 155.254 88.8379 155.043 89.0684C154.832 89.2988 154.541 89.4648 154.17 89.5664V89.6133C154.432 89.6836 154.668 89.7852 154.879 89.918C155.094 90.0469 155.264 90.2188 155.389 90.4336C155.518 90.6445 155.582 90.9082 155.582 91.2246C155.582 91.584 155.484 91.9082 155.289 92.1973C155.094 92.4824 154.797 92.707 154.398 92.8711C154 93.0352 153.496 93.1172 152.887 93.1172C152.586 93.1172 152.301 93.0996 152.031 93.0645C151.762 93.0332 151.518 92.9863 151.299 92.9238C151.08 92.8613 150.889 92.7871 150.725 92.7012V91.8164C150.998 91.9492 151.318 92.0664 151.686 92.168C152.053 92.2695 152.449 92.3203 152.875 92.3203C153.203 92.3203 153.498 92.2832 153.76 92.209C154.021 92.1309 154.229 92.0078 154.381 91.8398C154.537 91.668 154.615 91.4434 154.615 91.166C154.615 90.9121 154.547 90.7031 154.41 90.5391C154.273 90.3711 154.068 90.248 153.795 90.1699C153.525 90.0879 153.184 90.0469 152.77 90.0469H151.908V89.25H152.617C153.168 89.25 153.607 89.1719 153.936 89.0156C154.264 88.8594 154.428 88.5957 154.428 88.2246C154.428 87.9043 154.301 87.666 154.047 87.5098C153.793 87.3496 153.43 87.2695 152.957 87.2695C152.605 87.2695 152.295 87.3066 152.025 87.3809C151.756 87.4512 151.465 87.5527 151.152 87.6855L150.807 86.9062C151.143 86.7578 151.494 86.6465 151.861 86.5723C152.229 86.498 152.611 86.4609 153.01 86.4609ZM159.561 86.4727C160.326 86.4727 160.895 86.6445 161.266 86.9883C161.637 87.332 161.822 87.8809 161.822 88.6348V93H161.113L160.926 92.0508H160.879C160.699 92.2852 160.512 92.4824 160.316 92.6426C160.121 92.7988 159.895 92.918 159.637 93C159.383 93.0781 159.07 93.1172 158.699 93.1172C158.309 93.1172 157.961 93.0488 157.656 92.9121C157.355 92.7754 157.117 92.5684 156.941 92.291C156.77 92.0137 156.684 91.6621 156.684 91.2363C156.684 90.5957 156.938 90.1035 157.445 89.7598C157.953 89.416 158.727 89.2285 159.766 89.1973L160.873 89.1504V88.7578C160.873 88.2031 160.754 87.8145 160.516 87.5918C160.277 87.3691 159.941 87.2578 159.508 87.2578C159.172 87.2578 158.852 87.3066 158.547 87.4043C158.242 87.502 157.953 87.6172 157.68 87.75L157.381 87.0117C157.67 86.8633 158.002 86.7363 158.377 86.6309C158.752 86.5254 159.146 86.4727 159.561 86.4727ZM160.861 89.8359L159.883 89.877C159.082 89.9082 158.518 90.0391 158.189 90.2695C157.861 90.5 157.697 90.8262 157.697 91.248C157.697 91.6152 157.809 91.8867 158.031 92.0625C158.254 92.2383 158.549 92.3262 158.916 92.3262C159.486 92.3262 159.953 92.168 160.316 91.8516C160.68 91.5352 160.861 91.0605 160.861 90.4277V89.8359ZM167.723 86.5781V87.4043H164.805V93H163.826V86.5781H167.723ZM172.023 86.4609C172.824 86.4609 173.463 86.7363 173.939 87.2871C174.416 87.8379 174.654 88.666 174.654 89.7715C174.654 90.502 174.545 91.1152 174.326 91.6113C174.107 92.1074 173.799 92.4824 173.4 92.7363C173.006 92.9902 172.539 93.1172 172 93.1172C171.66 93.1172 171.361 93.0723 171.104 92.9824C170.846 92.8926 170.625 92.7715 170.441 92.6191C170.258 92.4668 170.105 92.3008 169.984 92.1211H169.914C169.926 92.2734 169.939 92.457 169.955 92.6719C169.975 92.8867 169.984 93.0742 169.984 93.2344V95.8711H169.006V86.5781H169.809L169.938 87.5273H169.984C170.109 87.332 170.262 87.1543 170.441 86.9941C170.621 86.8301 170.84 86.7012 171.098 86.6074C171.359 86.5098 171.668 86.4609 172.023 86.4609ZM171.854 87.2812C171.408 87.2812 171.049 87.3672 170.775 87.5391C170.506 87.7109 170.309 87.9688 170.184 88.3125C170.059 88.6523 169.992 89.0801 169.984 89.5957V89.7832C169.984 90.3262 170.043 90.7852 170.16 91.1602C170.281 91.5352 170.479 91.8203 170.752 92.0156C171.029 92.2109 171.4 92.3086 171.865 92.3086C172.264 92.3086 172.596 92.2012 172.861 91.9863C173.127 91.7715 173.324 91.4727 173.453 91.0898C173.586 90.7031 173.652 90.2598 173.652 89.7598C173.652 89.002 173.504 88.4004 173.207 87.9551C172.914 87.5059 172.463 87.2812 171.854 87.2812ZM181.891 89.7773C181.891 90.3047 181.822 90.7754 181.686 91.1895C181.549 91.6035 181.352 91.9531 181.094 92.2383C180.836 92.5234 180.523 92.7422 180.156 92.8945C179.793 93.043 179.381 93.1172 178.92 93.1172C178.49 93.1172 178.096 93.043 177.736 92.8945C177.381 92.7422 177.072 92.5234 176.811 92.2383C176.553 91.9531 176.352 91.6035 176.207 91.1895C176.066 90.7754 175.996 90.3047 175.996 89.7773C175.996 89.0742 176.115 88.4766 176.354 87.9844C176.592 87.4883 176.932 87.1113 177.373 86.8535C177.818 86.5918 178.348 86.4609 178.961 86.4609C179.547 86.4609 180.059 86.5918 180.496 86.8535C180.938 87.1152 181.279 87.4941 181.521 87.9902C181.768 88.4824 181.891 89.0781 181.891 89.7773ZM177.004 89.7773C177.004 90.293 177.072 90.7402 177.209 91.1191C177.346 91.498 177.557 91.791 177.842 91.998C178.127 92.2051 178.494 92.3086 178.943 92.3086C179.389 92.3086 179.754 92.2051 180.039 91.998C180.328 91.791 180.541 91.498 180.678 91.1191C180.814 90.7402 180.883 90.293 180.883 89.7773C180.883 89.2656 180.814 88.8242 180.678 88.4531C180.541 88.0781 180.33 87.7891 180.045 87.5859C179.76 87.3828 179.391 87.2812 178.938 87.2812C178.27 87.2812 177.779 87.502 177.467 87.9434C177.158 88.3848 177.004 88.9961 177.004 89.7773ZM185.225 86.4609C185.705 86.4609 186.121 86.5273 186.473 86.6602C186.824 86.7891 187.096 86.9785 187.287 87.2285C187.479 87.4785 187.574 87.7832 187.574 88.1426C187.574 88.5293 187.469 88.8379 187.258 89.0684C187.047 89.2988 186.756 89.4648 186.385 89.5664V89.6133C186.646 89.6836 186.883 89.7852 187.094 89.918C187.309 90.0469 187.479 90.2188 187.604 90.4336C187.732 90.6445 187.797 90.9082 187.797 91.2246C187.797 91.584 187.699 91.9082 187.504 92.1973C187.309 92.4824 187.012 92.707 186.613 92.8711C186.215 93.0352 185.711 93.1172 185.102 93.1172C184.801 93.1172 184.516 93.0996 184.246 93.0645C183.977 93.0332 183.732 92.9863 183.514 92.9238C183.295 92.8613 183.104 92.7871 182.939 92.7012V91.8164C183.213 91.9492 183.533 92.0664 183.9 92.168C184.268 92.2695 184.664 92.3203 185.09 92.3203C185.418 92.3203 185.713 92.2832 185.975 92.209C186.236 92.1309 186.443 92.0078 186.596 91.8398C186.752 91.668 186.83 91.4434 186.83 91.166C186.83 90.9121 186.762 90.7031 186.625 90.5391C186.488 90.3711 186.283 90.248 186.01 90.1699C185.74 90.0879 185.398 90.0469 184.984 90.0469H184.123V89.25H184.832C185.383 89.25 185.822 89.1719 186.15 89.0156C186.479 88.8594 186.643 88.5957 186.643 88.2246C186.643 87.9043 186.516 87.666 186.262 87.5098C186.008 87.3496 185.645 87.2695 185.172 87.2695C184.82 87.2695 184.51 87.3066 184.24 87.3809C183.971 87.4512 183.68 87.5527 183.367 87.6855L183.021 86.9062C183.357 86.7578 183.709 86.6465 184.076 86.5723C184.443 86.498 184.826 86.4609 185.225 86.4609ZM192.156 89.1445C192.156 88.2305 192.244 87.4512 192.42 86.8066C192.596 86.1582 192.867 85.6387 193.234 85.248C193.605 84.8535 194.082 84.584 194.664 84.4395C195.164 84.3027 195.672 84.1855 196.188 84.0879C196.703 83.9863 197.205 83.8984 197.693 83.8242L197.863 84.6797C197.617 84.7148 197.359 84.7559 197.09 84.8027C196.82 84.8457 196.551 84.8926 196.281 84.9434C196.012 84.9902 195.758 85.041 195.52 85.0957C195.281 85.1465 195.07 85.1992 194.887 85.2539C194.555 85.3438 194.268 85.5 194.025 85.7227C193.787 85.9453 193.598 86.252 193.457 86.6426C193.32 87.0332 193.238 87.5254 193.211 88.1191H193.281C193.398 87.9473 193.559 87.7773 193.762 87.6094C193.965 87.4414 194.207 87.3027 194.488 87.1934C194.77 87.0801 195.086 87.0234 195.438 87.0234C195.992 87.0234 196.455 87.1445 196.826 87.3867C197.197 87.625 197.477 87.9609 197.664 88.3945C197.852 88.8281 197.945 89.3359 197.945 89.918C197.945 90.6172 197.824 91.2051 197.582 91.6816C197.344 92.1582 197.008 92.5176 196.574 92.7598C196.141 92.998 195.631 93.1172 195.045 93.1172C194.592 93.1172 194.186 93.0293 193.826 92.8535C193.471 92.6777 193.168 92.4199 192.918 92.0801C192.672 91.7402 192.482 91.3242 192.35 90.832C192.221 90.3398 192.156 89.7773 192.156 89.1445ZM195.121 92.3086C195.492 92.3086 195.811 92.2305 196.076 92.0742C196.346 91.918 196.553 91.6719 196.697 91.3359C196.846 90.9961 196.92 90.5547 196.92 90.0117C196.92 89.332 196.789 88.8008 196.527 88.418C196.27 88.0312 195.855 87.8379 195.285 87.8379C194.93 87.8379 194.607 87.9141 194.318 88.0664C194.029 88.2148 193.785 88.3926 193.586 88.5996C193.387 88.8066 193.242 88.9922 193.152 89.1562C193.152 89.5547 193.182 89.9414 193.24 90.3164C193.299 90.6914 193.4 91.0293 193.545 91.3301C193.689 91.6309 193.889 91.8691 194.143 92.0449C194.4 92.2207 194.727 92.3086 195.121 92.3086ZM202.1 86.4609C202.646 86.4609 203.115 86.582 203.506 86.8242C203.896 87.0664 204.195 87.4062 204.402 87.8438C204.609 88.2773 204.713 88.7852 204.713 89.3672V89.9707H200.277C200.289 90.7246 200.477 91.2988 200.84 91.6934C201.203 92.0879 201.715 92.2852 202.375 92.2852C202.781 92.2852 203.141 92.248 203.453 92.1738C203.766 92.0996 204.09 91.9902 204.426 91.8457V92.7012C204.102 92.8457 203.779 92.9512 203.459 93.0176C203.143 93.084 202.768 93.1172 202.334 93.1172C201.717 93.1172 201.178 92.9922 200.717 92.7422C200.26 92.4883 199.904 92.1172 199.65 91.6289C199.396 91.1406 199.27 90.543 199.27 89.8359C199.27 89.1445 199.385 88.5469 199.615 88.043C199.85 87.5352 200.178 87.1445 200.6 86.8711C201.025 86.5977 201.525 86.4609 202.1 86.4609ZM202.088 87.2578C201.568 87.2578 201.154 87.4277 200.846 87.7676C200.537 88.1074 200.354 88.582 200.295 89.1914H203.693C203.689 88.8086 203.629 88.4727 203.512 88.1836C203.398 87.8906 203.225 87.6641 202.99 87.5039C202.756 87.3398 202.455 87.2578 202.088 87.2578ZM208.018 86.4609C208.498 86.4609 208.914 86.5273 209.266 86.6602C209.617 86.7891 209.889 86.9785 210.08 87.2285C210.271 87.4785 210.367 87.7832 210.367 88.1426C210.367 88.5293 210.262 88.8379 210.051 89.0684C209.84 89.2988 209.549 89.4648 209.178 89.5664V89.6133C209.439 89.6836 209.676 89.7852 209.887 89.918C210.102 90.0469 210.271 90.2188 210.396 90.4336C210.525 90.6445 210.59 90.9082 210.59 91.2246C210.59 91.584 210.492 91.9082 210.297 92.1973C210.102 92.4824 209.805 92.707 209.406 92.8711C209.008 93.0352 208.504 93.1172 207.895 93.1172C207.594 93.1172 207.309 93.0996 207.039 93.0645C206.77 93.0332 206.525 92.9863 206.307 92.9238C206.088 92.8613 205.896 92.7871 205.732 92.7012V91.8164C206.006 91.9492 206.326 92.0664 206.693 92.168C207.061 92.2695 207.457 92.3203 207.883 92.3203C208.211 92.3203 208.506 92.2832 208.768 92.209C209.029 92.1309 209.236 92.0078 209.389 91.8398C209.545 91.668 209.623 91.4434 209.623 91.166C209.623 90.9121 209.555 90.7031 209.418 90.5391C209.281 90.3711 209.076 90.248 208.803 90.1699C208.533 90.0879 208.191 90.0469 207.777 90.0469H206.916V89.25H207.625C208.176 89.25 208.615 89.1719 208.943 89.0156C209.271 88.8594 209.436 88.5957 209.436 88.2246C209.436 87.9043 209.309 87.666 209.055 87.5098C208.801 87.3496 208.438 87.2695 207.965 87.2695C207.613 87.2695 207.303 87.3066 207.033 87.3809C206.764 87.4512 206.473 87.5527 206.16 87.6855L205.814 86.9062C206.15 86.7578 206.502 86.6465 206.869 86.5723C207.236 86.498 207.619 86.4609 208.018 86.4609ZM217.545 86.5781V93H216.566V87.416H213.145V93H212.166V86.5781H217.545ZM222.08 86.4609C222.627 86.4609 223.096 86.582 223.486 86.8242C223.877 87.0664 224.176 87.4062 224.383 87.8438C224.59 88.2773 224.693 88.7852 224.693 89.3672V89.9707H220.258C220.27 90.7246 220.457 91.2988 220.82 91.6934C221.184 92.0879 221.695 92.2852 222.355 92.2852C222.762 92.2852 223.121 92.248 223.434 92.1738C223.746 92.0996 224.07 91.9902 224.406 91.8457V92.7012C224.082 92.8457 223.76 92.9512 223.439 93.0176C223.123 93.084 222.748 93.1172 222.314 93.1172C221.697 93.1172 221.158 92.9922 220.697 92.7422C220.24 92.4883 219.885 92.1172 219.631 91.6289C219.377 91.1406 219.25 90.543 219.25 89.8359C219.25 89.1445 219.365 88.5469 219.596 88.043C219.83 87.5352 220.158 87.1445 220.58 86.8711C221.006 86.5977 221.506 86.4609 222.08 86.4609ZM222.068 87.2578C221.549 87.2578 221.135 87.4277 220.826 87.7676C220.518 88.1074 220.334 88.582 220.275 89.1914H223.674C223.67 88.8086 223.609 88.4727 223.492 88.1836C223.379 87.8906 223.205 87.6641 222.971 87.5039C222.736 87.3398 222.436 87.2578 222.068 87.2578ZM232.598 95.2207H231.648V93H226.346V86.5781H227.324V92.1738H230.729V86.5781H231.701V92.1855H232.598V95.2207ZM234.83 86.5781V93H233.857V86.5781H234.83ZM234.355 84.1758C234.516 84.1758 234.652 84.2285 234.766 84.334C234.883 84.4355 234.941 84.5957 234.941 84.8145C234.941 85.0293 234.883 85.1895 234.766 85.2949C234.652 85.4004 234.516 85.4531 234.355 85.4531C234.188 85.4531 234.047 85.4004 233.934 85.2949C233.824 85.1895 233.77 85.0293 233.77 84.8145C233.77 84.5957 233.824 84.4355 233.934 84.334C234.047 84.2285 234.188 84.1758 234.355 84.1758Z" fill="#1E1E1E"/>
</svg>
