<svg width="353" height="120" viewBox="0 0 353 120" fill="none" xmlns="http://www.w3.org/2000/svg">
<rect x="0.783871" y="0.783871" width="98.4323" height="98.4323" rx="3.13548" fill="#FAFAFA"/>
<rect x="0.783871" y="0.783871" width="98.4323" height="98.4323" rx="3.13548" stroke="#5D59FF" stroke-width="1.56774"/>
<g clip-path="url(#clip0_689_14521)">
<rect width="44.6429" height="29.0178" transform="translate(30.2412 32.9999)" fill="#D1CFFF"/>
<rect width="44.6429" height="4.46428" transform="translate(30.2412 32.9999)" fill="#1E1E1E"/>
<ellipse cx="32.4733" cy="35.2321" rx="0.446429" ry="0.446428" fill="#D1CFFF"/>
<ellipse cx="34.2589" cy="35.2322" rx="0.446429" ry="0.446428" fill="#D1CFFF"/>
<ellipse cx="36.0446" cy="35.2322" rx="0.446429" ry="0.446428" fill="#D1CFFF"/>
</g>
<g clip-path="url(#clip1_689_14521)">
<rect width="44.6429" height="29.0178" transform="translate(24.8838 38.3568)" fill="#5D59FF"/>
<rect width="44.6429" height="4.46428" transform="translate(24.8838 38.3568)" fill="#1E1E1E"/>
<ellipse cx="27.1159" cy="40.5891" rx="0.446429" ry="0.446428" fill="#D1CFFF"/>
<ellipse cx="28.9015" cy="40.5891" rx="0.446429" ry="0.446428" fill="#D1CFFF"/>
<ellipse cx="30.6872" cy="40.5891" rx="0.446429" ry="0.446428" fill="#D1CFFF"/>
<line x1="46.3125" y1="49.0713" x2="58.3661" y2="49.0713" stroke="#353395" stroke-width="0.892856"/>
<line x1="46.3125" y1="51.7497" x2="67.7411" y2="51.7497" stroke="#1E1E1E" stroke-width="0.892856"/>
<line x1="58.8125" y1="54.4283" x2="67.7411" y2="54.4283" stroke="#1E1E1E" stroke-width="0.892856"/>
<line x1="46.3125" y1="57.1069" x2="67.7411" y2="57.1069" stroke="#1E1E1E" stroke-width="0.892856"/>
<line x1="46.3125" y1="59.7855" x2="56.5804" y2="59.7855" stroke="#1E1E1E" stroke-width="0.892856"/>
<line x1="57.4731" y1="59.7855" x2="67.741" y2="59.7855" stroke="#1E1E1E" stroke-width="0.892856"/>
<rect width="17.8571" height="17.8571" transform="translate(26.6694 44.6069)" fill="#5D59FF"/>
<line y1="-0.328944" x2="7.92202" y2="-0.328944" transform="matrix(-0.664367 0.747407 -0.747412 -0.664361 38.23 50.4108)" stroke="#FAFAFA" stroke-width="0.657888"/>
<path d="M33.2956 51.8233L29.8599 52.1711L32.2723 54.6867" stroke="#FAFAFA" stroke-width="0.657888" stroke-linecap="square" stroke-linejoin="round"/>
<path d="M38.9243 52.7133L41.3367 55.2289L37.901 55.5767" stroke="#FAFAFA" stroke-width="0.657888" stroke-linecap="square" stroke-linejoin="round"/>
</g>
<path d="M116.848 11.016H115.584L116.048 10.664V13.88L115.728 13.432L117.568 13.848V15H112.576V13.848L114.112 13.4L113.76 13.88V4.888L114.16 5.384L112.576 4.968V3.816L116.096 3.736H117.552C118.437 3.736 119.163 3.89067 119.728 4.2C120.293 4.49867 120.709 4.90933 120.976 5.432C121.253 5.95467 121.392 6.54667 121.392 7.208C121.392 7.92267 121.227 8.57333 120.896 9.16C120.576 9.736 120.08 10.1893 119.408 10.52C118.747 10.8507 117.893 11.016 116.848 11.016ZM117.184 5.368H115.696L116.048 5.016V9.72L115.584 9.368H116.864C117.579 9.368 118.123 9.176 118.496 8.792C118.869 8.408 119.056 7.896 119.056 7.256C119.056 6.66933 118.896 6.21067 118.576 5.88C118.267 5.53867 117.803 5.368 117.184 5.368ZM126.361 6.264C127.62 6.264 128.601 6.63733 129.305 7.384C130.009 8.13067 130.361 9.192 130.361 10.568C130.361 11.528 130.19 12.3547 129.849 13.048C129.508 13.7307 129.017 14.2587 128.377 14.632C127.737 15.0053 126.969 15.192 126.073 15.192C124.814 15.192 123.838 14.8187 123.145 14.072C122.462 13.3253 122.121 12.264 122.121 10.888C122.121 9.928 122.286 9.10667 122.617 8.424C122.958 7.73067 123.444 7.19733 124.073 6.824C124.702 6.45067 125.465 6.264 126.361 6.264ZM126.249 7.864C125.641 7.864 125.188 8.104 124.889 8.584C124.59 9.05333 124.441 9.784 124.441 10.776C124.441 11.768 124.585 12.488 124.873 12.936C125.161 13.3733 125.598 13.592 126.185 13.592C126.612 13.592 126.958 13.4853 127.225 13.272C127.492 13.0587 127.694 12.7333 127.833 12.296C127.972 11.8587 128.041 11.32 128.041 10.68C128.041 9.70933 127.892 9 127.593 8.552C127.294 8.09333 126.846 7.864 126.249 7.864ZM134.219 15.192C133.697 15.192 133.174 15.1333 132.651 15.016C132.139 14.9093 131.67 14.7493 131.243 14.536L131.675 13.128C132.059 13.32 132.454 13.464 132.859 13.56C133.265 13.656 133.654 13.704 134.027 13.704C134.369 13.704 134.673 13.6613 134.939 13.576C135.217 13.4907 135.435 13.3573 135.595 13.176C135.766 12.984 135.851 12.7387 135.851 12.44C135.851 12.2053 135.793 12.0027 135.675 11.832C135.558 11.6507 135.377 11.512 135.131 11.416C134.886 11.32 134.561 11.272 134.155 11.272H133.067V9.944H134.091C134.678 9.944 135.099 9.84267 135.355 9.64C135.622 9.43733 135.755 9.15467 135.755 8.792C135.755 8.39733 135.622 8.12 135.355 7.96C135.089 7.78933 134.747 7.704 134.331 7.704C134.097 7.704 133.841 7.73067 133.563 7.784C133.286 7.82667 133.003 7.88533 132.715 7.96L133.147 7.544L132.907 8.888H131.531L131.451 6.76C131.995 6.61067 132.539 6.49333 133.083 6.408C133.627 6.312 134.155 6.264 134.667 6.264C135.297 6.264 135.862 6.33867 136.363 6.488C136.865 6.63733 137.259 6.87733 137.547 7.208C137.846 7.528 137.995 7.94933 137.995 8.472C137.995 9.112 137.777 9.608 137.339 9.96C136.902 10.3013 136.257 10.52 135.403 10.616L135.323 10.44C136.315 10.4933 137.041 10.7013 137.499 11.064C137.958 11.4267 138.187 11.9227 138.187 12.552C138.187 13.16 137.995 13.6613 137.611 14.056C137.238 14.44 136.747 14.728 136.139 14.92C135.542 15.1013 134.902 15.192 134.219 15.192ZM138.961 18.68V17.528L140.321 17.08L140.033 17.464V7.752L140.289 8.056L138.961 7.656V6.504L141.777 6.376L142.033 7.768L141.777 7.64C142.278 7.192 142.763 6.85067 143.233 6.616C143.713 6.38133 144.209 6.264 144.721 6.264C145.339 6.264 145.883 6.42933 146.353 6.76C146.822 7.08 147.19 7.56 147.457 8.2C147.734 8.82933 147.873 9.60267 147.873 10.52C147.873 11.5547 147.697 12.4187 147.345 13.112C146.993 13.8053 146.497 14.328 145.857 14.68C145.227 15.0213 144.491 15.192 143.649 15.192C143.393 15.192 143.126 15.1707 142.849 15.128C142.571 15.096 142.283 15.048 141.985 14.984L142.273 14.728V17.464L142.033 17.128L143.521 17.528V18.68H138.961ZM143.361 13.608C144.118 13.608 144.667 13.352 145.009 12.84C145.361 12.328 145.537 11.6293 145.537 10.744C145.537 10.1573 145.467 9.656 145.329 9.24C145.19 8.81333 144.998 8.488 144.753 8.264C144.507 8.02933 144.203 7.912 143.841 7.912C143.563 7.912 143.27 7.98667 142.961 8.136C142.651 8.28533 142.331 8.51467 142.001 8.824L142.273 8.232V13.816L142.001 13.384C142.502 13.5333 142.955 13.608 143.361 13.608ZM153.111 6.264C154.37 6.264 155.351 6.63733 156.055 7.384C156.759 8.13067 157.111 9.192 157.111 10.568C157.111 11.528 156.94 12.3547 156.599 13.048C156.258 13.7307 155.767 14.2587 155.127 14.632C154.487 15.0053 153.719 15.192 152.823 15.192C151.564 15.192 150.588 14.8187 149.895 14.072C149.212 13.3253 148.871 12.264 148.871 10.888C148.871 9.928 149.036 9.10667 149.367 8.424C149.708 7.73067 150.194 7.19733 150.823 6.824C151.452 6.45067 152.215 6.264 153.111 6.264ZM152.999 7.864C152.391 7.864 151.938 8.104 151.639 8.584C151.34 9.05333 151.191 9.784 151.191 10.776C151.191 11.768 151.335 12.488 151.623 12.936C151.911 13.3733 152.348 13.592 152.935 13.592C153.362 13.592 153.708 13.4853 153.975 13.272C154.242 13.0587 154.444 12.7333 154.583 12.296C154.722 11.8587 154.791 11.32 154.791 10.68C154.791 9.70933 154.642 9 154.343 8.552C154.044 8.09333 153.596 7.864 152.999 7.864ZM162.457 15.176C161.476 15.176 160.676 14.936 160.057 14.456C159.449 13.976 159.001 13.2987 158.713 12.424C158.425 11.5493 158.281 10.52 158.281 9.336C158.281 8.248 158.399 7.28267 158.633 6.44C158.879 5.59733 159.257 4.888 159.769 4.312C160.281 3.72533 160.948 3.28267 161.769 2.984C162.601 2.67467 163.604 2.51467 164.777 2.504L164.345 2.888L164.633 1.672H166.057L166.073 4.376C165.135 4.376 164.34 4.408 163.689 4.472C163.039 4.52533 162.511 4.63733 162.105 4.808C161.7 4.968 161.391 5.208 161.177 5.528C160.964 5.848 160.815 6.27467 160.729 6.808C160.644 7.34133 160.601 8.01333 160.601 8.824C160.601 9.4 160.617 9.928 160.649 10.408C160.681 10.888 160.735 11.32 160.809 11.704C160.884 12.0773 160.996 12.392 161.145 12.648C161.295 12.904 161.481 13.1013 161.705 13.24C161.94 13.368 162.223 13.432 162.553 13.432C163.151 13.432 163.599 13.224 163.897 12.808C164.196 12.3813 164.345 11.7893 164.345 11.032C164.345 10.4347 164.26 9.944 164.089 9.56C163.929 9.176 163.711 8.888 163.433 8.696C163.156 8.504 162.836 8.408 162.473 8.408C162.153 8.408 161.817 8.48267 161.465 8.632C161.113 8.77067 160.761 8.97867 160.409 9.256L160.329 7.816C160.809 7.44267 161.3 7.16533 161.801 6.984C162.313 6.792 162.804 6.696 163.273 6.696C163.903 6.696 164.473 6.85067 164.985 7.16C165.497 7.46933 165.903 7.92267 166.201 8.52C166.511 9.11733 166.665 9.85867 166.665 10.744C166.665 11.6933 166.484 12.4987 166.121 13.16C165.759 13.8213 165.263 14.3227 164.633 14.664C164.004 15.0053 163.279 15.176 162.457 15.176ZM167.589 15V13.848L168.933 13.464L168.661 13.88V7.592L168.981 8.024L167.589 7.656V6.504L171.829 6.392V7.544L170.677 7.928L170.901 7.592V10.2L170.533 9.736H172.661L171.973 10.136L173.573 7.64L173.733 7.88L172.613 7.656V6.52L176.501 6.392V7.528L175.173 7.832L175.765 7.496L173.637 10.712L173.829 10.136L175.877 13.816L175.573 13.544L176.789 13.864V15H174.165L172.165 11.16L172.501 11.224H170.533L170.901 11.16V13.88L170.661 13.448L171.989 13.848V15H167.589ZM184.29 13.864L183.986 13.416L185.362 13.848V14.984L182.562 15.128L182.258 13.592L182.418 13.64C181.991 14.1627 181.527 14.552 181.026 14.808C180.525 15.064 180.007 15.192 179.474 15.192C178.791 15.192 178.226 14.9733 177.778 14.536C177.33 14.0987 177.106 13.4693 177.106 12.648C177.106 12.04 177.234 11.56 177.49 11.208C177.757 10.8453 178.141 10.584 178.642 10.424C179.143 10.264 179.751 10.184 180.466 10.184H182.21L182.05 10.36V9.304C182.05 8.80267 181.927 8.44533 181.682 8.232C181.447 8.01867 181.101 7.912 180.642 7.912C180.418 7.912 180.178 7.93333 179.922 7.976C179.666 8.01867 179.389 8.08267 179.09 8.168L179.314 7.928L179.106 9.224H177.714L177.586 6.888C178.311 6.67467 178.973 6.52 179.57 6.424C180.178 6.31733 180.733 6.264 181.234 6.264C182.226 6.264 182.983 6.47733 183.506 6.904C184.029 7.33067 184.29 7.992 184.29 8.888V13.864ZM179.362 12.424C179.362 12.8187 179.453 13.112 179.634 13.304C179.826 13.4853 180.066 13.576 180.354 13.576C180.621 13.576 180.914 13.496 181.234 13.336C181.554 13.1653 181.858 12.936 182.146 12.648L182.05 13.032V11.208L182.21 11.368H180.834C180.279 11.368 179.895 11.4533 179.682 11.624C179.469 11.7947 179.362 12.0613 179.362 12.424ZM188.886 15V13.848L190.39 13.384L189.958 14.088V7.368L190.534 8.184L188.886 7.656V6.504L192.15 6.456H198.662V7.592L197.158 8.136L197.59 7.32V14.088L197.158 13.384L198.662 13.848V15H194.39V13.848L195.718 13.448L195.35 14.088V7.528L195.942 8.104H191.622L192.198 7.528V14.088L191.83 13.448L193.158 13.848V15H188.886ZM199.445 18.68V17.528L200.805 17.08L200.517 17.464V7.752L200.773 8.056L199.445 7.656V6.504L202.261 6.376L202.517 7.768L202.261 7.64C202.762 7.192 203.248 6.85067 203.717 6.616C204.197 6.38133 204.693 6.264 205.205 6.264C205.824 6.264 206.368 6.42933 206.837 6.76C207.306 7.08 207.674 7.56 207.941 8.2C208.218 8.82933 208.357 9.60267 208.357 10.52C208.357 11.5547 208.181 12.4187 207.829 13.112C207.477 13.8053 206.981 14.328 206.341 14.68C205.712 15.0213 204.976 15.192 204.133 15.192C203.877 15.192 203.61 15.1707 203.333 15.128C203.056 15.096 202.768 15.048 202.469 14.984L202.757 14.728V17.464L202.517 17.128L204.005 17.528V18.68H199.445ZM203.845 13.608C204.602 13.608 205.152 13.352 205.493 12.84C205.845 12.328 206.021 11.6293 206.021 10.744C206.021 10.1573 205.952 9.656 205.813 9.24C205.674 8.81333 205.482 8.488 205.237 8.264C204.992 8.02933 204.688 7.912 204.325 7.912C204.048 7.912 203.754 7.98667 203.445 8.136C203.136 8.28533 202.816 8.51467 202.485 8.824L202.757 8.232V13.816L202.485 13.384C202.986 13.5333 203.44 13.608 203.845 13.608ZM213.595 6.264C214.854 6.264 215.835 6.63733 216.539 7.384C217.243 8.13067 217.595 9.192 217.595 10.568C217.595 11.528 217.425 12.3547 217.083 13.048C216.742 13.7307 216.251 14.2587 215.611 14.632C214.971 15.0053 214.203 15.192 213.307 15.192C212.049 15.192 211.073 14.8187 210.379 14.072C209.697 13.3253 209.355 12.264 209.355 10.888C209.355 9.928 209.521 9.10667 209.851 8.424C210.193 7.73067 210.678 7.19733 211.307 6.824C211.937 6.45067 212.699 6.264 213.595 6.264ZM213.483 7.864C212.875 7.864 212.422 8.104 212.123 8.584C211.825 9.05333 211.675 9.784 211.675 10.776C211.675 11.768 211.819 12.488 212.107 12.936C212.395 13.3733 212.833 13.592 213.419 13.592C213.846 13.592 214.193 13.4853 214.459 13.272C214.726 13.0587 214.929 12.7333 215.067 12.296C215.206 11.8587 215.275 11.32 215.275 10.68C215.275 9.70933 215.126 9 214.827 8.552C214.529 8.09333 214.081 7.864 213.483 7.864ZM225.982 6.456L225.902 9.832H224.542L224.27 7.816L224.558 8.104H221.758L221.87 7.848V13.816L221.614 13.48L223.23 13.848V15H218.558V13.848L219.854 13.48L219.63 13.816V7.672L219.886 8.056L218.558 7.656V6.504L221.374 6.456H225.982ZM226.445 18.68V17.528L227.805 17.08L227.517 17.464V7.752L227.773 8.056L226.445 7.656V6.504L229.261 6.376L229.517 7.768L229.261 7.64C229.762 7.192 230.248 6.85067 230.717 6.616C231.197 6.38133 231.693 6.264 232.205 6.264C232.824 6.264 233.368 6.42933 233.837 6.76C234.306 7.08 234.674 7.56 234.941 8.2C235.218 8.82933 235.357 9.60267 235.357 10.52C235.357 11.5547 235.181 12.4187 234.829 13.112C234.477 13.8053 233.981 14.328 233.341 14.68C232.712 15.0213 231.976 15.192 231.133 15.192C230.877 15.192 230.61 15.1707 230.333 15.128C230.056 15.096 229.768 15.048 229.469 14.984L229.757 14.728V17.464L229.517 17.128L231.005 17.528V18.68H226.445ZM230.845 13.608C231.602 13.608 232.152 13.352 232.493 12.84C232.845 12.328 233.021 11.6293 233.021 10.744C233.021 10.1573 232.952 9.656 232.813 9.24C232.674 8.81333 232.482 8.488 232.237 8.264C231.992 8.02933 231.688 7.912 231.325 7.912C231.048 7.912 230.754 7.98667 230.445 8.136C230.136 8.28533 229.816 8.51467 229.485 8.824L229.757 8.232V13.816L229.485 13.384C229.986 13.5333 230.44 13.608 230.845 13.608ZM243.571 13.864L243.267 13.416L244.643 13.848V14.984L241.843 15.128L241.539 13.592L241.699 13.64C241.273 14.1627 240.809 14.552 240.307 14.808C239.806 15.064 239.289 15.192 238.755 15.192C238.073 15.192 237.507 14.9733 237.059 14.536C236.611 14.0987 236.387 13.4693 236.387 12.648C236.387 12.04 236.515 11.56 236.771 11.208C237.038 10.8453 237.422 10.584 237.923 10.424C238.425 10.264 239.033 10.184 239.747 10.184H241.491L241.331 10.36V9.304C241.331 8.80267 241.209 8.44533 240.963 8.232C240.729 8.01867 240.382 7.912 239.923 7.912C239.699 7.912 239.459 7.93333 239.203 7.976C238.947 8.01867 238.67 8.08267 238.371 8.168L238.595 7.928L238.387 9.224H236.995L236.867 6.888C237.593 6.67467 238.254 6.52 238.851 6.424C239.459 6.31733 240.014 6.264 240.515 6.264C241.507 6.264 242.265 6.47733 242.787 6.904C243.31 7.33067 243.571 7.992 243.571 8.888V13.864ZM238.643 12.424C238.643 12.8187 238.734 13.112 238.915 13.304C239.107 13.4853 239.347 13.576 239.635 13.576C239.902 13.576 240.195 13.496 240.515 13.336C240.835 13.1653 241.139 12.936 241.427 12.648L241.331 13.032V11.208L241.491 11.368H240.115C239.561 11.368 239.177 11.4533 238.963 11.624C238.75 11.7947 238.643 12.0613 238.643 12.424ZM247.756 8.424H248.076V13.912L247.884 13.496L249.036 13.848V15H245.292V13.848L246.604 13.464L246.364 13.912V7.512L246.7 8.088L245.292 7.656V6.504L248.796 6.392L251.324 12.024H250.364L252.908 6.504L256.364 6.392V7.544L254.94 8.04L255.308 7.48V13.896L255.068 13.464L256.364 13.848V15H252.444V13.848L253.596 13.464L253.356 13.816V8.264H253.692L251.212 13.576L250.188 13.624L247.756 8.424ZM257.292 15V13.848L258.796 13.384L258.364 14.088V7.464L258.94 8.168L257.292 7.656V6.504L261.596 6.392V7.544L260.124 8.056L260.604 7.4V10.36L260.028 9.768H264.396L263.82 10.36V7.464L264.172 8.024L262.828 7.656V6.504L267.116 6.392V7.544L265.612 8.056L266.06 7.4V14.088L265.628 13.384L267.116 13.848V15H262.828V13.848L264.188 13.448L263.82 14.088V10.76L264.396 11.368H260.028L260.604 10.76V14.088L260.236 13.448L261.596 13.848V15H257.292ZM272.314 6.264C273.573 6.264 274.554 6.63733 275.258 7.384C275.962 8.13067 276.314 9.192 276.314 10.568C276.314 11.528 276.143 12.3547 275.802 13.048C275.461 13.7307 274.97 14.2587 274.33 14.632C273.69 15.0053 272.922 15.192 272.026 15.192C270.767 15.192 269.791 14.8187 269.098 14.072C268.415 13.3253 268.074 12.264 268.074 10.888C268.074 9.928 268.239 9.10667 268.57 8.424C268.911 7.73067 269.397 7.19733 270.026 6.824C270.655 6.45067 271.418 6.264 272.314 6.264ZM272.202 7.864C271.594 7.864 271.141 8.104 270.842 8.584C270.543 9.05333 270.394 9.784 270.394 10.776C270.394 11.768 270.538 12.488 270.826 12.936C271.114 13.3733 271.551 13.592 272.138 13.592C272.565 13.592 272.911 13.4853 273.178 13.272C273.445 13.0587 273.647 12.7333 273.786 12.296C273.925 11.8587 273.994 11.32 273.994 10.68C273.994 9.70933 273.845 9 273.546 8.552C273.247 8.09333 272.799 7.864 272.202 7.864ZM284.701 6.456L284.621 9.832H283.261L282.989 7.816L283.277 8.104H280.477L280.589 7.848V13.816L280.333 13.48L281.949 13.848V15H277.277V13.848L278.573 13.48L278.349 13.816V7.672L278.605 8.056L277.277 7.656V6.504L280.093 6.456H284.701ZM289.408 6.264C290.667 6.264 291.648 6.63733 292.352 7.384C293.056 8.13067 293.408 9.192 293.408 10.568C293.408 11.528 293.237 12.3547 292.896 13.048C292.555 13.7307 292.064 14.2587 291.424 14.632C290.784 15.0053 290.016 15.192 289.12 15.192C287.861 15.192 286.885 14.8187 286.192 14.072C285.509 13.3253 285.168 12.264 285.168 10.888C285.168 9.928 285.333 9.10667 285.664 8.424C286.005 7.73067 286.491 7.19733 287.12 6.824C287.749 6.45067 288.512 6.264 289.408 6.264ZM289.296 7.864C288.688 7.864 288.235 8.104 287.936 8.584C287.637 9.05333 287.488 9.784 287.488 10.776C287.488 11.768 287.632 12.488 287.92 12.936C288.208 13.3733 288.645 13.592 289.232 13.592C289.659 13.592 290.005 13.4853 290.272 13.272C290.539 13.0587 290.741 12.7333 290.88 12.296C291.019 11.8587 291.088 11.32 291.088 10.68C291.088 9.70933 290.939 9 290.64 8.552C290.341 8.09333 289.893 7.864 289.296 7.864ZM115.36 35.192C114.837 35.192 114.315 35.1333 113.792 35.016C113.28 34.9093 112.811 34.7493 112.384 34.536L112.816 33.128C113.2 33.32 113.595 33.464 114 33.56C114.405 33.656 114.795 33.704 115.168 33.704C115.509 33.704 115.813 33.6613 116.08 33.576C116.357 33.4907 116.576 33.3573 116.736 33.176C116.907 32.984 116.992 32.7387 116.992 32.44C116.992 32.2053 116.933 32.0027 116.816 31.832C116.699 31.6507 116.517 31.512 116.272 31.416C116.027 31.32 115.701 31.272 115.296 31.272H114.208V29.944H115.232C115.819 29.944 116.24 29.8427 116.496 29.64C116.763 29.4373 116.896 29.1547 116.896 28.792C116.896 28.3973 116.763 28.12 116.496 27.96C116.229 27.7893 115.888 27.704 115.472 27.704C115.237 27.704 114.981 27.7307 114.704 27.784C114.427 27.8267 114.144 27.8853 113.856 27.96L114.288 27.544L114.048 28.888H112.672L112.592 26.76C113.136 26.6107 113.68 26.4933 114.224 26.408C114.768 26.312 115.296 26.264 115.808 26.264C116.437 26.264 117.003 26.3387 117.504 26.488C118.005 26.6373 118.4 26.8773 118.688 27.208C118.987 27.528 119.136 27.9493 119.136 28.472C119.136 29.112 118.917 29.608 118.48 29.96C118.043 30.3013 117.397 30.52 116.544 30.616L116.464 30.44C117.456 30.4933 118.181 30.7013 118.64 31.064C119.099 31.4267 119.328 31.9227 119.328 32.552C119.328 33.16 119.136 33.6613 118.752 34.056C118.379 34.44 117.888 34.728 117.28 34.92C116.683 35.1013 116.043 35.192 115.36 35.192ZM127.571 33.864L127.267 33.416L128.643 33.848V34.984L125.843 35.128L125.539 33.592L125.699 33.64C125.273 34.1627 124.809 34.552 124.307 34.808C123.806 35.064 123.289 35.192 122.755 35.192C122.073 35.192 121.507 34.9733 121.059 34.536C120.611 34.0987 120.387 33.4693 120.387 32.648C120.387 32.04 120.515 31.56 120.771 31.208C121.038 30.8453 121.422 30.584 121.923 30.424C122.425 30.264 123.033 30.184 123.747 30.184H125.491L125.331 30.36V29.304C125.331 28.8027 125.209 28.4453 124.963 28.232C124.729 28.0187 124.382 27.912 123.923 27.912C123.699 27.912 123.459 27.9333 123.203 27.976C122.947 28.0187 122.67 28.0827 122.371 28.168L122.595 27.928L122.387 29.224H120.995L120.867 26.888C121.593 26.6747 122.254 26.52 122.851 26.424C123.459 26.3173 124.014 26.264 124.515 26.264C125.507 26.264 126.265 26.4773 126.787 26.904C127.31 27.3307 127.571 27.992 127.571 28.888V33.864ZM122.643 32.424C122.643 32.8187 122.734 33.112 122.915 33.304C123.107 33.4853 123.347 33.576 123.635 33.576C123.902 33.576 124.195 33.496 124.515 33.336C124.835 33.1653 125.139 32.936 125.427 32.648L125.331 33.032V31.208L125.491 31.368H124.115C123.561 31.368 123.177 31.4533 122.963 31.624C122.75 31.7947 122.643 32.0613 122.643 32.424ZM133.676 35.176C132.695 35.176 131.895 34.936 131.276 34.456C130.668 33.976 130.22 33.2987 129.932 32.424C129.644 31.5493 129.5 30.52 129.5 29.336C129.5 28.248 129.617 27.2827 129.852 26.44C130.097 25.5973 130.476 24.888 130.988 24.312C131.5 23.7253 132.167 23.2827 132.988 22.984C133.82 22.6747 134.823 22.5147 135.996 22.504L135.564 22.888L135.852 21.672H137.276L137.292 24.376C136.353 24.376 135.559 24.408 134.908 24.472C134.257 24.5253 133.729 24.6373 133.324 24.808C132.919 24.968 132.609 25.208 132.396 25.528C132.183 25.848 132.033 26.2747 131.948 26.808C131.863 27.3413 131.82 28.0133 131.82 28.824C131.82 29.4 131.836 29.928 131.868 30.408C131.9 30.888 131.953 31.32 132.028 31.704C132.103 32.0773 132.215 32.392 132.364 32.648C132.513 32.904 132.7 33.1013 132.924 33.24C133.159 33.368 133.441 33.432 133.772 33.432C134.369 33.432 134.817 33.224 135.116 32.808C135.415 32.3813 135.564 31.7893 135.564 31.032C135.564 30.4347 135.479 29.944 135.308 29.56C135.148 29.176 134.929 28.888 134.652 28.696C134.375 28.504 134.055 28.408 133.692 28.408C133.372 28.408 133.036 28.4827 132.684 28.632C132.332 28.7707 131.98 28.9787 131.628 29.256L131.548 27.816C132.028 27.4427 132.519 27.1653 133.02 26.984C133.532 26.792 134.023 26.696 134.492 26.696C135.121 26.696 135.692 26.8507 136.204 27.16C136.716 27.4693 137.121 27.9227 137.42 28.52C137.729 29.1173 137.884 29.8587 137.884 30.744C137.884 31.6933 137.703 32.4987 137.34 33.16C136.977 33.8213 136.481 34.3227 135.852 34.664C135.223 35.0053 134.497 35.176 133.676 35.176ZM142.744 35.192C141.965 35.192 141.282 35.032 140.696 34.712C140.109 34.3813 139.65 33.896 139.32 33.256C139 32.6053 138.84 31.816 138.84 30.888C138.84 29.928 139.01 29.1067 139.352 28.424C139.704 27.7307 140.194 27.1973 140.824 26.824C141.453 26.4507 142.194 26.264 143.048 26.264C143.88 26.264 144.557 26.4293 145.08 26.76C145.602 27.0907 145.986 27.544 146.232 28.12C146.477 28.6853 146.6 29.3253 146.6 30.04C146.6 30.2213 146.589 30.4027 146.568 30.584C146.557 30.7653 146.536 30.9573 146.504 31.16H140.648V29.832H144.584L144.296 30.04C144.306 29.6133 144.264 29.24 144.168 28.92C144.082 28.5893 143.933 28.3333 143.72 28.152C143.517 27.9707 143.234 27.88 142.872 27.88C142.456 27.88 142.12 28.0027 141.864 28.248C141.608 28.4827 141.421 28.8027 141.304 29.208C141.197 29.6133 141.144 30.0667 141.144 30.568C141.144 31.1333 141.213 31.64 141.352 32.088C141.49 32.536 141.714 32.888 142.024 33.144C142.344 33.4 142.76 33.528 143.272 33.528C143.634 33.528 144.024 33.464 144.44 33.336C144.866 33.1973 145.309 32.9947 145.768 32.728L146.52 33.928C145.901 34.3547 145.266 34.6747 144.616 34.888C143.976 35.0907 143.352 35.192 142.744 35.192ZM150.235 35.192C149.712 35.192 149.19 35.1333 148.667 35.016C148.155 34.9093 147.686 34.7493 147.259 34.536L147.691 33.128C148.075 33.32 148.47 33.464 148.875 33.56C149.28 33.656 149.67 33.704 150.043 33.704C150.384 33.704 150.688 33.6613 150.955 33.576C151.232 33.4907 151.451 33.3573 151.611 33.176C151.782 32.984 151.867 32.7387 151.867 32.44C151.867 32.2053 151.808 32.0027 151.691 31.832C151.574 31.6507 151.392 31.512 151.147 31.416C150.902 31.32 150.576 31.272 150.171 31.272H149.083V29.944H150.107C150.694 29.944 151.115 29.8427 151.371 29.64C151.638 29.4373 151.771 29.1547 151.771 28.792C151.771 28.3973 151.638 28.12 151.371 27.96C151.104 27.7893 150.763 27.704 150.347 27.704C150.112 27.704 149.856 27.7307 149.579 27.784C149.302 27.8267 149.019 27.8853 148.731 27.96L149.163 27.544L148.923 28.888H147.547L147.467 26.76C148.011 26.6107 148.555 26.4933 149.099 26.408C149.643 26.312 150.171 26.264 150.683 26.264C151.312 26.264 151.878 26.3387 152.379 26.488C152.88 26.6373 153.275 26.8773 153.563 27.208C153.862 27.528 154.011 27.9493 154.011 28.472C154.011 29.112 153.792 29.608 153.355 29.96C152.918 30.3013 152.272 30.52 151.419 30.616L151.339 30.44C152.331 30.4933 153.056 30.7013 153.515 31.064C153.974 31.4267 154.203 31.9227 154.203 32.552C154.203 33.16 154.011 33.6613 153.627 34.056C153.254 34.44 152.763 34.728 152.155 34.92C151.558 35.1013 150.918 35.192 150.235 35.192ZM155.12 35V33.848L156.624 33.384L156.192 34.088V27.368L156.768 28.184L155.12 27.656V26.504L158.384 26.456H164.896V27.592L163.392 28.136L163.824 27.32V34.088L163.392 33.384L164.896 33.848V35H160.624V33.848L161.952 33.448L161.584 34.088V27.528L162.176 28.104H157.856L158.432 27.528V34.088L158.064 33.448L159.392 33.848V35H155.12ZM169.759 35.192C168.981 35.192 168.298 35.032 167.711 34.712C167.125 34.3813 166.666 33.896 166.335 33.256C166.015 32.6053 165.855 31.816 165.855 30.888C165.855 29.928 166.026 29.1067 166.367 28.424C166.719 27.7307 167.21 27.1973 167.839 26.824C168.469 26.4507 169.21 26.264 170.063 26.264C170.895 26.264 171.573 26.4293 172.095 26.76C172.618 27.0907 173.002 27.544 173.247 28.12C173.493 28.6853 173.615 29.3253 173.615 30.04C173.615 30.2213 173.605 30.4027 173.583 30.584C173.573 30.7653 173.551 30.9573 173.519 31.16H167.663V29.832H171.599L171.311 30.04C171.322 29.6133 171.279 29.24 171.183 28.92C171.098 28.5893 170.949 28.3333 170.735 28.152C170.533 27.9707 170.25 27.88 169.887 27.88C169.471 27.88 169.135 28.0027 168.879 28.248C168.623 28.4827 168.437 28.8027 168.319 29.208C168.213 29.6133 168.159 30.0667 168.159 30.568C168.159 31.1333 168.229 31.64 168.367 32.088C168.506 32.536 168.73 32.888 169.039 33.144C169.359 33.4 169.775 33.528 170.287 33.528C170.65 33.528 171.039 33.464 171.455 33.336C171.882 33.1973 172.325 32.9947 172.783 32.728L173.535 33.928C172.917 34.3547 172.282 34.6747 171.631 34.888C170.991 35.0907 170.367 35.192 169.759 35.192ZM174.868 27.592L175.445 28.168L173.812 27.656V26.504L178.021 26.392V27.544L176.629 28.056L177.109 27.592V29.048C177.109 29.6133 177.226 30.0187 177.461 30.264C177.695 30.4987 178.042 30.616 178.501 30.616C178.735 30.616 179.002 30.5893 179.301 30.536C179.599 30.472 179.925 30.3973 180.277 30.312L179.909 30.728V27.592L180.261 28.024L178.997 27.656V26.504L183.205 26.392V27.544L181.701 28.056L182.149 27.592V33.88L181.717 33.4L183.205 33.848V35H178.549V33.848L180.277 33.448L179.909 33.88V31.144L180.277 31.704C179.797 31.864 179.338 31.9867 178.901 32.072C178.463 32.1573 178.058 32.2 177.685 32.2C176.842 32.2 176.159 31.976 175.637 31.528C175.125 31.08 174.868 30.3707 174.868 29.4V27.592ZM188.072 35.192C187.293 35.192 186.611 35.032 186.024 34.712C185.437 34.3813 184.979 33.896 184.648 33.256C184.328 32.6053 184.168 31.816 184.168 30.888C184.168 29.928 184.339 29.1067 184.68 28.424C185.032 27.7307 185.523 27.1973 186.152 26.824C186.781 26.4507 187.523 26.264 188.376 26.264C189.208 26.264 189.885 26.4293 190.408 26.76C190.931 27.0907 191.315 27.544 191.56 28.12C191.805 28.6853 191.928 29.3253 191.928 30.04C191.928 30.2213 191.917 30.4027 191.896 30.584C191.885 30.7653 191.864 30.9573 191.832 31.16H185.976V29.832H189.912L189.624 30.04C189.635 29.6133 189.592 29.24 189.496 28.92C189.411 28.5893 189.261 28.3333 189.048 28.152C188.845 27.9707 188.563 27.88 188.2 27.88C187.784 27.88 187.448 28.0027 187.192 28.248C186.936 28.4827 186.749 28.8027 186.632 29.208C186.525 29.6133 186.472 30.0667 186.472 30.568C186.472 31.1333 186.541 31.64 186.68 32.088C186.819 32.536 187.043 32.888 187.352 33.144C187.672 33.4 188.088 33.528 188.6 33.528C188.963 33.528 189.352 33.464 189.768 33.336C190.195 33.1973 190.637 32.9947 191.096 32.728L191.848 33.928C191.229 34.3547 190.595 34.6747 189.944 34.888C189.304 35.0907 188.68 35.192 188.072 35.192ZM192.933 35V33.848L194.437 33.384L194.005 34.088V27.464L194.581 28.168L192.933 27.656V26.504L197.237 26.392V27.544L195.765 28.056L196.245 27.4V30.36L195.669 29.768H200.037L199.461 30.36V27.464L199.813 28.024L198.469 27.656V26.504L202.757 26.392V27.544L201.253 28.056L201.701 27.4V34.088L201.269 33.384L202.757 33.848V35H198.469V33.848L199.829 33.448L199.461 34.088V30.76L200.037 31.368H195.669L196.245 30.76V34.088L195.877 33.448L197.237 33.848V35H192.933ZM203.683 35V33.848L205.187 33.384L204.755 34.088V27.464L205.331 28.168L203.683 27.656V26.504L207.987 26.392V27.544L206.515 28.056L206.995 27.4V30.36L206.419 29.768H210.787L210.211 30.36V27.464L210.563 28.024L209.219 27.656V26.504L213.507 26.392V27.544L212.003 28.056L212.451 27.4V34.088L212.019 33.384L213.507 33.848V35H209.219V33.848L210.579 33.448L210.211 34.088V30.76L210.787 31.368H206.419L206.995 30.76V34.088L206.627 33.448L207.987 33.848V35H203.683ZM214.129 35V33.864L215.377 33.528L215.025 33.848L215.649 32.392C215.798 32.04 216.022 31.7893 216.321 31.64C216.63 31.4907 216.998 31.4107 217.425 31.4L217.681 31.56C216.795 31.5387 216.129 31.32 215.681 30.904C215.243 30.4773 215.025 29.9013 215.025 29.176C215.025 28.6 215.142 28.1093 215.377 27.704C215.622 27.2987 215.985 26.9893 216.465 26.776C216.945 26.5627 217.531 26.456 218.225 26.456H222.769V27.592L221.473 28.008L221.697 27.816V33.768L221.505 33.48L222.769 33.848V35H218.497V33.848L219.649 33.528L219.457 33.784V31.64L219.633 31.832H218.801C218.502 31.832 218.257 31.9013 218.065 32.04C217.883 32.168 217.734 32.392 217.617 32.712L216.801 35H214.129ZM219.457 30.728V27.704L219.649 27.896H218.545C218.15 27.896 217.83 27.992 217.585 28.184C217.339 28.376 217.217 28.7067 217.217 29.176C217.217 29.656 217.339 29.9973 217.585 30.2C217.83 30.4027 218.198 30.504 218.689 30.504H219.633L219.457 30.728Z" fill="#1E1E1E"/>
<path d="M116.834 57.1895C116.361 57.1895 115.936 57.2715 115.557 57.4355C115.182 57.5957 114.861 57.8301 114.596 58.1387C114.334 58.4434 114.133 58.8125 113.992 59.2461C113.852 59.6797 113.781 60.168 113.781 60.7109C113.781 61.4297 113.893 62.0547 114.115 62.5859C114.342 63.1133 114.678 63.5215 115.123 63.8105C115.572 64.0996 116.133 64.2441 116.805 64.2441C117.188 64.2441 117.547 64.2129 117.883 64.1504C118.223 64.084 118.553 64.002 118.873 63.9043V64.7715C118.561 64.8887 118.232 64.9746 117.889 65.0293C117.545 65.0879 117.137 65.1172 116.664 65.1172C115.793 65.1172 115.064 64.9375 114.479 64.5781C113.896 64.2148 113.459 63.7031 113.166 63.043C112.877 62.3828 112.732 61.6035 112.732 60.7051C112.732 60.0566 112.822 59.4648 113.002 58.9297C113.186 58.3906 113.451 57.9258 113.799 57.5352C114.15 57.1445 114.58 56.8438 115.088 56.6328C115.6 56.418 116.186 56.3105 116.846 56.3105C117.279 56.3105 117.697 56.3535 118.1 56.4395C118.502 56.5254 118.865 56.6484 119.189 56.8086L118.791 57.6523C118.518 57.5273 118.217 57.4199 117.889 57.3301C117.564 57.2363 117.213 57.1895 116.834 57.1895ZM124.961 59.4043H122.846V65H121.885V59.4043H119.799V58.5781H124.961V59.4043ZM131.336 60.1895C131.336 60.5918 131.219 60.9062 130.984 61.1328C130.75 61.3555 130.447 61.5059 130.076 61.584V61.6309C130.479 61.6855 130.824 61.8301 131.113 62.0645C131.406 62.2949 131.553 62.6484 131.553 63.125C131.553 63.4922 131.465 63.8164 131.289 64.0977C131.113 64.3789 130.838 64.5996 130.463 64.7598C130.088 64.9199 129.6 65 128.998 65H126.232V58.5781H128.975C129.436 58.5781 129.842 58.6309 130.193 58.7363C130.549 58.8379 130.828 59.0059 131.031 59.2402C131.234 59.4746 131.336 59.791 131.336 60.1895ZM130.539 63.125C130.539 62.7461 130.395 62.4727 130.105 62.3047C129.82 62.1367 129.404 62.0527 128.857 62.0527H127.211V64.209H128.881C129.42 64.209 129.83 64.127 130.111 63.9629C130.396 63.7949 130.539 63.5156 130.539 63.125ZM130.346 60.3008C130.346 59.9961 130.234 59.7695 130.012 59.6211C129.789 59.4688 129.424 59.3926 128.916 59.3926H127.211V61.2383H128.746C129.273 61.2383 129.672 61.1621 129.941 61.0098C130.211 60.8574 130.346 60.6211 130.346 60.3008ZM138.66 61.7773C138.66 62.3047 138.592 62.7754 138.455 63.1895C138.318 63.6035 138.121 63.9531 137.863 64.2383C137.605 64.5234 137.293 64.7422 136.926 64.8945C136.562 65.043 136.15 65.1172 135.689 65.1172C135.26 65.1172 134.865 65.043 134.506 64.8945C134.15 64.7422 133.842 64.5234 133.58 64.2383C133.322 63.9531 133.121 63.6035 132.977 63.1895C132.836 62.7754 132.766 62.3047 132.766 61.7773C132.766 61.0742 132.885 60.4766 133.123 59.9844C133.361 59.4883 133.701 59.1113 134.143 58.8535C134.588 58.5918 135.117 58.4609 135.73 58.4609C136.316 58.4609 136.828 58.5918 137.266 58.8535C137.707 59.1152 138.049 59.4941 138.291 59.9902C138.537 60.4824 138.66 61.0781 138.66 61.7773ZM133.773 61.7773C133.773 62.293 133.842 62.7402 133.979 63.1191C134.115 63.498 134.326 63.791 134.611 63.998C134.896 64.2051 135.264 64.3086 135.713 64.3086C136.158 64.3086 136.523 64.2051 136.809 63.998C137.098 63.791 137.311 63.498 137.447 63.1191C137.584 62.7402 137.652 62.293 137.652 61.7773C137.652 61.2656 137.584 60.8242 137.447 60.4531C137.311 60.0781 137.1 59.7891 136.814 59.5859C136.529 59.3828 136.16 59.2812 135.707 59.2812C135.039 59.2812 134.549 59.502 134.236 59.9434C133.928 60.3848 133.773 60.9961 133.773 61.7773ZM143.359 58.4609C144.16 58.4609 144.799 58.7363 145.275 59.2871C145.752 59.8379 145.99 60.666 145.99 61.7715C145.99 62.502 145.881 63.1152 145.662 63.6113C145.443 64.1074 145.135 64.4824 144.736 64.7363C144.342 64.9902 143.875 65.1172 143.336 65.1172C142.996 65.1172 142.697 65.0723 142.439 64.9824C142.182 64.8926 141.961 64.7715 141.777 64.6191C141.594 64.4668 141.441 64.3008 141.32 64.1211H141.25C141.262 64.2734 141.275 64.457 141.291 64.6719C141.311 64.8867 141.32 65.0742 141.32 65.2344V67.8711H140.342V58.5781H141.145L141.273 59.5273H141.32C141.445 59.332 141.598 59.1543 141.777 58.9941C141.957 58.8301 142.176 58.7012 142.434 58.6074C142.695 58.5098 143.004 58.4609 143.359 58.4609ZM143.189 59.2812C142.744 59.2812 142.385 59.3672 142.111 59.5391C141.842 59.7109 141.645 59.9688 141.52 60.3125C141.395 60.6523 141.328 61.0801 141.32 61.5957V61.7832C141.32 62.3262 141.379 62.7852 141.496 63.1602C141.617 63.5352 141.814 63.8203 142.088 64.0156C142.365 64.2109 142.736 64.3086 143.201 64.3086C143.6 64.3086 143.932 64.2012 144.197 63.9863C144.463 63.7715 144.66 63.4727 144.789 63.0898C144.922 62.7031 144.988 62.2598 144.988 61.7598C144.988 61.002 144.84 60.4004 144.543 59.9551C144.25 59.5059 143.799 59.2812 143.189 59.2812ZM150.162 58.4609C150.709 58.4609 151.178 58.582 151.568 58.8242C151.959 59.0664 152.258 59.4062 152.465 59.8438C152.672 60.2773 152.775 60.7852 152.775 61.3672V61.9707H148.34C148.352 62.7246 148.539 63.2988 148.902 63.6934C149.266 64.0879 149.777 64.2852 150.438 64.2852C150.844 64.2852 151.203 64.248 151.516 64.1738C151.828 64.0996 152.152 63.9902 152.488 63.8457V64.7012C152.164 64.8457 151.842 64.9512 151.521 65.0176C151.205 65.084 150.83 65.1172 150.396 65.1172C149.779 65.1172 149.24 64.9922 148.779 64.7422C148.322 64.4883 147.967 64.1172 147.713 63.6289C147.459 63.1406 147.332 62.543 147.332 61.8359C147.332 61.1445 147.447 60.5469 147.678 60.043C147.912 59.5352 148.24 59.1445 148.662 58.8711C149.088 58.5977 149.588 58.4609 150.162 58.4609ZM150.15 59.2578C149.631 59.2578 149.217 59.4277 148.908 59.7676C148.6 60.1074 148.416 60.582 148.357 61.1914H151.756C151.752 60.8086 151.691 60.4727 151.574 60.1836C151.461 59.8906 151.287 59.6641 151.053 59.5039C150.818 59.3398 150.518 59.2578 150.15 59.2578ZM155.406 58.5781V61.2734H158.986V58.5781H159.959V65H158.986V62.0996H155.406V65H154.428V58.5781H155.406ZM163 58.5781V61.2734H166.58V58.5781H167.553V65H166.58V62.0996H163V65H162.021V58.5781H163ZM169.926 65H168.789L170.641 62.293C170.371 62.2344 170.121 62.1348 169.891 61.9941C169.66 61.8496 169.473 61.6523 169.328 61.4023C169.188 61.1523 169.117 60.8418 169.117 60.4707C169.117 59.8535 169.322 59.3848 169.732 59.0645C170.146 58.7402 170.691 58.5781 171.367 58.5781H174.209V65H173.236V62.4219H171.607L169.926 65ZM170.061 60.4766C170.061 60.8594 170.197 61.1445 170.471 61.332C170.744 61.5156 171.135 61.6074 171.643 61.6074H173.236V59.3926H171.473C170.973 59.3926 170.611 59.4941 170.389 59.6973C170.17 59.8965 170.061 60.1562 170.061 60.4766ZM184.756 58.5781V65H183.777V59.416H180.355V65H179.377V58.5781H184.756ZM189.836 58.4609C190.637 58.4609 191.275 58.7363 191.752 59.2871C192.229 59.8379 192.467 60.666 192.467 61.7715C192.467 62.502 192.357 63.1152 192.139 63.6113C191.92 64.1074 191.611 64.4824 191.213 64.7363C190.818 64.9902 190.352 65.1172 189.812 65.1172C189.473 65.1172 189.174 65.0723 188.916 64.9824C188.658 64.8926 188.438 64.7715 188.254 64.6191C188.07 64.4668 187.918 64.3008 187.797 64.1211H187.727C187.738 64.2734 187.752 64.457 187.768 64.6719C187.787 64.8867 187.797 65.0742 187.797 65.2344V67.8711H186.818V58.5781H187.621L187.75 59.5273H187.797C187.922 59.332 188.074 59.1543 188.254 58.9941C188.434 58.8301 188.652 58.7012 188.91 58.6074C189.172 58.5098 189.48 58.4609 189.836 58.4609ZM189.666 59.2812C189.221 59.2812 188.861 59.3672 188.588 59.5391C188.318 59.7109 188.121 59.9688 187.996 60.3125C187.871 60.6523 187.805 61.0801 187.797 61.5957V61.7832C187.797 62.3262 187.855 62.7852 187.973 63.1602C188.094 63.5352 188.291 63.8203 188.564 64.0156C188.842 64.2109 189.213 64.3086 189.678 64.3086C190.076 64.3086 190.408 64.2012 190.674 63.9863C190.939 63.7715 191.137 63.4727 191.266 63.0898C191.398 62.7031 191.465 62.2598 191.465 61.7598C191.465 61.002 191.316 60.4004 191.02 59.9551C190.727 59.5059 190.275 59.2812 189.666 59.2812ZM199.703 61.7773C199.703 62.3047 199.635 62.7754 199.498 63.1895C199.361 63.6035 199.164 63.9531 198.906 64.2383C198.648 64.5234 198.336 64.7422 197.969 64.8945C197.605 65.043 197.193 65.1172 196.732 65.1172C196.303 65.1172 195.908 65.043 195.549 64.8945C195.193 64.7422 194.885 64.5234 194.623 64.2383C194.365 63.9531 194.164 63.6035 194.02 63.1895C193.879 62.7754 193.809 62.3047 193.809 61.7773C193.809 61.0742 193.928 60.4766 194.166 59.9844C194.404 59.4883 194.744 59.1113 195.186 58.8535C195.631 58.5918 196.16 58.4609 196.773 58.4609C197.359 58.4609 197.871 58.5918 198.309 58.8535C198.75 59.1152 199.092 59.4941 199.334 59.9902C199.58 60.4824 199.703 61.0781 199.703 61.7773ZM194.816 61.7773C194.816 62.293 194.885 62.7402 195.021 63.1191C195.158 63.498 195.369 63.791 195.654 63.998C195.939 64.2051 196.307 64.3086 196.756 64.3086C197.201 64.3086 197.566 64.2051 197.852 63.998C198.141 63.791 198.354 63.498 198.49 63.1191C198.627 62.7402 198.695 62.293 198.695 61.7773C198.695 61.2656 198.627 60.8242 198.49 60.4531C198.354 60.0781 198.143 59.7891 197.857 59.5859C197.572 59.3828 197.203 59.2812 196.75 59.2812C196.082 59.2812 195.592 59.502 195.279 59.9434C194.971 60.3848 194.816 60.9961 194.816 61.7773ZM205.281 58.5781V59.4043H202.363V65H201.385V58.5781H205.281ZM209.582 58.4609C210.383 58.4609 211.021 58.7363 211.498 59.2871C211.975 59.8379 212.213 60.666 212.213 61.7715C212.213 62.502 212.104 63.1152 211.885 63.6113C211.666 64.1074 211.357 64.4824 210.959 64.7363C210.564 64.9902 210.098 65.1172 209.559 65.1172C209.219 65.1172 208.92 65.0723 208.662 64.9824C208.404 64.8926 208.184 64.7715 208 64.6191C207.816 64.4668 207.664 64.3008 207.543 64.1211H207.473C207.484 64.2734 207.498 64.457 207.514 64.6719C207.533 64.8867 207.543 65.0742 207.543 65.2344V67.8711H206.564V58.5781H207.367L207.496 59.5273H207.543C207.668 59.332 207.82 59.1543 208 58.9941C208.18 58.8301 208.398 58.7012 208.656 58.6074C208.918 58.5098 209.227 58.4609 209.582 58.4609ZM209.412 59.2812C208.967 59.2812 208.607 59.3672 208.334 59.5391C208.064 59.7109 207.867 59.9688 207.742 60.3125C207.617 60.6523 207.551 61.0801 207.543 61.5957V61.7832C207.543 62.3262 207.602 62.7852 207.719 63.1602C207.84 63.5352 208.037 63.8203 208.311 64.0156C208.588 64.2109 208.959 64.3086 209.424 64.3086C209.822 64.3086 210.154 64.2012 210.42 63.9863C210.686 63.7715 210.883 63.4727 211.012 63.0898C211.145 62.7031 211.211 62.2598 211.211 61.7598C211.211 61.002 211.062 60.4004 210.766 59.9551C210.473 59.5059 210.021 59.2812 209.412 59.2812ZM216.314 58.4727C217.08 58.4727 217.648 58.6445 218.02 58.9883C218.391 59.332 218.576 59.8809 218.576 60.6348V65H217.867L217.68 64.0508H217.633C217.453 64.2852 217.266 64.4824 217.07 64.6426C216.875 64.7988 216.648 64.918 216.391 65C216.137 65.0781 215.824 65.1172 215.453 65.1172C215.062 65.1172 214.715 65.0488 214.41 64.9121C214.109 64.7754 213.871 64.5684 213.695 64.291C213.523 64.0137 213.438 63.6621 213.438 63.2363C213.438 62.5957 213.691 62.1035 214.199 61.7598C214.707 61.416 215.48 61.2285 216.52 61.1973L217.627 61.1504V60.7578C217.627 60.2031 217.508 59.8145 217.27 59.5918C217.031 59.3691 216.695 59.2578 216.262 59.2578C215.926 59.2578 215.605 59.3066 215.301 59.4043C214.996 59.502 214.707 59.6172 214.434 59.75L214.135 59.0117C214.424 58.8633 214.756 58.7363 215.131 58.6309C215.506 58.5254 215.9 58.4727 216.314 58.4727ZM217.615 61.8359L216.637 61.877C215.836 61.9082 215.271 62.0391 214.943 62.2695C214.615 62.5 214.451 62.8262 214.451 63.248C214.451 63.6152 214.562 63.8867 214.785 64.0625C215.008 64.2383 215.303 64.3262 215.67 64.3262C216.24 64.3262 216.707 64.168 217.07 63.8516C217.434 63.5352 217.615 63.0605 217.615 62.4277V61.8359ZM227.359 58.5781V65H226.48V60.8164C226.48 60.6445 226.484 60.4707 226.492 60.2949C226.504 60.1152 226.518 59.9355 226.533 59.7559H226.498L224.365 65H223.539L221.459 59.7559H221.424C221.436 59.9355 221.443 60.1152 221.447 60.2949C221.455 60.4707 221.459 60.6562 221.459 60.8516V65H220.574V58.5781H221.881L223.955 63.8281L226.059 58.5781H227.359ZM230.359 58.5781V61.2734H233.939V58.5781H234.912V65H233.939V62.0996H230.359V65H229.381V58.5781H230.359ZM242.512 61.7773C242.512 62.3047 242.443 62.7754 242.307 63.1895C242.17 63.6035 241.973 63.9531 241.715 64.2383C241.457 64.5234 241.145 64.7422 240.777 64.8945C240.414 65.043 240.002 65.1172 239.541 65.1172C239.111 65.1172 238.717 65.043 238.357 64.8945C238.002 64.7422 237.693 64.5234 237.432 64.2383C237.174 63.9531 236.973 63.6035 236.828 63.1895C236.688 62.7754 236.617 62.3047 236.617 61.7773C236.617 61.0742 236.736 60.4766 236.975 59.9844C237.213 59.4883 237.553 59.1113 237.994 58.8535C238.439 58.5918 238.969 58.4609 239.582 58.4609C240.168 58.4609 240.68 58.5918 241.117 58.8535C241.559 59.1152 241.9 59.4941 242.143 59.9902C242.389 60.4824 242.512 61.0781 242.512 61.7773ZM237.625 61.7773C237.625 62.293 237.693 62.7402 237.83 63.1191C237.967 63.498 238.178 63.791 238.463 63.998C238.748 64.2051 239.115 64.3086 239.564 64.3086C240.01 64.3086 240.375 64.2051 240.66 63.998C240.949 63.791 241.162 63.498 241.299 63.1191C241.436 62.7402 241.504 62.293 241.504 61.7773C241.504 61.2656 241.436 60.8242 241.299 60.4531C241.162 60.0781 240.951 59.7891 240.666 59.5859C240.381 59.3828 240.012 59.2812 239.559 59.2812C238.891 59.2812 238.4 59.502 238.088 59.9434C237.779 60.3848 237.625 60.9961 237.625 61.7773ZM248.09 58.5781V59.4043H245.172V65H244.193V58.5781H248.09ZM254.91 61.7773C254.91 62.3047 254.842 62.7754 254.705 63.1895C254.568 63.6035 254.371 63.9531 254.113 64.2383C253.855 64.5234 253.543 64.7422 253.176 64.8945C252.812 65.043 252.4 65.1172 251.939 65.1172C251.51 65.1172 251.115 65.043 250.756 64.8945C250.4 64.7422 250.092 64.5234 249.83 64.2383C249.572 63.9531 249.371 63.6035 249.227 63.1895C249.086 62.7754 249.016 62.3047 249.016 61.7773C249.016 61.0742 249.135 60.4766 249.373 59.9844C249.611 59.4883 249.951 59.1113 250.393 58.8535C250.838 58.5918 251.367 58.4609 251.98 58.4609C252.566 58.4609 253.078 58.5918 253.516 58.8535C253.957 59.1152 254.299 59.4941 254.541 59.9902C254.787 60.4824 254.91 61.0781 254.91 61.7773ZM250.023 61.7773C250.023 62.293 250.092 62.7402 250.229 63.1191C250.365 63.498 250.576 63.791 250.861 63.998C251.146 64.2051 251.514 64.3086 251.963 64.3086C252.408 64.3086 252.773 64.2051 253.059 63.998C253.348 63.791 253.561 63.498 253.697 63.1191C253.834 62.7402 253.902 62.293 253.902 61.7773C253.902 61.2656 253.834 60.8242 253.697 60.4531C253.561 60.0781 253.35 59.7891 253.064 59.5859C252.779 59.3828 252.41 59.2812 251.957 59.2812C251.289 59.2812 250.799 59.502 250.486 59.9434C250.178 60.3848 250.023 60.9961 250.023 61.7773ZM114.678 74.4609C115.158 74.4609 115.574 74.5273 115.926 74.6602C116.277 74.7891 116.549 74.9785 116.74 75.2285C116.932 75.4785 117.027 75.7832 117.027 76.1426C117.027 76.5293 116.922 76.8379 116.711 77.0684C116.5 77.2988 116.209 77.4648 115.838 77.5664V77.6133C116.1 77.6836 116.336 77.7852 116.547 77.918C116.762 78.0469 116.932 78.2188 117.057 78.4336C117.186 78.6445 117.25 78.9082 117.25 79.2246C117.25 79.584 117.152 79.9082 116.957 80.1973C116.762 80.4824 116.465 80.707 116.066 80.8711C115.668 81.0352 115.164 81.1172 114.555 81.1172C114.254 81.1172 113.969 81.0996 113.699 81.0645C113.43 81.0332 113.186 80.9863 112.967 80.9238C112.748 80.8613 112.557 80.7871 112.393 80.7012V79.8164C112.666 79.9492 112.986 80.0664 113.354 80.168C113.721 80.2695 114.117 80.3203 114.543 80.3203C114.871 80.3203 115.166 80.2832 115.428 80.209C115.689 80.1309 115.896 80.0078 116.049 79.8398C116.205 79.668 116.283 79.4434 116.283 79.166C116.283 78.9121 116.215 78.7031 116.078 78.5391C115.941 78.3711 115.736 78.248 115.463 78.1699C115.193 78.0879 114.852 78.0469 114.438 78.0469H113.576V77.25H114.285C114.836 77.25 115.275 77.1719 115.604 77.0156C115.932 76.8594 116.096 76.5957 116.096 76.2246C116.096 75.9043 115.969 75.666 115.715 75.5098C115.461 75.3496 115.098 75.2695 114.625 75.2695C114.273 75.2695 113.963 75.3066 113.693 75.3809C113.424 75.4512 113.133 75.5527 112.82 75.6855L112.475 74.9062C112.811 74.7578 113.162 74.6465 113.529 74.5723C113.896 74.498 114.279 74.4609 114.678 74.4609ZM121.229 74.4727C121.994 74.4727 122.562 74.6445 122.934 74.9883C123.305 75.332 123.49 75.8809 123.49 76.6348V81H122.781L122.594 80.0508H122.547C122.367 80.2852 122.18 80.4824 121.984 80.6426C121.789 80.7988 121.562 80.918 121.305 81C121.051 81.0781 120.738 81.1172 120.367 81.1172C119.977 81.1172 119.629 81.0488 119.324 80.9121C119.023 80.7754 118.785 80.5684 118.609 80.291C118.438 80.0137 118.352 79.6621 118.352 79.2363C118.352 78.5957 118.605 78.1035 119.113 77.7598C119.621 77.416 120.395 77.2285 121.434 77.1973L122.541 77.1504V76.7578C122.541 76.2031 122.422 75.8145 122.184 75.5918C121.945 75.3691 121.609 75.2578 121.176 75.2578C120.84 75.2578 120.52 75.3066 120.215 75.4043C119.91 75.502 119.621 75.6172 119.348 75.75L119.049 75.0117C119.338 74.8633 119.67 74.7363 120.045 74.6309C120.42 74.5254 120.814 74.4727 121.229 74.4727ZM122.529 77.8359L121.551 77.877C120.75 77.9082 120.186 78.0391 119.857 78.2695C119.529 78.5 119.365 78.8262 119.365 79.248C119.365 79.6152 119.477 79.8867 119.699 80.0625C119.922 80.2383 120.217 80.3262 120.584 80.3262C121.154 80.3262 121.621 80.168 121.984 79.8516C122.348 79.5352 122.529 79.0605 122.529 78.4277V77.8359ZM125.16 77.1445C125.16 76.2305 125.248 75.4512 125.424 74.8066C125.6 74.1582 125.871 73.6387 126.238 73.248C126.609 72.8535 127.086 72.584 127.668 72.4395C128.168 72.3027 128.676 72.1855 129.191 72.0879C129.707 71.9863 130.209 71.8984 130.697 71.8242L130.867 72.6797C130.621 72.7148 130.363 72.7559 130.094 72.8027C129.824 72.8457 129.555 72.8926 129.285 72.9434C129.016 72.9902 128.762 73.041 128.523 73.0957C128.285 73.1465 128.074 73.1992 127.891 73.2539C127.559 73.3438 127.271 73.5 127.029 73.7227C126.791 73.9453 126.602 74.252 126.461 74.6426C126.324 75.0332 126.242 75.5254 126.215 76.1191H126.285C126.402 75.9473 126.562 75.7773 126.766 75.6094C126.969 75.4414 127.211 75.3027 127.492 75.1934C127.773 75.0801 128.09 75.0234 128.441 75.0234C128.996 75.0234 129.459 75.1445 129.83 75.3867C130.201 75.625 130.48 75.9609 130.668 76.3945C130.855 76.8281 130.949 77.3359 130.949 77.918C130.949 78.6172 130.828 79.2051 130.586 79.6816C130.348 80.1582 130.012 80.5176 129.578 80.7598C129.145 80.998 128.635 81.1172 128.049 81.1172C127.596 81.1172 127.189 81.0293 126.83 80.8535C126.475 80.6777 126.172 80.4199 125.922 80.0801C125.676 79.7402 125.486 79.3242 125.354 78.832C125.225 78.3398 125.16 77.7773 125.16 77.1445ZM128.125 80.3086C128.496 80.3086 128.814 80.2305 129.08 80.0742C129.35 79.918 129.557 79.6719 129.701 79.3359C129.85 78.9961 129.924 78.5547 129.924 78.0117C129.924 77.332 129.793 76.8008 129.531 76.418C129.273 76.0312 128.859 75.8379 128.289 75.8379C127.934 75.8379 127.611 75.9141 127.322 76.0664C127.033 76.2148 126.789 76.3926 126.59 76.5996C126.391 76.8066 126.246 76.9922 126.156 77.1562C126.156 77.5547 126.186 77.9414 126.244 78.3164C126.303 78.6914 126.404 79.0293 126.549 79.3301C126.693 79.6309 126.893 79.8691 127.146 80.0449C127.404 80.2207 127.73 80.3086 128.125 80.3086ZM135.104 74.4609C135.65 74.4609 136.119 74.582 136.51 74.8242C136.9 75.0664 137.199 75.4062 137.406 75.8438C137.613 76.2773 137.717 76.7852 137.717 77.3672V77.9707H133.281C133.293 78.7246 133.48 79.2988 133.844 79.6934C134.207 80.0879 134.719 80.2852 135.379 80.2852C135.785 80.2852 136.145 80.248 136.457 80.1738C136.77 80.0996 137.094 79.9902 137.43 79.8457V80.7012C137.105 80.8457 136.783 80.9512 136.463 81.0176C136.146 81.084 135.771 81.1172 135.338 81.1172C134.721 81.1172 134.182 80.9922 133.721 80.7422C133.264 80.4883 132.908 80.1172 132.654 79.6289C132.4 79.1406 132.273 78.543 132.273 77.8359C132.273 77.1445 132.389 76.5469 132.619 76.043C132.854 75.5352 133.182 75.1445 133.604 74.8711C134.029 74.5977 134.529 74.4609 135.104 74.4609ZM135.092 75.2578C134.572 75.2578 134.158 75.4277 133.85 75.7676C133.541 76.1074 133.357 76.582 133.299 77.1914H136.697C136.693 76.8086 136.633 76.4727 136.516 76.1836C136.402 75.8906 136.229 75.6641 135.994 75.5039C135.76 75.3398 135.459 75.2578 135.092 75.2578ZM141.021 74.4609C141.502 74.4609 141.918 74.5273 142.27 74.6602C142.621 74.7891 142.893 74.9785 143.084 75.2285C143.275 75.4785 143.371 75.7832 143.371 76.1426C143.371 76.5293 143.266 76.8379 143.055 77.0684C142.844 77.2988 142.553 77.4648 142.182 77.5664V77.6133C142.443 77.6836 142.68 77.7852 142.891 77.918C143.105 78.0469 143.275 78.2188 143.4 78.4336C143.529 78.6445 143.594 78.9082 143.594 79.2246C143.594 79.584 143.496 79.9082 143.301 80.1973C143.105 80.4824 142.809 80.707 142.41 80.8711C142.012 81.0352 141.508 81.1172 140.898 81.1172C140.598 81.1172 140.312 81.0996 140.043 81.0645C139.773 81.0332 139.529 80.9863 139.311 80.9238C139.092 80.8613 138.9 80.7871 138.736 80.7012V79.8164C139.01 79.9492 139.33 80.0664 139.697 80.168C140.064 80.2695 140.461 80.3203 140.887 80.3203C141.215 80.3203 141.51 80.2832 141.771 80.209C142.033 80.1309 142.24 80.0078 142.393 79.8398C142.549 79.668 142.627 79.4434 142.627 79.166C142.627 78.9121 142.559 78.7031 142.422 78.5391C142.285 78.3711 142.08 78.248 141.807 78.1699C141.537 78.0879 141.195 78.0469 140.781 78.0469H139.92V77.25H140.629C141.18 77.25 141.619 77.1719 141.947 77.0156C142.275 76.8594 142.439 76.5957 142.439 76.2246C142.439 75.9043 142.312 75.666 142.059 75.5098C141.805 75.3496 141.441 75.2695 140.969 75.2695C140.617 75.2695 140.307 75.3066 140.037 75.3809C139.768 75.4512 139.477 75.5527 139.164 75.6855L138.818 74.9062C139.154 74.7578 139.506 74.6465 139.873 74.5723C140.24 74.498 140.623 74.4609 141.021 74.4609ZM150.549 74.5781V81H149.57V75.416H146.148V81H145.17V74.5781H150.549ZM155.084 74.4609C155.631 74.4609 156.1 74.582 156.49 74.8242C156.881 75.0664 157.18 75.4062 157.387 75.8438C157.594 76.2773 157.697 76.7852 157.697 77.3672V77.9707H153.262C153.273 78.7246 153.461 79.2988 153.824 79.6934C154.188 80.0879 154.699 80.2852 155.359 80.2852C155.766 80.2852 156.125 80.248 156.438 80.1738C156.75 80.0996 157.074 79.9902 157.41 79.8457V80.7012C157.086 80.8457 156.764 80.9512 156.443 81.0176C156.127 81.084 155.752 81.1172 155.318 81.1172C154.701 81.1172 154.162 80.9922 153.701 80.7422C153.244 80.4883 152.889 80.1172 152.635 79.6289C152.381 79.1406 152.254 78.543 152.254 77.8359C152.254 77.1445 152.369 76.5469 152.6 76.043C152.834 75.5352 153.162 75.1445 153.584 74.8711C154.01 74.5977 154.51 74.4609 155.084 74.4609ZM155.072 75.2578C154.553 75.2578 154.139 75.4277 153.83 75.7676C153.521 76.1074 153.338 76.582 153.279 77.1914H156.678C156.674 76.8086 156.613 76.4727 156.496 76.1836C156.383 75.8906 156.209 75.6641 155.975 75.5039C155.74 75.3398 155.439 75.2578 155.072 75.2578ZM160.199 74.5781V76.8867C160.199 77.2891 160.309 77.5859 160.527 77.7773C160.75 77.9688 161.072 78.0645 161.494 78.0645C161.9 78.0645 162.27 78.002 162.602 77.877C162.934 77.752 163.27 77.582 163.609 77.3672V74.5781H164.582V81H163.609V78.123C163.25 78.3535 162.896 78.5352 162.549 78.668C162.201 78.8008 161.785 78.8672 161.301 78.8672C160.641 78.8672 160.129 78.6953 159.766 78.3516C159.406 78.0078 159.227 77.543 159.227 76.957V74.5781H160.199ZM169.111 74.4609C169.658 74.4609 170.127 74.582 170.518 74.8242C170.908 75.0664 171.207 75.4062 171.414 75.8438C171.621 76.2773 171.725 76.7852 171.725 77.3672V77.9707H167.289C167.301 78.7246 167.488 79.2988 167.852 79.6934C168.215 80.0879 168.727 80.2852 169.387 80.2852C169.793 80.2852 170.152 80.248 170.465 80.1738C170.777 80.0996 171.102 79.9902 171.438 79.8457V80.7012C171.113 80.8457 170.791 80.9512 170.471 81.0176C170.154 81.084 169.779 81.1172 169.346 81.1172C168.729 81.1172 168.189 80.9922 167.729 80.7422C167.271 80.4883 166.916 80.1172 166.662 79.6289C166.408 79.1406 166.281 78.543 166.281 77.8359C166.281 77.1445 166.396 76.5469 166.627 76.043C166.861 75.5352 167.189 75.1445 167.611 74.8711C168.037 74.5977 168.537 74.4609 169.111 74.4609ZM169.1 75.2578C168.58 75.2578 168.166 75.4277 167.857 75.7676C167.549 76.1074 167.365 76.582 167.307 77.1914H170.705C170.701 76.8086 170.641 76.4727 170.523 76.1836C170.41 75.8906 170.236 75.6641 170.002 75.5039C169.768 75.3398 169.467 75.2578 169.1 75.2578ZM174.355 74.5781V77.2734H177.936V74.5781H178.908V81H177.936V78.0996H174.355V81H173.377V74.5781H174.355ZM181.949 74.5781V77.2734H185.529V74.5781H186.502V81H185.529V78.0996H181.949V81H180.971V74.5781H181.949ZM188.875 81H187.738L189.59 78.293C189.32 78.2344 189.07 78.1348 188.84 77.9941C188.609 77.8496 188.422 77.6523 188.277 77.4023C188.137 77.1523 188.066 76.8418 188.066 76.4707C188.066 75.8535 188.271 75.3848 188.682 75.0645C189.096 74.7402 189.641 74.5781 190.316 74.5781H193.158V81H192.186V78.4219H190.557L188.875 81ZM189.01 76.4766C189.01 76.8594 189.146 77.1445 189.42 77.332C189.693 77.5156 190.084 77.6074 190.592 77.6074H192.186V75.3926H190.422C189.922 75.3926 189.561 75.4941 189.338 75.6973C189.119 75.8965 189.01 76.1562 189.01 76.4766ZM203.031 74.5781V80.1738H203.951V83.2207H203.008V81H198.461V83.2207H197.529V80.1738H198.033C198.4 79.666 198.705 79.1094 198.947 78.5039C199.189 77.8984 199.373 77.2637 199.498 76.5996C199.623 75.9316 199.689 75.2578 199.697 74.5781H203.031ZM202.088 75.3516H200.564C200.529 75.9219 200.445 76.502 200.312 77.0918C200.184 77.6816 200.012 78.2441 199.797 78.7793C199.582 79.3105 199.332 79.7754 199.047 80.1738H202.088V75.3516ZM210.045 81H209.055V75.3926H207.104C207.025 76.4043 206.926 77.2715 206.805 77.9941C206.688 78.7129 206.539 79.3008 206.359 79.7578C206.184 80.2109 205.969 80.5449 205.715 80.7598C205.465 80.9707 205.166 81.0762 204.818 81.0762C204.713 81.0762 204.613 81.0703 204.52 81.0586C204.426 81.0469 204.346 81.0273 204.279 81V80.2617C204.33 80.2773 204.383 80.2891 204.438 80.2969C204.496 80.3047 204.557 80.3086 204.619 80.3086C204.795 80.3086 204.955 80.2363 205.1 80.0918C205.248 79.9434 205.381 79.7207 205.498 79.4238C205.619 79.127 205.727 78.752 205.82 78.2988C205.914 77.8418 205.996 77.3047 206.066 76.6875C206.141 76.0664 206.205 75.3633 206.26 74.5781H210.045V81ZM212.406 81H211.27L213.121 78.293C212.852 78.2344 212.602 78.1348 212.371 77.9941C212.141 77.8496 211.953 77.6523 211.809 77.4023C211.668 77.1523 211.598 76.8418 211.598 76.4707C211.598 75.8535 211.803 75.3848 212.213 75.0645C212.627 74.7402 213.172 74.5781 213.848 74.5781H216.689V81H215.717V78.4219H214.088L212.406 81ZM212.541 76.4766C212.541 76.8594 212.678 77.1445 212.951 77.332C213.225 77.5156 213.615 77.6074 214.123 77.6074H215.717V75.3926H213.953C213.453 75.3926 213.092 75.4941 212.869 75.6973C212.65 75.8965 212.541 76.1562 212.541 76.4766ZM224.875 74.4609C225.676 74.4609 226.314 74.7363 226.791 75.2871C227.268 75.8379 227.506 76.666 227.506 77.7715C227.506 78.502 227.396 79.1152 227.178 79.6113C226.959 80.1074 226.65 80.4824 226.252 80.7363C225.857 80.9902 225.391 81.1172 224.852 81.1172C224.512 81.1172 224.213 81.0723 223.955 80.9824C223.697 80.8926 223.477 80.7715 223.293 80.6191C223.109 80.4668 222.957 80.3008 222.836 80.1211H222.766C222.777 80.2734 222.791 80.457 222.807 80.6719C222.826 80.8867 222.836 81.0742 222.836 81.2344V83.8711H221.857V74.5781H222.66L222.789 75.5273H222.836C222.961 75.332 223.113 75.1543 223.293 74.9941C223.473 74.8301 223.691 74.7012 223.949 74.6074C224.211 74.5098 224.52 74.4609 224.875 74.4609ZM224.705 75.2812C224.26 75.2812 223.9 75.3672 223.627 75.5391C223.357 75.7109 223.16 75.9688 223.035 76.3125C222.91 76.6523 222.844 77.0801 222.836 77.5957V77.7832C222.836 78.3262 222.895 78.7852 223.012 79.1602C223.133 79.5352 223.33 79.8203 223.604 80.0156C223.881 80.2109 224.252 80.3086 224.717 80.3086C225.115 80.3086 225.447 80.2012 225.713 79.9863C225.979 79.7715 226.176 79.4727 226.305 79.0898C226.438 78.7031 226.504 78.2598 226.504 77.7598C226.504 77.002 226.355 76.4004 226.059 75.9551C225.766 75.5059 225.314 75.2812 224.705 75.2812ZM230.178 74.5781V81H229.205V74.5781H230.178ZM229.703 72.1758C229.863 72.1758 230 72.2285 230.113 72.334C230.23 72.4355 230.289 72.5957 230.289 72.8145C230.289 73.0293 230.23 73.1895 230.113 73.2949C230 73.4004 229.863 73.4531 229.703 73.4531C229.535 73.4531 229.395 73.4004 229.281 73.2949C229.172 73.1895 229.117 73.0293 229.117 72.8145C229.117 72.5957 229.172 72.4355 229.281 72.334C229.395 72.2285 229.535 72.1758 229.703 72.1758ZM233.893 74.4609C234.373 74.4609 234.789 74.5273 235.141 74.6602C235.492 74.7891 235.764 74.9785 235.955 75.2285C236.146 75.4785 236.242 75.7832 236.242 76.1426C236.242 76.5293 236.137 76.8379 235.926 77.0684C235.715 77.2988 235.424 77.4648 235.053 77.5664V77.6133C235.314 77.6836 235.551 77.7852 235.762 77.918C235.977 78.0469 236.146 78.2188 236.271 78.4336C236.4 78.6445 236.465 78.9082 236.465 79.2246C236.465 79.584 236.367 79.9082 236.172 80.1973C235.977 80.4824 235.68 80.707 235.281 80.8711C234.883 81.0352 234.379 81.1172 233.77 81.1172C233.469 81.1172 233.184 81.0996 232.914 81.0645C232.645 81.0332 232.4 80.9863 232.182 80.9238C231.963 80.8613 231.771 80.7871 231.607 80.7012V79.8164C231.881 79.9492 232.201 80.0664 232.568 80.168C232.936 80.2695 233.332 80.3203 233.758 80.3203C234.086 80.3203 234.381 80.2832 234.643 80.209C234.904 80.1309 235.111 80.0078 235.264 79.8398C235.42 79.668 235.498 79.4434 235.498 79.166C235.498 78.9121 235.43 78.7031 235.293 78.5391C235.156 78.3711 234.951 78.248 234.678 78.1699C234.408 78.0879 234.066 78.0469 233.652 78.0469H232.791V77.25H233.5C234.051 77.25 234.49 77.1719 234.818 77.0156C235.146 76.8594 235.311 76.5957 235.311 76.2246C235.311 75.9043 235.184 75.666 234.93 75.5098C234.676 75.3496 234.312 75.2695 233.84 75.2695C233.488 75.2695 233.178 75.3066 232.908 75.3809C232.639 75.4512 232.348 75.5527 232.035 75.6855L231.689 74.9062C232.025 74.7578 232.377 74.6465 232.744 74.5723C233.111 74.498 233.494 74.4609 233.893 74.4609ZM239.02 74.5781V77.2734H242.6V74.5781H243.572V81H242.6V78.0996H239.02V81H238.041V74.5781H239.02ZM246.561 74.5781V78.6152C246.561 78.6934 246.559 78.7949 246.555 78.9199C246.551 79.041 246.545 79.1719 246.537 79.3125C246.529 79.4492 246.521 79.582 246.514 79.7109C246.51 79.8359 246.504 79.9395 246.496 80.0215L250 74.5781H251.195V81H250.287V77.0625C250.287 76.9375 250.289 76.7773 250.293 76.582C250.297 76.3867 250.303 76.1953 250.311 76.0078C250.318 75.8164 250.324 75.668 250.328 75.5625L246.836 81H245.635V74.5781H246.561ZM254.793 77.7129L252.572 74.5781H253.686L255.379 77.0508L257.066 74.5781H258.168L255.947 77.7129L258.291 81H257.178L255.379 78.3809L253.568 81H252.467L254.793 77.7129ZM268.041 74.5781V81H267.062V75.416H263.641V81H262.662V74.5781H268.041ZM274.92 81H273.93V75.3926H271.979C271.9 76.4043 271.801 77.2715 271.68 77.9941C271.562 78.7129 271.414 79.3008 271.234 79.7578C271.059 80.2109 270.844 80.5449 270.59 80.7598C270.34 80.9707 270.041 81.0762 269.693 81.0762C269.588 81.0762 269.488 81.0703 269.395 81.0586C269.301 81.0469 269.221 81.0273 269.154 81V80.2617C269.205 80.2773 269.258 80.2891 269.312 80.2969C269.371 80.3047 269.432 80.3086 269.494 80.3086C269.67 80.3086 269.83 80.2363 269.975 80.0918C270.123 79.9434 270.256 79.7207 270.373 79.4238C270.494 79.127 270.602 78.752 270.695 78.2988C270.789 77.8418 270.871 77.3047 270.941 76.6875C271.016 76.0664 271.08 75.3633 271.135 74.5781H274.92V81ZM279.373 74.4727C280.139 74.4727 280.707 74.6445 281.078 74.9883C281.449 75.332 281.635 75.8809 281.635 76.6348V81H280.926L280.738 80.0508H280.691C280.512 80.2852 280.324 80.4824 280.129 80.6426C279.934 80.7988 279.707 80.918 279.449 81C279.195 81.0781 278.883 81.1172 278.512 81.1172C278.121 81.1172 277.773 81.0488 277.469 80.9121C277.168 80.7754 276.93 80.5684 276.754 80.291C276.582 80.0137 276.496 79.6621 276.496 79.2363C276.496 78.5957 276.75 78.1035 277.258 77.7598C277.766 77.416 278.539 77.2285 279.578 77.1973L280.686 77.1504V76.7578C280.686 76.2031 280.566 75.8145 280.328 75.5918C280.09 75.3691 279.754 75.2578 279.32 75.2578C278.984 75.2578 278.664 75.3066 278.359 75.4043C278.055 75.502 277.766 75.6172 277.492 75.75L277.193 75.0117C277.482 74.8633 277.814 74.7363 278.189 74.6309C278.564 74.5254 278.959 74.4727 279.373 74.4727ZM280.674 77.8359L279.695 77.877C278.895 77.9082 278.33 78.0391 278.002 78.2695C277.674 78.5 277.51 78.8262 277.51 79.248C277.51 79.6152 277.621 79.8867 277.844 80.0625C278.066 80.2383 278.361 80.3262 278.729 80.3262C279.299 80.3262 279.766 80.168 280.129 79.8516C280.492 79.5352 280.674 79.0605 280.674 78.4277V77.8359ZM288.016 75.4043H285.9V81H284.939V75.4043H282.854V74.5781H288.016V75.4043ZM293.02 71.8828V74.4844C293.656 74.5391 294.211 74.7051 294.684 74.9824C295.156 75.2559 295.523 75.6289 295.785 76.1016C296.047 76.5742 296.178 77.1367 296.178 77.7891C296.178 78.4297 296.051 78.9883 295.797 79.4648C295.547 79.9414 295.186 80.3184 294.713 80.5957C294.244 80.873 293.68 81.0391 293.02 81.0938V83.8828H292.07V81.0938C291.434 81.0469 290.879 80.8867 290.406 80.6133C289.938 80.3359 289.572 79.959 289.311 79.4824C289.049 79.0059 288.918 78.4414 288.918 77.7891C288.918 77.1367 289.043 76.5742 289.293 76.1016C289.547 75.625 289.91 75.25 290.383 74.9766C290.855 74.6992 291.428 74.5352 292.1 74.4844V71.8828H293.02ZM292.1 75.293C291.604 75.3359 291.195 75.4609 290.875 75.668C290.555 75.875 290.316 76.1562 290.16 76.5117C290.008 76.8672 289.932 77.293 289.932 77.7891C289.932 78.2852 290.01 78.7129 290.166 79.0723C290.322 79.4277 290.561 79.709 290.881 79.916C291.201 80.123 291.607 80.25 292.1 80.2969V75.293ZM293.02 75.3047V80.2969C293.512 80.2461 293.916 80.1152 294.232 79.9043C294.553 79.6934 294.789 79.4102 294.941 79.0547C295.098 78.6992 295.176 78.2773 295.176 77.7891C295.176 77.0469 294.998 76.4668 294.643 76.0488C294.287 75.627 293.746 75.3789 293.02 75.3047ZM303.414 77.7773C303.414 78.3047 303.346 78.7754 303.209 79.1895C303.072 79.6035 302.875 79.9531 302.617 80.2383C302.359 80.5234 302.047 80.7422 301.68 80.8945C301.316 81.043 300.904 81.1172 300.443 81.1172C300.014 81.1172 299.619 81.043 299.26 80.8945C298.904 80.7422 298.596 80.5234 298.334 80.2383C298.076 79.9531 297.875 79.6035 297.73 79.1895C297.59 78.7754 297.52 78.3047 297.52 77.7773C297.52 77.0742 297.639 76.4766 297.877 75.9844C298.115 75.4883 298.455 75.1113 298.896 74.8535C299.342 74.5918 299.871 74.4609 300.484 74.4609C301.07 74.4609 301.582 74.5918 302.02 74.8535C302.461 75.1152 302.803 75.4941 303.045 75.9902C303.291 76.4824 303.414 77.0781 303.414 77.7773ZM298.527 77.7773C298.527 78.293 298.596 78.7402 298.732 79.1191C298.869 79.498 299.08 79.791 299.365 79.998C299.65 80.2051 300.018 80.3086 300.467 80.3086C300.912 80.3086 301.277 80.2051 301.562 79.998C301.852 79.791 302.064 79.498 302.201 79.1191C302.338 78.7402 302.406 78.293 302.406 77.7773C302.406 77.2656 302.338 76.8242 302.201 76.4531C302.064 76.0781 301.854 75.7891 301.568 75.5859C301.283 75.3828 300.914 75.2812 300.461 75.2812C299.793 75.2812 299.303 75.502 298.99 75.9434C298.682 76.3848 298.527 76.9961 298.527 77.7773ZM308.113 74.4609C308.914 74.4609 309.553 74.7363 310.029 75.2871C310.506 75.8379 310.744 76.666 310.744 77.7715C310.744 78.502 310.635 79.1152 310.416 79.6113C310.197 80.1074 309.889 80.4824 309.49 80.7363C309.096 80.9902 308.629 81.1172 308.09 81.1172C307.75 81.1172 307.451 81.0723 307.193 80.9824C306.936 80.8926 306.715 80.7715 306.531 80.6191C306.348 80.4668 306.195 80.3008 306.074 80.1211H306.004C306.016 80.2734 306.029 80.457 306.045 80.6719C306.064 80.8867 306.074 81.0742 306.074 81.2344V83.8711H305.096V74.5781H305.898L306.027 75.5273H306.074C306.199 75.332 306.352 75.1543 306.531 74.9941C306.711 74.8301 306.93 74.7012 307.188 74.6074C307.449 74.5098 307.758 74.4609 308.113 74.4609ZM307.943 75.2812C307.498 75.2812 307.139 75.3672 306.865 75.5391C306.596 75.7109 306.398 75.9688 306.273 76.3125C306.148 76.6523 306.082 77.0801 306.074 77.5957V77.7832C306.074 78.3262 306.133 78.7852 306.25 79.1602C306.371 79.5352 306.568 79.8203 306.842 80.0156C307.119 80.2109 307.49 80.3086 307.955 80.3086C308.354 80.3086 308.686 80.2012 308.951 79.9863C309.217 79.7715 309.414 79.4727 309.543 79.0898C309.676 78.7031 309.742 78.2598 309.742 77.7598C309.742 77.002 309.594 76.4004 309.297 75.9551C309.004 75.5059 308.553 75.2812 307.943 75.2812ZM319.223 74.5781V81H318.344V76.8164C318.344 76.6445 318.348 76.4707 318.355 76.2949C318.367 76.1152 318.381 75.9355 318.396 75.7559H318.361L316.229 81H315.402L313.322 75.7559H313.287C313.299 75.9355 313.307 76.1152 313.311 76.2949C313.318 76.4707 313.322 76.6562 313.322 76.8516V81H312.438V74.5781H313.744L315.818 79.8281L317.922 74.5781H319.223ZM117.402 91.4043H115.287V97H114.326V91.4043H112.24V90.5781H117.402V91.4043ZM121.076 90.4727C121.842 90.4727 122.41 90.6445 122.781 90.9883C123.152 91.332 123.338 91.8809 123.338 92.6348V97H122.629L122.441 96.0508H122.395C122.215 96.2852 122.027 96.4824 121.832 96.6426C121.637 96.7988 121.41 96.918 121.152 97C120.898 97.0781 120.586 97.1172 120.215 97.1172C119.824 97.1172 119.477 97.0488 119.172 96.9121C118.871 96.7754 118.633 96.5684 118.457 96.291C118.285 96.0137 118.199 95.6621 118.199 95.2363C118.199 94.5957 118.453 94.1035 118.961 93.7598C119.469 93.416 120.242 93.2285 121.281 93.1973L122.389 93.1504V92.7578C122.389 92.2031 122.27 91.8145 122.031 91.5918C121.793 91.3691 121.457 91.2578 121.023 91.2578C120.688 91.2578 120.367 91.3066 120.062 91.4043C119.758 91.502 119.469 91.6172 119.195 91.75L118.896 91.0117C119.186 90.8633 119.518 90.7363 119.893 90.6309C120.268 90.5254 120.662 90.4727 121.076 90.4727ZM122.377 93.8359L121.398 93.877C120.598 93.9082 120.033 94.0391 119.705 94.2695C119.377 94.5 119.213 94.8262 119.213 95.248C119.213 95.6152 119.324 95.8867 119.547 96.0625C119.77 96.2383 120.064 96.3262 120.432 96.3262C121.002 96.3262 121.469 96.168 121.832 95.8516C122.195 95.5352 122.377 95.0605 122.377 94.4277V93.8359ZM134.711 99.2207H133.762V97H128.459V90.5781H129.438V96.1738H132.842V90.5781H133.814V96.1855H134.711V99.2207ZM136.943 90.5781V97H135.971V90.5781H136.943ZM136.469 88.1758C136.629 88.1758 136.766 88.2285 136.879 88.334C136.996 88.4355 137.055 88.5957 137.055 88.8145C137.055 89.0293 136.996 89.1895 136.879 89.2949C136.766 89.4004 136.629 89.4531 136.469 89.4531C136.301 89.4531 136.16 89.4004 136.047 89.2949C135.938 89.1895 135.883 89.0293 135.883 88.8145C135.883 88.5957 135.938 88.4355 136.047 88.334C136.16 88.2285 136.301 88.1758 136.469 88.1758ZM143.822 97H142.832V91.3926H140.881C140.803 92.4043 140.703 93.2715 140.582 93.9941C140.465 94.7129 140.316 95.3008 140.137 95.7578C139.961 96.2109 139.746 96.5449 139.492 96.7598C139.242 96.9707 138.943 97.0762 138.596 97.0762C138.49 97.0762 138.391 97.0703 138.297 97.0586C138.203 97.0469 138.123 97.0273 138.057 97V96.2617C138.107 96.2773 138.16 96.2891 138.215 96.2969C138.273 96.3047 138.334 96.3086 138.396 96.3086C138.572 96.3086 138.732 96.2363 138.877 96.0918C139.025 95.9434 139.158 95.7207 139.275 95.4238C139.396 95.127 139.504 94.752 139.598 94.2988C139.691 93.8418 139.773 93.3047 139.844 92.6875C139.918 92.0664 139.982 91.3633 140.037 90.5781H143.822V97ZM148.346 90.4609C148.893 90.4609 149.361 90.582 149.752 90.8242C150.143 91.0664 150.441 91.4062 150.648 91.8438C150.855 92.2773 150.959 92.7852 150.959 93.3672V93.9707H146.523C146.535 94.7246 146.723 95.2988 147.086 95.6934C147.449 96.0879 147.961 96.2852 148.621 96.2852C149.027 96.2852 149.387 96.248 149.699 96.1738C150.012 96.0996 150.336 95.9902 150.672 95.8457V96.7012C150.348 96.8457 150.025 96.9512 149.705 97.0176C149.389 97.084 149.014 97.1172 148.58 97.1172C147.963 97.1172 147.424 96.9922 146.963 96.7422C146.506 96.4883 146.15 96.1172 145.896 95.6289C145.643 95.1406 145.516 94.543 145.516 93.8359C145.516 93.1445 145.631 92.5469 145.861 92.043C146.096 91.5352 146.424 91.1445 146.846 90.8711C147.271 90.5977 147.771 90.4609 148.346 90.4609ZM148.334 91.2578C147.814 91.2578 147.4 91.4277 147.092 91.7676C146.783 92.1074 146.6 92.582 146.541 93.1914H149.939C149.936 92.8086 149.875 92.4727 149.758 92.1836C149.645 91.8906 149.471 91.6641 149.236 91.5039C149.002 91.3398 148.701 91.2578 148.334 91.2578ZM153.537 90.5781V94.6152C153.537 94.6934 153.535 94.7949 153.531 94.9199C153.527 95.041 153.521 95.1719 153.514 95.3125C153.506 95.4492 153.498 95.582 153.49 95.7109C153.486 95.8359 153.48 95.9395 153.473 96.0215L156.977 90.5781H158.172V97H157.264V93.0625C157.264 92.9375 157.266 92.7773 157.27 92.582C157.273 92.3867 157.279 92.1953 157.287 92.0078C157.295 91.8164 157.301 91.668 157.305 91.5625L153.812 97H152.611V90.5781H153.537ZM157.691 87.9355C157.656 88.3301 157.557 88.6602 157.393 88.9258C157.232 89.1914 156.996 89.3926 156.684 89.5293C156.371 89.6621 155.971 89.7285 155.482 89.7285C154.979 89.7285 154.572 89.6641 154.264 89.5352C153.959 89.4023 153.732 89.2031 153.584 88.9375C153.439 88.6719 153.354 88.3379 153.326 87.9355H154.24C154.283 88.3652 154.398 88.6582 154.586 88.8145C154.773 88.9707 155.078 89.0488 155.5 89.0488C155.875 89.0488 156.17 88.9668 156.385 88.8027C156.6 88.6387 156.729 88.3496 156.771 87.9355H157.691Z" fill="#1E1E1E"/>
<defs>
<clipPath id="clip0_689_14521">
<rect width="44.6429" height="29.0178" fill="white" transform="translate(30.2412 32.9999)"/>
</clipPath>
<clipPath id="clip1_689_14521">
<rect width="44.6429" height="29.0178" fill="white" transform="translate(24.8838 38.3568)"/>
</clipPath>
</defs>
</svg>
