<svg width="100" height="100" viewBox="0 0 100 100" fill="none" xmlns="http://www.w3.org/2000/svg">
<rect x="0.783871" y="0.783871" width="98.4323" height="98.4323" rx="3.13548" fill="#FAFAFA"/>
<rect x="0.783871" y="0.783871" width="98.4323" height="98.4323" rx="3.13548" stroke="#5D59FF" stroke-width="1.56774"/>
<g clip-path="url(#clip0_32_1437)">
<rect width="44.6429" height="29.0178" transform="translate(30.3569 33)" fill="#5D59FF"/>
<rect width="44.6429" height="4.46428" transform="translate(30.3569 33)" fill="#1E1E1E"/>
<ellipse cx="32.589" cy="35.2321" rx="0.446429" ry="0.446428" fill="#D1CFFF"/>
<ellipse cx="34.3747" cy="35.2321" rx="0.446429" ry="0.446428" fill="#D1CFFF"/>
<ellipse cx="36.1603" cy="35.2321" rx="0.446429" ry="0.446428" fill="#D1CFFF"/>
</g>
<g clip-path="url(#clip1_32_1437)">
<rect width="44.6429" height="29.0178" transform="translate(25 38.3569)" fill="#D1CFFF"/>
<rect width="44.6429" height="4.46428" transform="translate(25 38.3569)" fill="#1E1E1E"/>
<ellipse cx="27.2321" cy="40.589" rx="0.446429" ry="0.446428" fill="#D1CFFF"/>
<ellipse cx="29.0177" cy="40.589" rx="0.446429" ry="0.446428" fill="#D1CFFF"/>
<ellipse cx="30.8034" cy="40.589" rx="0.446429" ry="0.446428" fill="#D1CFFF"/>
<g clip-path="url(#clip2_32_1437)">
<rect width="17.8571" height="17.8571" transform="translate(26.7856 44.6069)" fill="#FAFAFA"/>
<rect width="17.8571" height="17.8571" transform="translate(26.7856 44.6069)" fill="#FAFAFA"/>
<path fill-rule="evenodd" clip-rule="evenodd" d="M37.9707 51.9099C38.3922 51.9099 38.734 51.5493 38.734 51.1044C38.734 50.6595 38.3922 50.2988 37.9707 50.2988C37.5492 50.2988 37.2075 50.6595 37.2075 51.1044C37.2075 51.5493 37.5492 51.9099 37.9707 51.9099ZM35.8583 56.788H31.466C31.2091 56.788 31.0524 56.4924 31.1882 56.2644L34.1174 51.3428C34.2434 51.131 34.5357 51.1255 34.6669 51.3338C35.1251 52.0607 36.0647 53.5544 36.873 54.8562L37.7215 53.4221C37.8447 53.2139 38.1309 53.2044 38.2665 53.404L40.2014 56.252C40.3546 56.4777 40.2032 56.7904 39.9388 56.7928L38.0637 56.8123L35.8583 56.788Z" fill="#5D59FF"/>
</g>
<line x1="46.4287" y1="45.0536" x2="58.4823" y2="45.0536" stroke="#353395" stroke-width="0.892856"/>
<line x1="46.4287" y1="47.9555" x2="67.8573" y2="47.9555" stroke="#1E1E1E" stroke-width="0.446428"/>
<line x1="46.4287" y1="49.7411" x2="58.0359" y2="49.7411" stroke="#1E1E1E" stroke-width="0.446428"/>
<line x1="58.9287" y1="49.7411" x2="67.8573" y2="49.7411" stroke="#1E1E1E" stroke-width="0.446428"/>
<line x1="65.1787" y1="51.5268" x2="67.8573" y2="51.5268" stroke="#1E1E1E" stroke-width="0.446428"/>
<line x1="46.4287" y1="53.3124" x2="53.1251" y2="53.3124" stroke="#1E1E1E" stroke-width="0.446428"/>
<line x1="54.0176" y1="53.3124" x2="67.8569" y2="53.3124" stroke="#1E1E1E" stroke-width="0.446428"/>
<line x1="46.4287" y1="55.0981" x2="67.8573" y2="55.0981" stroke="#1E1E1E" stroke-width="0.446428"/>
<line x1="46.4287" y1="56.8837" x2="56.6966" y2="56.8837" stroke="#1E1E1E" stroke-width="0.446428"/>
<line x1="57.5894" y1="56.8837" x2="67.8572" y2="56.8837" stroke="#1E1E1E" stroke-width="0.446428"/>
<line x1="46.4287" y1="51.5268" x2="63.393" y2="51.5268" stroke="#1E1E1E" stroke-width="0.446428"/>
<rect width="21.4286" height="3.125" transform="translate(46.4287 59.3394)" fill="#A17CFC"/>
</g>
<path d="M76.1447 68.4268C80.0398 69.462 81.2799 65.2431 78.5383 63.3444C74.4209 60.4929 72.1413 58.8946 70.9421 58.0471C70.2368 57.5488 69.2898 57.5794 68.6378 58.1265L59.4901 65.8023C58.8381 66.3494 58.6482 67.277 59.0287 68.0523C60.4597 70.9687 61.7066 73.5352 63.0119 76.3726C64.4057 79.4022 68.7758 78.9136 68.4328 74.8979" fill="#F0F0F0"/>
<path d="M76.1447 68.4268C80.0398 69.462 81.2799 65.2431 78.5383 63.3444C74.4209 60.4929 72.1413 58.8946 70.9421 58.0471C70.2368 57.5488 69.2898 57.5794 68.6378 58.1265L59.4901 65.8023C58.8381 66.3494 58.6482 67.277 59.0287 68.0523C60.4597 70.9687 61.7066 73.5352 63.0119 76.3726C64.4057 79.4022 68.7758 78.9136 68.4328 74.8979" stroke="#1E1E1E" stroke-width="0.892856" stroke-linecap="round" stroke-linejoin="round"/>
<path d="M66.9059 59.5804L68.1168 61.0235C68.7855 61.8205 68.6916 63.0003 67.9069 63.6587L65.0653 66.0431C64.2806 66.7016 63.1023 66.5892 62.4336 65.7922L61.2227 64.3491" fill="#353395"/>
<path d="M66.9059 59.5804L68.1168 61.0235C68.7855 61.8205 68.6916 63.0003 67.9069 63.6587L65.0653 66.0431C64.2806 66.7016 63.1023 66.5892 62.4336 65.7922L61.2227 64.3491" stroke="#1E1E1E" stroke-width="0.892856" stroke-linecap="round" stroke-linejoin="round"/>
<path d="M68.4881 73.0085C69.2728 72.35 69.3668 71.1702 68.698 70.3732C68.0292 69.5761 66.851 69.4638 66.0663 70.1223C65.2816 70.7807 65.1876 71.9605 65.8564 72.7575C66.5252 73.5546 67.7034 73.6669 68.4881 73.0085Z" fill="#5D59FF" stroke="#1E1E1E" stroke-width="0.892856" stroke-linecap="round" stroke-linejoin="round"/>
<path d="M74.1712 68.2394C74.9559 67.581 75.0499 66.4011 74.3811 65.6041C73.7123 64.8071 72.5341 64.6948 71.7494 65.3532C70.9647 66.0117 70.8707 67.1915 71.5395 67.9885C72.2083 68.7855 73.3865 68.8979 74.1712 68.2394Z" fill="#5D59FF" stroke="#1E1E1E" stroke-width="0.892856" stroke-linecap="round" stroke-linejoin="round"/>
<defs>
<clipPath id="clip0_32_1437">
<rect width="44.6429" height="29.0178" fill="white" transform="translate(30.3569 33)"/>
</clipPath>
<clipPath id="clip1_32_1437">
<rect width="44.6429" height="29.0178" fill="white" transform="translate(25 38.3569)"/>
</clipPath>
<clipPath id="clip2_32_1437">
<rect width="17.8571" height="17.8571" fill="white" transform="translate(26.7856 44.6069)"/>
</clipPath>
</defs>
</svg>
