<svg width="100" height="100" viewBox="0 0 100 100" fill="none" xmlns="http://www.w3.org/2000/svg">
<rect x="0.783871" y="0.783871" width="98.4323" height="98.4323" rx="3.13548" fill="#FAFAFA"/>
<rect x="0.783871" y="0.783871" width="98.4323" height="98.4323" rx="3.13548" stroke="#5D59FF" stroke-width="1.56774"/>
<path d="M71.729 51.6355C71.729 56.2565 70.3587 60.7738 67.7913 64.6161C65.224 68.4584 61.575 71.4531 57.3057 73.2215C53.0364 74.9899 48.3386 75.4526 43.8063 74.551C39.274 73.6495 35.1109 71.4243 31.8433 68.1567C28.5757 64.8891 26.3505 60.7259 25.4489 56.1937C24.5474 51.6614 25.0101 46.9636 26.7785 42.6943C28.5469 38.425 31.5416 34.7759 35.3839 32.2086C39.2261 29.6413 43.7434 28.271 48.3645 28.271V51.6355H71.729Z" fill="#5D59FF"/>
<path d="M75 48.3645C75 45.2962 74.3956 42.258 73.2215 39.4233C72.0473 36.5886 70.3263 34.0129 68.1567 31.8433C65.9871 29.6737 63.4114 27.9527 60.5767 26.7785C57.742 25.6043 54.7038 25 51.6355 25L51.6355 48.3645H75Z" fill="#353395"/>
</svg>
