<svg width="60" height="60" viewBox="0 0 60 60" fill="none" xmlns="http://www.w3.org/2000/svg">
<circle cx="30" cy="30" r="30" fill="#D9D9D9"/>
<path d="M21.38 37.24C20.0733 37.24 18.9267 36.9667 17.94 36.42C16.9533 35.8733 16.1867 35.0667 15.64 34C15.1067 32.9333 14.84 31.6133 14.84 30.04C14.84 28.4933 15.1067 27.1733 15.64 26.08C16.1867 24.9733 16.9667 24.1333 17.98 23.56C18.9933 22.9733 20.2133 22.68 21.64 22.68C22.4133 22.68 23.2133 22.7667 24.04 22.94C24.88 23.1133 25.7267 23.38 26.58 23.74L26.38 27.32H24.68L24.2 25L24.64 25.4C24.1733 25.24 23.7 25.1133 23.22 25.02C22.74 24.9133 22.2867 24.86 21.86 24.86C21.0333 24.86 20.3267 25.0533 19.74 25.44C19.1533 25.8267 18.7 26.4 18.38 27.16C18.0733 27.92 17.92 28.8667 17.92 30C17.92 31.5733 18.24 32.8067 18.88 33.7C19.5333 34.5933 20.48 35.04 21.72 35.04C22.0933 35.04 22.4867 35 22.9 34.92C23.3133 34.8267 23.74 34.7 24.18 34.54L23.84 35.14V31.34L24.3 31.84L22.38 31.46V29.98L27.94 29.88V31.38L26.22 31.84L26.5 31.34V36.12C25.58 36.4933 24.6867 36.7733 23.82 36.96C22.9533 37.1467 22.14 37.24 21.38 37.24ZM45.0564 24.36L43.1964 25L43.5964 24.26V35.6L43.1964 35.02L45.0564 35.56V37H39.4764V35.56L41.4164 35L40.9564 35.6V25.98L41.3764 26L37.7164 33.34L35.9164 33.44L32.3964 25.96H32.8164V35.6L32.4964 35.06L34.2964 35.56V37H29.0364V35.56L30.8964 35.02L30.5164 35.6V24.26L30.8964 24.96L29.0364 24.46V23.02L34.0164 22.92L37.3164 30.58H36.9764L40.4364 23.02L45.0564 22.92V24.36Z" fill="#828282"/>
</svg>
