<svg width="160" height="160" viewBox="0 0 160 160" fill="none" xmlns="http://www.w3.org/2000/svg">
<rect x="1" y="1" width="158" height="158" rx="4" fill="#FAFAFA"/>
<rect x="1" y="1" width="158" height="158" rx="4" stroke="#5D59FF" stroke-width="2"/>
<rect width="100" height="65" transform="translate(36 41)" fill="#5D59FF"/>
<rect width="100" height="10" transform="translate(36 41)" fill="#1E1E1E"/>
<circle cx="41" cy="46" r="1" fill="#D1CFFF"/>
<circle cx="45" cy="46" r="1" fill="#D1CFFF"/>
<circle cx="49" cy="46" r="1" fill="#D1CFFF"/>
<rect width="100" height="65" transform="translate(24 53)" fill="#D1CFFF"/>
<rect width="100" height="10" transform="translate(24 53)" fill="#1E1E1E"/>
<circle cx="29" cy="58" r="1" fill="#D1CFFF"/>
<circle cx="33" cy="58" r="1" fill="#D1CFFF"/>
<circle cx="37" cy="58" r="1" fill="#D1CFFF"/>
<line x1="72" y1="72" x2="99" y2="72" stroke="#353395" stroke-width="2"/>
<line x1="72" y1="78" x2="120" y2="78" stroke="#1E1E1E" stroke-width="2"/>
<line x1="100" y1="84" x2="120" y2="84" stroke="#1E1E1E" stroke-width="2"/>
<line x1="72" y1="90" x2="120" y2="90" stroke="#1E1E1E" stroke-width="2"/>
<line x1="72" y1="96" x2="95" y2="96" stroke="#1E1E1E" stroke-width="2"/>
<line x1="97" y1="96" x2="120" y2="96" stroke="#1E1E1E" stroke-width="2"/>
<rect width="40" height="40" transform="translate(28 67)" fill="#D1CFFF"/>
<path d="M36.056 99.84C35.592 99.84 35.08 99.8 34.52 99.72C33.976 99.656 33.528 99.576 33.176 99.48V97.704C33.848 97.912 34.568 98.016 35.336 98.016C36.456 98.016 37.424 97.832 38.24 97.464C39.072 97.096 39.704 96.6 40.136 95.976C40.568 95.352 40.784 94.664 40.784 93.912C40.784 92.888 40.48 92.096 39.872 91.536C39.264 90.976 38.36 90.68 37.16 90.648L35.72 91.008L35.216 89.544C35.872 89.432 36.52 89.232 37.16 88.944C38.088 88.528 38.808 88.008 39.32 87.384C39.832 86.744 40.088 86.064 40.088 85.344C40.088 84.544 39.84 83.96 39.344 83.592C38.864 83.224 38.248 83.04 37.496 83.04C36.792 83.04 36.128 83.16 35.504 83.4C34.896 83.64 34.376 83.936 33.944 84.288L33.104 82.824C33.568 82.376 34.32 81.936 35.36 81.504C36.416 81.072 37.488 80.856 38.576 80.856C40.096 80.856 41.328 81.184 42.272 81.84C43.232 82.48 43.712 83.456 43.712 84.768C43.712 85.92 43.264 86.936 42.368 87.816C41.472 88.696 40.376 89.368 39.08 89.832C39.24 89.816 39.48 89.808 39.8 89.808C41.224 89.808 42.376 90.168 43.256 90.888C44.152 91.608 44.6 92.568 44.6 93.768C44.616 94.92 44.272 95.952 43.568 96.864C42.88 97.792 41.888 98.52 40.592 99.048C39.296 99.576 37.784 99.84 36.056 99.84ZM48.4258 79.968L46.6258 79.656V78.168H50.1298C50.6578 78.168 51.3698 78.136 52.2658 78.072C52.4738 78.056 52.7858 78.04 53.2018 78.024C53.6338 78.008 54.0178 78 54.3538 78C57.2978 78 59.4978 78.736 60.9538 80.208C62.4258 81.68 63.1618 83.768 63.1618 86.472C63.1618 88.36 62.7938 90.04 62.0578 91.512C61.3378 92.984 60.3058 94.136 58.9618 94.968C57.6178 95.784 56.0498 96.192 54.2578 96.192C53.7938 96.192 53.0658 96.16 52.0738 96.096C51.1458 96.032 50.5138 96 50.1778 96H46.5298V94.56L48.4258 94.32V79.968ZM51.9058 94.392C52.4498 94.536 53.2098 94.608 54.1858 94.608C55.7858 94.576 57.0418 93.936 57.9538 92.688C58.8658 91.424 59.3218 89.536 59.3218 87.024C59.3218 84.64 58.8738 82.8 57.9778 81.504C57.0818 80.192 55.6898 79.536 53.8018 79.536C53.4018 79.536 53.0178 79.56 52.6497 79.608C52.2978 79.656 52.0498 79.688 51.9058 79.704V94.392Z" fill="#353395"/>
<rect width="48" height="7" transform="translate(72 102)" fill="#A17CFC"/>
</svg>
