<svg width="594" height="419" viewBox="0 0 594 419" fill="none" xmlns="http://www.w3.org/2000/svg">
<path d="M86.9957 371.628C202.997 434.783 390.998 434.797 506.999 371.628C623 308.46 623 206.048 506.999 142.88C390.998 79.7121 202.997 79.7121 86.9957 142.88C-29.0052 206.048 -28.9919 308.434 86.9957 371.628Z" fill="#F0F0F0"/>
<path d="M148.823 348.704L229.637 395.328C242.784 402.907 264.104 402.907 277.251 395.328L475.333 281.073C488.479 273.494 488.479 261.199 475.333 253.606L394.519 206.982C381.359 199.402 360.038 199.402 346.892 206.982L148.823 321.236C135.663 328.816 135.663 341.111 148.823 348.704Z" fill="#F0F0F0"/>
<path d="M465.639 267.325C464.812 262.942 463.319 255.789 458.132 250.127C452.517 244.141 445.897 239.182 438.572 235.474C431.292 231.771 427.318 221.794 441.105 222.153C453.825 222.526 465.919 236.806 467.345 248.955L465.639 267.325Z" fill="#1EA123"/>
<path d="M466.772 255.79C466.601 255.79 466.435 255.726 466.309 255.61C466.183 255.494 466.106 255.334 466.092 255.164C464.559 235.702 443.545 226.523 439.425 226.137C439.326 226.146 439.227 226.133 439.133 226.099C439.04 226.065 438.955 226.011 438.885 225.94C438.814 225.87 438.76 225.785 438.727 225.692C438.693 225.598 438.68 225.498 438.689 225.399C438.698 225.301 438.728 225.205 438.778 225.119C438.828 225.033 438.896 224.959 438.978 224.902C439.06 224.846 439.153 224.808 439.251 224.791C439.349 224.774 439.449 224.779 439.545 224.805C444.105 225.218 465.892 234.449 467.546 255.084C467.553 255.173 467.542 255.263 467.515 255.348C467.487 255.433 467.443 255.512 467.385 255.58C467.327 255.648 467.255 255.704 467.175 255.745C467.096 255.785 467.008 255.81 466.919 255.816L466.772 255.79Z" fill="#FAFAFA"/>
<path d="M476.799 267.326C477.586 264.262 480.719 259.107 484.799 257.668C488.879 256.23 497.799 258.308 501.826 251.874C505.853 245.44 502.279 236.568 502.946 232.931C503.613 229.295 506.173 226.271 511.253 222.781C516.333 219.291 518.773 212.563 515.893 209.353C513.013 206.143 507.826 205.743 501.013 210.432C494.199 215.121 493.973 213.909 487.973 213.363C481.973 212.817 476.626 219.077 475.679 227.789L476.799 267.326Z" fill="#1EA123"/>
<path d="M476.346 251.913H476.186C476.098 251.894 476.016 251.858 475.942 251.807C475.869 251.755 475.807 251.69 475.76 251.614C475.713 251.538 475.681 251.453 475.667 251.365C475.653 251.277 475.657 251.187 475.679 251.1C480.039 231.825 502.039 214.001 510.066 210.977C510.243 210.914 510.438 210.923 510.608 211.003C510.778 211.083 510.909 211.227 510.973 211.404C511.036 211.58 511.027 211.775 510.947 211.945C510.867 212.115 510.723 212.246 510.546 212.309C502.719 215.267 481.212 232.637 477.012 251.46C476.964 251.597 476.873 251.714 476.753 251.796C476.634 251.877 476.491 251.918 476.346 251.913Z" fill="#FAFAFA"/>
<path d="M486.626 232.092C486.489 232.092 486.355 232.051 486.241 231.975C486.127 231.9 486.038 231.792 485.986 231.665C483.826 226.337 484.239 219.277 484.252 218.971C484.303 218.828 484.399 218.705 484.526 218.622C484.653 218.539 484.803 218.5 484.955 218.51C485.106 218.521 485.25 218.581 485.364 218.681C485.478 218.781 485.556 218.915 485.586 219.064C485.586 219.064 485.172 226.137 487.226 231.146C487.26 231.23 487.278 231.32 487.277 231.41C487.276 231.501 487.257 231.59 487.221 231.674C487.185 231.757 487.132 231.832 487.067 231.895C487.001 231.957 486.924 232.006 486.839 232.038C486.772 232.07 486.7 232.088 486.626 232.092Z" fill="#FAFAFA"/>
<path d="M496.999 245.493C493.986 245.493 486.252 245.08 480.199 241.11C480.047 241.011 479.94 240.856 479.903 240.679C479.865 240.501 479.9 240.316 479.999 240.165C480.098 240.013 480.253 239.906 480.431 239.869C480.608 239.831 480.794 239.866 480.946 239.965C488.079 244.64 498.079 244.108 498.186 244.094C498.276 244.089 498.367 244.102 498.452 244.132C498.538 244.162 498.616 244.209 498.683 244.269C498.75 244.33 498.805 244.404 498.843 244.486C498.881 244.568 498.902 244.657 498.906 244.747C498.911 244.836 498.899 244.926 498.87 245.01C498.84 245.095 498.795 245.173 498.735 245.239C498.676 245.306 498.604 245.361 498.523 245.4C498.443 245.439 498.355 245.461 498.266 245.466C498.106 245.48 497.653 245.493 496.999 245.493Z" fill="#FAFAFA"/>
<path d="M247.864 392.942C246.317 387.387 241.091 382.592 232.437 377.61C223.784 372.628 208.97 366.207 212.437 357.508C215.904 348.81 230.984 355.817 236.624 360.732C244.011 367.179 249.731 376.717 249.891 383.285L247.864 392.942Z" fill="#1EA123"/>
<path d="M249.264 387.188C249.105 387.189 248.951 387.135 248.827 387.035C248.703 386.936 248.617 386.797 248.584 386.642C245.384 371.443 227.357 359.694 218.597 357.656C218.419 357.614 218.264 357.504 218.167 357.35C218.069 357.195 218.037 357.008 218.077 356.83C218.121 356.653 218.232 356.501 218.386 356.404C218.54 356.308 218.725 356.274 218.903 356.31C227.97 358.428 246.61 370.604 249.93 386.362C249.95 386.451 249.951 386.542 249.935 386.631C249.919 386.72 249.885 386.805 249.835 386.881C249.785 386.956 249.721 387.021 249.646 387.072C249.57 387.123 249.486 387.157 249.397 387.175L249.264 387.188Z" fill="#FAFAFA"/>
<path d="M259.023 392.942C259.717 386.894 264.744 383.298 270.864 381.859C276.984 380.42 282.424 379.448 282.864 372.734C283.304 366.02 277.157 360.492 282.09 354.724C287.024 348.956 294.544 342.922 294.024 332.798C293.504 322.674 284.09 321.622 280.424 328.002C276.757 334.383 275.997 338.806 270.837 338.193C265.677 337.58 257.41 340.95 256.37 356.363L259.023 392.942Z" fill="#1EA123"/>
<path d="M258.104 380.741H258.011C257.831 380.714 257.669 380.619 257.559 380.474C257.45 380.33 257.401 380.148 257.424 379.968C259.464 364.875 270.051 351.994 277.784 342.589C281.104 338.593 283.971 335.063 285.211 332.505C285.248 332.424 285.301 332.35 285.367 332.289C285.433 332.228 285.51 332.181 285.595 332.15C285.679 332.119 285.769 332.105 285.858 332.109C285.948 332.113 286.036 332.134 286.118 332.172C286.281 332.253 286.407 332.394 286.469 332.565C286.531 332.736 286.525 332.925 286.451 333.092C285.118 335.756 282.224 339.352 278.838 343.469C271.211 352.793 260.771 365.435 258.837 380.155C258.814 380.328 258.725 380.485 258.588 380.595C258.452 380.704 258.278 380.756 258.104 380.741Z" fill="#FAFAFA"/>
<path d="M266.33 359.161C266.189 359.162 266.052 359.119 265.937 359.038C265.822 358.957 265.735 358.841 265.69 358.708C264.472 354.47 263.893 350.075 263.97 345.666C263.977 345.484 264.055 345.311 264.186 345.184C264.318 345.058 264.494 344.987 264.677 344.987C264.767 344.989 264.857 345.008 264.939 345.045C265.022 345.082 265.097 345.134 265.159 345.2C265.221 345.266 265.269 345.343 265.301 345.428C265.333 345.513 265.347 345.603 265.344 345.693C265.274 349.938 265.826 354.17 266.984 358.255C267.015 358.339 267.029 358.43 267.024 358.52C267.019 358.61 266.996 358.698 266.956 358.779C266.916 358.86 266.86 358.932 266.792 358.991C266.723 359.05 266.643 359.094 266.557 359.121C266.485 359.148 266.408 359.161 266.33 359.161Z" fill="#FAFAFA"/>
<path d="M275.784 372.375C270.748 372.092 265.794 370.985 261.117 369.098C261.033 369.067 260.956 369.019 260.89 368.958C260.825 368.896 260.773 368.822 260.736 368.74C260.7 368.658 260.681 368.57 260.68 368.48C260.679 368.39 260.696 368.301 260.731 368.219C260.762 368.134 260.809 368.057 260.87 367.991C260.932 367.925 261.005 367.872 261.087 367.835C261.169 367.798 261.257 367.778 261.347 367.775C261.437 367.772 261.527 367.787 261.611 367.819C266.137 369.642 270.927 370.731 275.797 371.043C275.888 371.044 275.977 371.064 276.06 371.101C276.142 371.137 276.217 371.19 276.279 371.256C276.341 371.321 276.39 371.399 276.421 371.484C276.453 371.568 276.468 371.658 276.464 371.749C276.454 371.921 276.377 372.082 276.25 372.199C276.123 372.315 275.956 372.378 275.784 372.375Z" fill="#FAFAFA"/>
<path d="M150.503 293.102C150.823 292.968 151.836 271.588 142.609 258.987C133.383 246.385 122.249 244.933 114.916 247.997C107.582 251.061 109.076 258.587 118.102 263.103C127.129 267.619 138.369 275.491 141.049 289.878L150.503 293.102Z" fill="#1EA123"/>
<path d="M147.116 286.828C146.954 286.827 146.796 286.77 146.672 286.665C146.548 286.56 146.464 286.415 146.436 286.255C142.983 264.542 130.129 253.899 119.263 251.181C119.175 251.161 119.092 251.123 119.018 251.071C118.945 251.018 118.883 250.951 118.836 250.874C118.789 250.797 118.758 250.712 118.744 250.623C118.73 250.534 118.734 250.443 118.756 250.355C118.774 250.257 118.812 250.164 118.869 250.082C118.927 250 119.001 249.931 119.087 249.881C119.173 249.83 119.269 249.799 119.368 249.789C119.468 249.779 119.568 249.79 119.663 249.822C130.956 252.646 144.303 263.636 147.863 286.002C147.878 286.092 147.875 286.183 147.854 286.271C147.834 286.359 147.795 286.443 147.742 286.516C147.689 286.589 147.621 286.651 147.543 286.698C147.466 286.744 147.379 286.775 147.29 286.788L147.116 286.828Z" fill="#FAFAFA"/>
<path d="M148.85 332.799C147.516 327.164 141.77 323.474 135.063 322.835C128.09 322.209 119.983 321.503 117.823 315.641C115.663 309.78 117.823 301.801 116.849 297.898C115.663 293.169 113.849 290.358 104.689 287.481C96.4893 284.91 91.956 277.077 100.223 273.773C108.489 270.47 116.77 272.561 122.396 275.106C128.023 277.65 128.263 280.274 136.183 279.595C144.103 278.915 150.01 283.884 150.503 288.68L148.85 332.799Z" fill="#1EA123"/>
<path d="M148.849 313.683C148.708 313.681 148.57 313.637 148.453 313.557C148.336 313.476 148.247 313.362 148.196 313.23C141.689 295.113 115.076 278.715 106.222 277.676C106.043 277.653 105.88 277.56 105.768 277.418C105.656 277.276 105.604 277.096 105.622 276.917C105.643 276.735 105.734 276.569 105.876 276.454C106.018 276.339 106.2 276.285 106.382 276.304C115.476 277.383 142.823 294.194 149.489 312.763C149.521 312.848 149.536 312.938 149.532 313.029C149.528 313.119 149.506 313.208 149.468 313.29C149.429 313.372 149.375 313.445 149.308 313.506C149.24 313.566 149.162 313.613 149.076 313.643L148.849 313.683Z" fill="#FAFAFA"/>
<path d="M142.61 302.8H142.463C142.285 302.759 142.13 302.649 142.033 302.494C141.935 302.34 141.903 302.153 141.943 301.974C144.13 292.53 141.943 286.455 141.943 286.389C141.881 286.212 141.892 286.018 141.973 285.85C142.055 285.681 142.2 285.551 142.376 285.49C142.553 285.428 142.747 285.439 142.916 285.52C143.085 285.601 143.214 285.746 143.276 285.923C143.37 286.176 145.583 292.423 143.276 302.281C143.238 302.429 143.152 302.56 143.031 302.654C142.911 302.748 142.763 302.799 142.61 302.8Z" fill="#FAFAFA"/>
<path d="M147.116 309.766C147.004 309.766 146.894 309.739 146.796 309.686C141.463 306.795 129.863 308.86 129.743 308.873C129.653 308.896 129.559 308.901 129.467 308.886C129.375 308.872 129.287 308.839 129.209 308.789C129.13 308.739 129.063 308.674 129.011 308.597C128.958 308.52 128.922 308.433 128.905 308.342C128.888 308.251 128.889 308.157 128.91 308.066C128.93 307.976 128.969 307.89 129.024 307.815C129.078 307.74 129.148 307.677 129.228 307.63C129.308 307.583 129.397 307.553 129.489 307.541C129.983 307.448 141.676 305.37 147.449 308.487C147.606 308.549 147.734 308.665 147.81 308.815C147.887 308.964 147.907 309.136 147.866 309.299C147.825 309.461 147.727 309.604 147.589 309.7C147.451 309.795 147.283 309.838 147.116 309.819V309.766Z" fill="#FAFAFA"/>
<path d="M267.144 65.6458C262.037 60.8503 252.797 58.9853 241.197 66.0854C229.597 73.1855 220.423 95.8978 217.543 111.963C214.663 128.028 212.85 149.009 218.61 157.907C224.37 166.805 245.277 176.237 245.277 176.237L247.81 167.485L267.144 65.6458Z" fill="#5D59FF"/>
<path opacity="0.4" d="M267.144 65.6458C262.037 60.8503 252.797 58.9853 241.197 66.0854C229.597 73.1855 220.423 95.8978 217.543 111.963C214.663 128.028 212.85 149.009 218.61 157.907C224.37 166.805 245.277 176.237 245.277 176.237L247.81 167.485L267.144 65.6458Z" fill="#FAFAFA"/>
<path d="M224.343 155.243C233.397 166.072 247.863 167.538 247.863 167.538L303.664 135.261L281.317 122.38L224.343 155.243Z" fill="#A17CFC"/>
<path opacity="0.2" d="M224.343 155.243C233.397 166.072 247.863 167.538 247.863 167.538L303.664 135.261L281.317 122.38L224.343 155.243Z" fill="#1E1E1E"/>
<path d="M224.344 155.243C220.677 150.9 219.93 139.724 221.917 122.447C224.077 103.478 231.104 74.1315 247.851 64.4604C267.491 53.1376 287.438 81.2715 281.357 122.447L224.344 155.243Z" fill="#A17CFC"/>
<path d="M355.064 247.051C365.371 258.72 372.918 261.038 375.678 263.529C378.438 266.02 377.345 271.402 371.185 273.12C365.025 274.838 358.104 273.826 353.771 270.109C349.438 266.393 346.224 261.318 341.878 258.68C337.531 256.042 335.371 255.416 334.491 252.02C333.611 248.623 335.958 238.032 335.958 238.032L355.064 247.051Z" fill="#1E1E1E"/>
<path d="M349.158 228.508C348.611 233.064 347.945 237.073 351.412 242.255C352.531 243.922 353.751 245.519 355.065 247.038C361.092 253.978 365.985 259.386 366.852 260.359C367.718 261.331 363.305 264.861 357.838 263.023C352.372 261.184 347.238 253.698 343.425 249.262C341.731 247.277 340.078 245.479 338.771 244.094C337.014 242.246 335.994 239.82 335.905 237.273L335.651 230.08L349.158 228.508Z" fill="#FFA8A7"/>
<path d="M323.771 266.14C334.078 277.822 341.612 280.127 344.385 282.618C347.158 285.109 346.052 290.504 339.892 292.222C333.731 293.94 326.811 292.928 322.465 289.198C318.118 285.468 314.931 280.42 310.585 277.782C306.238 275.145 304.065 274.518 303.198 271.122C302.331 267.725 304.665 257.135 304.665 257.135L323.771 266.14Z" fill="#1E1E1E"/>
<path d="M317.851 247.61C317.318 252.179 316.638 256.176 320.118 261.358C321.234 263.026 322.454 264.624 323.771 266.14C329.798 273.093 334.678 278.502 335.545 279.461C336.411 280.42 332.011 283.963 326.531 282.125C321.051 280.287 315.931 272.8 312.131 268.378C310.438 266.38 308.784 264.595 307.478 263.209C305.722 261.361 304.703 258.935 304.611 256.389L304.344 249.182L317.851 247.61Z" fill="#FFA8A7"/>
<path d="M276.17 1.50918e-05H284.09C287.184 -0.00348535 290.248 0.601976 293.107 1.78181C295.966 2.96165 298.564 4.69274 300.753 6.87616C302.942 9.05959 304.679 11.6526 305.865 14.5069C307.051 17.3613 307.662 20.4211 307.664 23.5116V82.6035H252.624V23.5116C252.627 17.2747 255.109 11.2945 259.525 6.88558C263.94 2.4767 269.928 1.40919e-05 276.17 1.50918e-05Z" fill="#1E1E1E"/>
<path d="M310.971 68.6563C301.757 58.9853 297.051 57.9995 291.451 57.9995L302.117 89.3038C302.117 89.3038 319.664 100.893 329.931 107.287L336.451 92.9272C336.451 92.9272 320.184 78.2874 310.971 68.6563Z" fill="#FFA8A7"/>
<path d="M248.704 139.258C245.277 146.637 240.864 154.483 245.33 162.076C249.797 169.669 286.077 162.076 286.077 162.076V139.258H248.704Z" fill="#1E1E1E"/>
<path d="M287.957 57.9991C291.957 57.6661 296.491 57.786 301.291 65.8585C306.091 73.931 308.784 78.4602 307.264 90.2093C305.744 101.958 300.064 111.017 299.651 115.413C299.237 119.809 300.291 140.936 300.291 140.936C300.291 140.936 293.277 150.94 275.837 151.406C270.696 151.518 265.594 150.487 260.9 148.385C256.207 146.284 252.041 143.166 248.704 139.257L262.037 115.359L258.624 66.791L271.65 58.9982L287.957 57.9991Z" fill="#5D59FF"/>
<path d="M287.957 57.9991C291.957 57.6661 296.491 57.786 301.291 65.8585C306.091 73.931 308.784 78.4602 307.264 90.2093C305.744 101.958 300.064 111.017 299.651 115.413C299.237 119.809 300.291 140.936 300.291 140.936C300.291 140.936 293.277 150.94 275.837 151.406C270.696 151.518 265.594 150.487 260.9 148.385C256.207 146.284 252.041 143.166 248.704 139.257L262.037 115.359L258.624 66.791L271.65 58.9982L287.957 57.9991Z" fill="#FAFAFA"/>
<path d="M271.664 75.1836C270.4 75.1836 269.149 74.9348 267.982 74.4513C266.815 73.9678 265.754 73.2591 264.861 72.3658C263.968 71.4726 263.261 70.4122 262.778 69.2454C262.296 68.0786 262.049 66.8283 262.05 65.5659V37.5918H271.664V75.1836Z" fill="#1E1E1E"/>
<path d="M298.598 11.1096C301.491 12.828 305.091 20.1279 304.731 35.4204C304.438 48.3951 300.224 51.5921 298.064 52.5246C295.904 53.4571 291.877 52.8843 287.904 52.2182V60.011C287.904 60.011 293.384 66.3651 293.037 69.9218C292.691 73.4785 285.131 74.3444 280.011 70.8543C276.69 68.4645 273.838 65.4842 271.597 62.0624V43.2398C271.597 43.2398 268.931 46.8099 264.557 43.9059C260.184 41.0019 260.011 33.8219 262.557 31.251C265.104 28.68 270.557 29.4793 271.597 33.0493C271.597 33.0493 277.917 33.2758 286.264 28.6667C289.559 26.9178 292.394 24.4159 294.537 21.3648C296.68 18.3137 298.071 14.7999 298.598 11.1096Z" fill="#FFA8A7"/>
<path d="M290.237 32.1705C290.257 32.6015 290.104 33.0226 289.813 33.3411C289.522 33.6596 289.116 33.8495 288.684 33.8689C288.253 33.8884 287.831 33.7358 287.512 33.4447C287.194 33.1537 287.004 32.748 286.984 32.317C286.974 32.1036 287.007 31.8904 287.08 31.6895C287.153 31.4887 287.264 31.3041 287.409 31.1464C287.553 30.9887 287.727 30.8609 287.92 30.7703C288.114 30.6798 288.324 30.6282 288.537 30.6186C288.751 30.609 288.964 30.6415 289.165 30.7143C289.367 30.7871 289.551 30.8987 289.709 31.0428C289.867 31.1869 289.995 31.3607 290.086 31.5541C290.176 31.7476 290.228 31.9571 290.237 32.1705Z" fill="#1E1E1E"/>
<path d="M287.29 27.1756L283.904 29.267C283.628 28.8036 283.544 28.2514 283.668 27.727C283.793 27.2026 284.116 26.7469 284.57 26.4563C284.795 26.3211 285.045 26.2323 285.305 26.1954C285.565 26.1584 285.829 26.1739 286.083 26.241C286.336 26.3081 286.574 26.4254 286.782 26.5859C286.989 26.7464 287.162 26.947 287.29 27.1756Z" fill="#1E1E1E"/>
<path d="M290.677 43.1599L294.464 44.3721C294.392 44.6231 294.271 44.8572 294.107 45.0607C293.944 45.2641 293.741 45.4329 293.511 45.557C293.281 45.6811 293.029 45.7581 292.769 45.7833C292.509 45.8086 292.247 45.7817 291.997 45.7042C291.494 45.5277 291.078 45.1662 290.832 44.6934C290.587 44.2207 290.532 43.6722 290.677 43.1599Z" fill="#F28F8F"/>
<path d="M303.664 27.1616L300.357 24.8704C300.495 24.6468 300.677 24.4538 300.893 24.3033C301.108 24.1528 301.352 24.0481 301.609 23.9957C301.867 23.9433 302.132 23.9442 302.389 23.9984C302.647 24.0526 302.89 24.159 303.104 24.3109C303.544 24.6252 303.846 25.0954 303.95 25.6252C304.054 26.1551 303.952 26.7047 303.664 27.1616Z" fill="#1E1E1E"/>
<path d="M302.864 30.9848C302.869 31.3065 302.779 31.6224 302.605 31.8933C302.432 32.1642 302.182 32.378 301.888 32.5081C301.593 32.6381 301.267 32.6787 300.949 32.6247C300.632 32.5707 300.337 32.4246 300.103 32.2045C299.868 31.9844 299.703 31.7001 299.629 31.3871C299.554 31.0741 299.574 30.7461 299.685 30.4442C299.796 30.1422 299.994 29.8796 300.253 29.6891C300.513 29.4986 300.823 29.3887 301.144 29.3729C301.363 29.3658 301.581 29.4019 301.786 29.4791C301.991 29.5562 302.179 29.673 302.339 29.8227C302.498 29.9724 302.627 30.1521 302.717 30.3515C302.807 30.5509 302.857 30.7661 302.864 30.9848Z" fill="#1E1E1E"/>
<path d="M295.157 30.052L295.424 39.8696L300.597 38.2711L295.157 30.052Z" fill="#F28F8F"/>
<path d="M287.957 52.2183C284.664 51.8453 278.051 49.8472 276.584 47.6226C276.867 49.0436 277.658 50.3128 278.811 51.1926C280.971 53.2573 287.957 54.7493 287.957 54.7493V52.2183Z" fill="#F28F8F"/>
<path d="M253.438 273.773L147.343 212.577L370.705 83.7361L476.799 144.933L253.438 273.773Z" fill="#5D59FF"/>
<path opacity="0.4" d="M253.438 273.773L147.343 212.577L370.705 83.7361L476.799 144.933L253.438 273.773Z" fill="#5D59FF"/>
<path d="M147.343 212.577V334.97L152.93 338.194V254.445L247.864 309.194V392.943L253.438 396.167V273.773L147.343 212.577Z" fill="#353395"/>
<path opacity="0.3" d="M147.343 212.577V334.97L152.93 338.194V254.445L247.864 309.194V392.943L253.438 396.167V273.773L147.343 212.577Z" fill="#5D59FF"/>
<path d="M152.93 338.194L158.516 334.97V257.669L152.93 254.445V338.194Z" fill="#5D59FF"/>
<path opacity="0.5" d="M152.93 338.194L158.516 334.97V257.669L152.93 254.445V338.194Z" fill="#1E1E1E"/>
<path d="M253.437 396.167L259.024 392.943V309.194L471.212 186.801V270.55L476.799 267.326V144.933L253.437 273.774V396.167Z" fill="#353395"/>
<path opacity="0.1" d="M253.437 396.167L259.024 392.943V309.194L471.212 186.801V270.55L476.799 267.326V144.933L253.437 273.774V396.167Z" fill="#5D59FF"/>
<path d="M259.024 302.759V276.996L326.038 238.339V264.101L259.024 302.759Z" fill="#5D59FF"/>
<path opacity="0.3" d="M259.024 302.759V276.996L326.038 238.339V264.101L259.024 302.759Z" fill="#5D59FF"/>
<path d="M331.611 260.891V235.115L398.625 196.471V222.234L331.611 260.891Z" fill="#5D59FF"/>
<path opacity="0.3" d="M331.611 260.891V235.115L398.625 196.471V222.234L331.611 260.891Z" fill="#5D59FF"/>
<path d="M404.212 219.01V193.247L471.212 154.59V180.366L404.212 219.01Z" fill="#5D59FF"/>
<path opacity="0.3" d="M404.212 219.01V193.247L471.212 154.59V180.366L404.212 219.01Z" fill="#5D59FF"/>
<path d="M303.664 251.22V253.285C303.664 254.417 300.998 256.882 297.704 258.773L287.277 264.794C283.984 266.686 281.317 267.312 281.317 266.126V264.075L303.664 251.22Z" fill="#1E1E1E"/>
<path d="M376.291 209.352V211.417C376.291 212.549 373.624 215.013 370.331 216.905L359.904 222.926C356.624 224.818 353.958 225.43 353.958 224.258V222.194L376.291 209.352Z" fill="#1E1E1E"/>
<path d="M448.878 167.485V169.537C448.878 170.682 446.212 173.133 442.932 175.038L432.492 181.046C429.212 182.951 426.545 183.564 426.545 182.378V180.313L448.878 167.485Z" fill="#1E1E1E"/>
<path d="M471.212 270.549L465.639 267.325V190.024L471.212 186.8V270.549Z" fill="#5D59FF"/>
<path opacity="0.3" d="M471.212 270.549L465.639 267.325V190.024L471.212 186.8V270.549Z" fill="#5D59FF"/>
<path d="M314.864 153.218V152.752C314.888 152.34 315.008 151.938 315.214 151.58C315.42 151.222 315.706 150.916 316.051 150.687L386.332 110.192C386.702 110.006 387.111 109.91 387.525 109.91C387.939 109.91 388.348 110.006 388.718 110.192L403.092 118.477C403.436 118.706 403.723 119.011 403.929 119.37C404.135 119.728 404.254 120.129 404.278 120.542V121.022C404.251 121.433 404.128 121.832 403.92 122.188C403.712 122.544 403.424 122.847 403.078 123.073L332.878 163.569C332.507 163.754 332.099 163.85 331.684 163.85C331.27 163.85 330.862 163.754 330.491 163.569L316.051 155.243C315.712 155.019 315.428 154.719 315.222 154.368C315.017 154.017 314.894 153.624 314.864 153.218Z" fill="#5D59FF"/>
<path opacity="0.7" d="M314.864 153.218V152.752C314.888 152.34 315.008 151.938 315.214 151.58C315.42 151.222 315.706 150.916 316.051 150.687L386.332 110.192C386.702 110.006 387.111 109.91 387.525 109.91C387.939 109.91 388.348 110.006 388.718 110.192L403.092 118.477C403.436 118.706 403.723 119.011 403.929 119.37C404.135 119.728 404.254 120.129 404.278 120.542V121.022C404.251 121.433 404.128 121.832 403.92 122.188C403.712 122.544 403.424 122.847 403.078 123.073L332.878 163.569C332.507 163.754 332.099 163.85 331.684 163.85C331.27 163.85 330.862 163.754 330.491 163.569L316.051 155.243C315.712 155.019 315.428 154.719 315.222 154.368C315.017 154.017 314.894 153.624 314.864 153.218Z" fill="#FAFAFA"/>
<path d="M316.051 152.06L330.424 160.359C330.795 160.544 331.203 160.64 331.618 160.64C332.032 160.64 332.44 160.544 332.811 160.359L403.012 119.863C403.139 119.805 403.247 119.711 403.323 119.593C403.399 119.475 403.439 119.337 403.439 119.197C403.439 119.057 403.399 118.919 403.323 118.801C403.247 118.683 403.139 118.589 403.012 118.531L388.638 110.245C388.268 110.06 387.859 109.964 387.445 109.964C387.03 109.964 386.622 110.06 386.251 110.245L316.037 150.741C315.397 151.074 315.397 151.687 316.051 152.06Z" fill="#5D59FF"/>
<path opacity="0.9" d="M316.051 152.06L330.424 160.359C330.795 160.544 331.203 160.64 331.618 160.64C332.032 160.64 332.44 160.544 332.811 160.359L403.012 119.863C403.139 119.805 403.247 119.711 403.323 119.593C403.399 119.475 403.439 119.337 403.439 119.197C403.439 119.057 403.399 118.919 403.323 118.801C403.247 118.683 403.139 118.589 403.012 118.531L388.638 110.245C388.268 110.06 387.859 109.964 387.445 109.964C387.03 109.964 386.622 110.06 386.251 110.245L316.037 150.741C315.397 151.074 315.397 151.687 316.051 152.06Z" fill="#FAFAFA"/>
<path d="M226.717 191.782L268.997 216.186C269.368 216.371 269.776 216.468 270.191 216.468C270.605 216.468 271.013 216.371 271.384 216.186L302.504 198.23C302.637 198.176 302.75 198.083 302.83 197.965C302.91 197.846 302.952 197.706 302.952 197.564C302.952 197.421 302.91 197.281 302.83 197.162C302.75 197.044 302.637 196.951 302.504 196.897L260.21 172.507C259.844 172.316 259.437 172.217 259.024 172.217C258.611 172.217 258.204 172.316 257.837 172.507L226.717 190.41C226.05 190.796 226.05 191.409 226.717 191.782Z" fill="#5D59FF"/>
<path opacity="0.8" d="M226.717 191.782L268.997 216.186C269.368 216.371 269.776 216.468 270.191 216.468C270.605 216.468 271.013 216.371 271.384 216.186L302.504 198.23C302.637 198.176 302.75 198.083 302.83 197.965C302.91 197.846 302.952 197.706 302.952 197.564C302.952 197.421 302.91 197.281 302.83 197.162C302.75 197.044 302.637 196.951 302.504 196.897L260.21 172.507C259.844 172.316 259.437 172.217 259.024 172.217C258.611 172.217 258.204 172.316 257.837 172.507L226.717 190.41C226.05 190.796 226.05 191.409 226.717 191.782Z" fill="#FAFAFA"/>
<path d="M257.837 172.466L228.277 189.504L268.997 213.002C269.368 213.187 269.776 213.284 270.191 213.284C270.605 213.284 271.013 213.187 271.384 213.002L300.997 195.951L260.264 172.466C259.89 172.267 259.474 172.162 259.05 172.162C258.627 172.162 258.21 172.267 257.837 172.466Z" fill="#5D59FF"/>
<path opacity="0.7" d="M257.837 172.466L228.277 189.504L268.997 213.002C269.368 213.187 269.776 213.284 270.191 213.284C270.605 213.284 271.013 213.187 271.384 213.002L300.997 195.951L260.264 172.466C259.89 172.267 259.474 172.162 259.05 172.162C258.627 172.162 258.21 172.267 257.837 172.466Z" fill="#FAFAFA"/>
<path d="M226.717 187.493L268.997 211.884C269.368 212.069 269.776 212.165 270.191 212.165C270.605 212.165 271.013 212.069 271.384 211.884L302.504 193.94C302.632 193.882 302.74 193.788 302.816 193.67C302.892 193.552 302.932 193.415 302.932 193.274C302.932 193.134 302.892 192.997 302.816 192.879C302.74 192.761 302.632 192.667 302.504 192.608L260.21 168.164C259.842 167.981 259.436 167.886 259.024 167.886C258.612 167.886 258.206 167.981 257.837 168.164L226.717 186.121C226.571 186.167 226.443 186.258 226.353 186.382C226.262 186.505 226.213 186.654 226.213 186.807C226.213 186.96 226.262 187.109 226.353 187.232C226.443 187.356 226.571 187.447 226.717 187.493Z" fill="#5D59FF"/>
<path opacity="0.9" d="M226.717 187.493L268.997 211.884C269.368 212.069 269.776 212.165 270.191 212.165C270.605 212.165 271.013 212.069 271.384 211.884L302.504 193.94C302.632 193.882 302.74 193.788 302.816 193.67C302.892 193.552 302.932 193.415 302.932 193.274C302.932 193.134 302.892 192.997 302.816 192.879C302.74 192.761 302.632 192.667 302.504 192.608L260.21 168.164C259.842 167.981 259.436 167.886 259.024 167.886C258.612 167.886 258.206 167.981 257.837 168.164L226.717 186.121C226.571 186.167 226.443 186.258 226.353 186.382C226.262 186.505 226.213 186.654 226.213 186.807C226.213 186.96 226.262 187.109 226.353 187.232C226.443 187.356 226.571 187.447 226.717 187.493Z" fill="#FAFAFA"/>
<path d="M250.157 162.077C248.757 165.886 250.904 168.964 254.971 168.937C257.108 168.826 259.17 168.116 260.922 166.888C262.674 165.661 264.045 163.966 264.878 161.997C266.291 158.187 264.131 155.11 260.064 155.136C257.927 155.248 255.865 155.958 254.113 157.185C252.361 158.412 250.99 160.108 250.157 162.077Z" fill="#5D59FF"/>
<path opacity="0.1" d="M250.157 162.077C248.757 165.886 250.904 168.964 254.971 168.937C257.108 168.826 259.17 168.116 260.922 166.888C262.674 165.661 264.045 163.966 264.878 161.997C266.291 158.187 264.131 155.11 260.064 155.136C257.927 155.248 255.865 155.958 254.113 157.185C252.361 158.412 250.99 160.108 250.157 162.077Z" fill="#1E1E1E"/>
<path d="M253.53 180.153C250.344 188.772 255.224 195.739 264.437 195.685C273.65 195.632 283.664 188.545 286.864 179.967C290.064 171.388 285.157 164.394 275.957 164.434C266.757 164.474 256.704 171.521 253.53 180.153Z" fill="#A17CFC"/>
<path d="M260.997 155.243L255.477 159.092L249.957 162.942C248.13 170.176 247.584 181.472 254.37 191.196L286.131 169.03C279.277 159.239 268.371 155.962 260.997 155.243Z" fill="#A17CFC"/>
<path d="M264.184 155.762C264.184 155.762 265.171 164.487 258.624 168.443C258.624 168.443 264.784 166.752 266.624 162.422C268.464 158.093 264.184 155.762 264.184 155.762Z" fill="#1E1E1E"/>
<path d="M264.997 156.748C262.538 153.333 259.229 150.62 255.397 148.875L250.97 152.019L250.477 152.366L246.037 155.509C246.422 159.682 247.883 163.684 250.277 167.125C250.829 167.826 251.544 168.382 252.359 168.744C253.175 169.106 254.067 169.264 254.957 169.203C257.208 169.08 259.378 168.327 261.22 167.029C263.061 165.73 264.5 163.94 265.371 161.863C265.73 161.039 265.881 160.139 265.811 159.243C265.741 158.346 265.453 157.481 264.971 156.722L264.997 156.748Z" fill="#1E1E1E"/>
<path d="M246.183 153.138C245.917 153.674 245.8 154.272 245.846 154.869C245.892 155.466 246.099 156.039 246.445 156.528C246.791 157.017 247.263 157.404 247.811 157.646C248.358 157.889 248.962 157.979 249.557 157.907C251.044 157.828 252.479 157.331 253.696 156.473C254.914 155.616 255.864 154.432 256.437 153.058C256.703 152.523 256.819 151.926 256.773 151.331C256.728 150.735 256.522 150.163 256.178 149.674C255.834 149.186 255.364 148.799 254.818 148.555C254.272 148.312 253.671 148.22 253.077 148.289C251.59 148.376 250.157 148.876 248.939 149.733C247.721 150.589 246.767 151.769 246.183 153.138Z" fill="#1E1E1E"/>
<path d="M255.277 163.968C254.723 163.17 253.989 162.514 253.135 162.051C252.28 161.588 251.329 161.332 250.357 161.304C249.988 161.271 249.617 161.347 249.29 161.523C248.963 161.698 248.695 161.964 248.517 162.289L235.424 193.873C235.328 194.18 235.304 194.504 235.355 194.821C235.406 195.137 235.53 195.438 235.717 195.698C236.272 196.499 237.008 197.157 237.865 197.62C238.722 198.083 239.677 198.337 240.651 198.363C241.02 198.397 241.392 198.321 241.719 198.146C242.046 197.971 242.314 197.703 242.491 197.377L255.557 165.899C255.681 165.581 255.721 165.235 255.671 164.897C255.622 164.558 255.487 164.238 255.277 163.968Z" fill="#1E1E1E"/>
<path d="M270.864 241.323C270.864 240.875 270.815 240.428 270.717 239.991C269.595 234.881 266.58 230.384 262.277 227.403H244.61C240.304 230.383 237.284 234.879 236.157 239.991C236.063 240.429 236.018 240.875 236.024 241.323C236.019 241.403 236.019 241.483 236.024 241.563C236.184 244.001 237.864 246.412 241.09 248.223C247.904 252.22 258.93 252.22 265.744 248.223C268.97 246.358 270.65 243.947 270.81 241.563C270.833 241.484 270.851 241.404 270.864 241.323Z" fill="#1E1E1E"/>
<path d="M253.437 238.739C259.976 238.739 265.277 235.68 265.277 231.905C265.277 228.131 259.976 225.072 253.437 225.072C246.898 225.072 241.597 228.131 241.597 231.905C241.597 235.68 246.898 238.739 253.437 238.739Z" fill="#1E1E1E"/>
<path d="M250.638 230.28C250.297 230.393 250.001 230.61 249.791 230.9C249.581 231.191 249.468 231.54 249.468 231.899C249.468 232.257 249.581 232.606 249.791 232.897C250.001 233.187 250.297 233.404 250.638 233.517C251.508 233.957 252.469 234.186 253.444 234.186C254.419 234.186 255.381 233.957 256.251 233.517C256.591 233.404 256.888 233.187 257.098 232.897C257.308 232.606 257.421 232.257 257.421 231.899C257.421 231.54 257.308 231.191 257.098 230.9C256.888 230.61 256.591 230.393 256.251 230.28C255.381 229.84 254.419 229.611 253.444 229.611C252.469 229.611 251.508 229.84 250.638 230.28Z" fill="#1E1E1E"/>
<path d="M234.424 199.402C234.083 199.514 233.787 199.731 233.577 200.022C233.367 200.312 233.254 200.662 233.254 201.02C233.254 201.378 233.367 201.728 233.577 202.018C233.787 202.309 234.083 202.526 234.424 202.639C235.294 203.079 236.255 203.308 237.23 203.308C238.206 203.308 239.167 203.079 240.037 202.639C240.378 202.526 240.674 202.309 240.884 202.018C241.094 201.728 241.207 201.378 241.207 201.02C241.207 200.662 241.094 200.312 240.884 200.022C240.674 199.731 240.378 199.514 240.037 199.402C239.167 198.961 238.206 198.732 237.23 198.732C236.255 198.732 235.294 198.961 234.424 199.402Z" fill="#5D59FF"/>
<path opacity="0.3" d="M234.424 199.402C234.083 199.514 233.787 199.731 233.577 200.022C233.367 200.312 233.254 200.662 233.254 201.02C233.254 201.378 233.367 201.728 233.577 202.018C233.787 202.309 234.083 202.526 234.424 202.639C235.294 203.079 236.255 203.308 237.23 203.308C238.206 203.308 239.167 203.079 240.037 202.639C240.378 202.526 240.674 202.309 240.884 202.018C241.094 201.728 241.207 201.378 241.207 201.02C241.207 200.662 241.094 200.312 240.884 200.022C240.674 199.731 240.378 199.514 240.037 199.402C239.167 198.961 238.206 198.732 237.23 198.732C236.255 198.732 235.294 198.961 234.424 199.402Z" fill="#1E1E1E"/>
<path d="M241.05 200.374L257.25 231.252L249.637 232.558L233.41 201.64L241.05 200.374Z" fill="#1E1E1E"/>
<path d="M235.33 191.383C234.828 191.259 234.302 191.285 233.814 191.455C233.327 191.625 232.899 191.933 232.583 192.342C231.669 193.37 231.01 194.6 230.66 195.931C230.31 197.262 230.279 198.656 230.57 200.001C230.651 200.443 230.834 200.86 231.105 201.219C231.375 201.577 231.727 201.867 232.13 202.066L238.183 204.331L241.197 193.541L235.33 191.383Z" fill="#1E1E1E"/>
<path d="M238.557 194.58C237.639 195.609 236.977 196.841 236.625 198.174C236.273 199.507 236.24 200.905 236.53 202.253C237.197 204.69 239.197 205.21 240.957 203.412C241.875 202.385 242.537 201.156 242.889 199.825C243.241 198.493 243.274 197.098 242.984 195.752C242.33 193.314 240.33 192.795 238.557 194.58Z" fill="#A17CFC"/>
<path d="M208.117 221.342C213.744 215.614 217.037 201.294 211.557 196.752H183.663C178.183 201.294 181.477 215.601 187.103 221.342L187.25 221.502L187.45 221.689C187.609 221.85 187.779 222.001 187.957 222.142L188.09 222.248L188.517 222.568C188.747 222.737 188.988 222.893 189.237 223.034C191.835 224.347 194.705 225.032 197.617 225.032C200.528 225.032 203.399 224.347 205.997 223.034C206.237 222.901 206.477 222.741 206.73 222.568L207.117 222.261L207.29 222.142L207.77 221.702L207.997 221.475L208.117 221.342Z" fill="#5D59FF"/>
<path opacity="0.7" d="M208.117 221.342C213.744 215.614 217.037 201.294 211.557 196.752H183.663C178.183 201.294 181.477 215.601 187.103 221.342L187.25 221.502L187.45 221.689C187.609 221.85 187.779 222.001 187.957 222.142L188.09 222.248L188.517 222.568C188.747 222.737 188.988 222.893 189.237 223.034C191.835 224.347 194.705 225.032 197.617 225.032C200.528 225.032 203.399 224.347 205.997 223.034C206.237 222.901 206.477 222.741 206.73 222.568L207.117 222.261L207.29 222.142L207.77 221.702L207.997 221.475L208.117 221.342Z" fill="#FAFAFA"/>
<path d="M197.596 210.977C206.602 210.977 213.903 206.767 213.903 201.573C213.903 196.379 206.602 192.168 197.596 192.168C188.59 192.168 181.29 196.379 181.29 201.573C181.29 206.767 188.59 210.977 197.596 210.977Z" fill="#5D59FF"/>
<path opacity="0.9" d="M197.596 210.977C206.602 210.977 213.903 206.767 213.903 201.573C213.903 196.379 206.602 192.168 197.596 192.168C188.59 192.168 181.29 196.379 181.29 201.573C181.29 206.767 188.59 210.977 197.596 210.977Z" fill="#FAFAFA"/>
<path d="M190.583 197.524C186.716 199.762 186.716 203.385 190.583 205.623C192.76 206.72 195.165 207.292 197.603 207.292C200.042 207.292 202.446 206.72 204.623 205.623C208.49 203.385 208.49 199.762 204.623 197.524C202.448 196.42 200.043 195.845 197.603 195.845C195.164 195.845 192.758 196.42 190.583 197.524Z" fill="#5D59FF"/>
<path opacity="0.7" d="M190.583 197.524C186.716 199.762 186.716 203.385 190.583 205.623C192.76 206.72 195.165 207.292 197.603 207.292C200.042 207.292 202.446 206.72 204.623 205.623C208.49 203.385 208.49 199.762 204.623 197.524C202.448 196.42 200.043 195.845 197.603 195.845C195.164 195.845 192.758 196.42 190.583 197.524Z" fill="#FAFAFA"/>
<path d="M204.623 201.361C202.446 200.264 200.042 199.692 197.603 199.692C195.165 199.692 192.76 200.264 190.583 201.361C189.65 201.876 188.855 202.607 188.263 203.492C188.855 204.378 189.65 205.109 190.583 205.624C192.76 206.721 195.165 207.292 197.603 207.292C200.042 207.292 202.446 206.721 204.623 205.624C205.556 205.109 206.352 204.378 206.943 203.492C206.352 202.607 205.556 201.876 204.623 201.361Z" fill="#5D59FF"/>
<path opacity="0.3" d="M204.623 201.361C202.446 200.264 200.042 199.692 197.603 199.692C195.165 199.692 192.76 200.264 190.583 201.361C189.65 201.876 188.855 202.607 188.263 203.492C188.855 204.378 189.65 205.109 190.583 205.624C192.76 206.721 195.165 207.292 197.603 207.292C200.042 207.292 202.446 206.721 204.623 205.624C205.556 205.109 206.352 204.378 206.943 203.492C206.352 202.607 205.556 201.876 204.623 201.361Z" fill="#1E1E1E"/>
<path d="M200.13 204.37C204.171 201.848 207.221 198.015 208.77 193.513C211.343 186 209.823 176.915 207.517 173.159C204.397 168.07 196.85 168.643 199.076 177.155C201.303 185.667 202.69 194.872 199.156 201.026L200.13 204.37Z" fill="#0F9B15"/>
<path d="M200.397 202.826C200.314 202.826 200.234 202.797 200.17 202.746C200.137 202.713 200.111 202.675 200.094 202.633C200.076 202.59 200.067 202.545 200.067 202.499C200.067 202.453 200.076 202.408 200.094 202.366C200.111 202.323 200.137 202.285 200.17 202.253C202.425 199.763 204.15 196.841 205.241 193.665C206.331 190.489 206.766 187.125 206.517 183.777C206.13 177.609 203.85 173.12 202.983 172.44C202.921 172.374 202.886 172.286 202.886 172.194C202.886 172.102 202.921 172.014 202.983 171.947C203.048 171.886 203.134 171.851 203.223 171.851C203.313 171.851 203.399 171.886 203.463 171.947C204.61 172.933 206.85 177.729 207.223 183.75C207.481 187.192 207.036 190.651 205.915 193.916C204.794 197.182 203.021 200.186 200.703 202.746C200.664 202.784 200.614 202.812 200.561 202.826C200.507 202.84 200.45 202.84 200.397 202.826Z" fill="#FAFAFA"/>
<path d="M193.623 204.371C193.408 203.629 192.935 202.987 192.29 202.56C191.493 202.116 190.654 201.754 189.783 201.481C188.277 200.934 186.357 200.148 186.157 198.337C186.11 197.688 186.191 197.036 186.397 196.419C186.768 195.581 186.857 194.646 186.65 193.754C186.317 192.955 185.463 192.529 184.73 192.049C183.921 191.572 183.233 190.916 182.717 190.131C182.282 189.434 182.072 188.62 182.117 187.8C182.263 186.121 183.877 185.016 183.93 183.351C183.997 180.913 178.29 177.609 181.33 175.358C185.223 172.414 191.317 175.824 193.063 178.329C194.81 180.833 194.81 181.952 197.997 184.07C200.663 185.828 203.757 186.188 203.757 189.652C203.757 193.115 199.317 193.275 202.81 197.205C204.917 199.562 201.477 201.6 200.143 204.398C197.97 204.371 195.77 204.265 193.623 204.371Z" fill="#0F9B15"/>
<path d="M197.143 204.677C197.098 204.675 197.053 204.664 197.012 204.645C196.97 204.626 196.933 204.599 196.902 204.566C196.871 204.532 196.847 204.493 196.831 204.451C196.816 204.408 196.808 204.362 196.81 204.317C197.583 184.189 187.33 177.129 185.277 176.569C185.193 176.541 185.123 176.481 185.082 176.403C185.04 176.325 185.03 176.233 185.054 176.148C185.078 176.063 185.134 175.99 185.21 175.944C185.286 175.899 185.377 175.884 185.463 175.903C188.93 176.849 198.223 185.348 197.463 204.344C197.46 204.429 197.426 204.51 197.367 204.571C197.308 204.633 197.228 204.67 197.143 204.677Z" fill="#FAFAFA"/>
<path d="M195.517 190.37C195.434 190.371 195.354 190.342 195.29 190.291C192.317 187.626 186.503 187.733 186.437 187.733C186.347 187.733 186.261 187.698 186.196 187.636C186.131 187.574 186.093 187.489 186.09 187.4C186.09 187.309 186.124 187.221 186.186 187.154C186.248 187.088 186.332 187.047 186.423 187.04C186.677 187.04 192.57 186.974 195.757 189.704C195.807 189.751 195.842 189.812 195.858 189.879C195.873 189.946 195.869 190.016 195.844 190.08C195.82 190.144 195.777 190.2 195.721 190.24C195.665 190.28 195.599 190.302 195.53 190.304L195.517 190.37Z" fill="#FAFAFA"/>
<path d="M432.412 135.074L437.425 74.277C437.477 73.293 437.274 72.3122 436.835 71.4299C436.396 70.5476 435.736 69.7938 434.919 69.2416C434.016 68.8051 433.022 68.5873 432.019 68.6058C431.016 68.6243 430.032 68.8787 429.145 69.3482L362.478 107.793C361.597 108.363 360.849 109.116 360.285 110.001C359.721 110.886 359.355 111.882 359.211 112.921L354.198 173.718C354.146 174.702 354.349 175.683 354.788 176.565C355.228 177.448 355.888 178.201 356.705 178.754C357.608 179.19 358.601 179.408 359.604 179.389C360.607 179.371 361.592 179.116 362.478 178.647L429.145 140.203C430.025 139.631 430.773 138.877 431.336 137.993C431.9 137.108 432.267 136.113 432.412 135.074Z" fill="#5D59FF"/>
<path opacity="0.8" d="M432.412 135.074L437.425 74.277C437.477 73.293 437.274 72.3122 436.835 71.4299C436.396 70.5476 435.736 69.7938 434.919 69.2416C434.016 68.8051 433.022 68.5873 432.019 68.6058C431.016 68.6243 430.032 68.8787 429.145 69.3482L362.478 107.793C361.597 108.363 360.849 109.116 360.285 110.001C359.721 110.886 359.355 111.882 359.211 112.921L354.198 173.718C354.146 174.702 354.349 175.683 354.788 176.565C355.228 177.448 355.888 178.201 356.705 178.754C357.608 179.19 358.601 179.408 359.604 179.389C360.607 179.371 361.592 179.116 362.478 178.647L429.145 140.203C430.025 139.631 430.773 138.877 431.336 137.993C431.9 137.108 432.267 136.113 432.412 135.074Z" fill="#FAFAFA"/>
<path d="M432.412 135.074L437.425 74.277C437.477 73.293 437.274 72.3122 436.835 71.4299C436.396 70.5476 435.736 69.7938 434.919 69.2416C434.016 68.8051 433.022 68.5873 432.019 68.6058C431.016 68.6243 430.032 68.8787 429.145 69.3482L362.478 107.793C361.593 108.341 360.848 109.089 360.305 109.977L370.665 115.945V173.891L429.105 140.176C429.991 139.613 430.745 138.866 431.315 137.985C431.886 137.105 432.26 136.112 432.412 135.074Z" fill="#5D59FF"/>
<path opacity="0.9" d="M432.412 135.074L437.425 74.277C437.477 73.293 437.274 72.3122 436.835 71.4299C436.396 70.5476 435.736 69.7938 434.919 69.2416C434.016 68.8051 433.022 68.5873 432.019 68.6058C431.016 68.6243 430.032 68.8787 429.145 69.3482L362.478 107.793C361.593 108.341 360.848 109.089 360.305 109.977L370.665 115.945V173.891L429.105 140.176C429.991 139.613 430.745 138.866 431.315 137.985C431.886 137.105 432.26 136.112 432.412 135.074Z" fill="#FAFAFA"/>
<path d="M359.824 176.944L364.838 116.147C364.983 115.108 365.348 114.112 365.909 113.225C366.47 112.339 367.214 111.582 368.091 111.005L434.758 72.5736C436.412 71.6278 437.612 72.3871 437.425 74.2787L432.412 135.076C432.268 136.113 431.903 137.108 431.342 137.993C430.781 138.877 430.036 139.631 429.158 140.204L362.491 178.649C360.864 179.594 359.664 178.835 359.824 176.944Z" fill="#5D59FF"/>
<path opacity="0.7" d="M359.824 176.944L364.838 116.147C364.983 115.108 365.348 114.112 365.909 113.225C366.47 112.339 367.214 111.582 368.091 111.005L434.758 72.5736C436.412 71.6278 437.612 72.3871 437.425 74.2787L432.412 135.076C432.268 136.113 431.903 137.108 431.342 137.993C430.781 138.877 430.036 139.631 429.158 140.204L362.491 178.649C360.864 179.594 359.664 178.835 359.824 176.944Z" fill="#FAFAFA"/>
<path d="M394.212 128.161C394.393 126.527 394.922 124.95 395.764 123.537C396.606 122.124 397.741 120.907 399.092 119.969C401.532 118.557 403.292 119.969 403.092 123.059C402.909 124.693 402.379 126.269 401.538 127.682C400.696 129.095 399.562 130.312 398.212 131.251C395.665 132.597 393.959 131.265 394.212 128.161Z" fill="#5D59FF"/>
<path opacity="0.4" d="M394.212 128.161C394.393 126.527 394.922 124.95 395.764 123.537C396.606 122.124 397.741 120.907 399.092 119.969C401.532 118.557 403.292 119.969 403.092 123.059C402.909 124.693 402.379 126.269 401.538 127.682C400.696 129.095 399.562 130.312 398.212 131.251C395.665 132.597 393.959 131.265 394.212 128.161Z" fill="#FAFAFA"/>
<path d="M393.039 148.156L415.372 135.275L412.585 133.663L390.252 146.544L393.039 148.156Z" fill="#5D59FF"/>
<path opacity="0.9" d="M393.039 148.156L415.372 135.275L412.585 133.663L390.252 146.544L393.039 148.156Z" fill="#FAFAFA"/>
<path d="M419.759 164.94L399.758 176.45C399.35 176.669 398.888 176.771 398.425 176.743C398.049 176.727 397.681 176.631 397.345 176.463L388.558 171.401C388.225 171.171 387.948 170.868 387.749 170.514C387.551 170.161 387.435 169.767 387.412 169.363V168.897C387.412 168.137 387.945 167.818 388.598 168.204L393.932 171.255L395.118 171.947L394.852 170.615L390.238 146.637L393.025 148.249L415.372 135.261L420.705 162.889C420.767 163.286 420.711 163.693 420.542 164.058C420.374 164.423 420.101 164.73 419.759 164.94Z" fill="#5D59FF"/>
<path opacity="0.7" d="M419.759 164.94L399.758 176.45C399.35 176.669 398.888 176.771 398.425 176.743C398.049 176.727 397.681 176.631 397.345 176.463L388.558 171.401C388.225 171.171 387.948 170.868 387.749 170.514C387.551 170.161 387.435 169.767 387.412 169.363V168.897C387.412 168.137 387.945 167.818 388.598 168.204L393.932 171.255L395.118 171.947L394.852 170.615L390.238 146.637L393.025 148.249L415.372 135.261L420.705 162.889C420.767 163.286 420.711 163.693 420.542 164.058C420.374 164.423 420.101 164.73 419.759 164.94Z" fill="#FAFAFA"/>
<path d="M387.825 168.071L394.625 164.142L396.011 173.293L387.825 168.071Z" fill="#5D59FF"/>
<path opacity="0.7" d="M387.825 168.071L394.625 164.142L396.011 173.293L387.825 168.071Z" fill="#FAFAFA"/>
<path d="M392.998 148.157L390.211 146.545L394.825 170.522C394.985 171.255 394.558 171.562 393.905 171.175L388.571 168.125C387.918 167.738 387.385 168.125 387.385 168.817V169.284C387.408 169.688 387.524 170.082 387.722 170.435C387.921 170.788 388.198 171.091 388.531 171.322L397.318 176.384C397.654 176.552 398.022 176.647 398.398 176.663L392.998 148.157Z" fill="#5D59FF"/>
<path opacity="0.8" d="M392.998 148.157L390.211 146.545L394.825 170.522C394.985 171.255 394.558 171.562 393.905 171.175L388.571 168.125C387.918 167.738 387.385 168.125 387.385 168.817V169.284C387.408 169.688 387.524 170.082 387.722 170.435C387.921 170.788 388.198 171.091 388.531 171.322L397.318 176.384C397.654 176.552 398.022 176.647 398.398 176.663L392.998 148.157Z" fill="#FAFAFA"/>
<path d="M320.998 180.366C325.091 180.06 326.411 178.554 327.078 176.743C327.745 174.931 327.985 172.946 326.398 168.75C324.811 164.554 315.731 159.053 306.304 161.064C296.878 163.075 295.571 170.269 296.078 172.2C296.584 174.132 302.251 179.034 309.598 179.873C313.376 180.366 317.191 180.531 320.998 180.366Z" fill="#5D59FF"/>
<path opacity="0.7" d="M320.998 180.366C325.091 180.06 326.411 178.554 327.078 176.743C327.745 174.931 327.985 172.946 326.398 168.75C324.811 164.554 315.731 159.053 306.304 161.064C296.878 163.075 295.571 170.269 296.078 172.2C296.584 174.132 302.251 179.034 309.598 179.873C313.376 180.366 317.191 180.531 320.998 180.366Z" fill="#FAFAFA"/>
<path d="M316.211 167.233C316.752 166.806 317.422 166.574 318.111 166.574C318.8 166.574 319.47 166.806 320.011 167.233C321.258 167.938 322.255 169.014 322.864 170.31C323.278 171.389 323.078 172.348 322.611 172.348C322.144 172.348 321.798 171.362 320.011 169.87C318.224 168.378 315.811 167.792 316.211 167.233Z" fill="#5D59FF"/>
<path opacity="0.9" d="M316.211 167.233C316.752 166.806 317.422 166.574 318.111 166.574C318.8 166.574 319.47 166.806 320.011 167.233C321.258 167.938 322.255 169.014 322.864 170.31C323.278 171.389 323.078 172.348 322.611 172.348C322.144 172.348 321.798 171.362 320.011 169.87C318.224 168.378 315.811 167.792 316.211 167.233Z" fill="#FAFAFA"/>
<path d="M258.624 66.8184C254.224 69.7756 249.011 73.2791 249.731 84.815C250.451 96.351 259.064 128.175 259.651 132.051C260.237 135.928 283.651 154.697 287.958 158.4C292.904 162.703 294.771 163.609 297.011 166.073C299.251 168.537 301.358 174.825 303.678 177.556C307.318 181.779 315.158 181.872 318.771 181.379C322.385 180.886 320.105 176.503 318.771 173.386C317.438 170.269 313.865 166.02 314.878 165.287C315.571 164.794 319.345 165.46 322.265 167.951C324.518 169.87 324.785 171.748 326.051 172.627C328.171 174.119 328.878 171.481 326.691 167.299C324.505 163.116 321.171 160.119 317.878 159.08C319.331 159.194 320.785 158.869 322.051 158.147C323.865 157.028 324.505 154.497 322.265 155.163C320.931 155.55 319.598 155.163 316.931 155.163C308.558 155.163 306.038 158.2 296.344 148.849C286.651 139.498 273.678 126.776 273.678 126.776C273.678 126.776 269.318 100.267 267.358 88.5316C265.691 78.4209 264.997 71.8004 258.624 66.8184Z" fill="#FFA8A7"/>
<path d="M336.451 92.8879L352.998 57.8804L362.331 61.7301C362.331 61.7301 348.611 103.212 346.638 107.714C345.478 110.378 341.758 113.615 336.371 110.991C335.198 110.418 332.865 109.046 329.971 107.248" fill="#FFA8A7"/>
<path d="M358.825 72.1596C359.971 68.7361 363.611 65.0862 364.158 63.6342C364.644 62.4874 364.805 61.2296 364.625 59.9976L360.371 60.4238L358.825 72.1596Z" fill="#FFA8A7"/>
<path d="M350.051 63.9937C350.745 62.4085 350.865 56.8537 350.051 53.6566C349.238 50.4596 351.198 46.4633 350.705 44.212C350.211 41.9608 351.651 41.2814 352.958 42.094C353.758 42.6014 354.421 43.2987 354.886 44.1238C355.351 44.9489 355.605 45.8761 355.625 46.823C355.691 49.1541 355.838 55.082 354.891 57.9726C353.945 60.8633 350.051 63.9937 350.051 63.9937Z" fill="#FFA8A7"/>
<path d="M352.251 58.5449C352.504 59.2643 353.464 60.2633 356.571 59.7305L362.291 61.7286L364.625 61.5954C363.377 62.477 361.851 62.8741 360.332 62.7122C358.812 62.5504 357.404 61.8408 356.371 60.7162C356.371 60.7162 352.171 61.2358 352.251 58.5449Z" fill="#F28F8F"/>
<path d="M368.251 56.2018C364.665 58.9992 365.171 62.6358 369.398 64.3409C371.741 65.1451 374.241 65.3857 376.694 65.0432C379.148 64.7006 381.486 63.7845 383.518 62.3694C387.105 59.572 386.585 55.922 382.371 54.217C380.027 53.4178 377.527 53.1811 375.074 53.5259C372.621 53.8707 370.284 54.7874 368.251 56.2018Z" fill="#5D59FF"/>
<path opacity="0.7" d="M368.251 56.2018C364.665 58.9992 365.171 62.6358 369.398 64.3409C371.741 65.1451 374.241 65.3857 376.694 65.0432C379.148 64.7006 381.486 63.7845 383.518 62.3694C387.105 59.572 386.585 55.922 382.371 54.217C380.027 53.4178 377.527 53.1811 375.074 53.5259C372.621 53.8707 370.284 54.7874 368.251 56.2018Z" fill="#FAFAFA"/>
<path d="M386.011 35.78L372.851 37.6183L359.665 39.4566C359.958 47.9821 362.851 57.5332 366.625 62.3954L385.611 59.7312C387.918 54.0032 388.065 44.0524 386.011 35.78Z" fill="#5D59FF"/>
<path opacity="0.7" d="M386.011 35.78L372.851 37.6183L359.665 39.4566C359.958 47.9821 362.851 57.5332 366.625 62.3954L385.611 59.7312C387.918 54.0032 388.065 44.0524 386.011 35.78Z" fill="#FAFAFA"/>
<path d="M363.052 35.474C358.225 38.4179 358.732 42.0412 364.185 43.5465C370.525 44.9334 377.154 43.9874 382.852 40.8823C387.679 37.925 387.172 34.315 381.718 32.7964C375.376 31.4148 368.748 32.3655 363.052 35.474Z" fill="#5D59FF"/>
<path opacity="0.9" d="M363.052 35.474C358.225 38.4179 358.732 42.0412 364.185 43.5465C370.525 44.9334 377.154 43.9874 382.852 40.8823C387.679 37.925 387.172 34.315 381.718 32.7964C375.376 31.4148 368.748 32.3655 363.052 35.474Z" fill="#FAFAFA"/>
<path d="M364.998 36.6857C360.998 38.7238 361.384 41.0816 365.731 42.0141C370.838 42.7865 376.06 42.0551 380.758 39.9093C384.691 37.8712 384.371 35.5134 380.011 34.5809C374.908 33.8096 369.691 34.541 364.998 36.6857Z" fill="#5D59FF"/>
<path opacity="0.4" d="M364.998 36.6857C360.998 38.7238 361.384 41.0816 365.731 42.0141C370.838 42.7865 376.06 42.0551 380.758 39.9093C384.691 37.8712 384.371 35.5134 380.011 34.5809C374.908 33.8096 369.691 34.541 364.998 36.6857Z" fill="#FAFAFA"/>
<path d="M365.491 39.8025C364.785 40.1491 364.133 40.598 363.558 41.1346C364.259 41.4932 365.009 41.7446 365.785 41.8806C370.892 42.653 376.114 41.9216 380.812 39.7759C381.521 39.4348 382.174 38.9854 382.745 38.4438C382.044 38.0852 381.294 37.8337 380.518 37.6978C375.411 36.9253 370.189 37.6567 365.491 39.8025Z" fill="#5D59FF"/>
<path opacity="0.3" d="M365.491 39.8025C364.785 40.1491 364.133 40.598 363.558 41.1346C364.259 41.4932 365.009 41.7446 365.785 41.8806C370.892 42.653 376.114 41.9216 380.812 39.7759C381.521 39.4348 382.174 38.9854 382.745 38.4438C382.044 38.0852 381.294 37.8337 380.518 37.6978C375.411 36.9253 370.189 37.6567 365.491 39.8025Z" fill="#1E1E1E"/>
<path d="M362.691 61.9963C361.585 62.1603 360.457 62.106 359.371 61.8365C357.878 61.4369 356.465 59.9982 355.065 57.4273C353.891 55.2693 351.878 50.4737 352.731 47.8228C353.825 44.4526 357.731 43.973 360.331 43.6533L361.225 43.5334L361.798 47.623L360.838 47.7429C359.371 47.9161 356.931 48.2224 356.651 49.075C356.278 50.7268 359.078 57.1608 360.505 57.8668C361.791 58.0453 363.102 57.8317 364.265 57.2541L366.131 60.9307C365.048 61.4637 363.887 61.8233 362.691 61.9963Z" fill="#5D59FF"/>
<path opacity="0.7" d="M362.691 61.9963C361.585 62.1603 360.457 62.106 359.371 61.8365C357.878 61.4369 356.465 59.9982 355.065 57.4273C353.891 55.2693 351.878 50.4737 352.731 47.8228C353.825 44.4526 357.731 43.973 360.331 43.6533L361.225 43.5334L361.798 47.623L360.838 47.7429C359.371 47.9161 356.931 48.2224 356.651 49.075C356.278 50.7268 359.078 57.1608 360.505 57.8668C361.791 58.0453 363.102 57.8317 364.265 57.2541L366.131 60.9307C365.048 61.4637 363.887 61.8233 362.691 61.9963Z" fill="#FAFAFA"/>
<path d="M357.798 49.0879C355.251 49.0879 347.771 52.0585 347.611 54.7493C347.451 57.4402 352.531 57.2403 352.531 57.2403C352.291 57.6401 352.2 58.1115 352.273 58.5718C352.346 59.0321 352.579 59.4521 352.931 59.758C354.198 60.8503 363.798 57.5201 363.798 57.5201C363.463 56.4209 362.954 55.3822 362.291 54.4429C361.813 53.8356 361.113 53.4427 360.345 53.3506C360.345 53.3506 361.585 49.0879 357.798 49.0879Z" fill="#FFA8A7"/>
<path d="M167.277 180.273L156.104 173.839L167.277 170.615V180.273Z" fill="#FAFAFA"/>
<g style="mix-blend-mode:multiply" opacity="0.5">
<path d="M167.277 170.615V180.272L156.104 173.838" fill="#FAFAFA"/>
</g>
<path d="M100.263 209.272V219.529L38.8491 184.109V173.838L100.263 209.272Z" fill="#FAFAFA"/>
<g style="mix-blend-mode:multiply" opacity="0.5">
<path d="M100.263 209.272V219.529L38.8491 184.109V173.838L100.263 209.272Z" fill="#FAFAFA"/>
</g>
<path d="M33.2622 93.3132L94.6894 128.747V212.483L33.2622 177.062V93.3132Z" fill="#FAFAFA"/>
<path d="M94.6895 128.746L178.437 80.4307V164.166L94.6895 212.482V128.746Z" fill="#F0F0F0"/>
<path d="M178.437 80.4319L117.023 44.998L33.2622 93.3133L94.6894 128.747L178.437 80.4319Z" fill="#F0F0F0"/>
<path d="M100.263 131.971L172.863 90.0896V109.418L100.263 151.286V131.971Z" fill="#FAFAFA"/>
<g style="mix-blend-mode:multiply" opacity="0.5">
<path d="M128.183 117.464C128.183 118.356 130.849 117.544 134.143 115.652L144.57 109.631C147.863 107.739 150.516 105.475 150.516 104.582V102.97L128.169 115.865L128.183 117.464Z" fill="#FAFAFA"/>
</g>
<path d="M100.263 157.733L172.863 115.865V135.181L100.263 177.062V157.733Z" fill="#FAFAFA"/>
<g style="mix-blend-mode:multiply" opacity="0.5">
<path d="M128.183 143.254C128.183 144.146 130.85 143.254 134.143 141.429L144.57 135.407C147.863 133.516 150.517 131.251 150.517 130.372V128.76L128.17 141.642L128.183 143.254Z" fill="#FAFAFA"/>
</g>
<path d="M100.263 183.496L172.863 141.628V160.957L100.263 202.825V183.496Z" fill="#FAFAFA"/>
<g style="mix-blend-mode:multiply" opacity="0.5">
<path d="M128.183 169.003C128.183 169.896 130.85 169.083 134.143 167.178L144.57 161.17C147.863 159.265 150.517 157.014 150.517 156.122V154.51L128.17 167.391L128.183 169.003Z" fill="#FAFAFA"/>
</g>
<path d="M100.263 219.529L105.849 216.319V206.049L100.263 209.272V219.529Z" fill="#FAFAFA"/>
<path d="M167.277 180.273L172.864 177.062V167.391L167.277 170.615V180.273Z" fill="#FAFAFA"/>
<path d="M69.1692 96.8031C74.7959 91.0617 78.1026 76.8216 72.6092 72.1992H44.7023C39.2223 76.755 42.5157 91.0617 48.1424 96.7898L48.289 96.9496L48.489 97.1361C48.6485 97.2973 48.8177 97.4485 48.9957 97.589L49.1291 97.6956L49.5557 98.0153C49.7864 98.1846 50.0268 98.3403 50.2757 98.4815C52.8736 99.7949 55.7443 100.479 58.6558 100.479C61.5673 100.479 64.438 99.7949 67.0359 98.4815C67.2892 98.3405 67.534 98.1848 67.7692 98.0153L68.1559 97.7222L68.3292 97.589L68.8226 97.1494L69.0359 96.9363L69.1692 96.8031Z" fill="#F0F0F0"/>
<path d="M47.1292 70.3741C40.7558 74.0507 40.7558 80.0052 47.1292 83.6951C53.5025 87.385 63.8226 87.3717 70.1827 83.6951C76.5427 80.0185 76.5561 74.0774 70.1827 70.3741C63.8093 66.6709 53.4892 66.6975 47.1292 70.3741Z" fill="#F0F0F0"/>
<path d="M51.6622 72.9723C47.7955 75.2102 47.7955 78.8335 51.6622 81.0715C53.8375 82.1749 56.2427 82.7499 58.6823 82.7499C61.1219 82.7499 63.5271 82.1749 65.7023 81.0715C69.569 78.8335 69.569 75.2102 65.7023 72.9723C63.5252 71.8751 61.1208 71.3035 58.6823 71.3035C56.2438 71.3035 53.8394 71.8751 51.6622 72.9723Z" fill="#FAFAFA"/>
<path d="M65.6756 76.822C63.5003 75.7186 61.0951 75.1436 58.6555 75.1436C56.2159 75.1436 53.8107 75.7186 51.6355 76.822C50.6996 77.3267 49.9027 78.0542 49.3154 78.94C49.9018 79.8301 50.6987 80.5621 51.6355 81.0714C53.8107 82.1748 56.2159 82.7499 58.6555 82.7499C61.0951 82.7499 63.5003 82.1748 65.6756 81.0714C66.6124 80.5621 67.4092 79.8301 67.9956 78.94C67.4083 78.0542 66.6115 77.3267 65.6756 76.822Z" fill="#FAFAFA"/>
<g style="mix-blend-mode:multiply" opacity="0.5">
<path d="M65.6756 76.821C63.5003 75.7176 61.0951 75.1426 58.6555 75.1426C56.2159 75.1426 53.8107 75.7176 51.6355 76.821C50.6996 77.3257 49.9027 78.0532 49.3154 78.9391C49.9018 79.8291 50.6987 80.5611 51.6355 81.0704C53.8107 82.1738 56.2159 82.7489 58.6555 82.7489C61.0951 82.7489 63.5003 82.1738 65.6756 81.0704C66.6124 80.5611 67.4092 79.8291 67.9956 78.9391C67.4083 78.0532 66.6115 77.3257 65.6756 76.821Z" fill="#FAFAFA"/>
</g>
<path d="M52.5024 78.9396C50.5165 76.9286 48.8081 74.6617 47.4224 72.1992C45.0757 68.0697 44.649 62.5148 45.8624 61.8355C47.0757 61.1561 51.9957 66.6843 51.9957 66.6843C51.5473 64.3548 51.3728 61.9809 51.4757 59.6109C51.6891 55.9209 52.5824 52.5774 53.6491 51.898C54.7158 51.2186 57.0624 55.8943 58.0758 59.2512C59.0891 62.6081 59.6625 65.3922 59.6625 65.3922C60.0707 62.7616 60.6769 60.1655 61.4758 57.626C62.7025 54.1359 63.8225 53.3367 64.6892 53.6297C65.5558 53.9228 66.1292 55.6146 66.3825 60.2902C66.4709 62.5126 66.3996 64.7385 66.1692 66.9507C66.1692 66.9507 67.9159 65.0325 69.8359 63.1809C71.9559 61.1428 72.8626 60.863 73.4759 61.2493C74.0893 61.6357 74.2493 64.806 70.9692 70.7339C69.3341 73.7535 67.2429 76.5033 64.7692 78.8863C64.7692 78.8863 60.2625 81.8702 52.5024 78.9396Z" fill="#F0F0F0"/>
<path d="M125.45 103.704L158.783 84.3881C159.436 84.0151 159.436 83.4024 158.783 83.056L112.996 57.0001C112.626 56.8149 112.217 56.7185 111.803 56.7185C111.388 56.7185 110.98 56.8149 110.609 57.0001L77.5691 76.0891C76.9158 76.4754 76.9158 77.0882 77.5691 77.4212L123.063 103.664C123.43 103.855 123.837 103.958 124.251 103.965C124.666 103.972 125.076 103.883 125.45 103.704Z" fill="#FAFAFA"/>
<g style="mix-blend-mode:multiply" opacity="0.5">
<path d="M125.45 103.703L158.783 84.3879C159.436 84.0149 159.436 83.4021 158.783 83.0558L112.996 56.9999C112.626 56.8147 112.217 56.7183 111.803 56.7183C111.388 56.7183 110.98 56.8147 110.609 56.9999L77.5691 76.0889C76.9158 76.4752 76.9158 77.088 77.5691 77.421L123.063 103.663C123.43 103.855 123.837 103.958 124.251 103.965C124.666 103.972 125.076 103.882 125.45 103.703Z" fill="#FAFAFA"/>
</g>
<path d="M77.5424 76.0488L115.116 52.1775C115.48 51.9873 115.885 51.8879 116.296 51.8879C116.707 51.8879 117.112 51.9873 117.476 52.1775L131.009 59.9837C131.326 60.1755 131.559 60.4788 131.663 60.834C131.767 61.1891 131.733 61.5701 131.569 61.9019L131.023 62.9675C130.859 63.2993 130.826 63.6803 130.929 64.0355C131.033 64.3906 131.266 64.694 131.583 64.8858L158.85 80.6445C158.994 80.7012 159.119 80.8001 159.206 80.9285C159.294 81.0568 159.341 81.2085 159.341 81.3638C159.341 81.5192 159.294 81.6709 159.206 81.7992C159.119 81.9275 158.994 82.0265 158.85 82.0832L125.383 103.61C125.023 103.807 124.62 103.91 124.209 103.91C123.799 103.91 123.396 103.807 123.036 103.61L77.5424 77.3675C77.426 77.3011 77.3292 77.2052 77.2619 77.0894C77.1946 76.9736 77.1592 76.8421 77.1592 76.7081C77.1592 76.5742 77.1946 76.4427 77.2619 76.3269C77.3292 76.2111 77.426 76.1152 77.5424 76.0488Z" fill="#F0F0F0"/>
<path d="M549.88 132.704C559.56 122.834 565.254 82.6575 555.8 74.8247H507.8C498.346 82.6441 504.04 122.78 513.72 132.691L513.973 132.958L514.307 133.291C514.587 133.557 514.88 133.81 515.187 134.063L515.413 134.25C515.653 134.436 515.893 134.623 516.147 134.796C516.547 135.089 516.965 135.356 517.4 135.595C525.4 140.191 538.28 140.191 546.253 135.595C546.688 135.356 547.106 135.089 547.507 134.796L548.187 134.276L548.48 134.05C548.773 133.81 549.053 133.557 549.32 133.304L549.707 132.931L549.88 132.704Z" fill="#1E1E1E"/>
<path d="M511.92 71.6677C500.947 77.9952 500.947 88.2524 511.92 94.5798C522.893 100.907 540.667 100.894 551.627 94.5798C562.587 88.2657 562.587 77.9952 551.627 71.6677C540.667 65.3403 522.88 65.3403 511.92 71.6677Z" fill="#1E1E1E"/>
<path d="M517.186 74.7044C509.186 79.3535 509.186 86.8798 517.186 91.5289C525.186 96.1779 538.306 96.1779 546.346 91.5289C554.386 86.8798 554.346 79.3535 546.346 74.7044C538.346 70.0554 525.239 70.0687 517.186 74.7044Z" fill="#1E1E1E"/>
<path d="M546.333 82.6982C538.333 78.0492 525.226 78.0492 517.173 82.6982C515.227 83.7512 513.57 85.2652 512.346 87.1075C513.569 88.9539 515.226 90.4724 517.173 91.53C525.173 96.179 538.28 96.179 546.333 91.53C548.285 90.4797 549.944 88.9596 551.16 87.1075C549.942 85.2602 548.283 83.7448 546.333 82.6982Z" fill="#FAFAFA"/>
<g style="mix-blend-mode:multiply">
<path d="M546.333 82.6972C538.333 78.0482 525.226 78.0482 517.173 82.6972C515.227 83.7502 513.57 85.2642 512.346 87.1065C513.569 88.9529 515.226 90.4714 517.173 91.529C525.173 96.1781 538.28 96.1781 546.333 91.529C548.285 90.4787 549.944 88.9587 551.16 87.1065C549.942 85.2592 548.283 83.7438 546.333 82.6972Z" fill="#1E1E1E"/>
</g>
<path d="M540.76 87.1341C543.093 80.074 546.347 67.1527 558.44 57.4683C570.84 47.5042 583.067 39.6182 578.854 33.0775C575.013 27.1364 563.467 26.2572 550.267 36.4344C537.453 46.292 531.666 68.911 532.8 83.9105L540.76 87.1341Z" fill="#0F9B15"/>
<g opacity="0.1">
<path d="M540.76 87.1327C543.093 80.0725 546.347 67.1512 558.44 57.4668C570.84 47.5027 583.067 39.6167 578.854 33.0761C575.013 27.1349 563.467 26.2557 550.267 36.433C537.453 46.2905 531.666 68.9096 532.8 83.909L540.76 87.1327Z" fill="#1E1E1E"/>
</g>
<path d="M534.866 85.4428H534.773C534.684 85.433 534.598 85.4054 534.52 85.3615C534.441 85.3177 534.373 85.2586 534.318 85.1877C534.263 85.1168 534.223 85.0356 534.201 84.949C534.178 84.8624 534.173 84.7721 534.186 84.6835C538.773 49.2363 560.853 33.5442 571.64 33.0247C571.73 33.0154 571.821 33.025 571.907 33.0528C571.994 33.0806 572.073 33.126 572.141 33.1861C572.208 33.2462 572.263 33.3198 572.301 33.4021C572.338 33.4843 572.359 33.5736 572.36 33.6641C572.367 33.847 572.303 34.0256 572.182 34.1623C572.06 34.299 571.889 34.383 571.707 34.3967C563.707 34.7697 540.4 47.4513 535.546 84.8566C535.524 85.0202 535.442 85.1699 535.317 85.2778C535.192 85.3857 535.032 85.4443 534.866 85.4428Z" fill="#FAFAFA"/>
<path d="M523.12 88.7853C522.806 86.7971 522.02 84.9131 520.827 83.2908C519.635 81.6685 518.071 80.3551 516.266 79.4606C512.333 77.3292 507.546 79.4606 502.933 73.0265C498.32 66.5925 502.36 61.3707 501.6 58.2535C500.84 55.1364 500.04 53.0983 494.786 50.8604C489.533 48.6225 488.12 45.3322 489.933 37.9523C491.746 30.5725 491.653 28.3346 487.159 25.0976C482.666 21.8606 482.453 17.7577 487.159 15.0536C491.866 12.3494 500.24 12.3893 506.866 18.2639C513.493 24.1385 514.333 26.6695 521.626 27.3755C528.92 28.0815 533.093 28.3745 534.747 32.7039C536.4 37.0332 535.547 40.3901 534.747 44.4397C534.371 46.2882 534.623 48.2092 535.463 49.8983C536.304 51.5874 537.685 52.948 539.387 53.7644C542.573 55.2696 547.88 56.4285 549.853 62.2365C551.827 68.0445 547.453 79.8868 541.853 87.1601C541.787 87.1335 540.453 91.3829 523.12 88.7853Z" fill="#1EA123"/>
<path d="M535.32 89.4644C535.23 89.4644 535.14 89.4464 535.057 89.4114C534.973 89.3765 534.898 89.3252 534.834 89.2607C534.771 89.1962 534.721 89.1198 534.688 89.0358C534.654 88.9518 534.638 88.862 534.64 88.7717C534.424 77.4072 531.887 66.2065 527.187 55.8555C519.68 39.6705 495.693 20.5549 494.226 19.6757C494.143 19.6492 494.067 19.6058 494.002 19.5482C493.937 19.4906 493.884 19.4201 493.848 19.3412C493.812 19.2622 493.792 19.1766 493.791 19.0897C493.789 19.0028 493.806 18.9166 493.84 18.8365C493.911 18.6631 494.046 18.5237 494.217 18.4469C494.388 18.3701 494.582 18.3617 494.76 18.4235C495.586 18.69 520.533 38.2319 528.427 55.2694C533.208 65.8151 535.789 77.2233 536.013 88.7983C536.013 88.8881 535.995 88.9769 535.96 89.0595C535.925 89.1421 535.873 89.2168 535.809 89.279C535.744 89.3412 535.667 89.3897 535.583 89.4216C535.499 89.4534 535.41 89.468 535.32 89.4644Z" fill="#FAFAFA"/>
<path d="M519.453 43.548C519.341 43.5485 519.231 43.5211 519.133 43.4681C514.106 40.7106 502.093 42.6688 501.973 42.6954C501.793 42.7189 501.611 42.6725 501.465 42.5659C501.319 42.4593 501.219 42.3007 501.186 42.1226C501.171 42.0343 501.173 41.9437 501.193 41.8563C501.213 41.7688 501.25 41.6862 501.302 41.6131C501.354 41.5401 501.42 41.478 501.497 41.4306C501.573 41.3831 501.658 41.3512 501.746 41.3367C502.253 41.2568 514.36 39.2853 519.786 42.2692C519.866 42.3123 519.936 42.3708 519.992 42.4412C520.049 42.5117 520.091 42.5927 520.116 42.6795C520.14 42.7663 520.148 42.8572 520.137 42.9468C520.126 43.0365 520.098 43.1231 520.053 43.2016C519.994 43.3088 519.907 43.3977 519.802 43.4588C519.696 43.5199 519.575 43.5507 519.453 43.548Z" fill="#FAFAFA"/>
<path d="M534.08 76.6497C533.913 76.6684 533.745 76.6259 533.607 76.5302C533.469 76.4345 533.371 76.2921 533.33 76.1293C533.289 75.9666 533.309 75.7946 533.385 75.6453C533.462 75.496 533.59 75.3795 533.746 75.3176C539.4 72.2538 543.72 63.5951 543.76 63.5152C543.792 63.423 543.843 63.3386 543.911 63.2677C543.978 63.1967 544.059 63.1407 544.149 63.1034C544.24 63.066 544.337 63.0482 544.435 63.0511C544.532 63.0539 544.628 63.0774 544.716 63.1199C544.804 63.1625 544.882 63.2231 544.945 63.2979C545.008 63.3727 545.055 63.4599 545.081 63.5538C545.108 63.6478 545.115 63.7463 545.101 63.8429C545.087 63.9396 545.052 64.0322 545 64.1146C544.813 64.4876 540.426 73.2528 534.4 76.5298C534.305 76.5969 534.195 76.6382 534.08 76.6497Z" fill="#FAFAFA"/>
</svg>
