<svg width="109" height="36" viewBox="0 0 109 36" fill="none" xmlns="http://www.w3.org/2000/svg">
<path d="M0.728 35V31.544L5 30.296L4.28 31.304V4.76L5.24 6.152L0.728 4.904V1.448L11 1.208H24.968V9.944H20.888L19.976 5.432L21.224 6.152H10.088L11.144 5.096V16.568L10.088 15.608H21.272V20.552H10.088L11.144 19.448V31.304L10.28 30.296L15.512 31.544V35H0.728ZM35.0788 9.704C35.0788 10.632 35.3988 11.4 36.0388 12.008C36.6788 12.616 37.5108 13.144 38.5348 13.592C39.5588 14.008 40.6948 14.424 41.9428 14.84C43.1908 15.224 44.4228 15.672 45.6388 16.184C46.8548 16.664 47.9748 17.288 48.9988 18.056C50.0548 18.792 50.8868 19.736 51.4948 20.888C52.1348 22.04 52.4548 23.48 52.4548 25.208C52.4548 27.576 51.8308 29.528 50.5828 31.064C49.3668 32.6 47.7348 33.752 45.6868 34.52C43.6388 35.256 41.3668 35.624 38.8708 35.624C37.1748 35.624 35.4308 35.448 33.6388 35.096C31.8788 34.776 30.1348 34.28 28.4068 33.608L28.6468 24.488H32.6308L33.6388 30.296L33.0148 29.144C33.9748 29.592 34.9828 29.944 36.0388 30.2C37.1268 30.424 38.1828 30.536 39.2068 30.536C40.3908 30.536 41.4788 30.376 42.4708 30.056C43.4628 29.736 44.2468 29.24 44.8228 28.568C45.3988 27.896 45.6868 27.064 45.6868 26.072C45.6868 25.08 45.3828 24.264 44.7748 23.624C44.1668 22.984 43.3348 22.456 42.2788 22.04C41.2548 21.592 40.1348 21.192 38.9188 20.84C37.7028 20.456 36.4708 20.024 35.2228 19.544C34.0068 19.064 32.8708 18.456 31.8148 17.72C30.7908 16.984 29.9748 16.056 29.3668 14.936C28.7588 13.784 28.4548 12.344 28.4548 10.616C28.4548 8.344 28.9988 6.488 30.0868 5.048C31.1748 3.576 32.6468 2.472 34.5028 1.736C36.3588 0.999999 38.4548 0.631999 40.7908 0.631999C42.4548 0.631999 44.1828 0.807999 45.9748 1.16C47.7668 1.512 49.5588 2.04 51.3508 2.744L50.8228 11.144H46.7428L45.7348 5.912L46.5028 6.68C45.7028 6.36 44.8388 6.12 43.9108 5.96C43.0148 5.768 42.1028 5.672 41.1748 5.672C40.0868 5.672 39.0788 5.816 38.1508 6.104C37.2228 6.36 36.4708 6.792 35.8948 7.4C35.3508 7.976 35.0788 8.744 35.0788 9.704ZM90.9538 9.704C90.9538 10.632 91.2738 11.4 91.9138 12.008C92.5538 12.616 93.3858 13.144 94.4098 13.592C95.4338 14.008 96.5698 14.424 97.8178 14.84C99.0658 15.224 100.298 15.672 101.514 16.184C102.73 16.664 103.85 17.288 104.874 18.056C105.93 18.792 106.762 19.736 107.37 20.888C108.01 22.04 108.33 23.48 108.33 25.208C108.33 27.576 107.706 29.528 106.458 31.064C105.242 32.6 103.61 33.752 101.562 34.52C99.5138 35.256 97.2418 35.624 94.7458 35.624C93.0498 35.624 91.3058 35.448 89.5138 35.096C87.7538 34.776 86.0098 34.28 84.2818 33.608L84.5218 24.488H88.5058L89.5138 30.296L88.8898 29.144C89.8498 29.592 90.8578 29.944 91.9138 30.2C93.0018 30.424 94.0578 30.536 95.0818 30.536C96.2658 30.536 97.3538 30.376 98.3458 30.056C99.3378 29.736 100.122 29.24 100.698 28.568C101.274 27.896 101.562 27.064 101.562 26.072C101.562 25.08 101.258 24.264 100.65 23.624C100.042 22.984 99.2098 22.456 98.1538 22.04C97.1298 21.592 96.0098 21.192 94.7938 20.84C93.5778 20.456 92.3458 20.024 91.0978 19.544C89.8818 19.064 88.7458 18.456 87.6898 17.72C86.6658 16.984 85.8498 16.056 85.2418 14.936C84.6338 13.784 84.3298 12.344 84.3298 10.616C84.3298 8.344 84.8738 6.488 85.9618 5.048C87.0498 3.576 88.5218 2.472 90.3778 1.736C92.2338 0.999999 94.3298 0.631999 96.6658 0.631999C98.3298 0.631999 100.058 0.807999 101.85 1.16C103.642 1.512 105.434 2.04 107.226 2.744L106.698 11.144H102.618L101.61 5.912L102.378 6.68C101.578 6.36 100.714 6.12 99.7858 5.96C98.8898 5.768 97.9778 5.672 97.0498 5.672C95.9618 5.672 94.9538 5.816 94.0258 6.104C93.0978 6.36 92.3458 6.792 91.7698 7.4C91.2258 7.976 90.9538 8.744 90.9538 9.704Z" fill="#FAFAFA"/>
<path d="M56.2269 35V29.24C59.8749 26.232 62.8509 23.656 65.1549 21.512C67.4909 19.368 69.2189 17.448 70.3389 15.752C71.4589 14.024 72.0189 12.328 72.0189 10.664C72.0189 9 71.4909 7.768 70.4349 6.968C69.3789 6.168 68.0349 5.768 66.4029 5.768C65.6349 5.768 64.8029 5.864 63.9069 6.056C63.0109 6.216 62.0829 6.456 61.1229 6.776L61.8909 5.624L61.0269 11.048H56.9469L56.4189 2.456C58.4029 1.848 60.3389 1.4 62.2269 1.112C64.1149 0.791999 65.8909 0.631999 67.5549 0.631999C69.8269 0.631999 71.8429 0.935999 73.6029 1.544C75.3629 2.152 76.7389 3.128 77.7309 4.472C78.7229 5.816 79.2189 7.56 79.2189 9.704C79.2189 12.04 78.6269 14.28 77.4429 16.424C76.2589 18.568 74.5469 20.776 72.3069 23.048C70.0669 25.288 67.3469 27.736 64.1469 30.392V29.624H79.9389V35H56.2269Z" fill="#A17CFC"/>
</svg>
