<svg width="550" height="298" viewBox="0 0 550 298" fill="none" xmlns="http://www.w3.org/2000/svg">
<rect width="550" height="298" fill="#FAFAFA"/>
<path d="M137.499 255.184C213.452 296.547 336.548 296.556 412.501 255.184C488.454 213.812 488.454 146.738 412.501 105.367C336.548 63.995 213.452 63.995 137.499 105.367C61.5456 146.738 61.5543 213.795 137.499 255.184Z" fill="#F0F0F0"/>
<path d="M177.98 240.169L230.894 270.705C239.502 275.669 253.462 275.669 262.07 270.705L391.766 195.875C400.374 190.911 400.374 182.858 391.766 177.885L338.852 147.349C330.235 142.385 316.276 142.385 307.668 147.349L177.98 222.179C169.363 227.144 169.363 235.196 177.98 240.169Z" fill="#F0F0F0"/>
<path d="M385.42 186.871C384.879 184 383.901 179.315 380.505 175.607C376.828 171.687 372.494 168.439 367.697 166.011C362.931 163.585 360.329 157.05 369.356 157.286C377.685 157.53 385.603 166.883 386.537 174.84L385.42 186.871Z" fill="#1EA123"/>
<path d="M386.162 179.315C386.049 179.315 385.941 179.273 385.859 179.197C385.776 179.121 385.725 179.017 385.717 178.905C384.713 166.158 370.954 160.147 368.256 159.894C368.191 159.9 368.126 159.891 368.065 159.869C368.004 159.847 367.948 159.811 367.902 159.765C367.856 159.719 367.821 159.663 367.799 159.602C367.776 159.541 367.768 159.476 367.774 159.411C367.78 159.346 367.8 159.283 367.832 159.227C367.865 159.171 367.91 159.122 367.963 159.085C368.017 159.048 368.078 159.023 368.142 159.012C368.206 159.001 368.272 159.004 368.335 159.022C371.32 159.292 385.586 165.338 386.668 178.852C386.673 178.911 386.666 178.97 386.648 179.026C386.63 179.081 386.601 179.133 386.563 179.178C386.525 179.222 386.478 179.259 386.426 179.285C386.373 179.312 386.316 179.328 386.258 179.332L386.162 179.315Z" fill="#FAFAFA"/>
<path d="M392.727 186.871C393.243 184.864 395.294 181.487 397.966 180.545C400.637 179.603 406.478 180.964 409.114 176.75C411.751 172.536 409.411 166.726 409.847 164.344C410.284 161.962 411.96 159.982 415.286 157.696C418.613 155.41 420.21 151.004 418.325 148.901C416.439 146.799 413.043 146.537 408.582 149.608C404.12 152.679 403.972 151.885 400.043 151.527C396.115 151.17 392.614 155.27 391.994 160.976L392.727 186.871Z" fill="#1EA123"/>
<path d="M392.43 176.777H392.325C392.268 176.765 392.214 176.741 392.166 176.708C392.118 176.674 392.077 176.631 392.046 176.581C392.016 176.532 391.995 176.476 391.986 176.419C391.977 176.361 391.979 176.302 391.993 176.245C394.848 163.621 409.253 151.947 414.509 149.967C414.624 149.925 414.752 149.931 414.863 149.984C414.975 150.036 415.061 150.13 415.102 150.246C415.144 150.362 415.138 150.489 415.086 150.601C415.033 150.712 414.939 150.798 414.823 150.839C409.698 152.776 395.617 164.153 392.867 176.481C392.835 176.57 392.776 176.647 392.697 176.701C392.618 176.754 392.525 176.781 392.43 176.777Z" fill="#FAFAFA"/>
<path d="M399.161 163.795C399.072 163.795 398.984 163.769 398.909 163.719C398.835 163.669 398.777 163.599 398.742 163.516C397.327 160.026 397.598 155.402 397.607 155.202C397.64 155.108 397.703 155.028 397.786 154.973C397.869 154.919 397.968 154.893 398.067 154.9C398.166 154.907 398.26 154.946 398.335 155.012C398.409 155.077 398.46 155.165 398.48 155.263C398.48 155.263 398.209 159.895 399.554 163.176C399.577 163.231 399.588 163.29 399.588 163.349C399.587 163.408 399.575 163.467 399.551 163.521C399.527 163.576 399.493 163.625 399.45 163.666C399.407 163.707 399.357 163.739 399.301 163.76C399.257 163.781 399.21 163.793 399.161 163.795Z" fill="#FAFAFA"/>
<path d="M405.953 172.571C403.98 172.571 398.917 172.301 394.953 169.701C394.853 169.636 394.784 169.534 394.759 169.418C394.735 169.302 394.757 169.181 394.822 169.081C394.887 168.982 394.989 168.912 395.105 168.888C395.221 168.863 395.342 168.886 395.442 168.95C400.113 172.013 406.66 171.664 406.73 171.655C406.789 171.652 406.849 171.66 406.905 171.68C406.96 171.699 407.012 171.73 407.056 171.77C407.1 171.81 407.135 171.858 407.16 171.911C407.185 171.965 407.199 172.023 407.202 172.083C407.205 172.141 407.197 172.2 407.178 172.255C407.159 172.31 407.129 172.361 407.09 172.405C407.051 172.449 407.004 172.484 406.951 172.51C406.898 172.536 406.841 172.55 406.783 172.554C406.678 172.562 406.381 172.571 405.953 172.571Z" fill="#FAFAFA"/>
<path d="M242.829 269.142C241.816 265.504 238.394 262.363 232.728 259.1C227.062 255.837 217.363 251.632 219.633 245.935C221.903 240.238 231.777 244.827 235.47 248.046C240.306 252.269 244.051 258.515 244.156 262.817L242.829 269.142Z" fill="#1EA123"/>
<path d="M243.745 265.374C243.641 265.375 243.54 265.339 243.459 265.274C243.378 265.209 243.322 265.118 243.3 265.017C241.205 255.062 229.402 247.367 223.666 246.032C223.549 246.005 223.448 245.933 223.384 245.832C223.32 245.73 223.299 245.608 223.325 245.491C223.354 245.376 223.427 245.276 223.528 245.213C223.629 245.149 223.75 245.127 223.867 245.151C229.803 246.538 242.008 254.512 244.182 264.833C244.195 264.891 244.196 264.951 244.185 265.01C244.174 265.068 244.152 265.123 244.119 265.173C244.087 265.223 244.045 265.265 243.996 265.298C243.946 265.331 243.891 265.354 243.833 265.366L243.745 265.374Z" fill="#FAFAFA"/>
<path d="M250.136 269.142C250.59 265.181 253.882 262.826 257.889 261.883C261.896 260.941 265.458 260.304 265.746 255.907C266.034 251.51 262.009 247.889 265.24 244.112C268.47 240.334 273.394 236.382 273.053 229.751C272.713 223.12 266.549 222.431 264.148 226.61C261.747 230.789 261.25 233.686 257.871 233.284C254.493 232.883 249.08 235.09 248.399 245.185L250.136 269.142Z" fill="#1EA123"/>
<path d="M249.534 261.151H249.473C249.356 261.134 249.25 261.071 249.178 260.976C249.106 260.882 249.074 260.763 249.089 260.645C250.425 250.76 257.357 242.323 262.42 236.164C264.594 233.546 266.471 231.234 267.283 229.559C267.307 229.506 267.342 229.458 267.385 229.418C267.428 229.378 267.479 229.347 267.534 229.327C267.589 229.306 267.648 229.297 267.707 229.3C267.766 229.302 267.823 229.316 267.877 229.341C267.984 229.394 268.066 229.486 268.107 229.598C268.147 229.711 268.143 229.834 268.095 229.943C267.222 231.688 265.327 234.044 263.11 236.74C258.116 242.847 251.28 251.126 250.014 260.767C249.999 260.88 249.941 260.984 249.851 261.055C249.762 261.127 249.648 261.161 249.534 261.151Z" fill="#FAFAFA"/>
<path d="M254.921 247.017C254.829 247.018 254.738 246.99 254.663 246.937C254.588 246.884 254.531 246.808 254.502 246.721C253.704 243.945 253.324 241.067 253.375 238.179C253.38 238.06 253.43 237.947 253.517 237.864C253.603 237.781 253.718 237.734 253.838 237.734C253.897 237.735 253.956 237.748 254.01 237.772C254.064 237.796 254.113 237.831 254.154 237.874C254.194 237.917 254.226 237.968 254.247 238.023C254.267 238.079 254.277 238.138 254.275 238.197C254.229 240.977 254.591 243.749 255.349 246.424C255.369 246.479 255.378 246.539 255.375 246.598C255.372 246.657 255.357 246.714 255.331 246.767C255.305 246.82 255.268 246.868 255.223 246.906C255.178 246.945 255.126 246.973 255.069 246.991C255.022 247.009 254.972 247.018 254.921 247.017Z" fill="#FAFAFA"/>
<path d="M261.11 255.673C257.813 255.487 254.569 254.762 251.507 253.526C251.452 253.506 251.401 253.475 251.358 253.435C251.315 253.395 251.281 253.346 251.258 253.292C251.234 253.239 251.221 253.181 251.221 253.122C251.22 253.063 251.231 253.005 251.254 252.951C251.274 252.895 251.305 252.845 251.345 252.802C251.385 252.759 251.434 252.724 251.487 252.7C251.541 252.675 251.599 252.662 251.657 252.66C251.716 252.658 251.775 252.668 251.83 252.689C254.794 253.883 257.93 254.596 261.119 254.8C261.178 254.801 261.236 254.814 261.291 254.838C261.345 254.862 261.394 254.897 261.434 254.94C261.475 254.983 261.507 255.033 261.527 255.089C261.548 255.144 261.558 255.203 261.555 255.263C261.549 255.375 261.498 255.481 261.415 255.557C261.332 255.634 261.223 255.675 261.11 255.673Z" fill="#FAFAFA"/>
<path d="M179.081 203.751C179.29 203.663 179.954 189.661 173.912 181.407C167.871 173.154 160.581 172.203 155.78 174.21C150.978 176.216 151.956 181.146 157.866 184.103C163.777 187.061 171.136 192.217 172.891 201.639L179.081 203.751Z" fill="#1EA123"/>
<path d="M176.863 199.644C176.757 199.643 176.654 199.606 176.572 199.537C176.491 199.469 176.436 199.374 176.418 199.269C174.157 185.048 165.741 178.077 158.626 176.297C158.568 176.284 158.514 176.259 158.466 176.225C158.418 176.19 158.377 176.146 158.346 176.096C158.316 176.046 158.295 175.99 158.286 175.931C158.277 175.873 158.28 175.813 158.294 175.756C158.306 175.692 158.331 175.631 158.368 175.577C158.406 175.524 158.454 175.479 158.511 175.445C158.567 175.412 158.63 175.392 158.695 175.385C158.76 175.379 158.826 175.386 158.888 175.407C166.282 177.257 175.021 184.455 177.352 199.103C177.362 199.162 177.36 199.221 177.346 199.279C177.333 199.337 177.308 199.391 177.273 199.439C177.238 199.487 177.194 199.528 177.143 199.559C177.092 199.589 177.035 199.609 176.977 199.618L176.863 199.644Z" fill="#FAFAFA"/>
<path d="M177.998 229.752C177.125 226.062 173.363 223.645 168.971 223.226C164.405 222.816 159.097 222.354 157.683 218.515C156.269 214.676 157.683 209.45 157.046 206.894C156.269 203.797 155.081 201.956 149.084 200.071C143.715 198.388 140.746 193.258 146.159 191.094C151.572 188.93 156.993 190.3 160.677 191.966C164.362 193.633 164.519 195.352 169.705 194.907C174.89 194.462 178.758 197.716 179.081 200.857L177.998 229.752Z" fill="#1EA123"/>
<path d="M177.998 217.233C177.905 217.233 177.814 217.204 177.738 217.151C177.662 217.098 177.603 217.023 177.57 216.937C173.31 205.071 155.884 194.332 150.087 193.651C149.97 193.636 149.863 193.575 149.79 193.482C149.716 193.389 149.682 193.271 149.694 193.154C149.708 193.035 149.767 192.926 149.86 192.851C149.954 192.775 150.073 192.74 150.192 192.752C156.146 193.459 174.052 204.469 178.417 216.631C178.438 216.687 178.447 216.746 178.445 216.805C178.442 216.864 178.428 216.923 178.403 216.976C178.378 217.03 178.342 217.078 178.298 217.118C178.254 217.157 178.202 217.188 178.146 217.207L177.998 217.233Z" fill="#FAFAFA"/>
<path d="M173.912 210.105H173.816C173.699 210.078 173.598 210.006 173.534 209.904C173.47 209.803 173.449 209.681 173.475 209.564C174.907 203.378 173.475 199.4 173.475 199.356C173.435 199.24 173.442 199.113 173.495 199.003C173.548 198.892 173.643 198.808 173.759 198.767C173.875 198.727 174.002 198.734 174.113 198.787C174.223 198.84 174.308 198.935 174.349 199.051C174.41 199.216 175.859 203.308 174.349 209.764C174.323 209.861 174.267 209.947 174.188 210.009C174.109 210.07 174.012 210.104 173.912 210.105Z" fill="#FAFAFA"/>
<path d="M176.863 214.666C176.79 214.666 176.718 214.648 176.653 214.614C173.161 212.721 165.566 214.073 165.487 214.082C165.428 214.097 165.367 214.1 165.307 214.09C165.247 214.081 165.189 214.059 165.138 214.026C165.086 213.994 165.042 213.951 165.008 213.901C164.974 213.85 164.95 213.794 164.939 213.734C164.928 213.674 164.929 213.613 164.942 213.553C164.955 213.494 164.981 213.438 165.017 213.389C165.052 213.34 165.098 213.299 165.15 213.268C165.203 213.237 165.261 213.217 165.322 213.21C165.645 213.148 173.301 211.788 177.081 213.829C177.183 213.869 177.267 213.946 177.318 214.043C177.368 214.141 177.381 214.254 177.354 214.36C177.327 214.467 177.263 214.56 177.173 214.623C177.082 214.685 176.972 214.713 176.863 214.701V214.666Z" fill="#FAFAFA"/>
<path d="M255.453 54.7817C252.109 51.6409 246.059 50.4194 238.464 55.0696C230.868 59.7198 224.862 74.5951 222.976 85.1168C221.091 95.6386 219.903 109.38 223.675 115.208C227.446 121.036 241.135 127.213 241.135 127.213L242.794 121.481L255.453 54.7817Z" fill="#5D59FF"/>
<path opacity="0.4" d="M255.453 54.7817C252.109 51.6409 246.059 50.4194 238.464 55.0696C230.868 59.7198 224.862 74.5951 222.976 85.1168C221.091 95.6386 219.903 109.38 223.675 115.208C227.446 121.036 241.135 127.213 241.135 127.213L242.794 121.481L255.453 54.7817Z" fill="#FAFAFA"/>
<path d="M227.428 113.463C233.356 120.556 242.828 121.516 242.828 121.516L279.364 100.376L264.733 91.9395L227.428 113.463Z" fill="#A17CFC"/>
<path opacity="0.2" d="M227.428 113.463C233.356 120.556 242.828 121.516 242.828 121.516L279.364 100.376L264.733 91.9395L227.428 113.463Z" fill="#1E1E1E"/>
<path d="M227.429 113.462C225.028 110.618 224.539 103.298 225.84 91.9826C227.254 79.5589 231.855 60.3388 242.82 54.0048C255.68 46.5889 268.74 65.0151 264.759 91.9826L227.429 113.462Z" fill="#A17CFC"/>
<path d="M313.019 173.592C319.768 181.234 324.709 182.752 326.516 184.384C328.324 186.015 327.608 189.54 323.574 190.665C319.541 191.791 315.01 191.128 312.173 188.694C309.335 186.26 307.231 182.936 304.385 181.208C301.539 179.481 300.125 179.071 299.549 176.846C298.973 174.621 300.509 167.685 300.509 167.685L313.019 173.592Z" fill="#1E1E1E"/>
<path d="M309.152 161.447C308.794 164.431 308.358 167.057 310.628 170.45C311.361 171.542 312.16 172.588 313.02 173.583C316.966 178.128 320.17 181.67 320.737 182.307C321.305 182.944 318.415 185.256 314.836 184.052C311.256 182.848 307.895 177.945 305.398 175.04C304.29 173.74 303.207 172.562 302.351 171.654C301.201 170.445 300.533 168.856 300.474 167.187L300.309 162.476L309.152 161.447Z" fill="#FFA8A7"/>
<path d="M292.53 186.095C299.279 193.746 304.211 195.255 306.027 196.887C307.843 198.518 307.118 202.052 303.085 203.177C299.052 204.303 294.521 203.64 291.675 201.197C288.829 198.754 286.742 195.447 283.896 193.72C281.05 191.992 279.627 191.582 279.059 189.358C278.492 187.133 280.02 180.197 280.02 180.197L292.53 186.095Z" fill="#1E1E1E"/>
<path d="M288.654 173.958C288.305 176.951 287.859 179.568 290.138 182.962C290.869 184.055 291.668 185.101 292.53 186.094C296.476 190.649 299.671 194.191 300.239 194.819C300.806 195.447 297.925 197.768 294.337 196.564C290.749 195.36 287.397 190.457 284.909 187.56C283.8 186.251 282.717 185.082 281.862 184.175C280.712 182.964 280.045 181.376 279.985 179.708L279.81 174.988L288.654 173.958Z" fill="#FFA8A7"/>
<path d="M261.363 11.7866H266.549C268.575 11.7843 270.581 12.1809 272.453 12.9536C274.325 13.7263 276.026 14.8601 277.459 16.2901C278.893 17.7202 280.03 19.4184 280.806 21.2879C281.583 23.1573 281.983 25.1613 281.984 27.1854V65.8874H245.946V27.1854C245.948 23.1006 247.573 19.1839 250.465 16.2963C253.356 13.4087 257.276 11.7866 261.363 11.7866Z" fill="#1E1E1E"/>
<path d="M284.149 56.7521C278.116 50.4181 275.034 49.7725 271.368 49.7725L278.352 70.2751C278.352 70.2751 289.841 77.8654 296.563 82.0532L300.832 72.6481C300.832 72.6481 290.181 63.0599 284.149 56.7521Z" fill="#FFA8A7"/>
<path d="M243.379 102.993C241.135 107.826 238.245 112.965 241.17 117.938C244.095 122.911 267.849 117.938 267.849 117.938V102.993H243.379Z" fill="#1E1E1E"/>
<path d="M269.08 49.7732C271.699 49.5551 274.668 49.6336 277.81 54.9207C280.953 60.2077 282.717 63.1741 281.722 70.8691C280.726 78.5641 277.007 84.4968 276.737 87.3759C276.466 90.255 277.156 104.092 277.156 104.092C277.156 104.092 272.564 110.644 261.144 110.95C257.778 111.023 254.437 110.347 251.364 108.971C248.292 107.595 245.564 105.553 243.378 102.993L252.109 87.341L249.874 55.5314L258.403 50.4276L269.08 49.7732Z" fill="#5D59FF"/>
<path d="M269.08 49.7732C271.699 49.5551 274.668 49.6336 277.81 54.9207C280.953 60.2077 282.717 63.1741 281.722 70.8691C280.726 78.5641 277.007 84.4968 276.737 87.3759C276.466 90.255 277.156 104.092 277.156 104.092C277.156 104.092 272.564 110.644 261.144 110.95C257.778 111.023 254.437 110.347 251.364 108.971C248.292 107.595 245.564 105.553 243.378 102.993L252.109 87.341L249.874 55.5314L258.403 50.4276L269.08 49.7732Z" fill="#FAFAFA"/>
<path d="M258.412 61.0278C257.585 61.0278 256.766 60.8648 256.001 60.5482C255.237 60.2315 254.543 59.7674 253.958 59.1823C253.374 58.5973 252.91 57.9028 252.594 57.1386C252.279 56.3744 252.117 55.5555 252.118 54.7287V36.4072H258.412V61.0278Z" fill="#1E1E1E"/>
<path d="M276.048 19.062C277.942 20.1875 280.299 24.9685 280.064 34.9843C279.872 43.4819 277.113 45.5758 275.699 46.1865C274.284 46.7973 271.648 46.4221 269.046 45.9859V51.0897C269.046 51.0897 272.634 55.2513 272.407 57.5808C272.18 59.9102 267.23 60.4773 263.878 58.1915C261.703 56.6263 259.836 54.6744 258.369 52.4333V40.1055C258.369 40.1055 256.623 42.4437 253.76 40.5418C250.896 38.6398 250.783 33.9373 252.45 32.2535C254.117 30.5696 257.688 31.0931 258.369 33.4313C258.369 33.4313 262.507 33.5796 267.972 30.5609C270.13 29.4155 271.986 27.7769 273.389 25.7786C274.792 23.7803 275.703 21.4789 276.048 19.062Z" fill="#FFA8A7"/>
<path d="M270.575 32.8566C270.588 33.1388 270.488 33.4145 270.297 33.623C270.106 33.8316 269.84 33.9559 269.558 33.9686C269.275 33.9814 268.999 33.8814 268.79 33.6909C268.581 33.5003 268.457 33.2347 268.444 32.9525C268.438 32.8128 268.459 32.6732 268.507 32.5416C268.554 32.4101 268.628 32.2893 268.722 32.186C268.817 32.0828 268.93 31.9991 269.057 31.9398C269.184 31.8805 269.322 31.8467 269.462 31.8404C269.601 31.8341 269.741 31.8554 269.873 31.9031C270.005 31.9507 270.126 32.0238 270.229 32.1182C270.332 32.2125 270.416 32.3263 270.476 32.453C270.535 32.5797 270.569 32.7168 270.575 32.8566Z" fill="#1E1E1E"/>
<path d="M268.643 29.586L266.426 30.9549C266.245 30.6516 266.19 30.2902 266.272 29.9469C266.353 29.6037 266.565 29.3055 266.862 29.1152C267.009 29.0267 267.173 28.9687 267.343 28.9445C267.513 28.9203 267.686 28.9304 267.852 28.9743C268.018 29.0182 268.174 29.095 268.309 29.2001C268.445 29.3052 268.559 29.4364 268.643 29.586Z" fill="#1E1E1E"/>
<path d="M270.862 40.0532L273.34 40.847C273.293 41.0114 273.214 41.1647 273.107 41.2979C273 41.4312 272.867 41.5417 272.717 41.6229C272.566 41.7042 272.401 41.7546 272.231 41.7711C272.061 41.7877 271.889 41.7701 271.726 41.7193C271.397 41.6038 271.124 41.367 270.963 41.0574C270.803 40.7478 270.766 40.3887 270.862 40.0532Z" fill="#F28F8F"/>
<path d="M279.366 29.5748L277.2 28.0746C277.29 27.9282 277.41 27.8018 277.551 27.7033C277.692 27.6048 277.852 27.5362 278.02 27.5019C278.189 27.4675 278.363 27.4681 278.531 27.5036C278.7 27.5391 278.859 27.6088 278.999 27.7083C279.287 27.9141 279.486 28.2219 279.554 28.5688C279.622 28.9158 279.555 29.2756 279.366 29.5748Z" fill="#1E1E1E"/>
<path d="M278.843 32.0804C278.846 32.291 278.787 32.4979 278.673 32.6752C278.56 32.8526 278.396 32.9926 278.203 33.0777C278.01 33.1629 277.796 33.1895 277.588 33.1541C277.38 33.1188 277.188 33.0231 277.034 32.879C276.88 32.7349 276.772 32.5487 276.723 32.3438C276.675 32.1388 276.688 31.9241 276.76 31.7264C276.833 31.5287 276.963 31.3568 277.132 31.232C277.302 31.1073 277.505 31.0353 277.716 31.025C277.86 31.0203 278.002 31.0439 278.137 31.0945C278.271 31.145 278.394 31.2215 278.499 31.3195C278.603 31.4175 278.687 31.5351 278.747 31.6657C278.806 31.7963 278.838 31.9372 278.843 32.0804Z" fill="#1E1E1E"/>
<path d="M273.794 31.4692L273.969 37.8992L277.356 36.8523L273.794 31.4692Z" fill="#F28F8F"/>
<path d="M269.081 45.9855C266.924 45.7413 262.594 44.4326 261.634 42.9756C261.819 43.9063 262.337 44.7376 263.092 45.3138C264.506 46.6661 269.081 47.6432 269.081 47.6432V45.9855Z" fill="#F28F8F"/>
<path d="M246.479 191.093L177.013 151.013L323.262 66.6294L392.728 106.71L246.479 191.093Z" fill="#5D59FF"/>
<path opacity="0.4" d="M246.479 191.093L177.013 151.013L323.262 66.6294L392.728 106.71L246.479 191.093Z" fill="#5D59FF"/>
<path d="M177.012 151.014V231.175L180.67 233.286V178.435L242.829 214.293V269.144L246.479 271.255V191.095L177.012 151.014Z" fill="#353395"/>
<path opacity="0.3" d="M177.012 151.014V231.175L180.67 233.286V178.435L242.829 214.293V269.144L246.479 271.255V191.095L177.012 151.014Z" fill="#5D59FF"/>
<path d="M180.67 233.285L184.328 231.174V180.545L180.67 178.434V233.285Z" fill="#5D59FF"/>
<path opacity="0.5" d="M180.67 233.285L184.328 231.174V180.545L180.67 178.434V233.285Z" fill="#1E1E1E"/>
<path d="M246.478 271.253L250.136 269.142V214.291L389.069 134.13V188.981L392.727 186.869V106.708L246.478 191.092V271.253Z" fill="#353395"/>
<path opacity="0.1" d="M246.478 271.253L250.136 269.142V214.291L389.069 134.13V188.981L392.727 186.869V106.708L246.478 191.092V271.253Z" fill="#5D59FF"/>
<path d="M250.136 210.077V193.203L294.014 167.885V184.758L250.136 210.077Z" fill="#5D59FF"/>
<path opacity="0.3" d="M250.136 210.077V193.203L294.014 167.885V184.758L250.136 210.077Z" fill="#5D59FF"/>
<path d="M297.664 182.656V165.774L341.542 140.464V157.337L297.664 182.656Z" fill="#5D59FF"/>
<path opacity="0.3" d="M297.664 182.656V165.774L341.542 140.464V157.337L297.664 182.656Z" fill="#5D59FF"/>
<path d="M345.2 155.226V138.353L389.069 113.034V129.916L345.2 155.226Z" fill="#5D59FF"/>
<path opacity="0.3" d="M345.2 155.226V138.353L389.069 113.034V129.916L345.2 155.226Z" fill="#5D59FF"/>
<path d="M279.365 176.322V177.675C279.365 178.416 277.619 180.03 275.463 181.269L268.636 185.213C266.479 186.451 264.733 186.861 264.733 186.085V184.741L279.365 176.322Z" fill="#1E1E1E"/>
<path d="M326.919 148.901V150.254C326.919 150.995 325.173 152.609 323.016 153.848L316.189 157.792C314.041 159.031 312.295 159.432 312.295 158.664V157.312L326.919 148.901Z" fill="#1E1E1E"/>
<path d="M374.446 121.48V122.824C374.446 123.574 372.7 125.179 370.552 126.427L363.716 130.362C361.569 131.609 359.823 132.01 359.823 131.234V129.882L374.446 121.48Z" fill="#1E1E1E"/>
<path d="M389.069 188.982L385.419 186.871V136.242L389.069 134.131V188.982Z" fill="#5D59FF"/>
<path opacity="0.3" d="M389.069 188.982L385.419 186.871V136.242L389.069 134.131V188.982Z" fill="#5D59FF"/>
<path d="M286.698 112.137V111.831C286.714 111.561 286.792 111.298 286.927 111.064C287.062 110.829 287.25 110.629 287.475 110.479L333.492 83.9564C333.735 83.8351 334.002 83.772 334.274 83.772C334.545 83.772 334.812 83.8351 335.055 83.9564L344.466 89.3831C344.692 89.5328 344.879 89.733 345.014 89.9677C345.149 90.2024 345.227 90.4652 345.243 90.7354V91.0495C345.225 91.3189 345.145 91.5805 345.009 91.8136C344.872 92.0468 344.684 92.2451 344.457 92.3931L298.493 118.916C298.25 119.037 297.983 119.1 297.711 119.1C297.44 119.1 297.173 119.037 296.93 118.916L287.475 113.463C287.253 113.316 287.067 113.12 286.933 112.89C286.798 112.66 286.718 112.402 286.698 112.137Z" fill="#5D59FF"/>
<path opacity="0.7" d="M286.698 112.137V111.831C286.714 111.561 286.792 111.298 286.927 111.064C287.062 110.829 287.25 110.629 287.475 110.479L333.492 83.9564C333.735 83.8351 334.002 83.772 334.274 83.772C334.545 83.772 334.812 83.8351 335.055 83.9564L344.466 89.3831C344.692 89.5328 344.879 89.733 345.014 89.9677C345.149 90.2024 345.227 90.4652 345.243 90.7354V91.0495C345.225 91.3189 345.145 91.5805 345.009 91.8136C344.872 92.0468 344.684 92.2451 344.457 92.3931L298.493 118.916C298.25 119.037 297.983 119.1 297.711 119.1C297.44 119.1 297.173 119.037 296.93 118.916L287.475 113.463C287.253 113.316 287.067 113.12 286.933 112.89C286.798 112.66 286.718 112.402 286.698 112.137Z" fill="#FAFAFA"/>
<path d="M287.475 111.378L296.886 116.814C297.129 116.935 297.396 116.998 297.667 116.998C297.939 116.998 298.206 116.935 298.449 116.814L344.413 90.2912C344.497 90.2529 344.568 90.1914 344.617 90.1141C344.667 90.0368 344.693 89.9468 344.693 89.855C344.693 89.7631 344.667 89.6731 344.617 89.5958C344.568 89.5185 344.497 89.457 344.413 89.4187L335.002 83.9921C334.76 83.8708 334.492 83.8076 334.221 83.8076C333.95 83.8076 333.682 83.8708 333.439 83.9921L287.466 110.515C287.047 110.733 287.047 111.134 287.475 111.378Z" fill="#5D59FF"/>
<path opacity="0.9" d="M287.475 111.378L296.886 116.814C297.129 116.935 297.396 116.998 297.667 116.998C297.939 116.998 298.206 116.935 298.449 116.814L344.413 90.2912C344.497 90.2529 344.568 90.1914 344.617 90.1141C344.667 90.0368 344.693 89.9468 344.693 89.855C344.693 89.7631 344.667 89.6731 344.617 89.5958C344.568 89.5185 344.497 89.457 344.413 89.4187L335.002 83.9921C334.76 83.8708 334.492 83.8076 334.221 83.8076C333.95 83.8076 333.682 83.8708 333.439 83.9921L287.466 110.515C287.047 110.733 287.047 111.134 287.475 111.378Z" fill="#FAFAFA"/>
<path d="M228.983 137.393L256.667 153.377C256.909 153.498 257.177 153.561 257.448 153.561C257.719 153.561 257.987 153.498 258.229 153.377L278.606 141.616C278.693 141.581 278.767 141.52 278.819 141.442C278.871 141.365 278.899 141.273 278.899 141.18C278.899 141.086 278.871 140.995 278.819 140.917C278.767 140.839 278.693 140.779 278.606 140.743L250.913 124.769C250.673 124.644 250.407 124.579 250.137 124.579C249.866 124.579 249.6 124.644 249.36 124.769L228.983 136.495C228.547 136.748 228.547 137.149 228.983 137.393Z" fill="#5D59FF"/>
<path opacity="0.8" d="M228.983 137.393L256.667 153.377C256.909 153.498 257.177 153.561 257.448 153.561C257.719 153.561 257.987 153.498 258.229 153.377L278.606 141.616C278.693 141.581 278.767 141.52 278.819 141.442C278.871 141.365 278.899 141.273 278.899 141.18C278.899 141.086 278.871 140.995 278.819 140.917C278.767 140.839 278.693 140.779 278.606 140.743L250.913 124.769C250.673 124.644 250.407 124.579 250.137 124.579C249.866 124.579 249.6 124.644 249.36 124.769L228.983 136.495C228.547 136.748 228.547 137.149 228.983 137.393Z" fill="#FAFAFA"/>
<path d="M249.359 124.742L230.004 135.901L256.666 151.291C256.909 151.412 257.176 151.476 257.447 151.476C257.719 151.476 257.986 151.412 258.229 151.291L277.619 140.124L250.948 124.742C250.703 124.612 250.43 124.543 250.153 124.543C249.876 124.543 249.603 124.612 249.359 124.742Z" fill="#5D59FF"/>
<path opacity="0.7" d="M249.359 124.742L230.004 135.901L256.666 151.291C256.909 151.412 257.176 151.476 257.447 151.476C257.719 151.476 257.986 151.412 258.229 151.291L277.619 140.124L250.948 124.742C250.703 124.612 250.43 124.543 250.153 124.543C249.876 124.543 249.603 124.612 249.359 124.742Z" fill="#FAFAFA"/>
<path d="M228.983 134.584L256.667 150.558C256.909 150.68 257.177 150.743 257.448 150.743C257.719 150.743 257.987 150.68 258.229 150.558L278.606 138.806C278.689 138.768 278.76 138.707 278.81 138.629C278.859 138.552 278.886 138.462 278.886 138.37C278.886 138.278 278.859 138.188 278.81 138.111C278.76 138.034 278.689 137.972 278.606 137.934L250.913 121.924C250.672 121.805 250.406 121.742 250.136 121.742C249.867 121.742 249.601 121.805 249.359 121.924L228.983 133.685C228.887 133.715 228.804 133.775 228.745 133.856C228.685 133.937 228.653 134.034 228.653 134.134C228.653 134.235 228.685 134.332 228.745 134.413C228.804 134.494 228.887 134.554 228.983 134.584Z" fill="#5D59FF"/>
<path opacity="0.9" d="M228.983 134.584L256.667 150.558C256.909 150.68 257.177 150.743 257.448 150.743C257.719 150.743 257.987 150.68 258.229 150.558L278.606 138.806C278.689 138.768 278.76 138.707 278.81 138.629C278.859 138.552 278.886 138.462 278.886 138.37C278.886 138.278 278.859 138.188 278.81 138.111C278.76 138.034 278.689 137.972 278.606 137.934L250.913 121.924C250.672 121.805 250.406 121.742 250.136 121.742C249.867 121.742 249.601 121.805 249.359 121.924L228.983 133.685C228.887 133.715 228.804 133.775 228.745 133.856C228.685 133.937 228.653 134.034 228.653 134.134C228.653 134.235 228.685 134.332 228.745 134.413C228.804 134.494 228.887 134.554 228.983 134.584Z" fill="#FAFAFA"/>
<path d="M244.331 117.938C243.414 120.433 244.82 122.449 247.483 122.431C248.882 122.358 250.232 121.893 251.379 121.09C252.526 120.286 253.424 119.175 253.969 117.886C254.895 115.391 253.48 113.375 250.818 113.393C249.418 113.466 248.068 113.931 246.921 114.734C245.774 115.538 244.876 116.649 244.331 117.938Z" fill="#5D59FF"/>
<path opacity="0.1" d="M244.331 117.938C243.414 120.433 244.82 122.449 247.483 122.431C248.882 122.358 250.232 121.893 251.379 121.09C252.526 120.286 253.424 119.175 253.969 117.886C254.895 115.391 253.48 113.375 250.818 113.393C249.418 113.466 248.068 113.931 246.921 114.734C245.774 115.538 244.876 116.649 244.331 117.938Z" fill="#1E1E1E"/>
<path d="M246.539 129.776C244.453 135.421 247.648 139.984 253.681 139.949C259.713 139.914 266.27 135.273 268.365 129.654C270.46 124.036 267.247 119.455 261.224 119.482C255.2 119.508 248.617 124.123 246.539 129.776Z" fill="#A17CFC"/>
<path d="M251.428 113.463L247.813 115.984L244.199 118.506C243.003 123.243 242.645 130.641 247.089 137.01L267.884 122.493C263.397 116.08 256.255 113.934 251.428 113.463Z" fill="#A17CFC"/>
<path d="M253.515 113.803C253.515 113.803 254.161 119.518 249.875 122.109C249.875 122.109 253.908 121.001 255.113 118.165C256.317 115.33 253.515 113.803 253.515 113.803Z" fill="#1E1E1E"/>
<path d="M254.047 114.447C252.437 112.21 250.27 110.433 247.761 109.291L244.863 111.35L244.54 111.576L241.633 113.635C241.885 116.368 242.842 118.989 244.409 121.243C244.77 121.702 245.238 122.066 245.772 122.303C246.306 122.541 246.89 122.644 247.473 122.604C248.947 122.524 250.368 122.03 251.574 121.18C252.78 120.33 253.722 119.157 254.292 117.797C254.527 117.257 254.626 116.668 254.58 116.081C254.534 115.493 254.345 114.926 254.03 114.429L254.047 114.447Z" fill="#1E1E1E"/>
<path d="M241.729 112.085C241.554 112.436 241.478 112.827 241.508 113.218C241.538 113.609 241.674 113.985 241.9 114.305C242.126 114.625 242.435 114.878 242.794 115.037C243.153 115.196 243.548 115.255 243.937 115.208C244.911 115.156 245.851 114.831 246.648 114.269C247.445 113.707 248.067 112.932 248.442 112.032C248.616 111.682 248.692 111.291 248.662 110.901C248.633 110.511 248.498 110.136 248.273 109.816C248.047 109.496 247.74 109.243 247.382 109.083C247.025 108.924 246.631 108.863 246.242 108.909C245.269 108.966 244.33 109.293 243.533 109.854C242.735 110.415 242.111 111.188 241.729 112.085Z" fill="#1E1E1E"/>
<path d="M247.683 119.177C247.32 118.655 246.84 118.225 246.28 117.921C245.721 117.618 245.098 117.451 244.462 117.432C244.22 117.411 243.977 117.461 243.763 117.575C243.549 117.69 243.373 117.865 243.257 118.078L234.684 138.763C234.621 138.964 234.605 139.176 234.639 139.384C234.672 139.591 234.753 139.788 234.876 139.959C235.239 140.483 235.721 140.914 236.282 141.217C236.844 141.52 237.468 141.687 238.106 141.704C238.348 141.726 238.591 141.677 238.806 141.562C239.02 141.447 239.196 141.272 239.311 141.058L247.867 120.442C247.948 120.233 247.973 120.007 247.941 119.785C247.909 119.564 247.82 119.354 247.683 119.177Z" fill="#1E1E1E"/>
<path d="M257.888 169.84C257.888 169.547 257.856 169.254 257.792 168.968C257.057 165.621 255.083 162.676 252.266 160.723H240.698C237.878 162.675 235.901 165.62 235.163 168.968C235.102 169.254 235.073 169.547 235.076 169.84C235.073 169.893 235.073 169.945 235.076 169.997C235.181 171.594 236.281 173.173 238.394 174.36C242.855 176.977 250.075 176.977 254.536 174.36C256.648 173.138 257.748 171.559 257.853 169.997C257.868 169.946 257.88 169.893 257.888 169.84Z" fill="#1E1E1E"/>
<path d="M246.478 168.148C250.76 168.148 254.23 166.144 254.23 163.672C254.23 161.201 250.76 159.197 246.478 159.197C242.196 159.197 238.726 161.201 238.726 163.672C238.726 166.144 242.196 168.148 246.478 168.148Z" fill="#1E1E1E"/>
<path d="M244.645 162.608C244.422 162.682 244.228 162.824 244.09 163.014C243.953 163.204 243.879 163.433 243.879 163.668C243.879 163.903 243.953 164.131 244.09 164.322C244.228 164.512 244.422 164.654 244.645 164.728C245.214 165.016 245.844 165.166 246.483 165.166C247.121 165.166 247.751 165.016 248.32 164.728C248.543 164.654 248.737 164.512 248.875 164.322C249.012 164.131 249.086 163.903 249.086 163.668C249.086 163.433 249.012 163.204 248.875 163.014C248.737 162.824 248.543 162.682 248.32 162.608C247.751 162.32 247.121 162.169 246.483 162.169C245.844 162.169 245.214 162.32 244.645 162.608Z" fill="#1E1E1E"/>
<path d="M234.029 142.385C233.806 142.459 233.612 142.601 233.474 142.791C233.337 142.981 233.263 143.21 233.263 143.445C233.263 143.679 233.337 143.908 233.474 144.098C233.612 144.289 233.806 144.431 234.029 144.505C234.598 144.793 235.228 144.943 235.866 144.943C236.505 144.943 237.134 144.793 237.704 144.505C237.927 144.431 238.121 144.289 238.258 144.098C238.396 143.908 238.47 143.679 238.47 143.445C238.47 143.21 238.396 142.981 238.258 142.791C238.121 142.601 237.927 142.459 237.704 142.385C237.134 142.096 236.505 141.946 235.866 141.946C235.228 141.946 234.598 142.096 234.029 142.385Z" fill="#5D59FF"/>
<path opacity="0.3" d="M234.029 142.385C233.806 142.459 233.612 142.601 233.474 142.791C233.337 142.981 233.263 143.21 233.263 143.445C233.263 143.679 233.337 143.908 233.474 144.098C233.612 144.289 233.806 144.431 234.029 144.505C234.598 144.793 235.228 144.943 235.866 144.943C236.505 144.943 237.134 144.793 237.704 144.505C237.927 144.431 238.121 144.289 238.258 144.098C238.396 143.908 238.47 143.679 238.47 143.445C238.47 143.21 238.396 142.981 238.258 142.791C238.121 142.601 237.927 142.459 237.704 142.385C237.134 142.096 236.505 141.946 235.866 141.946C235.228 141.946 234.598 142.096 234.029 142.385Z" fill="#1E1E1E"/>
<path d="M238.367 143.021L248.974 163.245L243.989 164.1L233.365 143.85L238.367 143.021Z" fill="#1E1E1E"/>
<path d="M234.622 137.131C234.294 137.051 233.949 137.067 233.63 137.179C233.311 137.29 233.031 137.492 232.824 137.76C232.225 138.433 231.794 139.239 231.565 140.11C231.336 140.982 231.315 141.895 231.506 142.776C231.559 143.066 231.678 143.339 231.856 143.573C232.033 143.808 232.263 143.998 232.527 144.128L236.491 145.612L238.464 138.545L234.622 137.131Z" fill="#1E1E1E"/>
<path d="M236.735 139.225C236.134 139.9 235.701 140.706 235.47 141.579C235.239 142.453 235.218 143.368 235.408 144.251C235.845 145.847 237.154 146.188 238.307 145.01C238.908 144.337 239.341 143.532 239.572 142.66C239.802 141.789 239.823 140.875 239.634 139.993C239.206 138.397 237.896 138.056 236.735 139.225Z" fill="#A17CFC"/>
<path d="M216.804 156.754C220.488 153.003 222.645 143.624 219.057 140.649H200.793C197.205 143.624 199.361 152.994 203.045 156.754L203.141 156.859L203.272 156.981C203.377 157.087 203.488 157.186 203.604 157.278L203.691 157.348L203.971 157.557C204.122 157.668 204.279 157.77 204.442 157.862C206.143 158.723 208.023 159.171 209.929 159.171C211.836 159.171 213.715 158.723 215.416 157.862C215.573 157.775 215.73 157.67 215.896 157.557L216.15 157.356L216.263 157.278L216.577 156.99L216.726 156.842L216.804 156.754Z" fill="#5D59FF"/>
<path opacity="0.7" d="M216.804 156.754C220.488 153.003 222.645 143.624 219.057 140.649H200.793C197.205 143.624 199.361 152.994 203.045 156.754L203.141 156.859L203.272 156.981C203.377 157.087 203.488 157.186 203.604 157.278L203.691 157.348L203.971 157.557C204.122 157.668 204.279 157.77 204.442 157.862C206.143 158.723 208.023 159.171 209.929 159.171C211.836 159.171 213.715 158.723 215.416 157.862C215.573 157.775 215.73 157.67 215.896 157.557L216.15 157.356L216.263 157.278L216.577 156.99L216.726 156.842L216.804 156.754Z" fill="#FAFAFA"/>
<path d="M209.915 149.966C215.812 149.966 220.592 147.208 220.592 143.806C220.592 140.404 215.812 137.646 209.915 137.646C204.019 137.646 199.238 140.404 199.238 143.806C199.238 147.208 204.019 149.966 209.915 149.966Z" fill="#5D59FF"/>
<path opacity="0.9" d="M209.915 149.966C215.812 149.966 220.592 147.208 220.592 143.806C220.592 140.404 215.812 137.646 209.915 137.646C204.019 137.646 199.238 140.404 199.238 143.806C199.238 147.208 204.019 149.966 209.915 149.966Z" fill="#FAFAFA"/>
<path d="M205.324 141.154C202.792 142.62 202.792 144.993 205.324 146.459C206.749 147.178 208.323 147.552 209.92 147.552C211.517 147.552 213.091 147.178 214.517 146.459C217.048 144.993 217.048 142.62 214.517 141.154C213.092 140.432 211.517 140.055 209.92 140.055C208.323 140.055 206.748 140.432 205.324 141.154Z" fill="#5D59FF"/>
<path opacity="0.7" d="M205.324 141.154C202.792 142.62 202.792 144.993 205.324 146.459C206.749 147.178 208.323 147.552 209.92 147.552C211.517 147.552 213.091 147.178 214.517 146.459C217.048 144.993 217.048 142.62 214.517 141.154C213.092 140.432 211.517 140.055 209.92 140.055C208.323 140.055 206.748 140.432 205.324 141.154Z" fill="#FAFAFA"/>
<path d="M214.516 143.668C213.091 142.95 211.516 142.575 209.92 142.575C208.323 142.575 206.749 142.95 205.323 143.668C204.713 144.005 204.192 144.484 203.804 145.064C204.192 145.644 204.713 146.123 205.323 146.46C206.749 147.179 208.323 147.553 209.92 147.553C211.516 147.553 213.091 147.179 214.516 146.46C215.127 146.123 215.648 145.644 216.035 145.064C215.648 144.484 215.127 144.005 214.516 143.668Z" fill="#5D59FF"/>
<path opacity="0.3" d="M214.516 143.668C213.091 142.95 211.516 142.575 209.92 142.575C208.323 142.575 206.749 142.95 205.323 143.668C204.713 144.005 204.192 144.484 203.804 145.064C204.192 145.644 204.713 146.123 205.323 146.46C206.749 147.179 208.323 147.553 209.92 147.553C211.516 147.553 213.091 147.179 214.516 146.46C215.127 146.123 215.648 145.644 216.035 145.064C215.648 144.484 215.127 144.005 214.516 143.668Z" fill="#1E1E1E"/>
<path d="M211.575 145.637C214.221 143.986 216.218 141.475 217.232 138.527C218.917 133.606 217.922 127.656 216.412 125.196C214.369 121.863 209.428 122.238 210.886 127.813C212.343 133.388 213.251 139.417 210.938 143.447L211.575 145.637Z" fill="#0F9B15"/>
<path d="M211.75 144.626C211.696 144.626 211.643 144.608 211.601 144.574C211.58 144.552 211.563 144.527 211.551 144.5C211.54 144.472 211.534 144.442 211.534 144.412C211.534 144.382 211.54 144.352 211.551 144.325C211.563 144.297 211.58 144.272 211.601 144.251C213.077 142.62 214.207 140.706 214.921 138.626C215.635 136.546 215.92 134.343 215.757 132.15C215.504 128.11 214.011 125.17 213.443 124.725C213.402 124.682 213.379 124.624 213.379 124.564C213.379 124.504 213.402 124.446 213.443 124.402C213.486 124.362 213.542 124.339 213.6 124.339C213.659 124.339 213.715 124.362 213.758 124.402C214.508 125.048 215.975 128.189 216.219 132.132C216.388 134.387 216.097 136.652 215.363 138.791C214.629 140.93 213.468 142.897 211.95 144.574C211.924 144.599 211.892 144.617 211.857 144.626C211.822 144.636 211.785 144.635 211.75 144.626Z" fill="#FAFAFA"/>
<path d="M207.315 145.639C207.174 145.152 206.864 144.732 206.442 144.452C205.92 144.161 205.37 143.924 204.8 143.745C203.814 143.388 202.557 142.873 202.426 141.686C202.395 141.261 202.448 140.834 202.583 140.43C202.826 139.882 202.884 139.269 202.749 138.685C202.531 138.162 201.972 137.882 201.492 137.568C200.962 137.256 200.511 136.826 200.173 136.312C199.889 135.856 199.751 135.322 199.781 134.785C199.877 133.686 200.933 132.962 200.968 131.871C201.012 130.275 197.275 128.111 199.266 126.637C201.815 124.708 205.804 126.942 206.948 128.582C208.092 130.222 208.092 130.955 210.178 132.342C211.924 133.494 213.95 133.73 213.95 135.998C213.95 138.266 211.043 138.371 213.33 140.945C214.709 142.489 212.457 143.824 211.584 145.656C210.161 145.639 208.72 145.569 207.315 145.639Z" fill="#0F9B15"/>
<path d="M209.619 145.84C209.589 145.838 209.56 145.832 209.533 145.819C209.506 145.807 209.481 145.789 209.461 145.767C209.441 145.745 209.425 145.72 209.415 145.692C209.405 145.664 209.4 145.634 209.401 145.604C209.907 132.421 203.194 127.797 201.849 127.431C201.794 127.412 201.749 127.373 201.722 127.322C201.694 127.271 201.688 127.211 201.704 127.155C201.719 127.099 201.756 127.051 201.806 127.021C201.855 126.992 201.915 126.982 201.972 126.995C204.241 127.614 210.326 133.18 209.829 145.622C209.827 145.677 209.804 145.73 209.766 145.771C209.727 145.811 209.675 145.835 209.619 145.84Z" fill="#FAFAFA"/>
<path d="M208.554 136.468C208.5 136.468 208.448 136.45 208.406 136.416C206.459 134.671 202.652 134.741 202.609 134.741C202.55 134.741 202.494 134.719 202.451 134.678C202.409 134.637 202.384 134.582 202.382 134.523C202.382 134.464 202.404 134.406 202.445 134.363C202.485 134.319 202.541 134.292 202.6 134.288C202.766 134.288 206.625 134.244 208.711 136.032C208.744 136.063 208.767 136.102 208.777 136.146C208.788 136.19 208.785 136.236 208.769 136.278C208.753 136.32 208.725 136.356 208.688 136.382C208.651 136.408 208.608 136.423 208.563 136.424L208.554 136.468Z" fill="#FAFAFA"/>
<path d="M363.665 100.252L366.947 60.4337C366.981 59.7893 366.848 59.1469 366.56 58.5691C366.273 57.9912 365.841 57.4975 365.306 57.1359C364.715 56.85 364.064 56.7073 363.407 56.7195C362.751 56.7316 362.106 56.8982 361.526 57.2057L317.874 82.3846C317.297 82.7581 316.808 83.2514 316.439 83.831C316.069 84.4107 315.83 85.063 315.736 85.7436L312.453 125.562C312.419 126.207 312.552 126.849 312.84 127.427C313.127 128.005 313.559 128.498 314.094 128.86C314.686 129.146 315.336 129.289 315.993 129.277C316.649 129.264 317.294 129.098 317.874 128.79L361.526 103.611C362.102 103.237 362.591 102.744 362.96 102.164C363.329 101.585 363.569 100.933 363.665 100.252Z" fill="#5D59FF"/>
<path opacity="0.8" d="M363.665 100.252L366.947 60.4337C366.981 59.7893 366.848 59.1469 366.56 58.5691C366.273 57.9912 365.841 57.4975 365.306 57.1359C364.715 56.85 364.064 56.7073 363.407 56.7195C362.751 56.7316 362.106 56.8982 361.526 57.2057L317.874 82.3846C317.297 82.7581 316.808 83.2514 316.439 83.831C316.069 84.4107 315.83 85.063 315.736 85.7436L312.453 125.562C312.419 126.207 312.552 126.849 312.84 127.427C313.127 128.005 313.559 128.498 314.094 128.86C314.686 129.146 315.336 129.289 315.993 129.277C316.649 129.264 317.294 129.098 317.874 128.79L361.526 103.611C362.102 103.237 362.591 102.744 362.96 102.164C363.329 101.585 363.569 100.933 363.665 100.252Z" fill="#FAFAFA"/>
<path d="M363.664 100.252L366.947 60.4337C366.981 59.7893 366.848 59.1469 366.56 58.5691C366.273 57.9912 365.84 57.4975 365.306 57.1359C364.714 56.85 364.064 56.7073 363.407 56.7195C362.75 56.7316 362.106 56.8982 361.525 57.2057L317.874 82.3846C317.294 82.7439 316.807 83.234 316.451 83.8155L323.235 87.724V125.676L361.499 103.594C362.079 103.225 362.573 102.736 362.946 102.159C363.32 101.582 363.565 100.932 363.664 100.252Z" fill="#5D59FF"/>
<path opacity="0.9" d="M363.664 100.252L366.947 60.4337C366.981 59.7893 366.848 59.1469 366.56 58.5691C366.273 57.9912 365.84 57.4975 365.306 57.1359C364.714 56.85 364.064 56.7073 363.407 56.7195C362.75 56.7316 362.106 56.8982 361.525 57.2057L317.874 82.3846C317.294 82.7439 316.807 83.234 316.451 83.8155L323.235 87.724V125.676L361.499 103.594C362.079 103.225 362.573 102.736 362.946 102.159C363.32 101.582 363.565 100.932 363.664 100.252Z" fill="#FAFAFA"/>
<path d="M316.136 127.676L319.419 87.8569C319.514 87.1766 319.753 86.5243 320.121 85.9436C320.488 85.3629 320.975 84.8671 321.549 84.4893L365.2 59.3191C366.283 58.6996 367.069 59.1969 366.946 60.4358L363.664 100.254C363.57 100.934 363.331 101.585 362.963 102.165C362.596 102.744 362.108 103.238 361.534 103.613L317.882 128.792C316.817 129.412 316.032 128.915 316.136 127.676Z" fill="#5D59FF"/>
<path opacity="0.7" d="M316.136 127.676L319.419 87.8569C319.514 87.1766 319.753 86.5243 320.121 85.9436C320.488 85.3629 320.975 84.8671 321.549 84.4893L365.2 59.3191C366.283 58.6996 367.069 59.1969 366.946 60.4358L363.664 100.254C363.57 100.934 363.331 101.585 362.963 102.165C362.596 102.744 362.108 103.238 361.534 103.613L317.882 128.792C316.817 129.412 316.032 128.915 316.136 127.676Z" fill="#FAFAFA"/>
<path d="M338.653 95.7261C338.771 94.6557 339.118 93.623 339.669 92.6976C340.22 91.7721 340.963 90.9752 341.848 90.3605C343.445 89.4357 344.598 90.3605 344.467 92.3846C344.347 93.4547 344 94.4869 343.449 95.4122C342.898 96.3375 342.156 97.1346 341.272 97.7502C339.604 98.6313 338.487 97.7589 338.653 95.7261Z" fill="#5D59FF"/>
<path opacity="0.4" d="M338.653 95.7261C338.771 94.6557 339.118 93.623 339.669 92.6976C340.22 91.7721 340.963 90.9752 341.848 90.3605C343.445 89.4357 344.598 90.3605 344.467 92.3846C344.347 93.4547 344 94.4869 343.449 95.4122C342.898 96.3375 342.156 97.1346 341.272 97.7502C339.604 98.6313 338.487 97.7589 338.653 95.7261Z" fill="#FAFAFA"/>
<path d="M337.884 108.822L352.507 100.385L350.682 99.3296L336.059 107.766L337.884 108.822Z" fill="#5D59FF"/>
<path opacity="0.9" d="M337.884 108.822L352.507 100.385L350.682 99.3296L336.059 107.766L337.884 108.822Z" fill="#FAFAFA"/>
<path d="M355.378 119.815L342.283 127.353C342.015 127.497 341.713 127.564 341.41 127.545C341.164 127.535 340.923 127.472 340.703 127.362L334.95 124.047C334.731 123.896 334.55 123.697 334.42 123.466C334.29 123.235 334.214 122.977 334.199 122.712V122.406C334.199 121.909 334.548 121.7 334.976 121.953L338.468 123.951L339.245 124.404L339.07 123.532L336.05 107.828L337.874 108.883L352.506 100.377L355.998 118.472C356.039 118.732 356.002 118.998 355.891 119.237C355.781 119.476 355.603 119.677 355.378 119.815Z" fill="#5D59FF"/>
<path opacity="0.7" d="M355.378 119.815L342.283 127.353C342.015 127.497 341.713 127.564 341.41 127.545C341.164 127.535 340.923 127.472 340.703 127.362L334.95 124.047C334.731 123.896 334.55 123.697 334.42 123.466C334.29 123.235 334.214 122.977 334.199 122.712V122.406C334.199 121.909 334.548 121.7 334.976 121.953L338.468 123.951L339.245 124.404L339.07 123.532L336.05 107.828L337.874 108.883L352.506 100.377L355.998 118.472C356.039 118.732 356.002 118.998 355.891 119.237C355.781 119.476 355.603 119.677 355.378 119.815Z" fill="#FAFAFA"/>
<path d="M334.47 121.865L338.922 119.291L339.83 125.285L334.47 121.865Z" fill="#5D59FF"/>
<path opacity="0.7" d="M334.47 121.865L338.922 119.291L339.83 125.285L334.47 121.865Z" fill="#FAFAFA"/>
<path d="M337.858 108.821L336.033 107.765L339.054 123.469C339.158 123.949 338.879 124.15 338.451 123.897L334.959 121.899C334.531 121.646 334.182 121.899 334.182 122.353V122.658C334.197 122.923 334.273 123.181 334.403 123.412C334.533 123.643 334.714 123.842 334.933 123.993L340.686 127.308C340.906 127.418 341.147 127.481 341.393 127.491L337.858 108.821Z" fill="#5D59FF"/>
<path opacity="0.8" d="M337.858 108.821L336.033 107.765L339.054 123.469C339.158 123.949 338.879 124.15 338.451 123.897L334.959 121.899C334.531 121.646 334.182 121.899 334.182 122.353V122.658C334.197 122.923 334.273 123.181 334.403 123.412C334.533 123.643 334.714 123.842 334.933 123.993L340.686 127.308C340.906 127.418 341.147 127.481 341.393 127.491L337.858 108.821Z" fill="#FAFAFA"/>
<path d="M290.714 129.917C293.394 129.717 294.259 128.731 294.695 127.544C295.132 126.358 295.289 125.058 294.25 122.31C293.211 119.561 287.266 115.958 281.094 117.275C274.921 118.593 274.066 123.304 274.397 124.569C274.729 125.834 278.44 129.045 283.25 129.594C285.724 129.917 288.222 130.025 290.714 129.917Z" fill="#5D59FF"/>
<path opacity="0.7" d="M290.714 129.917C293.394 129.717 294.259 128.731 294.695 127.544C295.132 126.358 295.289 125.058 294.25 122.31C293.211 119.561 287.266 115.958 281.094 117.275C274.921 118.593 274.066 123.304 274.397 124.569C274.729 125.834 278.44 129.045 283.25 129.594C285.724 129.917 288.222 130.025 290.714 129.917Z" fill="#FAFAFA"/>
<path d="M287.58 121.316C287.934 121.036 288.373 120.884 288.824 120.884C289.276 120.884 289.714 121.036 290.068 121.316C290.885 121.778 291.538 122.482 291.936 123.331C292.207 124.038 292.076 124.666 291.771 124.666C291.465 124.666 291.238 124.02 290.068 123.043C288.898 122.066 287.318 121.682 287.58 121.316Z" fill="#5D59FF"/>
<path opacity="0.9" d="M287.58 121.316C287.934 121.036 288.373 120.884 288.824 120.884C289.276 120.884 289.714 121.036 290.068 121.316C290.885 121.778 291.538 122.482 291.936 123.331C292.207 124.038 292.076 124.666 291.771 124.666C291.465 124.666 291.238 124.02 290.068 123.043C288.898 122.066 287.318 121.682 287.58 121.316Z" fill="#FAFAFA"/>
<path d="M249.874 55.5498C246.993 57.4866 243.579 59.7812 244.051 67.3366C244.522 74.8921 250.162 95.7349 250.546 98.2738C250.93 100.813 266.26 113.105 269.08 115.531C272.319 118.349 273.541 118.942 275.008 120.556C276.475 122.17 277.854 126.288 279.373 128.077C281.757 130.842 286.89 130.903 289.256 130.581C291.622 130.258 290.129 127.387 289.256 125.346C288.383 123.304 286.043 120.521 286.707 120.041C287.161 119.719 289.631 120.155 291.543 121.786C293.019 123.043 293.193 124.273 294.023 124.849C295.411 125.826 295.873 124.098 294.442 121.359C293.01 118.619 290.827 116.656 288.671 115.976C289.623 116.051 290.575 115.838 291.404 115.365C292.591 114.632 293.01 112.975 291.543 113.411C290.67 113.664 289.797 113.411 288.051 113.411C282.569 113.411 280.919 115.4 274.572 109.275C268.225 103.151 259.73 94.8189 259.73 94.8189C259.73 94.8189 256.875 77.4571 255.592 69.7708C254.501 63.1489 254.047 58.8128 249.874 55.5498Z" fill="#FFA8A7"/>
<path d="M300.833 72.6243L311.667 49.6963L317.778 52.2177C317.778 52.2177 308.795 79.3858 307.503 82.3347C306.743 84.0796 304.307 86.1997 300.78 84.4809C300.012 84.1058 298.484 83.2072 296.59 82.0294" fill="#FFA8A7"/>
<path d="M315.482 59.0475C316.233 56.8053 318.617 54.4148 318.975 53.4638C319.292 52.7128 319.398 51.8889 319.28 51.082L316.495 51.3612L315.482 59.0475Z" fill="#FFA8A7"/>
<path d="M309.737 53.6996C310.191 52.6614 310.27 49.0233 309.737 46.9294C309.205 44.8355 310.488 42.2181 310.165 40.7437C309.842 39.2692 310.785 38.8243 311.64 39.3565C312.164 39.6888 312.598 40.1455 312.903 40.6859C313.207 41.2263 313.373 41.8336 313.386 42.4537C313.43 43.9805 313.526 47.8629 312.906 49.7561C312.286 51.6493 309.737 53.6996 309.737 53.6996Z" fill="#FFA8A7"/>
<path d="M311.178 50.1309C311.344 50.602 311.972 51.2563 314.007 50.9073L317.752 52.216L319.28 52.1288C318.463 52.7062 317.464 52.9662 316.469 52.8602C315.474 52.7542 314.552 52.2894 313.876 51.5529C313.876 51.5529 311.126 51.8932 311.178 50.1309Z" fill="#F28F8F"/>
<path d="M321.654 48.595C319.306 50.4271 319.638 52.8089 322.405 53.9257C323.939 54.4524 325.576 54.61 327.182 54.3856C328.789 54.1613 330.32 53.5613 331.65 52.6345C333.999 50.8023 333.658 48.4118 330.9 47.2951C329.365 46.7717 327.728 46.6166 326.122 46.8425C324.516 47.0683 322.985 47.6686 321.654 48.595Z" fill="#5D59FF"/>
<path opacity="0.7" d="M321.654 48.595C319.306 50.4271 319.638 52.8089 322.405 53.9257C323.939 54.4524 325.576 54.61 327.182 54.3856C328.789 54.1613 330.32 53.5613 331.65 52.6345C333.999 50.8023 333.658 48.4118 330.9 47.2951C329.365 46.7717 327.728 46.6166 326.122 46.8425C324.516 47.0683 322.985 47.6686 321.654 48.595Z" fill="#FAFAFA"/>
<path d="M333.283 35.2207L324.666 36.4247L316.032 37.6287C316.224 43.2124 318.118 49.4678 320.589 52.6523L333.021 50.9074C334.531 47.1558 334.627 40.6386 333.283 35.2207Z" fill="#5D59FF"/>
<path opacity="0.7" d="M333.283 35.2207L324.666 36.4247L316.032 37.6287C316.224 43.2124 318.118 49.4678 320.589 52.6523L333.021 50.9074C334.531 47.1558 334.627 40.6386 333.283 35.2207Z" fill="#FAFAFA"/>
<path d="M318.25 35.02C315.089 36.9481 315.421 39.3212 318.992 40.3071C323.143 41.2154 327.483 40.5958 331.214 38.5622C334.374 36.6253 334.043 34.261 330.472 33.2664C326.32 32.3615 321.98 32.9841 318.25 35.02Z" fill="#5D59FF"/>
<path opacity="0.9" d="M318.25 35.02C315.089 36.9481 315.421 39.3212 318.992 40.3071C323.143 41.2154 327.483 40.5958 331.214 38.5622C334.374 36.6253 334.043 34.261 330.472 33.2664C326.32 32.3615 321.98 32.9841 318.25 35.02Z" fill="#FAFAFA"/>
<path d="M319.524 35.8142C316.905 37.149 317.158 38.6933 320.004 39.304C323.348 39.8099 326.767 39.3309 329.843 37.9255C332.418 36.5907 332.209 35.0464 329.354 34.4357C326.013 33.9305 322.597 34.4096 319.524 35.8142Z" fill="#5D59FF"/>
<path opacity="0.4" d="M319.524 35.8142C316.905 37.149 317.158 38.6933 320.004 39.304C323.348 39.8099 326.767 39.3309 329.843 37.9255C332.418 36.5907 332.209 35.0464 329.354 34.4357C326.013 33.9305 322.597 34.4096 319.524 35.8142Z" fill="#FAFAFA"/>
<path d="M319.847 37.8551C319.384 38.0821 318.958 38.3761 318.581 38.7276C319.04 38.9624 319.531 39.1271 320.039 39.2162C323.383 39.7221 326.802 39.243 329.878 37.8377C330.343 37.6143 330.77 37.3199 331.144 36.9652C330.685 36.7304 330.194 36.5657 329.686 36.4767C326.342 35.9708 322.923 36.4498 319.847 37.8551Z" fill="#5D59FF"/>
<path opacity="0.3" d="M319.847 37.8551C319.384 38.0821 318.958 38.3761 318.581 38.7276C319.04 38.9624 319.531 39.1271 320.039 39.2162C323.383 39.7221 326.802 39.243 329.878 37.8377C330.343 37.6143 330.77 37.3199 331.144 36.9652C330.685 36.7304 330.194 36.5657 329.686 36.4767C326.342 35.9708 322.923 36.4498 319.847 37.8551Z" fill="#1E1E1E"/>
<path d="M318.014 52.39C317.29 52.4974 316.551 52.4619 315.84 52.2853C314.862 52.0236 313.937 51.0814 313.02 49.3975C312.252 47.9842 310.934 44.8433 311.493 43.1071C312.208 40.8998 314.766 40.5858 316.469 40.3764L317.054 40.2979L317.429 42.9763L316.801 43.0548C315.84 43.1682 314.243 43.3689 314.059 43.9273C313.815 45.0091 315.648 49.223 316.582 49.6854C317.425 49.8023 318.283 49.6624 319.044 49.2841L320.266 51.6921C319.557 52.0412 318.797 52.2767 318.014 52.39Z" fill="#5D59FF"/>
<path opacity="0.7" d="M318.014 52.39C317.29 52.4974 316.551 52.4619 315.84 52.2853C314.862 52.0236 313.937 51.0814 313.02 49.3975C312.252 47.9842 310.934 44.8433 311.493 43.1071C312.208 40.8998 314.766 40.5858 316.469 40.3764L317.054 40.2979L317.429 42.9763L316.801 43.0548C315.84 43.1682 314.243 43.3689 314.059 43.9273C313.815 45.0091 315.648 49.223 316.582 49.6854C317.425 49.8023 318.283 49.6624 319.044 49.2841L320.266 51.6921C319.557 52.0412 318.797 52.2767 318.014 52.39Z" fill="#FAFAFA"/>
<path d="M314.81 43.9375C313.142 43.9375 308.244 45.8831 308.14 47.6454C308.035 49.4078 311.361 49.2769 311.361 49.2769C311.204 49.5387 311.144 49.8475 311.192 50.1489C311.24 50.4504 311.393 50.7255 311.623 50.9258C312.452 51.6413 318.738 49.4601 318.738 49.4601C318.519 48.7402 318.185 48.0599 317.752 47.4448C317.438 47.047 316.98 46.7897 316.477 46.7293C316.477 46.7293 317.289 43.9375 314.81 43.9375Z" fill="#FFA8A7"/>
<path d="M190.063 129.857L182.747 125.643L190.063 123.532V129.857Z" fill="#FAFAFA"/>
<g style="mix-blend-mode:multiply" opacity="0.5">
<path d="M190.063 123.532V129.858L182.747 125.644" fill="#FAFAFA"/>
</g>
<path d="M146.184 148.851V155.569L105.973 132.371V125.644L146.184 148.851Z" fill="#FAFAFA"/>
<g style="mix-blend-mode:multiply" opacity="0.5">
<path d="M146.184 148.849V155.567L105.972 132.369V125.642L146.184 148.849Z" fill="#FAFAFA"/>
</g>
<path d="M102.315 72.9038L142.535 96.111V150.953L102.315 127.755V72.9038Z" fill="#FAFAFA"/>
<path d="M142.535 96.1101L197.369 64.4663V119.309L142.535 150.952V96.1101Z" fill="#F0F0F0"/>
<path d="M197.37 64.467L157.158 41.2598L102.315 72.9036L142.535 96.1108L197.37 64.467Z" fill="#F0F0F0"/>
<path d="M146.185 98.2219L193.721 70.792V83.4513L146.185 110.872V98.2219Z" fill="#FAFAFA"/>
<g style="mix-blend-mode:multiply" opacity="0.5">
<path d="M164.465 88.7218C164.465 89.3063 166.211 88.7741 168.367 87.5352L175.194 83.5918C177.351 82.3529 179.088 80.8697 179.088 80.2852V79.2295L164.456 87.6748L164.465 88.7218Z" fill="#FAFAFA"/>
</g>
<path d="M146.185 115.094L193.721 87.6729V100.323L146.185 127.753V115.094Z" fill="#FAFAFA"/>
<g style="mix-blend-mode:multiply" opacity="0.5">
<path d="M164.465 105.612C164.465 106.196 166.211 105.612 168.368 104.417L175.195 100.473C177.351 99.2343 179.088 97.7511 179.088 97.1753V96.1196L164.457 104.556L164.465 105.612Z" fill="#FAFAFA"/>
</g>
<path d="M146.185 131.969L193.721 104.548V117.207L146.185 144.628V131.969Z" fill="#FAFAFA"/>
<g style="mix-blend-mode:multiply" opacity="0.5">
<path d="M164.466 122.475C164.466 123.06 166.212 122.528 168.368 121.28L175.195 117.345C177.352 116.098 179.089 114.623 179.089 114.039V112.983L164.457 121.42L164.466 122.475Z" fill="#FAFAFA"/>
</g>
<path d="M146.185 155.569L149.843 153.466V146.74L146.185 148.851V155.569Z" fill="#FAFAFA"/>
<path d="M190.062 129.858L193.72 127.756V121.422L190.062 123.533V129.858Z" fill="#FAFAFA"/>
<path d="M125.826 75.1889C129.51 71.4286 131.675 62.1021 128.078 59.0747H109.806C106.218 62.0585 108.374 71.4286 112.058 75.1802L112.154 75.2849L112.285 75.407C112.39 75.5126 112.5 75.6116 112.617 75.7036L112.704 75.7734L112.984 75.9828C113.135 76.0937 113.292 76.1957 113.455 76.2882C115.156 77.1484 117.036 77.5965 118.942 77.5965C120.848 77.5965 122.728 77.1484 124.429 76.2882C124.595 76.1958 124.755 76.0938 124.909 75.9828L125.162 75.7909L125.276 75.7036L125.599 75.4157L125.738 75.2761L125.826 75.1889Z" fill="#F0F0F0"/>
<path d="M111.393 57.8794C107.22 60.2874 107.22 64.1872 111.393 66.6039C115.567 69.0206 122.324 69.0119 126.488 66.6039C130.652 64.196 130.661 60.3048 126.488 57.8794C122.315 55.454 115.558 55.4715 111.393 57.8794Z" fill="#F0F0F0"/>
<path d="M114.362 59.5822C111.83 61.048 111.83 63.421 114.362 64.8868C115.786 65.6094 117.361 65.9861 118.959 65.9861C120.556 65.9861 122.131 65.6094 123.555 64.8868C126.087 63.421 126.087 61.048 123.555 59.5822C122.13 58.8636 120.555 58.4893 118.959 58.4893C117.362 58.4893 115.788 58.8636 114.362 59.5822Z" fill="#FAFAFA"/>
<path d="M123.538 62.1037C122.113 61.381 120.539 61.0044 118.941 61.0044C117.344 61.0044 115.769 61.381 114.345 62.1037C113.732 62.4342 113.21 62.9107 112.826 63.4909C113.21 64.0738 113.731 64.5532 114.345 64.8868C115.769 65.6095 117.344 65.9861 118.941 65.9861C120.539 65.9861 122.113 65.6095 123.538 64.8868C124.151 64.5532 124.673 64.0738 125.057 63.4909C124.672 62.9107 124.15 62.4342 123.538 62.1037Z" fill="#FAFAFA"/>
<g style="mix-blend-mode:multiply" opacity="0.5">
<path d="M123.538 62.1027C122.113 61.3801 120.539 61.0034 118.941 61.0034C117.344 61.0034 115.769 61.3801 114.345 62.1027C113.732 62.4332 113.21 62.9097 112.826 63.4899C113.21 64.0728 113.731 64.5523 114.345 64.8858C115.769 65.6085 117.344 65.9851 118.941 65.9851C120.539 65.9851 122.113 65.6085 123.538 64.8858C124.151 64.5523 124.673 64.0728 125.057 63.4899C124.672 62.9097 124.15 62.4332 123.538 62.1027Z" fill="#FAFAFA"/>
</g>
<path d="M114.912 63.4901C113.612 62.173 112.494 60.6884 111.586 59.0755C110.05 56.3709 109.77 52.7328 110.565 52.2879C111.359 51.8429 114.581 55.4636 114.581 55.4636C114.287 53.9379 114.173 52.3831 114.24 50.8309C114.38 48.4142 114.965 46.2243 115.663 45.7794C116.362 45.3344 117.898 48.3967 118.562 50.5953C119.225 52.7939 119.601 54.6173 119.601 54.6173C119.868 52.8944 120.265 51.1941 120.788 49.5309C121.591 47.2451 122.324 46.7216 122.892 46.9136C123.459 47.1055 123.835 48.2135 124.001 51.2758C124.058 52.7314 124.012 54.1892 123.861 55.6381C123.861 55.6381 125.005 54.3817 126.262 53.169C127.65 51.8342 128.243 51.651 128.645 51.904C129.047 52.157 129.151 54.2334 127.004 58.1158C125.933 60.0935 124.564 61.8945 122.944 63.4552C122.944 63.4552 119.993 65.4095 114.912 63.4901Z" fill="#F0F0F0"/>
<path d="M162.676 79.7091L184.502 67.0586C184.929 66.8143 184.929 66.413 184.502 66.1861L154.522 49.121C154.279 48.9997 154.012 48.9365 153.741 48.9365C153.469 48.9365 153.202 48.9997 152.959 49.121L131.326 61.6232C130.898 61.8762 130.898 62.2776 131.326 62.4957L161.113 79.683C161.354 79.8084 161.62 79.876 161.892 79.8806C162.163 79.8851 162.431 79.8264 162.676 79.7091Z" fill="#FAFAFA"/>
<g style="mix-blend-mode:multiply" opacity="0.5">
<path d="M162.675 79.7091L184.501 67.0586C184.928 66.8143 184.928 66.413 184.501 66.1861L154.521 49.121C154.278 48.9997 154.011 48.9365 153.74 48.9365C153.468 48.9365 153.201 48.9997 152.958 49.121L131.325 61.6232C130.897 61.8762 130.897 62.2776 131.325 62.4957L161.112 79.683C161.353 79.8084 161.619 79.876 161.891 79.8806C162.162 79.8851 162.43 79.8264 162.675 79.7091Z" fill="#FAFAFA"/>
</g>
<path d="M131.308 61.5965L155.91 45.9621C156.148 45.8375 156.413 45.7725 156.682 45.7725C156.952 45.7725 157.217 45.8375 157.455 45.9621L166.316 51.0747C166.524 51.2003 166.676 51.399 166.744 51.6316C166.812 51.8642 166.79 52.1137 166.683 52.331L166.325 53.029C166.218 53.2463 166.196 53.4958 166.264 53.7284C166.332 53.961 166.484 54.1597 166.692 54.2853L184.545 64.6064C184.64 64.6436 184.721 64.7084 184.778 64.7924C184.836 64.8764 184.867 64.9758 184.867 65.0775C184.867 65.1793 184.836 65.2787 184.778 65.3627C184.721 65.4467 184.64 65.5116 184.545 65.5487L162.632 79.6475C162.397 79.7766 162.132 79.8442 161.864 79.8442C161.595 79.8442 161.331 79.7766 161.096 79.6475L131.308 62.4602C131.232 62.4167 131.168 62.3539 131.124 62.278C131.08 62.2022 131.057 62.116 131.057 62.0283C131.057 61.9406 131.08 61.8545 131.124 61.7787C131.168 61.7028 131.232 61.64 131.308 61.5965Z" fill="#F0F0F0"/>
<path d="M440.577 98.703C446.915 92.2381 450.643 65.9249 444.453 60.7949H413.024C406.835 65.9162 410.562 92.2032 416.901 98.6942L417.066 98.8687L417.285 99.0868C417.468 99.2613 417.66 99.4271 417.861 99.5929L418.009 99.715C418.166 99.8371 418.324 99.9593 418.489 100.073C418.752 100.264 419.026 100.439 419.31 100.596C424.548 103.606 432.982 103.606 438.202 100.596C438.487 100.439 438.761 100.264 439.023 100.073L439.468 99.7324L439.66 99.5841C439.852 99.4271 440.036 99.2613 440.21 99.0956L440.463 98.8513L440.577 98.703Z" fill="#1E1E1E"/>
<path d="M415.723 58.7263C408.538 62.8704 408.538 69.5883 415.723 73.7325C422.908 77.8766 434.545 77.8679 441.721 73.7325C448.898 69.597 448.898 62.8704 441.721 58.7263C434.545 54.5821 422.899 54.5821 415.723 58.7263Z" fill="#1E1E1E"/>
<path d="M419.171 60.7159C413.933 63.7608 413.933 68.6901 419.171 71.735C424.409 74.7798 432.999 74.7798 438.264 71.735C443.528 68.6901 443.502 63.7608 438.264 60.7159C433.026 57.6711 424.444 57.6798 419.171 60.7159Z" fill="#1E1E1E"/>
<path d="M438.255 65.9506C433.017 62.9058 424.435 62.9058 419.162 65.9506C417.888 66.6403 416.803 67.6319 416.001 68.8385C416.802 70.0478 417.887 71.0423 419.162 71.735C424.4 74.7799 432.982 74.7799 438.255 71.735C439.533 71.0471 440.619 70.0515 441.415 68.8385C440.618 67.6286 439.532 66.6361 438.255 65.9506Z" fill="#FAFAFA"/>
<g style="mix-blend-mode:multiply">
<path d="M438.255 65.9511C433.017 62.9063 424.435 62.9063 419.162 65.9511C417.888 66.6408 416.803 67.6324 416.001 68.839C416.802 70.0482 417.887 71.0428 419.162 71.7355C424.4 74.7803 432.982 74.7803 438.255 71.7355C439.533 71.0476 440.619 70.052 441.415 68.839C440.618 67.6291 439.532 66.6366 438.255 65.9511Z" fill="#1E1E1E"/>
</g>
<path d="M434.606 68.857C436.134 64.233 438.264 55.7702 446.182 49.4275C454.301 42.9016 462.307 37.7366 459.548 33.4529C457.034 29.5618 449.473 28.9859 440.83 35.6515C432.441 42.1076 428.652 56.9219 429.394 66.7457L434.606 68.857Z" fill="#0F9B15"/>
<g opacity="0.1">
<path d="M434.606 68.855C436.134 64.231 438.264 55.7683 446.183 49.4255C454.302 42.8996 462.307 37.7347 459.549 33.4509C457.034 29.5598 449.474 28.984 440.831 35.6495C432.441 42.1057 428.652 56.9199 429.394 66.7437L434.606 68.855Z" fill="#1E1E1E"/>
</g>
<path d="M430.747 67.7492H430.686C430.627 67.7428 430.571 67.7247 430.52 67.696C430.469 67.6673 430.424 67.6286 430.388 67.5822C430.352 67.5358 430.326 67.4826 430.311 67.4258C430.296 67.3691 430.293 67.31 430.302 67.2519C433.305 44.036 447.762 33.7585 454.825 33.4183C454.884 33.4122 454.943 33.4185 455 33.4367C455.056 33.4549 455.108 33.4846 455.153 33.524C455.197 33.5634 455.233 33.6115 455.257 33.6654C455.282 33.7193 455.295 33.7778 455.296 33.837C455.301 33.9568 455.259 34.0738 455.179 34.1634C455.1 34.2529 454.988 34.3079 454.868 34.3169C449.63 34.5612 434.37 42.8669 431.192 67.3654C431.177 67.4725 431.124 67.5705 431.042 67.6412C430.96 67.7119 430.855 67.7503 430.747 67.7492Z" fill="#FAFAFA"/>
<path d="M423.056 69.938C422.85 68.6359 422.335 67.4019 421.555 66.3394C420.774 65.2768 419.75 64.4167 418.568 63.8308C415.993 62.4349 412.859 63.8308 409.838 59.6169C406.817 55.4029 409.463 51.9829 408.965 49.9414C408.467 47.8998 407.944 46.565 404.504 45.0993C401.064 43.6335 400.139 41.4786 401.326 36.6452C402.513 31.8118 402.452 30.3461 399.51 28.226C396.568 26.106 396.428 23.4188 399.51 21.6477C402.592 19.8767 408.075 19.9028 412.414 23.7504C416.752 27.5979 417.302 29.2555 422.078 29.7179C426.853 30.1803 429.586 30.3723 430.668 33.2077C431.751 36.0432 431.192 38.2418 430.668 40.894C430.422 42.1047 430.587 43.3629 431.138 44.4692C431.688 45.5754 432.592 46.4665 433.707 47.0012C435.793 47.9871 439.268 48.7461 440.56 52.55C441.852 56.3539 438.988 64.11 435.322 68.8736C435.278 68.8561 434.405 71.6392 423.056 69.938Z" fill="#1EA123"/>
<path d="M431.043 70.3833C430.984 70.3833 430.926 70.3715 430.871 70.3486C430.816 70.3257 430.767 70.2922 430.725 70.2499C430.684 70.2077 430.651 70.1576 430.63 70.1026C430.608 70.0476 430.597 69.9888 430.598 69.9296C430.457 62.4865 428.796 55.1506 425.718 48.3713C420.803 37.7711 405.097 25.2514 404.137 24.6756C404.083 24.6582 404.033 24.6298 403.99 24.5921C403.947 24.5543 403.913 24.5082 403.889 24.4565C403.865 24.4048 403.853 24.3487 403.852 24.2918C403.851 24.2348 403.862 24.1784 403.884 24.1259C403.93 24.0124 404.019 23.9211 404.131 23.8708C404.243 23.8205 404.37 23.815 404.486 23.8554C405.027 24.0299 421.362 36.8288 426.53 47.9875C429.661 54.8943 431.351 62.3661 431.497 69.9471C431.497 70.0059 431.486 70.064 431.463 70.1181C431.44 70.1722 431.406 70.2211 431.363 70.2619C431.321 70.3026 431.271 70.3344 431.216 70.3553C431.161 70.3761 431.102 70.3857 431.043 70.3833Z" fill="#FAFAFA"/>
<path d="M420.654 40.3086C420.581 40.309 420.509 40.291 420.445 40.2563C417.154 38.4511 409.288 39.733 409.209 39.7505C409.091 39.7658 408.972 39.7355 408.877 39.6657C408.781 39.5959 408.715 39.492 408.694 39.3755C408.684 39.3176 408.686 39.2584 408.699 39.2011C408.712 39.1439 408.736 39.0898 408.77 39.0419C408.804 38.9941 408.847 38.9535 408.897 38.9224C408.947 38.8913 409.003 38.8705 409.061 38.861C409.392 38.8086 417.319 37.5179 420.873 39.4714C420.925 39.4996 420.971 39.5379 421.008 39.5841C421.045 39.6302 421.072 39.6832 421.088 39.7401C421.104 39.7969 421.109 39.8564 421.102 39.9151C421.095 39.9738 421.076 40.0305 421.047 40.0819C421.009 40.152 420.952 40.2103 420.883 40.2503C420.813 40.2902 420.734 40.3104 420.654 40.3086Z" fill="#FAFAFA"/>
<path d="M430.232 61.9915C430.122 62.0037 430.012 61.9759 429.922 61.9133C429.832 61.8506 429.767 61.7573 429.741 61.6507C429.714 61.5441 429.727 61.4314 429.777 61.3337C429.827 61.2359 429.911 61.1596 430.013 61.119C433.715 59.1124 436.544 53.4415 436.57 53.3891C436.591 53.3287 436.625 53.2735 436.668 53.227C436.712 53.1805 436.766 53.1438 436.825 53.1194C436.884 53.0949 436.948 53.0833 437.012 53.0852C437.076 53.087 437.139 53.1024 437.196 53.1302C437.254 53.1581 437.305 53.1978 437.346 53.2468C437.387 53.2958 437.418 53.3529 437.435 53.4144C437.453 53.4759 437.457 53.5405 437.448 53.6038C437.438 53.6671 437.416 53.7277 437.382 53.7817C437.259 54.026 434.387 59.7667 430.441 61.913C430.379 61.9569 430.307 61.984 430.232 61.9915Z" fill="#FAFAFA"/>
</svg>
