<svg width="22" height="18" viewBox="0 0 22 18" fill="none" xmlns="http://www.w3.org/2000/svg">
<path d="M1 16.6252V15.684C1 12.0454 3.84911 9.0957 7.36365 9.0957C10.8782 9.0957 13.7273 12.0454 13.7273 15.684V16.6252" stroke="black" stroke-linecap="round"/>
<path d="M11.9087 10.9779C11.9087 8.37891 13.9438 6.27197 16.4542 6.27197C18.9645 6.27197 20.9996 8.37891 20.9996 10.9779V11.4485" stroke="black" stroke-linecap="round"/>
<path d="M7.36293 9.09591C9.37121 9.09591 10.9993 7.41033 10.9993 5.33116C10.9993 3.25194 9.37121 1.56641 7.36293 1.56641C5.35462 1.56641 3.72656 3.25194 3.72656 5.33116C3.72656 7.41033 5.35462 9.09591 7.36293 9.09591Z" stroke="black" stroke-linecap="round" stroke-linejoin="round"/>
<path d="M16.4543 6.27212C17.9606 6.27212 19.1816 5.00797 19.1816 3.44856C19.1816 1.88916 17.9606 0.625 16.4543 0.625C14.9481 0.625 13.7271 1.88916 13.7271 3.44856C13.7271 5.00797 14.9481 6.27212 16.4543 6.27212Z" stroke="black" stroke-linecap="round" stroke-linejoin="round"/>
</svg>
