<svg width="118" height="22" viewBox="0 0 118 22" fill="none" xmlns="http://www.w3.org/2000/svg">
<path d="M7.58737 7.23597L10.1849 2.00376C10.5183 1.33208 11.4817 1.33208 11.8151 2.00376L14.4126 7.23597L20.2215 8.08017C20.9668 8.18848 21.2638 9.0994 20.7243 9.6219L16.5217 13.6918L17.5135 19.4414C17.6409 20.1798 16.8614 20.7428 16.1945 20.3941L11 17.678L5.80547 20.3941C5.1386 20.7428 4.35909 20.1798 4.48645 19.4414L5.47825 13.6918L1.27575 9.6219C0.736172 9.0994 1.03322 8.18848 1.77852 8.08017L7.58737 7.23597Z" fill="#DDBD15" stroke="#DDBD15" stroke-width="2" stroke-linecap="round" stroke-linejoin="round"/>
<path d="M31.5874 7.23597L34.1849 2.00376C34.5183 1.33208 35.4817 1.33208 35.8151 2.00376L38.4126 7.23597L44.2215 8.08017C44.9668 8.18848 45.2638 9.0994 44.7243 9.6219L40.5217 13.6918L41.5135 19.4414C41.6409 20.1798 40.8614 20.7428 40.1945 20.3941L35 17.678L29.8055 20.3941C29.1386 20.7428 28.3591 20.1798 28.4865 19.4414L29.4783 13.6918L25.2758 9.6219C24.7362 9.0994 25.0332 8.18848 25.7785 8.08017L31.5874 7.23597Z" fill="#DDBD15" stroke="#DDBD15" stroke-width="2" stroke-linecap="round" stroke-linejoin="round"/>
<path d="M55.5874 7.23597L58.1849 2.00376C58.5183 1.33208 59.4817 1.33208 59.8151 2.00376L62.4126 7.23597L68.2215 8.08017C68.9668 8.18848 69.2638 9.0994 68.7243 9.6219L64.5217 13.6918L65.5135 19.4414C65.6409 20.1798 64.8614 20.7428 64.1945 20.3941L59 17.678L53.8055 20.3941C53.1386 20.7428 52.3591 20.1798 52.4865 19.4414L53.4783 13.6918L49.2758 9.6219C48.7362 9.0994 49.0332 8.18848 49.7785 8.08017L55.5874 7.23597Z" fill="#DDBD15" stroke="#DDBD15" stroke-width="2" stroke-linecap="round" stroke-linejoin="round"/>
<path d="M79.5874 7.23597L82.1849 2.00376C82.5183 1.33208 83.4817 1.33208 83.8151 2.00376L86.4126 7.23597L92.2215 8.08017C92.9668 8.18848 93.2638 9.0994 92.7243 9.6219L88.5217 13.6918L89.5135 19.4414C89.6409 20.1798 88.8614 20.7428 88.1945 20.3941L83 17.678L77.8055 20.3941C77.1386 20.7428 76.3591 20.1798 76.4865 19.4414L77.4783 13.6918L73.2758 9.6219C72.7362 9.0994 73.0332 8.18848 73.7785 8.08017L79.5874 7.23597Z" fill="#DDBD15" stroke="#DDBD15" stroke-width="2" stroke-linecap="round" stroke-linejoin="round"/>
<path d="M103.587 7.23597L106.185 2.00376C106.518 1.33208 107.482 1.33208 107.815 2.00376L110.413 7.23597L116.221 8.08017C116.967 8.18848 117.264 9.0994 116.724 9.6219L112.522 13.6918L113.513 19.4414C113.641 20.1798 112.861 20.7428 112.194 20.3941L107 17.678L101.805 20.3941C101.139 20.7428 100.359 20.1798 100.486 19.4414L101.478 13.6918L97.2758 9.6219C96.7362 9.0994 97.0332 8.18848 97.7785 8.08017L103.587 7.23597Z" fill="url(#paint0_linear_562_2221)" stroke="#DDBD15" stroke-width="2" stroke-linecap="round" stroke-linejoin="round"/>
<defs>
<linearGradient id="paint0_linear_562_2221" x1="97" y1="11" x2="109.5" y2="11" gradientUnits="userSpaceOnUse">
<stop stop-color="#DDBD15"/>
<stop offset="1" stop-color="#DDBD15" stop-opacity="0"/>
</linearGradient>
</defs>
</svg>
