<svg width="100" height="100" viewBox="0 0 100 100" fill="none" xmlns="http://www.w3.org/2000/svg">
<rect x="0.783871" y="0.783871" width="98.4323" height="98.4323" rx="3.13548" fill="#FAFAFA"/>
<rect x="0.783871" y="0.783871" width="98.4323" height="98.4323" rx="3.13548" stroke="#5D59FF" stroke-width="1.56774"/>
<g clip-path="url(#clip0_794_450)">
<rect width="44.6429" height="29.0178" transform="translate(30.3574 33)" fill="#5D59FF"/>
<rect width="44.6429" height="4.46428" transform="translate(30.3574 33)" fill="#1E1E1E"/>
<ellipse cx="32.5895" cy="35.2321" rx="0.446429" ry="0.446428" fill="#D1CFFF"/>
<ellipse cx="34.3751" cy="35.2321" rx="0.446429" ry="0.446428" fill="#D1CFFF"/>
<ellipse cx="36.1608" cy="35.2321" rx="0.446429" ry="0.446428" fill="#D1CFFF"/>
</g>
<g clip-path="url(#clip1_794_450)">
<rect width="44.6429" height="29.0178" transform="translate(25 38.3569)" fill="#D1CFFF"/>
<rect width="44.6429" height="4.46428" transform="translate(25 38.3569)" fill="#1E1E1E"/>
<ellipse cx="27.2321" cy="40.589" rx="0.446429" ry="0.446428" fill="#D1CFFF"/>
<ellipse cx="29.0177" cy="40.589" rx="0.446429" ry="0.446428" fill="#D1CFFF"/>
<ellipse cx="30.8034" cy="40.589" rx="0.446429" ry="0.446428" fill="#D1CFFF"/>
<line x1="46.4287" y1="46.8392" x2="58.4823" y2="46.8392" stroke="#353395" stroke-width="0.892856"/>
<line x1="46.4287" y1="49.5179" x2="67.8573" y2="49.5179" stroke="#1E1E1E" stroke-width="0.892856"/>
<line x1="58.9287" y1="52.1961" x2="67.8573" y2="52.1962" stroke="#1E1E1E" stroke-width="0.892856"/>
<line x1="46.4287" y1="54.8749" x2="67.8573" y2="54.8749" stroke="#1E1E1E" stroke-width="0.892856"/>
<line x1="46.4287" y1="57.5536" x2="56.6966" y2="57.5536" stroke="#1E1E1E" stroke-width="0.892856"/>
<line x1="57.5894" y1="57.5536" x2="67.8572" y2="57.5536" stroke="#1E1E1E" stroke-width="0.892856"/>
<rect width="17.8571" height="17.8571" transform="translate(26.7856 44.6069)" fill="#D1CFFF"/>
<path d="M30.382 58.9999C30.1749 58.9999 29.9463 58.9821 29.6963 58.9464C29.4534 58.9178 29.2534 58.8821 29.0963 58.8392V58.0464C29.3963 58.1392 29.7177 58.1856 30.0606 58.1856C30.5606 58.1856 30.9927 58.1035 31.357 57.9392C31.7284 57.7749 32.0106 57.5535 32.2034 57.2749C32.3963 56.9964 32.4927 56.6892 32.4927 56.3535C32.4927 55.8964 32.357 55.5428 32.0856 55.2928C31.8141 55.0428 31.4106 54.9106 30.8749 54.8964L30.232 55.0571L30.007 54.4035C30.2999 54.3535 30.5891 54.2642 30.8749 54.1356C31.2891 53.9499 31.6106 53.7178 31.8391 53.4392C32.0677 53.1535 32.182 52.8499 32.182 52.5285C32.182 52.1714 32.0713 51.9106 31.8499 51.7464C31.6356 51.5821 31.3606 51.4999 31.0249 51.4999C30.7106 51.4999 30.4141 51.5535 30.1356 51.6606C29.8641 51.7678 29.632 51.8999 29.4391 52.0571L29.0641 51.4035C29.2713 51.2035 29.607 51.0071 30.0713 50.8142C30.5427 50.6214 31.0213 50.5249 31.507 50.5249C32.1856 50.5249 32.7356 50.6714 33.157 50.9642C33.5856 51.2499 33.7999 51.6856 33.7999 52.2714C33.7999 52.7856 33.5999 53.2392 33.1999 53.6321C32.7999 54.0249 32.3106 54.3249 31.732 54.5321C31.8034 54.5249 31.9106 54.5214 32.0534 54.5214C32.6891 54.5214 33.2034 54.6821 33.5963 55.0035C33.9963 55.3249 34.1963 55.7535 34.1963 56.2892C34.2034 56.8035 34.0499 57.2642 33.7356 57.6714C33.4284 58.0856 32.9856 58.4106 32.407 58.6464C31.8284 58.8821 31.1534 58.9999 30.382 58.9999ZM35.9042 50.1285L35.1006 49.9892V49.3249H36.6649C36.9006 49.3249 37.2185 49.3107 37.6185 49.2821C37.7113 49.2749 37.8506 49.2678 38.0363 49.2607C38.2292 49.2535 38.4006 49.2499 38.5506 49.2499C39.8649 49.2499 40.8471 49.5785 41.4971 50.2356C42.1542 50.8928 42.4828 51.8249 42.4828 53.0321C42.4828 53.8749 42.3185 54.6249 41.9899 55.2821C41.6685 55.9392 41.2078 56.4535 40.6078 56.8249C40.0078 57.1892 39.3078 57.3714 38.5078 57.3714C38.3006 57.3714 37.9756 57.3571 37.5328 57.3285C37.1185 57.2999 36.8363 57.2856 36.6863 57.2856H35.0578V56.6428L35.9042 56.5356V50.1285ZM37.4578 56.5678C37.7006 56.6321 38.0399 56.6642 38.4756 56.6642C39.1899 56.6499 39.7506 56.3642 40.1578 55.8071C40.5649 55.2428 40.7685 54.3999 40.7685 53.2785C40.7685 52.2142 40.5685 51.3928 40.1685 50.8142C39.7685 50.2285 39.1471 49.9356 38.3042 49.9356C38.1256 49.9356 37.9542 49.9464 37.7899 49.9678C37.6328 49.9892 37.5221 50.0035 37.4578 50.0107V56.5678Z" fill="#353395"/>
<rect width="21.4286" height="3.125" transform="translate(46.4287 60.2319)" fill="#A17CFC"/>
</g>
<defs>
<clipPath id="clip0_794_450">
<rect width="44.6429" height="29.0178" fill="white" transform="translate(30.3574 33)"/>
</clipPath>
<clipPath id="clip1_794_450">
<rect width="44.6429" height="29.0178" fill="white" transform="translate(25 38.3569)"/>
</clipPath>
</defs>
</svg>
