<svg width="100" height="100" viewBox="0 0 100 100" fill="none" xmlns="http://www.w3.org/2000/svg">
<rect x="0.783871" y="0.783871" width="98.4323" height="98.4323" rx="3.13548" fill="#FAFAFA"/>
<rect x="0.783871" y="0.783871" width="98.4323" height="98.4323" rx="3.13548" stroke="#5D59FF" stroke-width="1.56774"/>
<g clip-path="url(#clip0_794_4175)">
<rect width="44.6429" height="29.0178" transform="translate(30.2412 33)" fill="#D1CFFF"/>
<rect width="44.6429" height="4.46428" transform="translate(30.2412 33)" fill="#1E1E1E"/>
<ellipse cx="32.4733" cy="35.2321" rx="0.446429" ry="0.446428" fill="#D1CFFF"/>
<ellipse cx="34.2589" cy="35.2321" rx="0.446429" ry="0.446428" fill="#D1CFFF"/>
<ellipse cx="36.0446" cy="35.2321" rx="0.446429" ry="0.446428" fill="#D1CFFF"/>
</g>
<g clip-path="url(#clip1_794_4175)">
<rect width="44.6429" height="29.0178" transform="translate(24.8838 38.3569)" fill="#5D59FF"/>
<rect width="44.6429" height="4.46428" transform="translate(24.8838 38.3569)" fill="#1E1E1E"/>
<ellipse cx="27.1159" cy="40.589" rx="0.446429" ry="0.446428" fill="#D1CFFF"/>
<ellipse cx="28.9015" cy="40.589" rx="0.446429" ry="0.446428" fill="#D1CFFF"/>
<ellipse cx="30.6872" cy="40.589" rx="0.446429" ry="0.446428" fill="#D1CFFF"/>
<line x1="46.3125" y1="49.0711" x2="58.3661" y2="49.0712" stroke="#353395" stroke-width="0.892856"/>
<line x1="46.3125" y1="51.7499" x2="67.7411" y2="51.7499" stroke="#1E1E1E" stroke-width="0.892856"/>
<line x1="58.8125" y1="54.4286" x2="67.7411" y2="54.4286" stroke="#1E1E1E" stroke-width="0.892856"/>
<line x1="46.3125" y1="57.1073" x2="67.7411" y2="57.1073" stroke="#1E1E1E" stroke-width="0.892856"/>
<line x1="46.3125" y1="59.7855" x2="56.5804" y2="59.7855" stroke="#1E1E1E" stroke-width="0.892856"/>
<line x1="57.4731" y1="59.7855" x2="67.741" y2="59.7855" stroke="#1E1E1E" stroke-width="0.892856"/>
<rect width="17.8571" height="17.8571" transform="translate(26.6694 44.6069)" fill="#5D59FF"/>
<line y1="-0.328944" x2="7.92202" y2="-0.328944" transform="matrix(-0.664367 0.747407 -0.747412 -0.664361 38.23 50.4106)" stroke="#FAFAFA" stroke-width="0.657888"/>
<path d="M33.2956 51.8231L29.8599 52.171L32.2723 54.6866" stroke="#FAFAFA" stroke-width="0.657888" stroke-linecap="square" stroke-linejoin="round"/>
<path d="M38.9243 52.7129L41.3367 55.2285L37.901 55.5763" stroke="#FAFAFA" stroke-width="0.657888" stroke-linecap="square" stroke-linejoin="round"/>
</g>
<defs>
<clipPath id="clip0_794_4175">
<rect width="44.6429" height="29.0178" fill="white" transform="translate(30.2412 33)"/>
</clipPath>
<clipPath id="clip1_794_4175">
<rect width="44.6429" height="29.0178" fill="white" transform="translate(24.8838 38.3569)"/>
</clipPath>
</defs>
</svg>
