<svg width="100" height="100" viewBox="0 0 100 100" fill="none" xmlns="http://www.w3.org/2000/svg">
<rect x="0.783871" y="0.783871" width="98.4323" height="98.4323" rx="3.13548" fill="#FAFAFA"/>
<rect x="0.783871" y="0.783871" width="98.4323" height="98.4323" rx="3.13548" stroke="#5D59FF" stroke-width="1.56774"/>
<rect width="50" height="32" transform="translate(25 34)" fill="#D1CFFF"/>
<ellipse cx="29" cy="42" rx="1" ry="1" fill="#5D59FF"/>
<ellipse cx="29" cy="48" rx="1" ry="1" fill="#5D59FF"/>
<ellipse cx="29" cy="54" rx="1" ry="1" fill="#5D59FF"/>
<rect width="2" height="2" transform="translate(33 37)" fill="#353395"/>
<rect width="2" height="2" transform="translate(40 37)" fill="#353395"/>
<rect width="2" height="2" transform="translate(47 37)" fill="#353395"/>
<rect width="2" height="2" transform="translate(54 37)" fill="#353395"/>
<rect width="2" height="2" transform="translate(61 37)" fill="#353395"/>
<line x1="37.25" y1="39.5" x2="37.25" y2="61.5" stroke="#828282" stroke-width="0.5"/>
<line x1="44.75" y1="39.5" x2="44.75" y2="61.5" stroke="#828282" stroke-width="0.5"/>
<line x1="51.75" y1="39.5" x2="51.75" y2="61.5" stroke="#828282" stroke-width="0.5"/>
<line x1="58.75" y1="39.5" x2="58.75" y2="61.5" stroke="#828282" stroke-width="0.5"/>
<line x1="65.75" y1="39.5" x2="65.75" y2="61.5" stroke="#828282" stroke-width="0.5"/>
<line x1="32" y1="42" x2="59.5" y2="42" stroke="#A17CFC" stroke-width="2"/>
<line x1="41" y1="48" x2="67" y2="48" stroke="#5D59FF" stroke-width="2"/>
<line x1="37.5" y1="54" x2="65.5" y2="54" stroke="#353395" stroke-width="2"/>
</svg>
