<svg width="100" height="100" viewBox="0 0 100 100" fill="none" xmlns="http://www.w3.org/2000/svg">
<rect x="0.783871" y="0.783871" width="98.4323" height="98.4323" rx="3.13548" fill="#FAFAFA"/>
<rect x="0.783871" y="0.783871" width="98.4323" height="98.4323" rx="3.13548" stroke="#5D59FF" stroke-width="1.56774"/>
<path d="M61.3135 25H39.2328C38.6351 25.0057 38.0642 25.2485 37.6455 25.6751C37.2268 26.1016 36.9947 26.677 37.0001 27.2746V72.7254C36.9947 73.323 37.2268 73.8984 37.6455 74.3249C38.0642 74.7515 38.6351 74.9943 39.2328 75H61.3135C61.9114 74.9943 62.4826 74.7515 62.9017 74.3251C63.3208 73.8986 63.5536 73.3233 63.5489 72.7254V27.2746C63.5539 26.6766 63.3213 26.1011 62.9021 25.6745C62.4829 25.248 61.9115 25.0054 61.3135 25ZM62.1511 71.3208C62.1511 72.517 61.2553 73.4858 60.1511 73.4858H40.3965C39.2896 73.4858 38.3938 72.5183 38.3938 71.3208V28.9972C38.3938 26.5615 39.2896 26.4411 40.3965 26.4411H44.3545C44.5845 26.4411 44.7726 26.7023 44.7726 27.027V27.1623C44.7726 27.9214 45.188 27.9241 45.6968 27.9241H54.8481C55.3623 27.9241 55.775 27.9241 55.775 27.1623V27.027C55.775 26.7023 55.9604 26.4411 56.1945 26.4411H60.1525C61.2567 26.4411 62.1524 26.7659 62.1524 28.9972L62.1511 71.3208Z" fill="#1E1E1E"/>
<path d="M62.1526 28.997V71.3193C62.1526 72.5168 61.2569 73.4843 60.1527 73.4843H40.3967C39.2898 73.4843 38.394 72.5168 38.394 71.3193V28.997C38.394 26.5613 39.2898 26.4409 40.3967 26.4409H44.3547C44.5847 26.4409 44.7728 26.7021 44.7728 27.0268V27.1621C44.7728 27.9213 45.1882 27.9226 45.697 27.9226H54.847C55.3612 27.9226 55.7739 27.9226 55.7739 27.1621V27.0268C55.7739 26.7021 55.9593 26.4409 56.1934 26.4409H60.1527C61.2569 26.4409 62.1526 26.7643 62.1526 28.997Z" fill="#FAFAFA"/>
<path d="M51.5219 26.9799H49.0254C48.9844 26.9799 48.9452 26.9637 48.9163 26.9347C48.8873 26.9058 48.8711 26.8666 48.8711 26.8256C48.8711 26.7847 48.8873 26.7455 48.9163 26.7166C48.9452 26.6876 48.9844 26.6714 49.0254 26.6714H51.5219C51.5628 26.6714 51.6021 26.6876 51.631 26.7166C51.6599 26.7455 51.6762 26.7847 51.6762 26.8256C51.6762 26.8666 51.6599 26.9058 51.631 26.9347C51.6021 26.9637 51.5628 26.9799 51.5219 26.9799Z" fill="#FAFAFA"/>
<path d="M43.6726 27.3924L43.6347 27.4303L43.613 27.452C43.5646 27.4035 43.5072 27.365 43.4439 27.3388C43.3806 27.3125 43.3128 27.299 43.2443 27.299C43.1758 27.299 43.108 27.3125 43.0447 27.3388C42.9814 27.365 42.924 27.4035 42.8756 27.452L42.8553 27.4303C42.842 27.4184 42.8293 27.4057 42.8174 27.3924L42.8661 27.3505C42.9003 27.3226 42.9375 27.2985 42.9771 27.2788C43.0242 27.2555 43.0743 27.2386 43.1259 27.2287L43.2003 27.2192H43.2639H43.3153C43.3616 27.2246 43.407 27.2355 43.4507 27.2517C43.516 27.2762 43.5768 27.3115 43.6306 27.3559L43.6712 27.3924H43.6726Z" fill="#D1CFFF"/>
<path d="M42.9974 27.5724L42.9365 27.5115C43.0032 27.445 43.0896 27.4018 43.1828 27.3884C43.2497 27.3785 43.318 27.3846 43.3822 27.4059C43.4463 27.4273 43.5046 27.4635 43.5522 27.5115L43.4913 27.5711C43.4586 27.5371 43.4192 27.5102 43.3757 27.4921C43.3322 27.4739 43.2854 27.4649 43.2383 27.4655C43.193 27.4662 43.1483 27.4761 43.107 27.4944C43.0656 27.5128 43.0283 27.5393 42.9974 27.5724Z" fill="#D1CFFF"/>
<path d="M43.4301 27.6317L43.3706 27.6926C43.354 27.6759 43.3343 27.6627 43.3125 27.6537C43.2908 27.6447 43.2676 27.64 43.2441 27.64C43.2205 27.64 43.1973 27.6447 43.1756 27.6537C43.1538 27.6627 43.1341 27.6759 43.1175 27.6926L43.0566 27.633C43.1068 27.5849 43.1736 27.5579 43.2431 27.5576C43.3126 27.5574 43.3796 27.5839 43.4301 27.6317Z" fill="#D1CFFF"/>
<path d="M43.2977 27.747C43.2977 27.7577 43.2945 27.7682 43.2886 27.7771C43.2826 27.786 43.2742 27.7929 43.2643 27.797C43.2544 27.8011 43.2435 27.8022 43.233 27.8001C43.2225 27.798 43.2129 27.7928 43.2053 27.7853C43.1977 27.7777 43.1926 27.7681 43.1905 27.7576C43.1884 27.7471 43.1895 27.7362 43.1936 27.7263C43.1977 27.7164 43.2046 27.7079 43.2135 27.702C43.2224 27.696 43.2329 27.6929 43.2436 27.6929C43.2507 27.6929 43.2577 27.6943 43.2643 27.697C43.2709 27.6997 43.2768 27.7037 43.2819 27.7087C43.2869 27.7138 43.2909 27.7197 43.2936 27.7263C43.2963 27.7329 43.2977 27.7399 43.2977 27.747Z" fill="#D1CFFF"/>
<path d="M39.9443 27.5074C39.9443 27.4761 39.9537 27.4454 39.9711 27.4193C39.9886 27.3933 40.0134 27.373 40.0424 27.361C40.0714 27.3491 40.1033 27.346 40.134 27.3523C40.1648 27.3585 40.193 27.3737 40.2151 27.396C40.2372 27.4182 40.2521 27.4466 40.2581 27.4774C40.2641 27.5082 40.2607 27.5401 40.2485 27.569C40.2363 27.5979 40.2158 27.6225 40.1896 27.6397C40.1634 27.657 40.1327 27.666 40.1013 27.6658C40.0806 27.6658 40.0601 27.6616 40.0409 27.6537C40.0218 27.6457 40.0044 27.634 39.9898 27.6193C39.9752 27.6046 39.9637 27.5871 39.9559 27.5679C39.9481 27.5487 39.9442 27.5282 39.9443 27.5074Z" fill="#D1CFFF"/>
<path d="M40.4399 27.5074C40.4399 27.4761 40.4492 27.4455 40.4666 27.4195C40.484 27.3934 40.5087 27.3732 40.5377 27.3612C40.5666 27.3492 40.5984 27.3461 40.6291 27.3522C40.6599 27.3583 40.6881 27.3733 40.7102 27.3955C40.7323 27.4176 40.7474 27.4458 40.7535 27.4766C40.7596 27.5073 40.7565 27.5391 40.7445 27.568C40.7325 27.597 40.7123 27.6217 40.6862 27.6391C40.6602 27.6565 40.6296 27.6658 40.5983 27.6658C40.5563 27.6658 40.516 27.6491 40.4863 27.6194C40.4566 27.5897 40.4399 27.5494 40.4399 27.5074Z" fill="#D1CFFF"/>
<path d="M40.938 27.5074C40.938 27.4761 40.9473 27.4454 40.9648 27.4193C40.9822 27.3933 41.007 27.373 41.036 27.361C41.0651 27.3491 41.097 27.346 41.1277 27.3523C41.1584 27.3585 41.1867 27.3737 41.2087 27.396C41.2308 27.4182 41.2458 27.4466 41.2518 27.4774C41.2577 27.5082 41.2544 27.5401 41.2422 27.569C41.23 27.5979 41.2095 27.6225 41.1833 27.6397C41.1571 27.657 41.1263 27.666 41.095 27.6658C41.0742 27.6658 41.0537 27.6616 41.0346 27.6537C41.0154 27.6457 40.9981 27.634 40.9835 27.6193C40.9689 27.6046 40.9574 27.5871 40.9496 27.5679C40.9417 27.5487 40.9378 27.5282 40.938 27.5074Z" fill="#D1CFFF"/>
<path d="M41.4316 27.5074C41.4316 27.4761 41.4409 27.4455 41.4583 27.4195C41.4757 27.3934 41.5005 27.3732 41.5294 27.3612C41.5583 27.3492 41.5901 27.3461 41.6209 27.3522C41.6516 27.3583 41.6798 27.3733 41.7019 27.3955C41.7241 27.4176 41.7391 27.4458 41.7452 27.4766C41.7514 27.5073 41.7482 27.5391 41.7362 27.568C41.7243 27.597 41.704 27.6217 41.6779 27.6391C41.6519 27.6565 41.6213 27.6658 41.59 27.6658C41.5691 27.6659 41.5485 27.662 41.5292 27.6541C41.5099 27.6462 41.4924 27.6345 41.4776 27.6198C41.4629 27.6051 41.4512 27.5875 41.4433 27.5682C41.4354 27.5489 41.4315 27.5283 41.4316 27.5074Z" fill="#D1CFFF"/>
<path d="M41.9284 27.5075C41.9321 27.4682 41.9502 27.4317 41.9794 27.4051C42.0086 27.3785 42.0466 27.3638 42.0861 27.3638C42.1255 27.3638 42.1635 27.3785 42.1927 27.4051C42.2219 27.4317 42.24 27.4682 42.2437 27.5075C42.2457 27.5294 42.2432 27.5515 42.2362 27.5724C42.2292 27.5933 42.2179 27.6125 42.2031 27.6287C42.1882 27.645 42.1702 27.658 42.15 27.6669C42.1299 27.6758 42.1081 27.6804 42.0861 27.6804C42.064 27.6804 42.0422 27.6758 42.0221 27.6669C42.002 27.658 41.9839 27.645 41.969 27.6287C41.9542 27.6125 41.9429 27.5933 41.9359 27.5724C41.9289 27.5515 41.9264 27.5294 41.9284 27.5075Z" fill="#D1CFFF"/>
<path d="M60.3702 27.8514H59.0874V27.2573H60.3702V27.8514ZM59.1524 27.7864H60.3025V27.3304H59.1524V27.7864Z" fill="#D1CFFF"/>
<path d="M60.0211 27.3589H59.1943V27.7513H60.0211V27.3589Z" fill="#D1CFFF"/>
<path d="M60.4838 27.395H60.3701V27.713H60.4838V27.395Z" fill="#D1CFFF"/>
<path d="M48.6928 71.0271C48.6928 71.0956 48.6725 71.1627 48.6343 71.2197C48.5962 71.2767 48.542 71.3211 48.4787 71.3472C48.4153 71.3734 48.3456 71.3802 48.2783 71.3667C48.2111 71.3532 48.1494 71.3201 48.101 71.2715C48.0526 71.223 48.0197 71.1611 48.0065 71.0938C47.9933 71.0265 48.0003 70.9568 48.0268 70.8936C48.0532 70.8303 48.0978 70.7763 48.1549 70.7384C48.2121 70.7005 48.2792 70.6804 48.3478 70.6807C48.3932 70.6807 48.4382 70.6896 48.4801 70.7071C48.5221 70.7245 48.5602 70.75 48.5922 70.7822C48.6243 70.8144 48.6497 70.8526 48.6669 70.8946C48.6842 70.9366 48.693 70.9816 48.6928 71.0271Z" fill="#D1CFFF"/>
<path d="M50.2746 71.5507C50.5639 71.5507 50.7983 71.3163 50.7983 71.0271C50.7983 70.7379 50.5639 70.5034 50.2746 70.5034C49.9854 70.5034 49.751 70.7379 49.751 71.0271C49.751 71.3163 49.9854 71.5507 50.2746 71.5507Z" fill="#5D59FF"/>
<path d="M52.5478 71.0271C52.5478 71.0956 52.5275 71.1626 52.4894 71.2195C52.4513 71.2765 52.3972 71.3209 52.334 71.3471C52.2707 71.3733 52.201 71.3802 52.1338 71.3668C52.0666 71.3535 52.0049 71.3205 51.9564 71.272C51.908 71.2236 51.875 71.1618 51.8616 71.0947C51.8483 71.0275 51.8551 70.9578 51.8814 70.8945C51.9076 70.8312 51.952 70.7771 52.0089 70.739C52.0659 70.701 52.1329 70.6807 52.2014 70.6807C52.2933 70.6807 52.3814 70.7172 52.4463 70.7821C52.5113 70.8471 52.5478 70.9352 52.5478 71.0271Z" fill="#D1CFFF"/>
<path d="M46.6264 30.6875H39.9771V37.3368H46.6264V30.6875Z" fill="#1E1E1E"/>
<path d="M43.3015 35.7577C44.5024 35.7577 45.476 34.9137 45.476 33.8727C45.476 32.8317 44.5024 31.9878 43.3015 31.9878C42.1005 31.9878 41.127 32.8317 41.127 33.8727C41.127 34.9137 42.1005 35.7577 43.3015 35.7577Z" fill="#FAFAFA"/>
<path d="M41.7252 34.9404L41.3354 36.0365L42.7184 35.6062L41.7252 34.9404Z" fill="#FAFAFA"/>
<path d="M52.5477 62.3848H39.8984V69.1018H52.5477V62.3848Z" fill="#1E1E1E"/>
<path d="M60.7113 37.4394H60.373V37.304H60.576V37.1011H60.7113V37.4394Z" fill="#5D59FF"/>
<path d="M59.8467 37.4395H59.3216V37.3042H59.8467V37.4395ZM58.7953 37.4395H58.2689V37.3042H58.7993L58.7953 37.4395ZM57.7439 37.4395H57.2175V37.3042H57.7439V37.4395ZM56.6911 37.4395H56.1647V37.3042H56.6911V37.4395ZM55.6397 37.4395H55.1133V37.3042H55.6397V37.4395ZM54.587 37.4395H54.0633V37.3042H54.5883L54.587 37.4395ZM53.5356 37.4395H53.0092V37.3042H53.5356V37.4395ZM52.4842 37.4395H51.9578V37.3042H52.4842V37.4395ZM51.4314 37.4395H50.9064V37.3042H51.4314V37.4395ZM50.38 37.4395H49.8536V37.3042H50.38V37.4395ZM49.3273 37.4395H48.8022V37.3042H49.3273V37.4395Z" fill="#5D59FF"/>
<path d="M48.2758 37.4394H47.9375V37.1011H48.0728V37.304H48.2758V37.4394Z" fill="#5D59FF"/>
<path d="M48.0728 36.5398H47.9375V35.9783H48.0728V36.5398ZM48.0728 35.4167H47.9375V34.8552H48.0728V35.4167ZM48.0728 34.2936H47.9375V33.7321H48.0728V34.2936ZM48.0728 33.1705H47.9375V32.6076H48.0728V33.1705ZM48.0728 32.0474H47.9375V31.4858H48.0728V32.0474Z" fill="#5D59FF"/>
<path d="M48.0728 30.9242H47.9375V30.5859H48.2758V30.7213H48.0728V30.9242Z" fill="#5D59FF"/>
<path d="M59.8467 30.7213H59.3216V30.5859H59.8467V30.7213ZM58.7953 30.7213H58.2689V30.5859H58.7993L58.7953 30.7213ZM57.7439 30.7213H57.2175V30.5859H57.7439V30.7213ZM56.6911 30.7213H56.1647V30.5859H56.6911V30.7213ZM55.6397 30.7213H55.1133V30.5859H55.6397V30.7213ZM54.587 30.7213H54.0633V30.5859H54.5883L54.587 30.7213ZM53.5356 30.7213H53.0092V30.5859H53.5356V30.7213ZM52.4842 30.7213H51.9578V30.5859H52.4842V30.7213ZM51.4314 30.7213H50.9064V30.5859H51.4314V30.7213ZM50.38 30.7213H49.8536V30.5859H50.38V30.7213ZM49.3273 30.7213H48.8022V30.5859H49.3273V30.7213Z" fill="#5D59FF"/>
<path d="M60.7113 30.9242H60.576V30.7213H60.373V30.5859H60.7113V30.9242Z" fill="#5D59FF"/>
<path d="M60.7115 36.5398H60.5762V35.9783H60.7115V36.5398ZM60.7115 35.4167H60.5762V34.8552H60.7115V35.4167ZM60.7115 34.2936H60.5762V33.7321H60.7115V34.2936ZM60.7115 33.1705H60.5762V32.6076H60.7115V33.1705ZM60.7115 32.0474H60.5762V31.4858H60.7115V32.0474Z" fill="#5D59FF"/>
<path d="M39.9771 53.9032H39.8418V53.5649H40.1801V53.7003H39.9771V53.9032Z" fill="#5D59FF"/>
<path d="M59.8275 53.7003H59.2862V53.5649H59.8275V53.7003ZM58.7355 53.7003H58.1942V53.5649H58.7355V53.7003ZM57.6435 53.7003H57.1022V53.5649H57.6435V53.7003ZM56.5528 53.7003H56.0116V53.5649H56.5528V53.7003ZM55.4609 53.7003H54.9196V53.5649H55.4609V53.7003ZM54.3689 53.7003H53.8276V53.5649H54.3689V53.7003ZM53.2782 53.7003H52.737V53.5649H53.2782V53.7003ZM52.1862 53.7003H51.645V53.5649H52.1862V53.7003ZM51.0942 53.7003H50.553V53.5649H51.0942V53.7003ZM50.0036 53.7003H49.4623V53.5649H50.0036V53.7003ZM48.9116 53.7003H48.3704V53.5649H48.9116V53.7003ZM47.8196 53.7003H47.2784V53.5649H47.8196V53.7003ZM46.729 53.7003H46.1877V53.5649H46.729V53.7003ZM45.637 53.7003H45.0957V53.5649H45.637V53.7003ZM44.5464 53.7003H44.0051V53.5649H44.5464V53.7003ZM43.4544 53.7003H42.9131V53.5649H43.4544V53.7003ZM42.3624 53.7003H41.8211V53.5649H42.3624V53.7003ZM41.2717 53.7003H40.7305V53.5649H41.2717V53.7003Z" fill="#5D59FF"/>
<path d="M60.7113 53.9032H60.576V53.7003H60.373V53.5649H60.7113V53.9032Z" fill="#5D59FF"/>
<path d="M60.7115 60.4904H60.5762V59.941H60.7115V60.4904ZM60.7115 59.393H60.5762V58.8436H60.7115V59.393ZM60.7115 58.2956H60.5762V57.7462H60.7115V58.2956ZM60.7115 57.1968H60.5762V56.6488H60.7115V57.1968ZM60.7115 56.0994H60.5762V55.55H60.7115V56.0994ZM60.7115 55.002H60.5762V54.4526H60.7115V55.002Z" fill="#5D59FF"/>
<path d="M60.7113 61.3778H60.373V61.2425H60.576V61.0396H60.7113V61.3778Z" fill="#5D59FF"/>
<path d="M59.8275 61.378H59.2862V61.2427H59.8275V61.378ZM58.7355 61.378H58.1942V61.2427H58.7355V61.378ZM57.6435 61.378H57.1022V61.2427H57.6435V61.378ZM56.5528 61.378H56.0116V61.2427H56.5528V61.378ZM55.4609 61.378H54.9196V61.2427H55.4609V61.378ZM54.3689 61.378H53.8276V61.2427H54.3689V61.378ZM53.2782 61.378H52.737V61.2427H53.2782V61.378ZM52.1862 61.378H51.645V61.2427H52.1862V61.378ZM51.0942 61.378H50.553V61.2427H51.0942V61.378ZM50.0036 61.378H49.4623V61.2427H50.0036V61.378ZM48.9116 61.378H48.3704V61.2427H48.9116V61.378ZM47.8196 61.378H47.2784V61.2427H47.8196V61.378ZM46.729 61.378H46.1877V61.2427H46.729V61.378ZM45.637 61.378H45.0957V61.2427H45.637V61.378ZM44.5464 61.378H44.0051V61.2427H44.5464V61.378ZM43.4544 61.378H42.9131V61.2427H43.4544V61.378ZM42.3624 61.378H41.8211V61.2427H42.3624V61.378ZM41.2717 61.378H40.7305V61.2427H41.2717V61.378Z" fill="#5D59FF"/>
<path d="M40.1801 61.3778H39.8418V61.0396H39.9771V61.2425H40.1801V61.3778Z" fill="#5D59FF"/>
<path d="M39.9771 60.4917H39.8418V59.941H39.9771V60.4917ZM39.9771 59.393H39.8418V58.8436H39.9771V59.393ZM39.9771 58.2956H39.8418V57.7462H39.9771V58.2956ZM39.9771 57.1968H39.8418V56.6488H39.9771V57.1968ZM39.9771 56.0994H39.8418V55.55H39.9771V56.0994ZM39.9771 55.002H39.8418V54.4526H39.9771V55.002Z" fill="#5D59FF"/>
<path d="M60.7113 52.642H60.373V52.5067H60.576V52.3037H60.7113V52.642Z" fill="#5D59FF"/>
<path d="M59.8275 52.6422H59.2862V52.5068H59.8275V52.6422ZM58.7355 52.6422H58.1942V52.5068H58.7355V52.6422ZM57.6435 52.6422H57.1022V52.5068H57.6435V52.6422ZM56.5528 52.6422H56.0116V52.5068H56.5528V52.6422ZM55.4609 52.6422H54.9196V52.5068H55.4609V52.6422ZM54.3689 52.6422H53.8276V52.5068H54.3689V52.6422ZM53.2782 52.6422H52.737V52.5068H53.2782V52.6422ZM52.1862 52.6422H51.645V52.5068H52.1862V52.6422ZM51.0942 52.6422H50.553V52.5068H51.0942V52.6422ZM50.0036 52.6422H49.4623V52.5068H50.0036V52.6422ZM48.9116 52.6422H48.3704V52.5068H48.9116V52.6422ZM47.8196 52.6422H47.2784V52.5068H47.8196V52.6422ZM46.729 52.6422H46.1877V52.5068H46.729V52.6422ZM45.637 52.6422H45.0957V52.5068H45.637V52.6422ZM44.5464 52.6422H44.0051V52.5068H44.5464V52.6422ZM43.4544 52.6422H42.9131V52.5068H43.4544V52.6422ZM42.3624 52.6422H41.8211V52.5068H42.3624V52.6422ZM41.2717 52.6422H40.7305V52.5068H41.2717V52.6422Z" fill="#5D59FF"/>
<path d="M40.1801 52.642H39.8418V52.3037H39.9771V52.5067H40.1801V52.642Z" fill="#5D59FF"/>
<path d="M39.9771 51.7639H39.8418V51.2226H39.9771V51.7639ZM39.9771 50.6813H39.8418V50.1401H39.9771V50.6813ZM39.9771 49.5988H39.8418V49.0576H39.9771V49.5988ZM39.9771 48.5163H39.8418V47.9751H39.9771V48.5163ZM39.9771 47.4338H39.8418V46.8925H39.9771V47.4338ZM39.9771 46.3513H39.8418V45.81H39.9771V46.3513ZM39.9771 45.2688H39.8418V44.7275H39.9771V45.2688ZM39.9771 44.1863H39.8418V43.645H39.9771V44.1863ZM39.9771 43.1037H39.8418V42.5625H39.9771V43.1037ZM39.9771 42.0212H39.8418V41.48H39.9771V42.0212ZM39.9771 40.9387H39.8418V40.3975H39.9771V40.9387ZM39.9771 39.8562H39.8418V39.3149H39.9771V39.8562Z" fill="#5D59FF"/>
<path d="M39.9771 38.8061H39.8418V38.4678H40.1801V38.6031H39.9771V38.8061Z" fill="#5D59FF"/>
<path d="M59.8275 38.6031H59.2862V38.4678H59.8275V38.6031ZM58.7355 38.6031H58.1942V38.4678H58.7355V38.6031ZM57.6435 38.6031H57.1022V38.4678H57.6435V38.6031ZM56.5528 38.6031H56.0116V38.4678H56.5528V38.6031ZM55.4609 38.6031H54.9196V38.4678H55.4609V38.6031ZM54.3689 38.6031H53.8276V38.4678H54.3689V38.6031ZM53.2782 38.6031H52.737V38.4678H53.2782V38.6031ZM52.1862 38.6031H51.645V38.4678H52.1862V38.6031ZM51.0942 38.6031H50.553V38.4678H51.0942V38.6031ZM50.0036 38.6031H49.4623V38.4678H50.0036V38.6031ZM48.9116 38.6031H48.3704V38.4678H48.9116V38.6031ZM47.8196 38.6031H47.2784V38.4678H47.8196V38.6031ZM46.729 38.6031H46.1877V38.4678H46.729V38.6031ZM45.637 38.6031H45.0957V38.4678H45.637V38.6031ZM44.5464 38.6031H44.0051V38.4678H44.5464V38.6031ZM43.4544 38.6031H42.9131V38.4678H43.4544V38.6031ZM42.3624 38.6031H41.8211V38.4678H42.3624V38.6031ZM41.2717 38.6031H40.7305V38.4678H41.2717V38.6031Z" fill="#5D59FF"/>
<path d="M60.7113 38.8061H60.576V38.6031H60.373V38.4678H60.7113V38.8061Z" fill="#5D59FF"/>
<path d="M60.7115 51.7639H60.5762V51.2226H60.7115V51.7639ZM60.7115 50.6813H60.5762V50.1401H60.7115V50.6813ZM60.7115 49.5988H60.5762V49.0576H60.7115V49.5988ZM60.7115 48.5163H60.5762V47.9751H60.7115V48.5163ZM60.7115 47.4338H60.5762V46.8925H60.7115V47.4338ZM60.7115 46.3513H60.5762V45.81H60.7115V46.3513ZM60.7115 45.2688H60.5762V44.7275H60.7115V45.2688ZM60.7115 44.1863H60.5762V43.645H60.7115V44.1863ZM60.7115 43.1037H60.5762V42.5625H60.7115V43.1037ZM60.7115 42.0212H60.5762V41.48H60.7115V42.0212ZM60.7115 40.9387H60.5762V40.3975H60.7115V40.9387ZM60.7115 39.8562H60.5762V39.3149H60.7115V39.8562Z" fill="#5D59FF"/>
<path d="M60.619 62.4102H53.9263V69.1028H60.619V62.4102Z" fill="#5D59FF"/>
<path d="M59.5654 64.3018H54.981V67.2097H59.5654V64.3018Z" fill="#FAFAFA"/>
<path d="M59.5641 64.3018C59.38 64.479 59.1906 64.6482 59.0039 64.8227C58.8171 64.9973 58.6277 65.1637 58.4383 65.3329C58.2488 65.502 58.0431 65.6833 57.8442 65.8565L57.8266 65.8728L57.2989 66.3315L57.2718 66.3531L57.2461 66.3315L56.7198 65.8728L56.7008 65.8565C56.5014 65.6833 56.303 65.5083 56.1054 65.3315C55.9173 65.1637 55.7293 64.9932 55.5412 64.8227C55.3531 64.6522 55.165 64.479 54.981 64.3018C55.1772 64.4533 55.3707 64.613 55.5655 64.7686C55.7604 64.9242 55.9539 65.0852 56.146 65.2462C56.3616 65.4267 56.5763 65.6071 56.7901 65.7875C56.9511 65.9228 57.1108 66.0581 57.2718 66.1934C57.4315 66.0554 57.5916 65.9201 57.7522 65.7875C57.966 65.6048 58.1798 65.4249 58.3963 65.2462C58.5885 65.0866 58.782 64.9269 58.9755 64.7699C59.169 64.613 59.3679 64.4533 59.5641 64.3018Z" fill="#5D59FF"/>
<path d="M56.7968 65.8539L56.725 65.9148C56.61 66.0122 56.4923 66.1042 56.3719 66.1949C56.2257 66.3072 56.0769 66.4127 55.9267 66.5196C55.7765 66.6265 55.6249 66.7267 55.4693 66.8254C55.3137 66.9242 55.1581 67.0217 54.9971 67.111C55.1324 66.9892 55.2799 66.8755 55.426 66.7646C55.5722 66.6536 55.7224 66.5467 55.8712 66.4398C56.0201 66.3329 56.1743 66.2328 56.3299 66.1326C56.4531 66.0542 56.5775 65.9757 56.7061 65.9026L56.7954 65.8525L56.7968 65.8539Z" fill="#5D59FF"/>
<path d="M59.5531 67.1125C59.3921 67.0232 59.2351 66.9258 59.0809 66.827C58.9266 66.7282 58.7737 66.6254 58.6221 66.5212C58.4706 66.417 58.3231 66.3088 58.177 66.1965C58.0579 66.1058 57.9402 66.0138 57.8265 65.9177L57.7534 65.8555L57.8427 65.9055C57.9713 65.9786 58.0958 66.0571 58.2189 66.1356C58.3745 66.2357 58.5261 66.3385 58.6763 66.4427C58.8265 66.5469 58.9753 66.6552 59.1215 66.7675C59.2676 66.8798 59.4151 66.9948 59.5531 67.1125Z" fill="#5D59FF"/>
<path d="M66.2534 30.5H53.5V37.217H66.2534V30.5Z" fill="#5D59FF"/>
<path d="M45.5001 61.1777H66.2344V53.5H45.5001V61.1777Z" fill="#1E1E1E"/>
<path d="M52.3442 54.4731H46.6123V60.2051H52.3442V54.4731Z" fill="#5D59FF"/>
<path d="M51.5593 59.1425H47.4038V55.5337H51.5647L51.5593 59.1425ZM47.669 58.8719H51.2887V55.8043H47.6744L47.669 58.8719Z" fill="#FAFAFA"/>
<path d="M47.5337 59.0074L48.6622 57.9263L49.6866 59.0074H47.5337Z" fill="#FAFAFA"/>
<path d="M48.9834 59.0071L50.3244 57.313L51.4245 59.0071H48.9834Z" fill="#FAFAFA"/>
<path d="M49.0101 57.2131C49.0101 57.2934 48.9863 57.3718 48.9417 57.4386C48.8971 57.5054 48.8337 57.5574 48.7595 57.5881C48.6854 57.6188 48.6037 57.6269 48.525 57.6112C48.4462 57.5956 48.3739 57.5569 48.3171 57.5001C48.2604 57.4433 48.2217 57.371 48.206 57.2923C48.1904 57.2135 48.1984 57.1319 48.2291 57.0577C48.2599 56.9835 48.3119 56.9201 48.3787 56.8755C48.4454 56.8309 48.5239 56.8071 48.6042 56.8071C48.7119 56.8071 48.8151 56.8499 48.8912 56.926C48.9674 57.0022 49.0101 57.1054 49.0101 57.2131Z" fill="#FAFAFA"/>
<path d="M58.7324 54.4731H53.0005V60.2051H58.7324V54.4731Z" fill="#D1CFFF"/>
<path d="M57.9474 59.1425H53.7852V55.5337H57.9474V59.1425ZM54.0558 58.8719H57.6768V55.8043H54.0558V58.8719Z" fill="#FAFAFA"/>
<path d="M53.9204 59.0074L55.0503 57.9263L56.0733 59.0074H53.9204Z" fill="#FAFAFA"/>
<path d="M55.3711 59.0071L56.7121 57.313L57.8122 59.0071H55.3711Z" fill="#FAFAFA"/>
<path d="M55.3983 57.2131C55.3983 57.2934 55.3745 57.3718 55.3299 57.4386C55.2853 57.5054 55.2219 57.5574 55.1477 57.5881C55.0735 57.6188 54.9919 57.6269 54.9132 57.6112C54.8344 57.5956 54.7621 57.5569 54.7053 57.5001C54.6486 57.4433 54.6099 57.371 54.5942 57.2923C54.5786 57.2135 54.5866 57.1319 54.6173 57.0577C54.6481 56.9835 54.7001 56.9201 54.7668 56.8755C54.8336 56.8309 54.9121 56.8071 54.9924 56.8071C55.1 56.8071 55.2033 56.8499 55.2794 56.926C55.3555 57.0022 55.3983 57.1054 55.3983 57.2131Z" fill="#FAFAFA"/>
<path d="M65.1436 54.4731H59.4116V60.2051H65.1436V54.4731Z" fill="#5D59FF"/>
<path d="M64.3587 59.1425H60.1978V55.5337H64.3587V59.1425ZM60.4684 58.8719H64.0881V55.8043H60.4684V58.8719Z" fill="#FAFAFA"/>
<path d="M60.333 59.0074L61.4615 57.9263L62.4859 59.0074H60.333Z" fill="#FAFAFA"/>
<path d="M61.7827 59.0071L63.1237 57.313L64.2238 59.0071H61.7827Z" fill="#FAFAFA"/>
<path d="M61.8094 57.2131C61.8094 57.2934 61.7856 57.3718 61.741 57.4386C61.6964 57.5054 61.633 57.5574 61.5589 57.5881C61.4847 57.6188 61.4031 57.6269 61.3243 57.6112C61.2456 57.5956 61.1732 57.5569 61.1165 57.5001C61.0597 57.4433 61.021 57.371 61.0054 57.2923C60.9897 57.2135 60.9977 57.1319 61.0285 57.0577C61.0592 56.9835 61.1112 56.9201 61.178 56.8755C61.2447 56.8309 61.3232 56.8071 61.4035 56.8071C61.5112 56.8071 61.6144 56.8499 61.6906 56.926C61.7667 57.0022 61.8094 57.1054 61.8094 57.2131Z" fill="#FAFAFA"/>
<path d="M59.7503 38.3335H39.3335V52.0835H59.7503V38.3335Z" fill="#1E1E1E"/>
<path d="M48.2136 46.9482C47.9521 46.6857 47.7742 46.3516 47.7025 45.9881C47.6307 45.6246 47.6683 45.2479 47.8104 44.9058C47.9526 44.5636 48.1929 44.2712 48.5011 44.0655C48.8093 43.8598 49.1715 43.75 49.542 43.75C49.9125 43.75 50.2747 43.8598 50.5829 44.0655C50.8911 44.2712 51.1314 44.5636 51.2736 44.9058C51.4157 45.2479 51.4533 45.6246 51.3815 45.9881C51.3098 46.3516 51.1319 46.6857 50.8704 46.9482C50.6962 47.1231 50.4892 47.2619 50.2612 47.3566C50.0333 47.4513 49.7889 47.5 49.542 47.5C49.2951 47.5 49.0507 47.4513 48.8228 47.3566C48.5948 47.2619 48.3878 47.1231 48.2136 46.9482Z" fill="#353395"/>
<path d="M48.917 46.2502V44.5835L50.5837 45.4168L48.917 46.2502Z" fill="#FAFAFA"/>
</svg>
