<svg width="100" height="100" viewBox="0 0 100 100" fill="none" xmlns="http://www.w3.org/2000/svg">
<rect x="0.783871" y="0.783871" width="98.4323" height="98.4323" rx="3.13548" fill="#FAFAFA"/>
<rect x="0.783871" y="0.783871" width="98.4323" height="98.4323" rx="3.13548" stroke="#5D59FF" stroke-width="1.56774"/>
<g clip-path="url(#clip0_794_5296)">
<rect width="44.6429" height="29.0178" transform="translate(30.3574 33)" fill="#5D59FF"/>
<rect width="44.6429" height="4.46428" transform="translate(30.3574 33)" fill="#1E1E1E"/>
<ellipse cx="32.5895" cy="35.2321" rx="0.446429" ry="0.446428" fill="#D1CFFF"/>
<ellipse cx="34.3751" cy="35.2321" rx="0.446429" ry="0.446428" fill="#D1CFFF"/>
<ellipse cx="36.1608" cy="35.2321" rx="0.446429" ry="0.446428" fill="#D1CFFF"/>
</g>
<g clip-path="url(#clip1_794_5296)">
<rect width="44.6429" height="29.0178" transform="translate(25 38.3569)" fill="#D1CFFF"/>
<rect width="44.6429" height="4.46428" transform="translate(25 38.3569)" fill="#1E1E1E"/>
<ellipse cx="27.2321" cy="40.589" rx="0.446429" ry="0.446428" fill="#D1CFFF"/>
<ellipse cx="29.0177" cy="40.589" rx="0.446429" ry="0.446428" fill="#D1CFFF"/>
<ellipse cx="30.8034" cy="40.589" rx="0.446429" ry="0.446428" fill="#D1CFFF"/>
<g clip-path="url(#clip2_794_5296)">
<rect width="17.8571" height="17.8571" transform="translate(26.7856 44.6069)" fill="#FAFAFA"/>
<rect width="17.8571" height="17.8571" transform="translate(26.7856 44.6069)" fill="#FAFAFA"/>
<path fill-rule="evenodd" clip-rule="evenodd" d="M37.9707 51.9099C38.3922 51.9099 38.734 51.5493 38.734 51.1044C38.734 50.6595 38.3922 50.2988 37.9707 50.2988C37.5492 50.2988 37.2075 50.6595 37.2075 51.1044C37.2075 51.5493 37.5492 51.9099 37.9707 51.9099ZM35.8583 56.788H31.466C31.2091 56.788 31.0524 56.4924 31.1882 56.2644L34.1174 51.3428C34.2434 51.131 34.5357 51.1255 34.6669 51.3338C35.1251 52.0607 36.0647 53.5544 36.873 54.8562L37.7215 53.4221C37.8447 53.2139 38.1309 53.2044 38.2665 53.404L40.2014 56.252C40.3546 56.4777 40.2032 56.7904 39.9388 56.7928L38.0637 56.8123L35.8583 56.788Z" fill="#5D59FF"/>
</g>
<line x1="46.4287" y1="45.0536" x2="58.4823" y2="45.0536" stroke="#353395" stroke-width="0.892856"/>
<line x1="46.4287" y1="47.955" x2="67.8573" y2="47.955" stroke="#1E1E1E" stroke-width="0.446428"/>
<line x1="46.4287" y1="49.7407" x2="58.0359" y2="49.7407" stroke="#1E1E1E" stroke-width="0.446428"/>
<line x1="58.9287" y1="49.7407" x2="67.8573" y2="49.7407" stroke="#1E1E1E" stroke-width="0.446428"/>
<line x1="65.1787" y1="51.5268" x2="67.8573" y2="51.5268" stroke="#1E1E1E" stroke-width="0.446428"/>
<line x1="46.4287" y1="53.3124" x2="53.1251" y2="53.3124" stroke="#1E1E1E" stroke-width="0.446428"/>
<line x1="54.0181" y1="53.3124" x2="67.8574" y2="53.3124" stroke="#1E1E1E" stroke-width="0.446428"/>
<line x1="46.4287" y1="55.0981" x2="67.8573" y2="55.0981" stroke="#1E1E1E" stroke-width="0.446428"/>
<line x1="46.4287" y1="56.8837" x2="56.6966" y2="56.8837" stroke="#1E1E1E" stroke-width="0.446428"/>
<line x1="57.5894" y1="56.8837" x2="67.8572" y2="56.8837" stroke="#1E1E1E" stroke-width="0.446428"/>
<line x1="46.4287" y1="51.5268" x2="63.393" y2="51.5268" stroke="#1E1E1E" stroke-width="0.446428"/>
<rect width="21.4286" height="3.125" transform="translate(46.4287 59.3389)" fill="#A17CFC"/>
</g>
<defs>
<clipPath id="clip0_794_5296">
<rect width="44.6429" height="29.0178" fill="white" transform="translate(30.3574 33)"/>
</clipPath>
<clipPath id="clip1_794_5296">
<rect width="44.6429" height="29.0178" fill="white" transform="translate(25 38.3569)"/>
</clipPath>
<clipPath id="clip2_794_5296">
<rect width="17.8571" height="17.8571" fill="white" transform="translate(26.7856 44.6069)"/>
</clipPath>
</defs>
</svg>
